<?xml version="1.0" standalone="no"?>
<!DOCTYPE svg PUBLIC "-//W3C//DTD SVG 20010904//EN"
 "http://www.w3.org/TR/2001/REC-SVG-20010904/DTD/svg10.dtd">
<svg version="1.0" xmlns="http://www.w3.org/2000/svg"
 width="300.000000pt" height="217.000000pt" viewBox="0 0 300.000000 217.000000"
 preserveAspectRatio="xMidYMid meet">
<metadata>
Created by potrace 1.10, written by Peter Selinger 2001-2011
</metadata>
<g transform="translate(0.000000,217.000000) scale(0.100000,-0.100000)"
fill="#ffffff" stroke="none">
<path d="M1583 2153 c20 -2 54 -2 75 0 20 2 3 4 -38 4 -41 0 -58 -2 -37 -4z"/>
<path d="M1423 2143 c9 -2 25 -2 35 0 9 3 1 5 -18 5 -19 0 -27 -2 -17 -5z"/>
<path d="M1348 2133 c6 -2 18 -2 25 0 6 3 1 5 -13 5 -14 0 -19 -2 -12 -5z"/>
<path d="M1298 2123 c7 -3 16 -2 19 1 4 3 -2 6 -13 5 -11 0 -14 -3 -6 -6z"/>
<path d="M1230 2110 c-11 -8 -7 -9 15 -4 37 8 45 14 19 14 -10 0 -26 -5 -34
-10z"/>
<path d="M1183 2093 c4 -3 10 -3 14 0 3 4 0 7 -7 7 -7 0 -10 -3 -7 -7z"/>
<path d="M1153 2083 c4 -3 10 -3 14 0 3 4 0 7 -7 7 -7 0 -10 -3 -7 -7z"/>
<path d="M1004 2021 c-387 -192 -540 -427 -573 -881 -7 -85 -14 -183 -17 -218
l-6 -63 -113 -54 c-114 -53 -285 -157 -285 -173 0 -17 25 -32 54 -32 16 0 109
16 205 35 474 93 804 130 1071 122 233 -8 336 -23 679 -98 63 -13 90 -39 116
-106 19 -51 42 -75 62 -68 7 2 15 0 19 -6 3 -6 17 -14 30 -19 28 -11 27 -35
-7 -129 -35 -94 -35 -95 10 -143 26 -27 41 -37 41 -27 0 8 -11 26 -25 39 -14
13 -25 31 -25 40 0 15 87 161 110 184 7 7 20 3 40 -12 16 -12 35 -22 42 -22 8
0 9 -3 3 -8 -6 -4 -34 -54 -64 -112 -62 -121 -47 -115 33 14 39 62 54 95 50
109 -7 23 1 19 59 -26 21 -16 40 -27 43 -25 2 3 -45 45 -106 93 -83 67 -110
95 -110 112 0 13 5 23 11 23 6 0 120 -34 252 -76 265 -82 342 -97 370 -69 26
26 20 42 -23 67 l-41 23 7 215 c10 329 -13 570 -68 718 -15 40 -24 52 -35 47
-13 -4 -14 -3 -3 10 9 11 9 15 1 15 -12 0 -47 68 -43 83 2 5 -2 6 -8 2 -5 -3
-10 0 -10 7 0 19 -79 134 -129 188 -33 36 -29 29 18 -35 125 -168 178 -320
188 -532 8 -170 26 -176 37 -13 2 30 2 6 1 -55 -1 -91 -5 -117 -23 -152 -12
-23 -22 -49 -22 -56 0 -17 -26 -21 -141 -19 -108 1 -231 21 -458 73 -422 96
-535 107 -871 84 -418 -29 -509 -30 -573 -10 -31 10 -64 26 -73 36 -16 18 -19
18 -35 3 -16 -14 -20 -14 -51 2 -18 9 -38 24 -44 32 -9 13 -12 11 -16 -11 -3
-14 -2 -26 1 -25 22 2 27 -7 25 -48 -1 -25 -5 -48 -8 -51 -3 -4 -6 -2 -6 3 0
6 -6 19 -14 30 -10 13 -14 14 -13 4 2 -8 6 -20 10 -26 4 -7 0 -17 -8 -24 -20
-17 -19 -33 3 -26 15 5 17 -1 15 -62 -2 -58 0 -65 12 -49 17 24 30 5 15 -23
-19 -36 35 -49 232 -57 203 -8 200 -9 -107 -59 -121 -19 -298 -51 -394 -70
-192 -38 -192 -38 -171 -25 8 6 37 13 65 16 66 8 90 16 77 24 -5 3 16 7 48 8
61 1 105 17 95 34 -4 5 -1 10 4 10 6 1 16 2 21 3 6 0 14 6 18 13 6 10 16 10
45 1 25 -8 33 -14 25 -20 -17 -10 38 -9 72 2 l25 8 -32 13 c-24 10 -31 18 -27
31 4 14 -3 17 -47 20 l-51 3 1 210 c3 340 24 473 101 630 76 154 204 265 433
376 67 32 117 59 111 59 -6 0 -65 -26 -130 -59z m1826 -551 c0 -5 -5 -10 -11
-10 -5 0 -7 5 -4 10 3 6 8 10 11 10 2 0 4 -4 4 -10z m19 -65 c0 -5 -4 -3 -9 5
-5 8 -9 22 -9 30 0 16 17 -16 18 -35z m8 -47 c-3 -8 -6 -5 -6 6 -1 11 2 17 5
13 3 -3 4 -12 1 -19z m-1067 -307 c54 -11 85 -23 85 -31 0 -14 -124 -16 -257
-4 -37 4 -78 4 -93 0 -26 -7 -26 -7 -23 -99 l3 -92 40 -3 c143 -9 503 -67 491
-79 -2 -2 -53 5 -112 16 -234 44 -345 55 -554 56 -119 0 -180 3 -145 6 33 4
103 7 156 8 l96 1 6 83 c4 45 4 91 1 102 -4 17 3 22 58 36 85 21 147 22 248 0z
m1007 -128 c-4 -3 -10 -3 -14 0 -3 4 0 7 7 7 7 0 10 -3 7 -7z m0 -20 c-4 -3
-10 -3 -14 0 -3 4 0 7 7 7 7 0 10 -3 7 -7z m-1649 -100 c-10 -2 -26 -2 -35 0
-10 3 -2 5 17 5 19 0 27 -2 18 -5z m-101 -9 c-3 -3 -12 -4 -19 -1 -8 3 -5 6 6
6 11 1 17 -2 13 -5z m1740 -26 c-3 -7 -5 -2 -5 12 0 14 2 19 5 13 2 -7 2 -19
0 -25z m-2222 12 c3 -5 1 -10 -4 -10 -6 0 -11 5 -11 10 0 6 2 10 4 10 3 0 8
-4 11 -10z m42 -36 c-3 -3 -12 -4 -19 -1 -8 3 -5 6 6 6 11 1 17 -2 13 -5z
m1539 -25 c46 -12 83 -24 81 -26 -5 -4 -169 36 -176 43 -8 7 8 4 95 -17z
m-1802 -5 c9 -3 14 -10 11 -15 -7 -10 -35 0 -35 12 0 11 3 11 24 3z m50 -6
c-3 -4 -9 -8 -15 -8 -5 0 -9 4 -9 8 0 5 7 9 15 9 8 0 12 -4 9 -9z m2403 -40
c-3 -7 -5 -2 -5 12 0 14 2 19 5 13 2 -7 2 -19 0 -25z m-530 16 c-3 -3 -12 -4
-19 -1 -8 3 -5 6 6 6 11 1 17 -2 13 -5z m30 -11 c-4 -3 -10 -3 -14 0 -3 4 0 7
7 7 7 0 10 -3 7 -7z m40 -9 c-3 -3 -12 -4 -19 -1 -8 3 -5 6 6 6 11 1 17 -2 13
-5z m30 -11 c-4 -3 -10 -3 -14 0 -3 4 0 7 7 7 7 0 10 -3 7 -7z m80 -20 c-4 -3
-10 -3 -14 0 -3 4 0 7 7 7 7 0 10 -3 7 -7z m70 -20 c-4 -3 -10 -3 -14 0 -3 4
0 7 7 7 7 0 10 -3 7 -7z m40 -9 c-3 -3 -12 -4 -19 -1 -8 3 -5 6 6 6 11 1 17
-2 13 -5z m204 -34 c6 0 8 -4 5 -9 -4 -5 0 -11 6 -14 7 -2 10 -7 7 -11 -3 -3
-38 4 -77 16 -40 11 -70 23 -68 26 3 2 26 -3 52 -12 26 -9 49 -16 51 -16 2 0
4 12 4 28 1 16 3 20 6 10 2 -10 9 -18 14 -18z m-144 13 c-4 -3 -10 -3 -14 0
-3 4 0 7 7 7 7 0 10 -3 7 -7z m-232 -113 c17 -19 17 -19 -9 -7 -14 7 -26 15
-26 20 0 13 17 7 35 -13z"/>
<path d="M1595 2070 c3 -5 -9 -7 -27 -4 -18 3 -58 1 -88 -4 l-55 -10 85 0 c72
0 157 12 125 18 -5 1 -18 3 -28 5 -9 2 -15 -1 -12 -5z"/>
<path d="M1670 2071 c0 -7 34 -12 108 -13 176 -3 186 -4 222 -15 19 -6 58 -14
85 -18 l50 -6 -30 16 c-16 9 -50 18 -75 20 -25 2 -45 5 -45 5 0 6 -61 11 -177
17 -101 4 -138 3 -138 -6z m367 -28 c-4 -3 -10 -3 -14 0 -3 4 0 7 7 7 7 0 10
-3 7 -7z"/>
<path d="M1335 2030 c-7 -12 22 -12 50 0 17 7 15 9 -12 9 -17 1 -35 -3 -38 -9z"/>
<path d="M1190 1993 c-117 -45 -240 -108 -240 -122 0 -12 3 -12 18 0 19 17
100 56 182 89 30 12 63 26 72 31 10 5 35 12 55 15 49 8 55 14 12 13 -19 0 -63
-12 -99 -26z"/>
<path d="M2161 2011 c9 -6 26 -12 37 -14 11 -2 27 -9 35 -16 9 -7 26 -11 39
-9 20 3 18 6 -17 22 -47 21 -120 34 -94 17z"/>
<path d="M2417 1896 c-6 -15 45 -70 56 -61 4 3 5 2 2 -2 -3 -3 2 -15 12 -25 9
-10 12 -18 6 -18 -6 0 -13 -27 -16 -61 -3 -35 -16 -82 -31 -112 -37 -75 -111
-164 -141 -169 -14 -3 -25 -1 -25 4 0 6 -6 8 -14 5 -8 -3 -20 1 -26 8 -7 8
-22 14 -34 14 -11 -1 -36 4 -53 9 -20 6 -35 7 -38 1 -4 -5 -16 -9 -28 -8 -20
0 -21 1 -3 8 27 11 5 23 -45 25 -32 2 -39 -1 -39 -16 0 -16 -2 -17 -14 -6 -8
7 -12 16 -9 21 3 6 -36 10 -63 6 -4 0 -10 4 -14 10 -9 16 -42 2 -36 -15 4 -10
-4 -14 -30 -14 -29 0 -35 3 -30 16 3 8 2 13 -3 10 -4 -3 -18 4 -29 15 -12 11
-22 15 -22 10 0 -16 -41 -35 -77 -36 -18 -1 -30 1 -28 5 2 4 -2 16 -10 26 -9
12 -14 14 -15 6 0 -7 -4 -10 -10 -7 -5 3 -10 -1 -10 -10 0 -9 -6 -15 -12 -13
-25 4 -88 -13 -88 -25 0 -7 -18 -18 -40 -25 -48 -15 -63 -15 -55 -2 8 13 -7
13 -40 0 -17 -7 -25 -16 -22 -24 5 -12 1 -13 -28 -1 -31 14 -34 13 -60 -12
-15 -16 -29 -23 -33 -17 -9 13 -65 17 -57 5 7 -13 -74 31 -155 84 -178 115
-240 158 -240 168 0 6 8 19 17 29 15 17 15 20 1 34 -14 14 -19 11 -53 -28 -34
-39 -91 -145 -82 -154 2 -2 18 17 35 42 l32 45 43 -31 c23 -16 65 -48 92 -70
28 -22 65 -50 82 -62 39 -28 41 -33 8 -34 -14 -1 -37 -5 -51 -8 -17 -5 -23 -3
-19 4 3 5 1 10 -4 10 -6 0 -11 -7 -11 -15 0 -18 -11 -19 -29 -2 -11 10 -12 9
-6 -2 6 -11 4 -13 -9 -8 -9 4 -15 3 -12 -2 3 -4 -8 -22 -25 -39 -17 -17 -28
-36 -24 -42 7 -11 -5 -13 -29 -4 -15 6 -15 8 1 21 17 13 17 14 -2 11 -14 -2
-21 -12 -23 -32 -2 -18 -11 -30 -23 -33 -22 -6 -24 -14 -8 -30 8 -8 8 -13 0
-17 -6 -4 -11 0 -11 8 0 9 -4 16 -10 16 -14 0 -12 -11 5 -34 15 -20 15 -20 30
0 14 19 14 18 15 -3 0 -14 -6 -23 -16 -23 -30 0 28 -58 90 -90 56 -28 66 -30
170 -30 61 0 153 5 205 10 296 31 552 30 751 -5 52 -9 187 -38 300 -65 113
-27 240 -54 283 -60 124 -18 217 -7 217 28 0 8 6 12 15 9 8 -4 17 -2 20 4 4 5
1 8 -7 7 -7 -2 -12 5 -12 15 1 9 -2 17 -7 17 -5 0 -9 22 -9 49 0 28 -4 53 -10
56 -5 3 -10 21 -10 38 0 18 -6 44 -14 59 -8 14 -19 42 -25 61 -7 19 -21 43
-31 52 -11 10 -20 25 -20 33 0 8 -6 12 -15 8 -10 -4 -15 1 -15 15 0 11 -4 18
-9 15 -5 -4 -11 -1 -13 5 -4 11 -23 16 -71 18 -31 2 -30 28 3 97 26 53 33 78
33 130 0 35 3 64 7 64 16 0 102 -104 135 -165 19 -34 44 -89 56 -121 23 -68
49 -225 49 -301 0 -96 28 -53 46 72 10 65 8 129 -6 190 -14 63 -65 183 -91
215 l-20 25 15 -32 c29 -58 17 -48 -31 28 -56 88 -98 133 -114 123 -7 -4 -9
-3 -6 3 7 10 -36 53 -90 90 -24 17 -32 19 -36 9z m48 -36 c3 -5 4 -10 1 -10
-3 0 -8 5 -11 10 -3 6 -4 10 -1 10 3 0 8 -4 11 -10z m263 -295 c-3 -3 -9 2
-12 12 -6 14 -5 15 5 6 7 -7 10 -15 7 -18z m22 -50 c0 -5 -5 -3 -10 5 -5 8
-10 20 -10 25 0 6 5 3 10 -5 5 -8 10 -19 10 -25z m-993 3 c-3 -8 -6 -5 -6 6
-1 11 2 17 5 13 3 -3 4 -12 1 -19z m30 -15 c-4 -3 -7 0 -7 7 0 7 3 10 7 7 3
-4 3 -10 0 -14z m-180 1 c-3 -3 -12 -4 -19 -1 -8 3 -5 6 6 6 11 1 17 -2 13 -5z
m-77 -8 c0 -3 -5 -8 -12 -12 -7 -4 -8 -3 -4 4 7 12 16 16 16 8z m1227 -23 c-4
-3 -7 0 -7 7 0 7 3 10 7 7 3 -4 3 -10 0 -14z m10 -30 c-4 -3 -7 0 -7 7 0 7 3
10 7 7 3 -4 3 -10 0 -14z m-2062 -163 c3 -5 4 -10 1 -10 -3 0 -8 5 -11 10 -3
6 -4 10 -1 10 3 0 8 -4 11 -10z"/>
<path d="M905 1860 c-4 -6 -23 -21 -43 -34 -66 -42 -81 -60 -70 -80 9 -16 17
-12 69 43 33 34 64 61 70 61 5 0 7 5 4 10 -8 13 -22 13 -30 0z"/>
<path d="M799 1843 c-13 -16 -12 -17 4 -4 9 7 17 15 17 17 0 8 -8 3 -21 -13z"/>
<path d="M711 1760 c-63 -74 -108 -135 -124 -167 -33 -64 -74 -233 -51 -210 4
4 21 49 39 100 36 107 80 191 134 257 21 25 41 51 45 58 15 26 -2 10 -43 -38z"/>
<path d="M1667 1703 c-14 -13 -7 -43 12 -53 15 -7 23 -6 35 6 12 12 13 20 6
35 -10 19 -40 26 -53 12z"/>
<path d="M1545 1629 c-14 -42 44 -63 59 -22 4 9 1 22 -5 29 -17 21 -47 17 -54
-7z"/>
<path d="M1782 1638 c-19 -19 -14 -46 9 -53 30 -10 58 19 43 43 -14 22 -36 26
-52 10z"/>
<path d="M1403 1493 c4 -3 10 -3 14 0 3 4 0 7 -7 7 -7 0 -10 -3 -7 -7z"/>
<path d="M840 1440 c0 -7 3 -10 7 -7 3 4 3 10 0 14 -4 3 -7 0 -7 -7z"/>
<path d="M574 1245 c-4 -9 -4 -19 0 -22 3 -4 6 -1 6 5 0 7 4 12 9 12 4 0 6
-12 3 -26 -3 -19 -1 -25 6 -20 7 4 10 2 6 -7 -7 -18 21 -41 42 -33 13 5 10 13
-18 52 -39 55 -46 60 -54 39z"/>
<path d="M730 760 c-11 -7 -6 -10 20 -10 26 0 31 3 20 10 -8 5 -17 10 -20 10
-3 0 -12 -5 -20 -10z"/>
<path d="M2485 350 c-3 -5 3 -10 15 -10 12 0 18 5 15 10 -3 6 -10 10 -15 10
-5 0 -12 -4 -15 -10z"/>
<path d="M2567 313 c-12 -11 -8 -31 7 -35 12 -2 12 -7 2 -26 l-12 -22 -22 20
c-12 12 -22 17 -22 12 0 -5 10 -16 22 -24 l22 -15 -41 -69 c-70 -117 -62 -112
-118 -70 -26 20 -50 34 -53 31 -8 -7 27 -43 49 -50 10 -3 17 -11 15 -18 -1 -7
-1 -9 1 -5 3 5 15 5 28 2 20 -5 29 4 67 63 90 138 101 163 89 189 -11 24 -22
30 -34 17z"/>
<path d="M2624 308 c-4 -7 -3 -8 4 -4 7 4 12 9 12 12 0 8 -9 4 -16 -8z"/>
<path d="M2465 290 c-3 -5 -2 -10 4 -10 5 0 13 5 16 10 3 6 2 10 -4 10 -5 0
-13 -4 -16 -10z"/>
<path d="M2497 283 c-4 -3 -7 -11 -7 -17 0 -6 5 -5 12 2 6 6 9 14 7 17 -3 3
-9 2 -12 -2z"/>
<path d="M2420 220 c0 -5 5 -10 10 -10 6 0 10 5 10 10 0 6 -4 10 -10 10 -5 0
-10 -4 -10 -10z"/>
<path d="M2457 213 c-4 -3 -7 -11 -7 -17 0 -6 5 -5 12 2 6 6 9 14 7 17 -3 3
-9 2 -12 -2z"/>
<path d="M2474 188 c-4 -7 -3 -8 4 -4 7 4 12 9 12 12 0 8 -9 4 -16 -8z"/>
<path d="M2383 153 c4 -3 10 -3 14 0 3 4 0 7 -7 7 -7 0 -10 -3 -7 -7z"/>
</g>
</svg>
