<?xml version="1.0" encoding="UTF-8" standalone="no"?><!DOCTYPE svg PUBLIC "-//W3C//DTD SVG 1.1//EN" "http://www.w3.org/Graphics/SVG/1.1/DTD/svg11.dtd"><svg width="100%" height="100%" viewBox="0 0 300 217" version="1.1" xmlns="http://www.w3.org/2000/svg" xmlns:xlink="http://www.w3.org/1999/xlink" xml:space="preserve" style="fill-rule:evenodd;clip-rule:evenodd;stroke-linejoin:round;stroke-miterlimit:1.41421;"><g><path d="M12.555,0.032c0.147,0.015 0.397,0.015 0.551,0c0.147,-0.016 0.022,-0.032 -0.279,-0.032c-0.301,0 -0.426,0.016 -0.272,0.032Z" style="fill:#fff;fill-rule:nonzero;"/><path d="M11.38,0.111c0.066,0.015 0.183,0.015 0.257,0c0.066,-0.024 0.007,-0.04 -0.132,-0.04c-0.14,0 -0.199,0.016 -0.125,0.04Z" style="fill:#fff;fill-rule:nonzero;"/><path d="M10.829,0.19c0.044,0.015 0.132,0.015 0.184,0c0.044,-0.024 0.007,-0.04 -0.096,-0.04c-0.103,0 -0.14,0.016 -0.088,0.04Z" style="fill:#fff;fill-rule:nonzero;"/><path d="M10.462,0.269c0.051,0.023 0.117,0.015 0.139,-0.008c0.03,-0.024 -0.015,-0.048 -0.095,-0.04c-0.081,0 -0.103,0.024 -0.044,0.048Z" style="fill:#fff;fill-rule:nonzero;"/><path d="M9.962,0.371c-0.081,0.064 -0.051,0.071 0.11,0.032c0.272,-0.063 0.331,-0.111 0.14,-0.111c-0.074,0 -0.191,0.04 -0.25,0.079Z" style="fill:#fff;fill-rule:nonzero;"/><path d="M9.617,0.506c0.029,0.023 0.073,0.023 0.103,0c0.022,-0.032 0,-0.056 -0.052,-0.056c-0.051,0 -0.073,0.024 -0.051,0.056Z" style="fill:#fff;fill-rule:nonzero;"/><path d="M9.396,0.585c0.03,0.023 0.074,0.023 0.103,0c0.022,-0.032 0,-0.056 -0.051,-0.056c-0.052,0 -0.074,0.024 -0.052,0.056Z" style="fill:#fff;fill-rule:nonzero;"/><path d="M8.302,1.075c-2.843,1.517 -3.967,3.374 -4.209,6.961c-0.052,0.672 -0.103,1.446 -0.125,1.723l-0.044,0.497l-0.83,0.427c-0.838,0.419 -2.094,1.241 -2.094,1.367c0,0.134 0.184,0.253 0.397,0.253c0.117,0 0.8,-0.127 1.506,-0.277c3.482,-0.735 5.906,-1.027 7.867,-0.964c1.712,0.064 2.468,0.182 4.988,0.775c0.463,0.102 0.661,0.308 0.852,0.837c0.14,0.403 0.309,0.593 0.456,0.538c0.051,-0.016 0.11,0 0.139,0.047c0.022,0.047 0.125,0.111 0.221,0.15c0.205,0.087 0.198,0.277 -0.052,1.019c-0.257,0.743 -0.257,0.751 0.074,1.13c0.191,0.214 0.301,0.293 0.301,0.214c0,-0.064 -0.081,-0.206 -0.184,-0.308c-0.103,-0.103 -0.184,-0.245 -0.184,-0.317c0,-0.118 0.64,-1.272 0.809,-1.453c0.051,-0.056 0.146,-0.024 0.293,0.094c0.118,0.095 0.257,0.174 0.309,0.174c0.059,0 0.066,0.024 0.022,0.063c-0.044,0.032 -0.25,0.427 -0.47,0.885c-0.456,0.957 -0.345,0.909 0.242,-0.11c0.287,-0.49 0.397,-0.751 0.368,-0.861c-0.052,-0.182 0.007,-0.151 0.433,0.205c0.154,0.126 0.294,0.213 0.316,0.197c0.015,-0.023 -0.331,-0.355 -0.779,-0.734c-0.61,-0.53 -0.808,-0.751 -0.808,-0.885c0,-0.103 0.037,-0.182 0.081,-0.182c0.044,0 0.881,0.269 1.851,0.6c1.947,0.648 2.512,0.767 2.718,0.546c0.191,-0.206 0.147,-0.332 -0.169,-0.53l-0.301,-0.181l0.051,-1.699c0.074,-2.6 -0.095,-4.504 -0.499,-5.674c-0.11,-0.316 -0.176,-0.411 -0.257,-0.371c-0.096,0.032 -0.103,0.024 -0.022,-0.079c0.066,-0.087 0.066,-0.119 0.007,-0.119c-0.088,0 -0.345,-0.537 -0.316,-0.655c0.015,-0.04 -0.015,-0.048 -0.059,-0.016c-0.036,0.023 -0.073,0 -0.073,-0.056c0,-0.15 -0.58,-1.058 -0.948,-1.485c-0.242,-0.285 -0.213,-0.229 0.133,0.276c0.918,1.328 1.307,2.529 1.381,4.204c0.058,1.343 0.191,1.391 0.271,0.103c0.015,-0.237 0.015,-0.048 0.008,0.434c-0.008,0.719 -0.037,0.925 -0.169,1.201c-0.088,0.182 -0.162,0.388 -0.162,0.443c0,0.134 -0.191,0.166 -1.036,0.15c-0.793,-0.008 -1.697,-0.166 -3.364,-0.577c-3.1,-0.758 -3.93,-0.845 -6.398,-0.663c-3.071,0.229 -3.74,0.237 -4.21,0.079c-0.227,-0.079 -0.47,-0.206 -0.536,-0.285c-0.117,-0.142 -0.139,-0.142 -0.257,-0.024c-0.118,0.111 -0.147,0.111 -0.375,-0.015c-0.132,-0.072 -0.279,-0.19 -0.323,-0.253c-0.066,-0.103 -0.088,-0.087 -0.117,0.087c-0.022,0.11 -0.015,0.205 0.007,0.197c0.162,-0.016 0.198,0.056 0.184,0.379c-0.008,0.198 -0.037,0.38 -0.059,0.403c-0.022,0.032 -0.044,0.016 -0.044,-0.023c0,-0.048 -0.044,-0.15 -0.103,-0.237c-0.074,-0.103 -0.103,-0.111 -0.096,-0.032c0.015,0.063 0.044,0.158 0.074,0.206c0.029,0.055 0,0.134 -0.059,0.189c-0.147,0.135 -0.139,0.261 0.022,0.206c0.11,-0.04 0.125,0.008 0.11,0.49c-0.014,0.458 0,0.513 0.088,0.387c0.125,-0.19 0.221,-0.04 0.111,0.181c-0.14,0.285 0.257,0.388 1.704,0.451c1.491,0.063 1.469,0.071 -0.786,0.466c-0.889,0.15 -2.189,0.403 -2.894,0.553c-1.411,0.3 -1.411,0.3 -1.257,0.198c0.059,-0.048 0.272,-0.103 0.478,-0.127c0.485,-0.063 0.661,-0.126 0.566,-0.189c-0.037,-0.024 0.117,-0.056 0.352,-0.064c0.448,-0.007 0.771,-0.134 0.698,-0.268c-0.029,-0.04 -0.007,-0.079 0.029,-0.079c0.044,-0.008 0.118,-0.016 0.155,-0.024c0.044,0 0.103,-0.047 0.132,-0.103c0.044,-0.079 0.117,-0.079 0.33,-0.008c0.184,0.064 0.243,0.111 0.184,0.158c-0.125,0.079 0.279,0.072 0.529,-0.015l0.184,-0.064l-0.235,-0.102c-0.177,-0.079 -0.228,-0.143 -0.199,-0.245c0.03,-0.111 -0.022,-0.135 -0.345,-0.158l-0.375,-0.024l0.008,-1.659c0.022,-2.687 0.176,-3.738 0.742,-4.978c0.558,-1.217 1.498,-2.094 3.18,-2.971c0.493,-0.253 0.86,-0.467 0.816,-0.467c-0.044,0 -0.478,0.206 -0.955,0.467Zm13.414,4.353c0,0.04 -0.037,0.079 -0.081,0.079c-0.037,0 -0.052,-0.039 -0.03,-0.079c0.022,-0.047 0.059,-0.079 0.081,-0.079c0.015,0 0.03,0.032 0.03,0.079Zm0.139,0.514c0,0.04 -0.029,0.024 -0.066,-0.039c-0.037,-0.064 -0.066,-0.174 -0.066,-0.238c0,-0.126 0.125,0.127 0.132,0.277Zm0.059,0.371c-0.022,0.064 -0.044,0.04 -0.044,-0.047c-0.007,-0.087 0.015,-0.134 0.037,-0.103c0.022,0.024 0.029,0.095 0.007,0.15Zm-7.838,2.426c0.396,0.087 0.624,0.182 0.624,0.245c0,0.111 -0.911,0.127 -1.888,0.032c-0.271,-0.032 -0.573,-0.032 -0.683,0c-0.191,0.055 -0.191,0.055 -0.169,0.782l0.022,0.727l0.294,0.024c1.051,0.071 3.695,0.529 3.607,0.624c-0.015,0.016 -0.389,-0.04 -0.823,-0.126c-1.719,-0.348 -2.534,-0.435 -4.069,-0.443c-0.875,0 -1.323,-0.024 -1.066,-0.047c0.243,-0.032 0.757,-0.056 1.146,-0.064l0.706,-0.008l0.044,-0.655c0.029,-0.356 0.029,-0.719 0.007,-0.806c-0.029,-0.135 0.022,-0.174 0.426,-0.285c0.624,-0.166 1.08,-0.174 1.822,0Zm7.397,1.012c-0.029,0.023 -0.073,0.023 -0.103,0c-0.022,-0.032 0,-0.056 0.052,-0.056c0.051,0 0.073,0.024 0.051,0.056Zm0,0.158c-0.029,0.023 -0.073,0.023 -0.103,0c-0.022,-0.032 0,-0.056 0.052,-0.056c0.051,0 0.073,0.024 0.051,0.056Zm-12.113,0.79c-0.074,0.016 -0.191,0.016 -0.257,0c-0.074,-0.024 -0.015,-0.04 0.124,-0.04c0.14,0 0.199,0.016 0.133,0.04Zm-0.742,0.071c-0.022,0.024 -0.088,0.032 -0.14,0.008c-0.059,-0.024 -0.037,-0.048 0.044,-0.048c0.081,-0.007 0.125,0.016 0.096,0.04Zm12.782,0.205c-0.022,0.056 -0.037,0.016 -0.037,-0.094c0,-0.111 0.015,-0.151 0.037,-0.103c0.014,0.055 0.014,0.15 0,0.197Zm-16.323,-0.094c0.022,0.039 0.007,0.079 -0.029,0.079c-0.044,0 -0.081,-0.04 -0.081,-0.079c0,-0.048 0.015,-0.079 0.029,-0.079c0.022,0 0.059,0.031 0.081,0.079Zm0.309,0.284c-0.022,0.024 -0.089,0.032 -0.14,0.008c-0.059,-0.024 -0.037,-0.047 0.044,-0.047c0.081,-0.008 0.125,0.015 0.096,0.039Zm11.305,0.198c0.338,0.094 0.61,0.189 0.595,0.205c-0.037,0.032 -1.241,-0.284 -1.293,-0.34c-0.059,-0.055 0.059,-0.031 0.698,0.135Zm-13.237,0.039c0.066,0.024 0.102,0.079 0.08,0.119c-0.051,0.079 -0.257,0 -0.257,-0.095c0,-0.087 0.022,-0.087 0.177,-0.024Zm0.367,0.047c-0.022,0.032 -0.066,0.064 -0.11,0.064c-0.037,0 -0.066,-0.032 -0.066,-0.064c0,-0.039 0.051,-0.071 0.11,-0.071c0.059,0 0.088,0.032 0.066,0.071Zm17.652,0.317c-0.022,0.055 -0.037,0.015 -0.037,-0.095c0,-0.111 0.015,-0.15 0.037,-0.103c0.015,0.055 0.015,0.15 0,0.198Zm-3.893,-0.127c-0.022,0.024 -0.088,0.032 -0.14,0.008c-0.059,-0.024 -0.036,-0.047 0.044,-0.047c0.081,-0.008 0.125,0.015 0.096,0.039Zm0.22,0.087c-0.029,0.024 -0.073,0.024 -0.103,0c-0.022,-0.032 0,-0.055 0.052,-0.055c0.051,0 0.073,0.023 0.051,0.055Zm0.294,0.071c-0.022,0.024 -0.088,0.032 -0.14,0.008c-0.058,-0.024 -0.036,-0.047 0.045,-0.047c0.08,-0.008 0.124,0.015 0.095,0.039Zm0.22,0.087c-0.029,0.024 -0.073,0.024 -0.102,0c-0.022,-0.032 0,-0.055 0.051,-0.055c0.051,0 0.073,0.023 0.051,0.055Zm0.588,0.158c-0.029,0.024 -0.073,0.024 -0.103,0c-0.022,-0.031 0,-0.055 0.052,-0.055c0.051,0 0.073,0.024 0.051,0.055Zm0.514,0.158c-0.029,0.024 -0.073,0.024 -0.103,0c-0.022,-0.031 0,-0.055 0.052,-0.055c0.051,0 0.073,0.024 0.051,0.055Zm0.294,0.071c-0.022,0.024 -0.088,0.032 -0.139,0.008c-0.059,-0.024 -0.037,-0.047 0.044,-0.047c0.08,-0.008 0.125,0.016 0.095,0.039Zm1.499,0.269c0.044,0 0.059,0.032 0.036,0.071c-0.029,0.04 0,0.087 0.045,0.111c0.051,0.015 0.073,0.055 0.051,0.087c-0.022,0.023 -0.279,-0.032 -0.566,-0.127c-0.294,-0.087 -0.514,-0.182 -0.499,-0.205c0.022,-0.016 0.191,0.023 0.382,0.095c0.191,0.071 0.36,0.126 0.374,0.126c0.015,0 0.03,-0.095 0.03,-0.221c0.007,-0.127 0.022,-0.158 0.044,-0.079c0.015,0.079 0.066,0.142 0.103,0.142Zm-1.058,-0.103c-0.029,0.024 -0.074,0.024 -0.103,0c-0.022,-0.031 0,-0.055 0.052,-0.055c0.051,0 0.073,0.024 0.051,0.055Zm-1.704,0.893c0.125,0.15 0.125,0.15 -0.066,0.055c-0.103,-0.055 -0.191,-0.118 -0.191,-0.158c0,-0.102 0.124,-0.055 0.257,0.103Z" style="fill:#fff;fill-rule:nonzero;"/><path d="M12.643,0.687c0.022,0.04 -0.066,0.056 -0.198,0.032c-0.132,-0.024 -0.426,-0.008 -0.646,0.032l-0.404,0.079l0.624,0c0.529,0 1.153,-0.095 0.918,-0.143c-0.037,-0.007 -0.132,-0.023 -0.205,-0.039c-0.067,-0.016 -0.111,0.008 -0.089,0.039Z" style="fill:#fff;fill-rule:nonzero;"/><path d="M13.194,0.68c0,0.055 0.25,0.094 0.794,0.102c1.293,0.024 1.366,0.032 1.63,0.119c0.14,0.047 0.427,0.11 0.625,0.142l0.367,0.047l-0.22,-0.126c-0.118,-0.071 -0.368,-0.142 -0.551,-0.158c-0.184,-0.016 -0.331,-0.04 -0.331,-0.04c0,-0.047 -0.448,-0.086 -1.3,-0.134c-0.742,-0.031 -1.014,-0.024 -1.014,0.048Zm2.696,0.221c-0.029,0.023 -0.073,0.023 -0.103,0c-0.022,-0.032 0,-0.056 0.052,-0.056c0.051,0 0.073,0.024 0.051,0.056Z" style="fill:#fff;fill-rule:nonzero;"/><path d="M10.733,1.004c-0.051,0.094 0.162,0.094 0.368,0c0.125,-0.056 0.11,-0.072 -0.088,-0.072c-0.125,-0.008 -0.258,0.024 -0.28,0.072Z" style="fill:#fff;fill-rule:nonzero;"/><path d="M9.668,1.296c-0.859,0.355 -1.763,0.853 -1.763,0.964c0,0.095 0.022,0.095 0.132,0c0.14,-0.134 0.735,-0.443 1.337,-0.703c0.221,-0.095 0.463,-0.206 0.529,-0.245c0.074,-0.04 0.257,-0.095 0.404,-0.119c0.36,-0.063 0.404,-0.11 0.088,-0.103c-0.139,0 -0.462,0.095 -0.727,0.206Z" style="fill:#fff;fill-rule:nonzero;"/><path d="M16.801,1.154c0.066,0.047 0.191,0.094 0.272,0.11c0.081,0.016 0.198,0.071 0.257,0.127c0.066,0.055 0.191,0.087 0.287,0.071c0.146,-0.024 0.132,-0.048 -0.125,-0.174c-0.346,-0.166 -0.882,-0.269 -0.691,-0.134Z" style="fill:#fff;fill-rule:nonzero;"/><path d="M18.682,2.062c-0.044,0.119 0.33,0.553 0.411,0.482c0.029,-0.023 0.037,-0.015 0.015,0.016c-0.022,0.024 0.014,0.119 0.088,0.198c0.066,0.079 0.088,0.142 0.044,0.142c-0.044,0 -0.095,0.213 -0.118,0.482c-0.022,0.276 -0.117,0.648 -0.227,0.885c-0.272,0.593 -0.816,1.296 -1.036,1.335c-0.103,0.024 -0.184,0.008 -0.184,-0.031c0,-0.048 -0.044,-0.064 -0.103,-0.04c-0.058,0.024 -0.146,-0.008 -0.191,-0.063c-0.051,-0.063 -0.161,-0.111 -0.249,-0.111c-0.081,0.008 -0.265,-0.031 -0.39,-0.071c-0.147,-0.047 -0.257,-0.055 -0.279,-0.008c-0.029,0.04 -0.117,0.071 -0.205,0.064c-0.147,0 -0.155,-0.008 -0.022,-0.064c0.198,-0.087 0.036,-0.181 -0.331,-0.197c-0.235,-0.016 -0.287,0.008 -0.287,0.126c0,0.127 -0.014,0.135 -0.102,0.048c-0.059,-0.056 -0.089,-0.127 -0.066,-0.166c0.022,-0.048 -0.265,-0.079 -0.463,-0.048c-0.03,0 -0.074,-0.031 -0.103,-0.079c-0.066,-0.126 -0.309,-0.016 -0.265,0.119c0.03,0.079 -0.029,0.11 -0.22,0.11c-0.213,0 -0.257,-0.023 -0.22,-0.126c0.022,-0.063 0.014,-0.103 -0.022,-0.079c-0.03,0.024 -0.133,-0.032 -0.213,-0.119c-0.089,-0.087 -0.162,-0.118 -0.162,-0.079c0,0.127 -0.301,0.277 -0.566,0.285c-0.132,0.008 -0.22,-0.008 -0.205,-0.04c0.014,-0.031 -0.015,-0.126 -0.074,-0.205c-0.066,-0.095 -0.103,-0.111 -0.11,-0.048c0,0.056 -0.029,0.08 -0.073,0.056c-0.037,-0.024 -0.074,0.008 -0.074,0.079c0,0.071 -0.044,0.118 -0.088,0.103c-0.184,-0.032 -0.647,0.102 -0.647,0.197c0,0.055 -0.132,0.142 -0.293,0.198c-0.353,0.118 -0.463,0.118 -0.404,0.015c0.058,-0.102 -0.052,-0.102 -0.294,0c-0.125,0.056 -0.184,0.127 -0.162,0.19c0.037,0.095 0.008,0.103 -0.206,0.008c-0.227,-0.111 -0.249,-0.103 -0.44,0.095c-0.11,0.126 -0.213,0.182 -0.243,0.134c-0.066,-0.103 -0.477,-0.134 -0.418,-0.039c0.051,0.102 -0.544,-0.245 -1.139,-0.664c-1.308,-0.909 -1.763,-1.249 -1.763,-1.328c0,-0.047 0.059,-0.15 0.125,-0.229c0.11,-0.134 0.11,-0.158 0.007,-0.268c-0.103,-0.111 -0.139,-0.087 -0.389,0.221c-0.25,0.308 -0.669,1.146 -0.603,1.217c0.015,0.015 0.133,-0.135 0.258,-0.332l0.235,-0.356l0.316,0.245c0.168,0.127 0.477,0.379 0.675,0.553c0.206,0.174 0.478,0.395 0.603,0.49c0.286,0.221 0.301,0.261 0.058,0.269c-0.102,0.008 -0.271,0.039 -0.374,0.063c-0.125,0.04 -0.169,0.024 -0.14,-0.032c0.022,-0.039 0.008,-0.079 -0.029,-0.079c-0.044,0 -0.081,0.056 -0.081,0.119c0,0.142 -0.081,0.15 -0.213,0.016c-0.081,-0.079 -0.088,-0.071 -0.044,0.016c0.044,0.087 0.029,0.102 -0.066,0.063c-0.066,-0.032 -0.11,-0.024 -0.088,0.016c0.022,0.031 -0.059,0.173 -0.184,0.308c-0.125,0.134 -0.206,0.284 -0.176,0.332c0.051,0.087 -0.037,0.102 -0.213,0.031c-0.11,-0.047 -0.11,-0.063 0.007,-0.166c0.125,-0.102 0.125,-0.11 -0.015,-0.087c-0.102,0.016 -0.154,0.095 -0.169,0.253c-0.014,0.142 -0.08,0.237 -0.169,0.261c-0.161,0.047 -0.176,0.111 -0.058,0.237c0.058,0.063 0.058,0.103 0,0.134c-0.044,0.032 -0.081,0 -0.081,-0.063c0,-0.071 -0.03,-0.126 -0.074,-0.126c-0.102,0 -0.088,0.087 0.037,0.268c0.11,0.158 0.11,0.158 0.221,0c0.102,-0.15 0.102,-0.142 0.11,0.024c0,0.111 -0.044,0.182 -0.118,0.182c-0.22,0 0.206,0.458 0.661,0.711c0.412,0.221 0.485,0.237 1.249,0.237c0.448,0 1.124,-0.039 1.506,-0.079c2.174,-0.245 4.055,-0.237 5.517,0.04c0.382,0.071 1.374,0.3 2.204,0.513c0.83,0.213 1.763,0.427 2.079,0.474c0.91,0.142 1.594,0.056 1.594,-0.221c0,-0.063 0.044,-0.095 0.11,-0.071c0.059,0.031 0.125,0.016 0.147,-0.032c0.029,-0.039 0.007,-0.063 -0.052,-0.055c-0.051,0.016 -0.088,-0.04 -0.088,-0.119c0.008,-0.071 -0.015,-0.134 -0.051,-0.134c-0.037,0 -0.066,-0.174 -0.066,-0.387c0,-0.221 -0.03,-0.419 -0.074,-0.443c-0.037,-0.023 -0.073,-0.165 -0.073,-0.3c0,-0.142 -0.044,-0.347 -0.103,-0.466c-0.059,-0.111 -0.14,-0.332 -0.184,-0.482c-0.051,-0.15 -0.154,-0.34 -0.227,-0.411c-0.081,-0.079 -0.147,-0.197 -0.147,-0.261c0,-0.063 -0.044,-0.094 -0.111,-0.063c-0.073,0.032 -0.11,-0.008 -0.11,-0.118c0,-0.087 -0.029,-0.143 -0.066,-0.119c-0.037,0.032 -0.081,0.008 -0.095,-0.039c-0.03,-0.087 -0.169,-0.127 -0.522,-0.143c-0.228,-0.015 -0.22,-0.221 0.022,-0.766c0.191,-0.419 0.242,-0.616 0.242,-1.027c0,-0.277 0.023,-0.506 0.052,-0.506c0.117,0 0.749,0.822 0.992,1.304c0.139,0.268 0.323,0.703 0.411,0.956c0.169,0.537 0.36,1.778 0.36,2.378c0,0.759 0.206,0.419 0.338,-0.569c0.073,-0.513 0.059,-1.019 -0.044,-1.501c-0.103,-0.498 -0.478,-1.446 -0.669,-1.699l-0.147,-0.197l0.111,0.252c0.213,0.459 0.124,0.38 -0.228,-0.221c-0.412,-0.695 -0.72,-1.051 -0.838,-0.972c-0.051,0.032 -0.066,0.024 -0.044,-0.023c0.052,-0.079 -0.264,-0.419 -0.661,-0.712c-0.176,-0.134 -0.235,-0.15 -0.264,-0.071Zm0.352,0.285c0.022,0.039 0.03,0.079 0.008,0.079c-0.022,0 -0.059,-0.04 -0.081,-0.079c-0.022,-0.048 -0.03,-0.079 -0.007,-0.079c0.022,0 0.058,0.031 0.08,0.079Zm1.932,2.331c-0.022,0.023 -0.066,-0.016 -0.088,-0.095c-0.044,-0.111 -0.037,-0.119 0.037,-0.047c0.051,0.055 0.073,0.118 0.051,0.142Zm0.162,0.395c0,0.039 -0.037,0.024 -0.074,-0.04c-0.036,-0.063 -0.073,-0.158 -0.073,-0.197c0,-0.048 0.037,-0.024 0.073,0.039c0.037,0.064 0.074,0.15 0.074,0.198Zm-7.295,-0.024c-0.022,0.063 -0.044,0.04 -0.044,-0.047c-0.007,-0.087 0.015,-0.135 0.037,-0.103c0.022,0.024 0.029,0.095 0.007,0.15Zm0.221,0.119c-0.03,0.023 -0.052,0 -0.052,-0.056c0,-0.055 0.022,-0.079 0.052,-0.055c0.022,0.032 0.022,0.079 0,0.111Zm-1.322,-0.008c-0.023,0.023 -0.089,0.031 -0.14,0.008c-0.059,-0.024 -0.037,-0.048 0.044,-0.048c0.081,-0.008 0.125,0.016 0.096,0.04Zm-0.566,0.063c0,0.024 -0.037,0.063 -0.088,0.095c-0.052,0.031 -0.059,0.024 -0.03,-0.032c0.052,-0.095 0.118,-0.126 0.118,-0.063Zm9.013,0.182c-0.029,0.023 -0.051,0 -0.051,-0.056c0,-0.055 0.022,-0.079 0.051,-0.055c0.022,0.032 0.022,0.079 0,0.111Zm0.074,0.237c-0.03,0.023 -0.052,0 -0.052,-0.056c0,-0.055 0.022,-0.079 0.052,-0.055c0.022,0.032 0.022,0.079 0,0.111Zm-15.148,1.288c0.022,0.039 0.03,0.079 0.008,0.079c-0.022,0 -0.059,-0.04 -0.081,-0.079c-0.022,-0.048 -0.029,-0.079 -0.007,-0.079c0.022,0 0.058,0.031 0.08,0.079Z" style="fill:#fff;fill-rule:nonzero;"/><path d="M7.575,2.347c-0.03,0.047 -0.169,0.166 -0.316,0.268c-0.485,0.332 -0.595,0.475 -0.514,0.633c0.066,0.126 0.124,0.094 0.506,-0.34c0.243,-0.269 0.471,-0.482 0.515,-0.482c0.036,0 0.051,-0.04 0.029,-0.079c-0.059,-0.103 -0.162,-0.103 -0.22,0Z" style="fill:#fff;fill-rule:nonzero;"/><path d="M6.796,2.481c-0.096,0.127 -0.088,0.134 0.029,0.032c0.066,-0.056 0.125,-0.119 0.125,-0.135c0,-0.063 -0.059,-0.023 -0.154,0.103Z" style="fill:#fff;fill-rule:nonzero;"/><path d="M6.15,3.137c-0.463,0.585 -0.794,1.067 -0.911,1.32c-0.243,0.505 -0.544,1.841 -0.375,1.659c0.029,-0.032 0.154,-0.387 0.286,-0.79c0.265,-0.846 0.588,-1.51 0.985,-2.031c0.154,-0.198 0.301,-0.403 0.33,-0.458c0.111,-0.206 -0.014,-0.079 -0.315,0.3Z" style="fill:#fff;fill-rule:nonzero;"/><path d="M13.172,3.587c-0.103,0.103 -0.051,0.34 0.088,0.419c0.111,0.055 0.169,0.048 0.258,-0.047c0.088,-0.095 0.095,-0.158 0.044,-0.277c-0.074,-0.15 -0.294,-0.205 -0.39,-0.095Z" style="fill:#fff;fill-rule:nonzero;"/><path d="M12.276,4.172c-0.103,0.332 0.323,0.498 0.433,0.174c0.03,-0.071 0.008,-0.174 -0.036,-0.229c-0.125,-0.166 -0.346,-0.135 -0.397,0.055Z" style="fill:#fff;fill-rule:nonzero;"/><path d="M14.017,4.101c-0.14,0.15 -0.103,0.363 0.066,0.419c0.221,0.079 0.426,-0.15 0.316,-0.34c-0.103,-0.174 -0.264,-0.205 -0.382,-0.079Z" style="fill:#fff;fill-rule:nonzero;"/><path d="M11.233,5.247c0.029,0.023 0.073,0.023 0.103,0c0.022,-0.032 0,-0.056 -0.052,-0.056c-0.051,0 -0.073,0.024 -0.051,0.056Z" style="fill:#fff;fill-rule:nonzero;"/><path d="M7.097,5.665c0,0.056 0.022,0.08 0.052,0.056c0.022,-0.032 0.022,-0.079 0,-0.111c-0.03,-0.024 -0.052,0 -0.052,0.055Z" style="fill:#fff;fill-rule:nonzero;"/><path d="M5.143,7.206c-0.029,0.071 -0.029,0.15 0,0.174c0.022,0.032 0.044,0.008 0.044,-0.039c0,-0.056 0.03,-0.095 0.066,-0.095c0.03,0 0.044,0.095 0.022,0.205c-0.022,0.15 -0.007,0.198 0.044,0.158c0.052,-0.031 0.074,-0.016 0.045,0.056c-0.052,0.142 0.154,0.324 0.308,0.26c0.096,-0.039 0.073,-0.102 -0.132,-0.411c-0.287,-0.434 -0.338,-0.474 -0.397,-0.308Z" style="fill:#fff;fill-rule:nonzero;"/><path d="M6.289,11.039c-0.081,0.055 -0.044,0.079 0.147,0.079c0.191,0 0.228,-0.024 0.147,-0.079c-0.059,-0.04 -0.125,-0.079 -0.147,-0.079c-0.022,0 -0.088,0.039 -0.147,0.079Z" style="fill:#fff;fill-rule:nonzero;"/><path d="M19.181,14.278c-0.022,0.04 0.022,0.079 0.11,0.079c0.089,0 0.133,-0.039 0.111,-0.079c-0.022,-0.047 -0.074,-0.079 -0.111,-0.079c-0.036,0 -0.088,0.032 -0.11,0.079Z" style="fill:#fff;fill-rule:nonzero;"/><path d="M19.784,14.571c-0.089,0.087 -0.059,0.245 0.051,0.276c0.088,0.016 0.088,0.056 0.015,0.206l-0.088,0.173l-0.162,-0.158c-0.088,-0.094 -0.162,-0.134 -0.162,-0.094c0,0.039 0.074,0.126 0.162,0.189l0.162,0.119l-0.302,0.545c-0.514,0.925 -0.455,0.885 -0.866,0.553c-0.191,-0.158 -0.368,-0.269 -0.39,-0.245c-0.059,0.055 0.199,0.34 0.36,0.395c0.074,0.024 0.125,0.087 0.11,0.142c-0.007,0.056 -0.007,0.072 0.008,0.04c0.022,-0.04 0.11,-0.04 0.205,-0.016c0.147,0.04 0.213,-0.031 0.493,-0.498c0.661,-1.09 0.742,-1.288 0.653,-1.493c-0.08,-0.19 -0.161,-0.237 -0.249,-0.134Z" style="fill:#fff;fill-rule:nonzero;"/><path d="M20.202,14.61c-0.029,0.055 -0.022,0.063 0.03,0.032c0.051,-0.032 0.088,-0.071 0.088,-0.095c0,-0.063 -0.066,-0.032 -0.118,0.063Z" style="fill:#fff;fill-rule:nonzero;"/><path d="M19.034,14.752c-0.022,0.04 -0.014,0.079 0.03,0.079c0.036,0 0.095,-0.039 0.117,-0.079c0.022,-0.047 0.015,-0.079 -0.029,-0.079c-0.037,0 -0.096,0.032 -0.118,0.079Z" style="fill:#fff;fill-rule:nonzero;"/><path d="M19.269,14.808c-0.029,0.023 -0.051,0.087 -0.051,0.134c0,0.047 0.037,0.04 0.088,-0.016c0.044,-0.047 0.066,-0.11 0.052,-0.134c-0.022,-0.024 -0.067,-0.016 -0.089,0.016Z" style="fill:#fff;fill-rule:nonzero;"/><path d="M18.704,15.306c0,0.039 0.036,0.079 0.073,0.079c0.044,0 0.074,-0.04 0.074,-0.079c0,-0.048 -0.03,-0.08 -0.074,-0.08c-0.037,0 -0.073,0.032 -0.073,0.08Z" style="fill:#fff;fill-rule:nonzero;"/><path d="M18.976,15.361c-0.03,0.024 -0.052,0.087 -0.052,0.134c0,0.048 0.037,0.04 0.088,-0.016c0.044,-0.047 0.066,-0.11 0.052,-0.134c-0.022,-0.024 -0.066,-0.016 -0.088,0.016Z" style="fill:#fff;fill-rule:nonzero;"/><path d="M19.1,15.558c-0.029,0.056 -0.022,0.064 0.03,0.032c0.051,-0.032 0.088,-0.071 0.088,-0.095c0,-0.063 -0.066,-0.031 -0.118,0.063Z" style="fill:#fff;fill-rule:nonzero;"/><path d="M18.432,15.835c0.029,0.024 0.073,0.024 0.103,0c0.022,-0.032 0,-0.055 -0.052,-0.055c-0.051,0 -0.073,0.023 -0.051,0.055Z" style="fill:#fff;fill-rule:nonzero;"/></g></svg>