<?xml version="1.0" encoding="UTF-8" standalone="no"?>
<svg
   xmlns:dc="http://purl.org/dc/elements/1.1/"
   xmlns:cc="http://creativecommons.org/ns#"
   xmlns:rdf="http://www.w3.org/1999/02/22-rdf-syntax-ns#"
   xmlns:svg="http://www.w3.org/2000/svg"
   xmlns="http://www.w3.org/2000/svg"
   xmlns:sodipodi="http://sodipodi.sourceforge.net/DTD/sodipodi-0.dtd"
   xmlns:inkscape="http://www.inkscape.org/namespaces/inkscape"
   viewBox="0 0 112.50001 112.5"
   height="112.5"
   width="112.50001"
   xml:space="preserve"
   version="1.1"
   id="svg2"
   sodipodi:docname="picto-inscription.svg"
   inkscape:version="0.92.2 (5c3e80d, 2017-08-06)"><sodipodi:namedview
     pagecolor="#ffffff"
     bordercolor="#666666"
     borderopacity="1"
     objecttolerance="10"
     gridtolerance="10"
     guidetolerance="10"
     inkscape:pageopacity="0"
     inkscape:pageshadow="2"
     inkscape:window-width="1920"
     inkscape:window-height="1057"
     id="namedview40"
     showgrid="false"
     inkscape:zoom="1.4358931"
     inkscape:cx="252.09907"
     inkscape:cy="45.918886"
     inkscape:window-x="-8"
     inkscape:window-y="-8"
     inkscape:window-maximized="1"
     inkscape:current-layer="layer3" /><metadata
     id="metadata8"><rdf:RDF><cc:Work
         rdf:about=""><dc:format>image/svg+xml</dc:format><dc:type
           rdf:resource="http://purl.org/dc/dcmitype/StillImage" /><dc:title></dc:title></cc:Work></rdf:RDF></metadata><defs
     id="defs6"><clipPath
       clipPathUnits="userSpaceOnUse"
       id="clipPath1180"><g
         transform="translate(27.465126,148.87528)"
         id="g1234"><path
           inkscape:connector-curvature="0"
           d="M 261.645,81.44875 252.14875,84.0405 242.76,81.44875 244.5375,69.973625 245.43,64.19725 h 13.54375 l 0.87375,5.650875 1.7975,11.600625"
           style="fill:#fdcc86;fill-opacity:1;fill-rule:nonzero;stroke:none;stroke-width:0.125"
           id="path1182" /><path
           inkscape:connector-curvature="0"
           d="m 257.6425,73.430125 h -10.97875 l -2.12625,-3.4565 0.2675,-1.7295 1.85875,3.021 h 10.97875 l 1.9375,-3.148375 0.2675,1.731375 -2.205,3.582"
           style="fill:#fdba5b;fill-opacity:1;fill-rule:nonzero;stroke:none;stroke-width:0.125"
           id="path1184" /><path
           inkscape:connector-curvature="0"
           d="m 237.31875,40.40875 1.54375,5.8515 h 26.49 l 2.2575,-5.8515 h -30.29125"
           style="fill:#5c3921;fill-opacity:1;fill-rule:nonzero;stroke:none;stroke-width:0.125"
           id="path1186" /><path
           inkscape:connector-curvature="0"
           d="M 266.9825,44.138625 V 53.75 h -1.74625 v 5.17475 L 257.6425,71.265125 H 246.66375 L 239.07,58.92475 V 53.75 h -1.7475 V 44.138625 H 239.07 V 36.2065 h 26.16625 v 7.932125 h 1.74625"
           style="fill:#fdcc86;fill-opacity:1;fill-rule:nonzero;stroke:none;stroke-width:0.125"
           id="path1188" /><path
           inkscape:connector-curvature="0"
           d="m 255.77,44.743625 7.57625,0.660125 -0.92625,1.166125 -6.65,0.505375 v -2.331625"
           style="fill:#5c3921;fill-opacity:1;fill-rule:nonzero;stroke:none;stroke-width:0.125"
           id="path1190" /><path
           inkscape:connector-curvature="0"
           d="m 248.53625,44.743625 -7.57375,0.660125 0.925,1.166125 6.64875,0.505375 v -2.331625"
           style="fill:#5c3921;fill-opacity:1;fill-rule:nonzero;stroke:none;stroke-width:0.125"
           id="path1192" /><path
           inkscape:connector-curvature="0"
           d="m 239.0675,40.40875 h 0.002 v -0.730958 h -0.002 z"
           style="fill:#75c513;fill-opacity:1;fill-rule:nonzero;stroke:none;stroke-width:0.125"
           id="path1194" /><path
           inkscape:connector-curvature="0"
           d="m 239.0675,44.138625 h 0.002 V 40.40865 h -0.002 z"
           style="fill:#372214;fill-opacity:1;fill-rule:nonzero;stroke:none;stroke-width:0.125"
           id="path1196" /><path
           inkscape:connector-curvature="0"
           d="m 266.9825,53.75 h -1.74625 v -8.80275 l -0.002,-0.0024 v 0.96425 h -2.29 l 0.4025,-0.505375 -7.57625,-0.660125 v 1.1655 h -7.23375 v -1.1655 l -7.57375,0.660125 0.4,0.505375 H 239.07 V 53.75 h -1.7475 V 44.138625 H 239.07 V 39.67775 h 26.16375 v 4.460875 h 1.74875 V 53.75"
           style="fill:#fdba5b;fill-opacity:1;fill-rule:nonzero;stroke:none;stroke-width:0.125"
           id="path1198" /><path
           inkscape:connector-curvature="0"
           d="M 262.94375,45.909125 H 255.77 v -1.1655 l 7.57625,0.660125 -0.4025,0.505375"
           style="fill:#372214;fill-opacity:1;fill-rule:nonzero;stroke:none;stroke-width:0.125"
           id="path1200" /><path
           inkscape:connector-curvature="0"
           d="m 248.53625,45.909125 h -7.17375 l -0.4,-0.505375 7.57375,-0.660125 v 1.1655"
           style="fill:#372214;fill-opacity:1;fill-rule:nonzero;stroke:none;stroke-width:0.125"
           id="path1202" /><path
           inkscape:connector-curvature="0"
           d="m 255.48875,59.099625 h -6.6625 l 3.33125,-10.726125 3.33125,10.726125"
           style="fill:#fcb146;fill-opacity:1;fill-rule:nonzero;stroke:none;stroke-width:0.125"
           id="path1204" /><path
           inkscape:connector-curvature="0"
           d="m 233.98625,35.608375 h 4.59766 v -5.862788 h -4.59766 z"
           style="fill:#eb7900;fill-opacity:1;fill-rule:nonzero;stroke:none;stroke-width:0.125"
           id="path1206" /><path
           inkscape:connector-curvature="0"
           d="m 265.63125,35.608375 h 4.59619 v -5.862788 h -4.59619 z"
           style="fill:#eb7900;fill-opacity:1;fill-rule:nonzero;stroke:none;stroke-width:0.125"
           id="path1208" /><path
           inkscape:connector-curvature="0"
           d="m 268.9375,35.82175 c 0.007,-0.209875 0.03,-0.413 0.03,-0.616625 0,-8.733875 -7.55,-15.813 -16.86125,-15.813 -9.30875,0 -16.86,7.079125 -16.86,15.813 0,0.203625 0.0225,0.40675 0.035,0.616625 h 33.65625"
           style="fill:#fd9400;fill-opacity:1;fill-rule:nonzero;stroke:none;stroke-width:0.125"
           id="path1210" /><path
           inkscape:connector-curvature="0"
           d="m 255.21125,34.976125 h -6.535 L 246.19,16.913625 h 11.50875 l -2.4875,18.0625"
           style="fill:#eb7900;fill-opacity:1;fill-rule:nonzero;stroke:none;stroke-width:0.125"
           id="path1212" /><path
           inkscape:connector-curvature="0"
           d="m 270.32,38.339375 c 0,1.512625 -1.20875,2.73975 -2.69875,2.73975 H 236.685 c -1.49125,0 -2.69875,-1.227125 -2.69875,-2.73975 0,-1.505875 0,-2.731 0,-2.731 h 36.24125 c 0,0 0.0925,1.225125 0.0925,2.731"
           style="fill:#eb7900;fill-opacity:1;fill-rule:nonzero;stroke:none;stroke-width:0.125"
           id="path1214" /><path
           inkscape:connector-curvature="0"
           d="m 295.37125,111.76123 h -85.7275 l 9.03,-25.75923 9.25125,-4.6705 7.0575,-3.5625 6.6225,-2.475 2.2325,-0.8355 c 0,0 2.64125,7.922375 8.46625,7.922375 5.83625,0 8.2625,-7.922375 8.2625,-7.922375 l 2.61125,0.912625 6.82625,2.397875 7.0675,3.5625 9.2725,4.6705 9.0275,25.75923"
           style="fill:#303030;fill-opacity:1;fill-rule:nonzero;stroke:none;stroke-width:0.125"
           id="path1216" /><path
           inkscape:connector-curvature="0"
           d="m 230.11125,111.75732 h 44.78125 l 2.185,-18.52832 h -0.02 l 0.0113,-0.0054 V 81.3355 L 270.005,77.765625 V 93.229 h -35.02 V 77.765625 L 227.92,81.3355 v 11.888125 l 0.009,0.0054 2.1825,18.528315"
           style="fill:#fd9400;fill-opacity:1;fill-rule:nonzero;stroke:none;stroke-width:0.125"
           id="path1218" /><path
           inkscape:connector-curvature="0"
           d="m 238.69375,111.75732 h 27.01612 V 98.892574 h -27.01612 z"
           style="fill:#eb7900;fill-opacity:1;fill-rule:nonzero;stroke:none;stroke-width:0.125"
           id="path1220" /><path
           inkscape:connector-curvature="0"
           d="m 255.915,48.827125 h 5.5225 l -3.48,2.40975 -2.0425,-2.40975"
           style="fill:#303030;fill-opacity:1;fill-rule:nonzero;stroke:none;stroke-width:0.125"
           id="path1222" /><path
           inkscape:connector-curvature="0"
           d="M 248.3925,48.827125 H 242.87 l 3.47875,2.40975 2.04375,-2.40975"
           style="fill:#303030;fill-opacity:1;fill-rule:nonzero;stroke:none;stroke-width:0.125"
           id="path1224" /><path
           inkscape:connector-curvature="0"
           d="m 252.00375,84.9155 c -5.69,0 -9.3225,-7.15625 -10.39875,-9.6215 l 2.2325,-0.8355 c 0,0 2.64125,7.922375 8.46625,7.922375 5.83625,0 8.2625,-7.922375 8.2625,-7.922375 l 2.61125,0.912625 c -1.34,2.544375 -5.55375,9.544375 -11.17375,9.544375"
           style="fill:#1d1d1d;fill-opacity:1;fill-rule:nonzero;stroke:none;stroke-width:0.125"
           id="path1226" /><path
           inkscape:connector-curvature="0"
           d="m 295.37125,111.76123 h -20.475 l 11.4475,-25.75923 9.0275,25.75923"
           style="fill:#1d1d1d;fill-opacity:1;fill-rule:nonzero;stroke:none;stroke-width:0.125"
           id="path1228" /><path
           inkscape:connector-curvature="0"
           d="m 230.11,111.76123 h -20.46625 l 9.03,-25.75923 11.43625,25.75923"
           style="fill:#1d1d1d;fill-opacity:1;fill-rule:nonzero;stroke:none;stroke-width:0.125"
           id="path1230" /><path
           inkscape:connector-curvature="0"
           d="m 252.435,65.2905 c -3.88,0 -6.0625,-1.6675 -6.0625,-1.6675 h 12.03875 c 0,0 -2.09625,1.6675 -5.97625,1.6675"
           style="fill:#fcb146;fill-opacity:1;fill-rule:nonzero;stroke:none;stroke-width:0.125"
           id="path1232" /></g></clipPath><mask
       maskUnits="userSpaceOnUse"
       id="mask1558"><g
         transform="translate(-109.03528,150.26814)"
         id="g1612"><path
           inkscape:connector-curvature="0"
           d="M 261.645,81.44875 252.14875,84.0405 242.76,81.44875 244.5375,69.973625 245.43,64.19725 h 13.54375 l 0.87375,5.650875 1.7975,11.600625"
           style="fill:#fdcc86;fill-opacity:1;fill-rule:nonzero;stroke:none;stroke-width:0.125"
           id="path1560" /><path
           inkscape:connector-curvature="0"
           d="m 257.6425,73.430125 h -10.97875 l -2.12625,-3.4565 0.2675,-1.7295 1.85875,3.021 h 10.97875 l 1.9375,-3.148375 0.2675,1.731375 -2.205,3.582"
           style="fill:#fdba5b;fill-opacity:1;fill-rule:nonzero;stroke:none;stroke-width:0.125"
           id="path1562" /><path
           inkscape:connector-curvature="0"
           d="m 237.31875,40.40875 1.54375,5.8515 h 26.49 l 2.2575,-5.8515 h -30.29125"
           style="fill:#5c3921;fill-opacity:1;fill-rule:nonzero;stroke:none;stroke-width:0.125"
           id="path1564" /><path
           inkscape:connector-curvature="0"
           d="M 266.9825,44.138625 V 53.75 h -1.74625 v 5.17475 L 257.6425,71.265125 H 246.66375 L 239.07,58.92475 V 53.75 h -1.7475 V 44.138625 H 239.07 V 36.2065 h 26.16625 v 7.932125 h 1.74625"
           style="fill:#fdcc86;fill-opacity:1;fill-rule:nonzero;stroke:none;stroke-width:0.125"
           id="path1566" /><path
           inkscape:connector-curvature="0"
           d="m 255.77,44.743625 7.57625,0.660125 -0.92625,1.166125 -6.65,0.505375 v -2.331625"
           style="fill:#5c3921;fill-opacity:1;fill-rule:nonzero;stroke:none;stroke-width:0.125"
           id="path1568" /><path
           inkscape:connector-curvature="0"
           d="m 248.53625,44.743625 -7.57375,0.660125 0.925,1.166125 6.64875,0.505375 v -2.331625"
           style="fill:#5c3921;fill-opacity:1;fill-rule:nonzero;stroke:none;stroke-width:0.125"
           id="path1570" /><path
           inkscape:connector-curvature="0"
           d="m 239.0675,40.40875 h 0.002 v -0.730958 h -0.002 z"
           style="fill:#75c513;fill-opacity:1;fill-rule:nonzero;stroke:none;stroke-width:0.125"
           id="path1572" /><path
           inkscape:connector-curvature="0"
           d="m 239.0675,44.138625 h 0.002 V 40.40865 h -0.002 z"
           style="fill:#372214;fill-opacity:1;fill-rule:nonzero;stroke:none;stroke-width:0.125"
           id="path1574" /><path
           inkscape:connector-curvature="0"
           d="m 266.9825,53.75 h -1.74625 v -8.80275 l -0.002,-0.0024 v 0.96425 h -2.29 l 0.4025,-0.505375 -7.57625,-0.660125 v 1.1655 h -7.23375 v -1.1655 l -7.57375,0.660125 0.4,0.505375 H 239.07 V 53.75 h -1.7475 V 44.138625 H 239.07 V 39.67775 h 26.16375 v 4.460875 h 1.74875 V 53.75"
           style="fill:#fdba5b;fill-opacity:1;fill-rule:nonzero;stroke:none;stroke-width:0.125"
           id="path1576" /><path
           inkscape:connector-curvature="0"
           d="M 262.94375,45.909125 H 255.77 v -1.1655 l 7.57625,0.660125 -0.4025,0.505375"
           style="fill:#372214;fill-opacity:1;fill-rule:nonzero;stroke:none;stroke-width:0.125"
           id="path1578" /><path
           inkscape:connector-curvature="0"
           d="m 248.53625,45.909125 h -7.17375 l -0.4,-0.505375 7.57375,-0.660125 v 1.1655"
           style="fill:#372214;fill-opacity:1;fill-rule:nonzero;stroke:none;stroke-width:0.125"
           id="path1580" /><path
           inkscape:connector-curvature="0"
           d="m 255.48875,59.099625 h -6.6625 l 3.33125,-10.726125 3.33125,10.726125"
           style="fill:#fcb146;fill-opacity:1;fill-rule:nonzero;stroke:none;stroke-width:0.125"
           id="path1582" /><path
           inkscape:connector-curvature="0"
           d="m 233.98625,35.608375 h 4.59766 v -5.862788 h -4.59766 z"
           style="fill:#eb7900;fill-opacity:1;fill-rule:nonzero;stroke:none;stroke-width:0.125"
           id="path1584" /><path
           inkscape:connector-curvature="0"
           d="m 265.63125,35.608375 h 4.59619 v -5.862788 h -4.59619 z"
           style="fill:#eb7900;fill-opacity:1;fill-rule:nonzero;stroke:none;stroke-width:0.125"
           id="path1586" /><path
           inkscape:connector-curvature="0"
           d="m 268.9375,35.82175 c 0.007,-0.209875 0.03,-0.413 0.03,-0.616625 0,-8.733875 -7.55,-15.813 -16.86125,-15.813 -9.30875,0 -16.86,7.079125 -16.86,15.813 0,0.203625 0.0225,0.40675 0.035,0.616625 h 33.65625"
           style="fill:#fd9400;fill-opacity:1;fill-rule:nonzero;stroke:none;stroke-width:0.125"
           id="path1588" /><path
           inkscape:connector-curvature="0"
           d="m 255.21125,34.976125 h -6.535 L 246.19,16.913625 h 11.50875 l -2.4875,18.0625"
           style="fill:#eb7900;fill-opacity:1;fill-rule:nonzero;stroke:none;stroke-width:0.125"
           id="path1590" /><path
           inkscape:connector-curvature="0"
           d="m 270.32,38.339375 c 0,1.512625 -1.20875,2.73975 -2.69875,2.73975 H 236.685 c -1.49125,0 -2.69875,-1.227125 -2.69875,-2.73975 0,-1.505875 0,-2.731 0,-2.731 h 36.24125 c 0,0 0.0925,1.225125 0.0925,2.731"
           style="fill:#eb7900;fill-opacity:1;fill-rule:nonzero;stroke:none;stroke-width:0.125"
           id="path1592" /><path
           inkscape:connector-curvature="0"
           d="m 295.37125,111.76123 h -85.7275 l 9.03,-25.75923 9.25125,-4.6705 7.0575,-3.5625 6.6225,-2.475 2.2325,-0.8355 c 0,0 2.64125,7.922375 8.46625,7.922375 5.83625,0 8.2625,-7.922375 8.2625,-7.922375 l 2.61125,0.912625 6.82625,2.397875 7.0675,3.5625 9.2725,4.6705 9.0275,25.75923"
           style="fill:#303030;fill-opacity:1;fill-rule:nonzero;stroke:none;stroke-width:0.125"
           id="path1594" /><path
           inkscape:connector-curvature="0"
           d="m 230.11125,111.75732 h 44.78125 l 2.185,-18.52832 h -0.02 l 0.0113,-0.0054 V 81.3355 L 270.005,77.765625 V 93.229 h -35.02 V 77.765625 L 227.92,81.3355 v 11.888125 l 0.009,0.0054 2.1825,18.528315"
           style="fill:#fd9400;fill-opacity:1;fill-rule:nonzero;stroke:none;stroke-width:0.125"
           id="path1596" /><path
           inkscape:connector-curvature="0"
           d="m 238.69375,111.75732 h 27.01612 V 98.892574 h -27.01612 z"
           style="fill:#eb7900;fill-opacity:1;fill-rule:nonzero;stroke:none;stroke-width:0.125"
           id="path1598" /><path
           inkscape:connector-curvature="0"
           d="m 255.915,48.827125 h 5.5225 l -3.48,2.40975 -2.0425,-2.40975"
           style="fill:#303030;fill-opacity:1;fill-rule:nonzero;stroke:none;stroke-width:0.125"
           id="path1600" /><path
           inkscape:connector-curvature="0"
           d="M 248.3925,48.827125 H 242.87 l 3.47875,2.40975 2.04375,-2.40975"
           style="fill:#303030;fill-opacity:1;fill-rule:nonzero;stroke:none;stroke-width:0.125"
           id="path1602" /><path
           inkscape:connector-curvature="0"
           d="m 252.00375,84.9155 c -5.69,0 -9.3225,-7.15625 -10.39875,-9.6215 l 2.2325,-0.8355 c 0,0 2.64125,7.922375 8.46625,7.922375 5.83625,0 8.2625,-7.922375 8.2625,-7.922375 l 2.61125,0.912625 c -1.34,2.544375 -5.55375,9.544375 -11.17375,9.544375"
           style="fill:#1d1d1d;fill-opacity:1;fill-rule:nonzero;stroke:none;stroke-width:0.125"
           id="path1604" /><path
           inkscape:connector-curvature="0"
           d="m 295.37125,111.76123 h -20.475 l 11.4475,-25.75923 9.0275,25.75923"
           style="fill:#1d1d1d;fill-opacity:1;fill-rule:nonzero;stroke:none;stroke-width:0.125"
           id="path1606" /><path
           inkscape:connector-curvature="0"
           d="m 230.11,111.76123 h -20.46625 l 9.03,-25.75923 11.43625,25.75923"
           style="fill:#1d1d1d;fill-opacity:1;fill-rule:nonzero;stroke:none;stroke-width:0.125"
           id="path1608" /><path
           inkscape:connector-curvature="0"
           d="m 252.435,65.2905 c -3.88,0 -6.0625,-1.6675 -6.0625,-1.6675 h 12.03875 c 0,0 -2.09625,1.6675 -5.97625,1.6675"
           style="fill:#fcb146;fill-opacity:1;fill-rule:nonzero;stroke:none;stroke-width:0.125"
           id="path1610" /></g></mask><clipPath
       clipPathUnits="userSpaceOnUse"
       id="clipPath1710"><path
         id="path1712"
         style="fill:#99d420;fill-opacity:1;fill-rule:evenodd;stroke:none;stroke-width:0.125"
         d="m 252.5,0 c 31.06625,0 56.25,25.18363 56.25,56.2495 0,31.06638 -25.18375,56.2505 -56.25,56.2505 -31.06625,0 -56.25,-25.18412 -56.25,-56.2505 C 196.25,25.18363 221.43375,0 252.5,0"
         inkscape:connector-curvature="0" /></clipPath><clipPath
       clipPathUnits="userSpaceOnUse"
       id="clipPath1710-3"><path
         id="path1712-6"
         style="fill:#99d420;fill-opacity:1;fill-rule:evenodd;stroke:none;stroke-width:0.125"
         d="m 252.5,0 c 31.06625,0 56.25,25.18363 56.25,56.2495 0,31.06638 -25.18375,56.2505 -56.25,56.2505 -31.06625,0 -56.25,-25.18412 -56.25,-56.2505 C 196.25,25.18363 221.43375,0 252.5,0"
         inkscape:connector-curvature="0" /></clipPath></defs><path
     id="path14"
     style="fill:#99d420;fill-opacity:1;fill-rule:evenodd;stroke:none;stroke-width:0.125"
     d="M 56.25,0 C 87.31625,0 112.5,25.183625 112.5,56.2495 112.5,87.315875 87.31625,112.5 56.25,112.5 25.18375,112.5 0,87.315875 0,56.2495 0,25.183625 25.18375,0 56.25,0"
     inkscape:connector-curvature="0" /><g
     inkscape:groupmode="layer"
     id="layer2"
     inkscape:label="ellipses"
     style="display:inline"
     transform="translate(-196.25)"><path
       id="picto-inscription"
       style="fill:#99d420;fill-opacity:1;fill-rule:evenodd;stroke:none;stroke-width:0.125"
       d="m 252.50001,0 c 31.06625,0 56.25,25.18362 56.25,56.2495 0,31.06637 -25.18375,56.2505 -56.25,56.2505 -31.06625,0 -56.25,-25.18413 -56.25,-56.2505 0,-31.06588 25.18375,-56.2495 56.25,-56.2495"
       inkscape:connector-curvature="0" /></g><g
     inkscape:groupmode="layer"
     id="layer3"
     inkscape:label="pictos"
     style="display:inline"
     transform="translate(-196.25)"><g
       transform="translate(0,-5e-6)"
       id="g940-8-6"
       clip-path="url(#clipPath1710-3)"><path
         inkscape:connector-curvature="0"
         d="M 261.645,81.44875 252.14875,84.0405 242.76,81.44875 244.5375,69.973625 245.43,64.19725 h 13.54375 l 0.87375,5.650875 1.7975,11.600625"
         style="fill:#fdcc86;fill-opacity:1;fill-rule:nonzero;stroke:none;stroke-width:0.125"
         id="path24-3-3" /><path
         inkscape:connector-curvature="0"
         d="m 257.6425,73.430125 h -10.97875 l -2.12625,-3.4565 0.2675,-1.7295 1.85875,3.021 h 10.97875 l 1.9375,-3.148375 0.2675,1.731375 -2.205,3.582"
         style="fill:#fdba5b;fill-opacity:1;fill-rule:nonzero;stroke:none;stroke-width:0.125"
         id="path26-5-7" /><path
         inkscape:connector-curvature="0"
         d="m 237.31875,40.40875 1.54375,5.8515 h 26.49 l 2.2575,-5.8515 h -30.29125"
         style="fill:#5c3921;fill-opacity:1;fill-rule:nonzero;stroke:none;stroke-width:0.125"
         id="path28-4-0" /><path
         inkscape:connector-curvature="0"
         d="M 266.9825,44.138625 V 53.75 h -1.74625 v 5.17475 L 257.6425,71.265125 H 246.66375 L 239.07,58.92475 V 53.75 h -1.7475 V 44.138625 H 239.07 V 36.2065 h 26.16625 v 7.932125 h 1.74625"
         style="fill:#fdcc86;fill-opacity:1;fill-rule:nonzero;stroke:none;stroke-width:0.125"
         id="path30-3-2" /><path
         inkscape:connector-curvature="0"
         d="m 255.77,44.743625 7.57625,0.660125 -0.92625,1.166125 -6.65,0.505375 v -2.331625"
         style="fill:#5c3921;fill-opacity:1;fill-rule:nonzero;stroke:none;stroke-width:0.125"
         id="path32-9-7" /><path
         inkscape:connector-curvature="0"
         d="m 248.53625,44.743625 -7.57375,0.660125 0.925,1.166125 6.64875,0.505375 v -2.331625"
         style="fill:#5c3921;fill-opacity:1;fill-rule:nonzero;stroke:none;stroke-width:0.125"
         id="path34-1-1" /><path
         inkscape:connector-curvature="0"
         d="m 239.0675,40.40875 h 0.002 v -0.730958 h -0.002 z"
         style="fill:#75c513;fill-opacity:1;fill-rule:nonzero;stroke:none;stroke-width:0.125"
         id="path36-3-3" /><path
         inkscape:connector-curvature="0"
         d="m 239.0675,44.138625 h 0.002 V 40.40865 h -0.002 z"
         style="fill:#372214;fill-opacity:1;fill-rule:nonzero;stroke:none;stroke-width:0.125"
         id="path38-9-7" /><path
         inkscape:connector-curvature="0"
         d="m 266.9825,53.75 h -1.74625 v -8.80275 l -0.002,-0.0024 v 0.96425 h -2.29 l 0.4025,-0.505375 -7.57625,-0.660125 v 1.1655 h -7.23375 v -1.1655 l -7.57375,0.660125 0.4,0.505375 H 239.07 V 53.75 h -1.7475 V 44.138625 H 239.07 V 39.67775 h 26.16375 v 4.460875 h 1.74875 V 53.75"
         style="fill:#fdba5b;fill-opacity:1;fill-rule:nonzero;stroke:none;stroke-width:0.125"
         id="path40-1-6" /><path
         inkscape:connector-curvature="0"
         d="M 262.94375,45.909125 H 255.77 v -1.1655 l 7.57625,0.660125 -0.4025,0.505375"
         style="fill:#372214;fill-opacity:1;fill-rule:nonzero;stroke:none;stroke-width:0.125"
         id="path42-6-6" /><path
         inkscape:connector-curvature="0"
         d="m 248.53625,45.909125 h -7.17375 l -0.4,-0.505375 7.57375,-0.660125 v 1.1655"
         style="fill:#372214;fill-opacity:1;fill-rule:nonzero;stroke:none;stroke-width:0.125"
         id="path44-4-4" /><path
         inkscape:connector-curvature="0"
         d="m 255.48875,59.099625 h -6.6625 l 3.33125,-10.726125 3.33125,10.726125"
         style="fill:#fcb146;fill-opacity:1;fill-rule:nonzero;stroke:none;stroke-width:0.125"
         id="path46-8-4" /><path
         inkscape:connector-curvature="0"
         d="m 233.98625,35.608375 h 4.59766 v -5.862788 h -4.59766 z"
         style="fill:#eb7900;fill-opacity:1;fill-rule:nonzero;stroke:none;stroke-width:0.125"
         id="path48-3-7" /><path
         inkscape:connector-curvature="0"
         d="m 265.63125,35.608375 h 4.59619 v -5.862788 h -4.59619 z"
         style="fill:#eb7900;fill-opacity:1;fill-rule:nonzero;stroke:none;stroke-width:0.125"
         id="path50-7-5" /><path
         inkscape:connector-curvature="0"
         d="m 268.9375,35.82175 c 0.007,-0.209875 0.03,-0.413 0.03,-0.616625 0,-8.733875 -7.55,-15.813 -16.86125,-15.813 -9.30875,0 -16.86,7.079125 -16.86,15.813 0,0.203625 0.0225,0.40675 0.035,0.616625 h 33.65625"
         style="fill:#fd9400;fill-opacity:1;fill-rule:nonzero;stroke:none;stroke-width:0.125"
         id="path52-6-2" /><path
         inkscape:connector-curvature="0"
         d="m 255.21125,34.976125 h -6.535 L 246.19,16.913625 h 11.50875 l -2.4875,18.0625"
         style="fill:#eb7900;fill-opacity:1;fill-rule:nonzero;stroke:none;stroke-width:0.125"
         id="path54-9-9" /><path
         inkscape:connector-curvature="0"
         d="m 270.32,38.339375 c 0,1.512625 -1.20875,2.73975 -2.69875,2.73975 H 236.685 c -1.49125,0 -2.69875,-1.227125 -2.69875,-2.73975 0,-1.505875 0,-2.731 0,-2.731 h 36.24125 c 0,0 0.0925,1.225125 0.0925,2.731"
         style="fill:#eb7900;fill-opacity:1;fill-rule:nonzero;stroke:none;stroke-width:0.125"
         id="path56-7-1" /><path
         inkscape:connector-curvature="0"
         d="m 295.37125,111.76123 h -85.7275 l 9.03,-25.75923 9.25125,-4.6705 7.0575,-3.5625 6.6225,-2.475 2.2325,-0.8355 c 0,0 2.64125,7.922375 8.46625,7.922375 5.83625,0 8.2625,-7.922375 8.2625,-7.922375 l 2.61125,0.912625 6.82625,2.397875 7.0675,3.5625 9.2725,4.6705 9.0275,25.75923"
         style="fill:#303030;fill-opacity:1;fill-rule:nonzero;stroke:none;stroke-width:0.125"
         id="path58-9-1" /><path
         inkscape:connector-curvature="0"
         d="m 230.11125,111.75732 h 44.78125 l 2.185,-18.52832 h -0.02 l 0.0113,-0.0054 V 81.3355 L 270.005,77.765625 V 93.229 h -35.02 V 77.765625 L 227.92,81.3355 v 11.888125 l 0.009,0.0054 2.1825,18.528315"
         style="fill:#fd9400;fill-opacity:1;fill-rule:nonzero;stroke:none;stroke-width:0.125"
         id="path60-9-8" /><path
         inkscape:connector-curvature="0"
         d="m 238.69375,111.75732 h 27.01612 V 98.892574 h -27.01612 z"
         style="fill:#eb7900;fill-opacity:1;fill-rule:nonzero;stroke:none;stroke-width:0.125"
         id="path62-7-7" /><path
         inkscape:connector-curvature="0"
         d="m 255.915,48.827125 h 5.5225 l -3.48,2.40975 -2.0425,-2.40975"
         style="fill:#303030;fill-opacity:1;fill-rule:nonzero;stroke:none;stroke-width:0.125"
         id="path64-27-8" /><path
         inkscape:connector-curvature="0"
         d="M 248.3925,48.827125 H 242.87 l 3.47875,2.40975 2.04375,-2.40975"
         style="fill:#303030;fill-opacity:1;fill-rule:nonzero;stroke:none;stroke-width:0.125"
         id="path66-7-4" /><path
         inkscape:connector-curvature="0"
         d="m 252.00375,84.9155 c -5.69,0 -9.3225,-7.15625 -10.39875,-9.6215 l 2.2325,-0.8355 c 0,0 2.64125,7.922375 8.46625,7.922375 5.83625,0 8.2625,-7.922375 8.2625,-7.922375 l 2.61125,0.912625 c -1.34,2.544375 -5.55375,9.544375 -11.17375,9.544375"
         style="fill:#1d1d1d;fill-opacity:1;fill-rule:nonzero;stroke:none;stroke-width:0.125"
         id="path68-3-1" /><path
         inkscape:connector-curvature="0"
         d="m 295.37125,111.76123 h -20.475 l 11.4475,-25.75923 9.0275,25.75923"
         style="fill:#1d1d1d;fill-opacity:1;fill-rule:nonzero;stroke:none;stroke-width:0.125"
         id="path70-8-7" /><path
         inkscape:connector-curvature="0"
         d="m 230.11,111.76123 h -20.46625 l 9.03,-25.75923 11.43625,25.75923"
         style="fill:#1d1d1d;fill-opacity:1;fill-rule:nonzero;stroke:none;stroke-width:0.125"
         id="path72-9-4" /><path
         inkscape:connector-curvature="0"
         d="m 252.435,65.2905 c -3.88,0 -6.0625,-1.6675 -6.0625,-1.6675 h 12.03875 c 0,0 -2.09625,1.6675 -5.97625,1.6675"
         style="fill:#fcb146;fill-opacity:1;fill-rule:nonzero;stroke:none;stroke-width:0.125"
         id="path74-8-8" /></g></g><g
     inkscape:groupmode="layer"
     id="layer1"
     inkscape:label="anim"
     style="display:inline"
     transform="translate(-196.25)" /></svg>
