<?xml version="1.0" encoding="UTF-8" standalone="no"?>
<!-- Created with Inkscape (http://www.inkscape.org/) -->

<svg
   xmlns:dc="http://purl.org/dc/elements/1.1/"
   xmlns:cc="http://creativecommons.org/ns#"
   xmlns:rdf="http://www.w3.org/1999/02/22-rdf-syntax-ns#"
   xmlns:svg="http://www.w3.org/2000/svg"
   xmlns="http://www.w3.org/2000/svg"
   xmlns:sodipodi="http://sodipodi.sourceforge.net/DTD/sodipodi-0.dtd"
   xmlns:inkscape="http://www.inkscape.org/namespaces/inkscape"
   width="141.11111mm"
   height="141.1136mm"
   viewBox="0 0 500.00001 500.00882"
   id="svg5194"
   version="1.1"
   inkscape:version="0.92.2 (5c3e80d, 2017-08-06)"
   sodipodi:docname="logo-annueure-carre-baseline-hp-vector.svg"
   inkscape:export-filename="C:\xampp\htdocs\Brachet\soutenance\images-recherche\logos\logo-annu-eure-decoupe.png"
   inkscape:export-xdpi="96"
   inkscape:export-ydpi="96">
  <defs
     id="defs5196">
    <clipPath
       clipPathUnits="userSpaceOnUse"
       id="clipPath320">
      <path
         d="m 6.827,6.827 325.984,0 0,447.874 -325.984,0 0,-447.874 z"
         id="path322"
         inkscape:connector-curvature="0" />
    </clipPath>
  </defs>
  <sodipodi:namedview
     id="base"
     pagecolor="#ffffff"
     bordercolor="#666666"
     borderopacity="1.0"
     inkscape:pageopacity="0.0"
     inkscape:pageshadow="2"
     inkscape:zoom="0.64394773"
     inkscape:cx="30.994244"
     inkscape:cy="218.78117"
     inkscape:document-units="px"
     inkscape:current-layer="layer1"
     showgrid="false"
     fit-margin-top="0"
     fit-margin-left="0"
     fit-margin-right="0"
     fit-margin-bottom="0"
     inkscape:window-width="1920"
     inkscape:window-height="1017"
     inkscape:window-x="-8"
     inkscape:window-y="-8"
     inkscape:window-maximized="1" />
  <metadata
     id="metadata5199">
    <rdf:RDF>
      <cc:Work
         rdf:about="">
        <dc:format>image/svg+xml</dc:format>
        <dc:type
           rdf:resource="http://purl.org/dc/dcmitype/StillImage" />
        <dc:title></dc:title>
      </cc:Work>
    </rdf:RDF>
  </metadata>
  <g
     inkscape:label="Calque 1"
     inkscape:groupmode="layer"
     id="layer1"
     transform="translate(-306.803,-539.83699)">
    <path
       d="M 344.84897,945.56417 H 772.78742 V 559.82438 H 344.84897 Z"
       style="fill:#295173;fill-opacity:1;fill-rule:nonzero;stroke:none;stroke-width:0.81257612"
       id="path290-8"
       inkscape:connector-curvature="0" />
    <g
       id="g300-8-8"
       transform="matrix(8.6674641,0,0,-8.6674641,709.33122,609.68468)">
      <path
         d="M 0,0 V 1.999 H 2.02 V -1.614 H 1.009 V 0 Z"
         style="fill:#f25c19;fill-opacity:1;fill-rule:nonzero;stroke:none"
         id="path302-2-4"
         inkscape:connector-curvature="0" />
    </g>
    <g
       aria-label="ANNU"
       transform="scale(0.94291454,1.0605415)"
       style="font-style:normal;font-variant:normal;font-weight:bold;font-stretch:normal;font-size:128.68197632px;line-height:1.25;font-family:sans-serif;-inkscape-font-specification:'sans-serif, Bold';font-variant-ligatures:normal;font-variant-caps:normal;font-variant-numeric:normal;font-feature-settings:normal;text-align:center;letter-spacing:0px;word-spacing:0px;writing-mode:lr-tb;text-anchor:middle;fill:#ffffff;fill-opacity:1;stroke:none;stroke-width:3.21704936"
       id="text176-6">
      <path
         d="m 457.35084,650.01842 -2.57616,24.69337 h -32.35899 l 16.08525,-100.21863 h 53.91071 l 16.08524,100.21863 h -32.48465 l -2.45049,-24.69337 z m 1.63365,-11.2471 h 12.9436 l -6.53463,-49.57524 z"
         style="font-style:normal;font-variant:normal;font-weight:bold;font-stretch:normal;font-size:128.68197632px;line-height:0;font-family:'Coda Caption';-inkscape-font-specification:'Coda Caption Bold';font-variant-ligatures:normal;font-variant-caps:normal;font-variant-numeric:normal;font-feature-settings:normal;text-align:center;letter-spacing:-20.84750175px;writing-mode:lr-tb;text-anchor:middle;fill:#ffffff;fill-opacity:1;stroke-width:3.21704936"
         id="path957" />
      <path
         d="m 558.83918,674.71179 -24.1907,-44.67426 v 44.67426 h -25.8872 V 574.49316 h 28.52618 l 25.63586,47.81591 v -47.81591 h 25.07037 v 100.21863 z"
         style="font-style:normal;font-variant:normal;font-weight:bold;font-stretch:normal;font-size:128.68197632px;line-height:0;font-family:'Coda Caption';-inkscape-font-specification:'Coda Caption Bold';font-variant-ligatures:normal;font-variant-caps:normal;font-variant-numeric:normal;font-feature-settings:normal;text-align:center;letter-spacing:-20.84750175px;writing-mode:lr-tb;text-anchor:middle;fill:#ffffff;fill-opacity:1;stroke-width:3.21704936"
         id="path959" />
      <path
         d="m 647.3211,674.71179 -24.19071,-44.67426 v 44.67426 H 597.2432 V 574.49316 h 28.52618 l 25.63586,47.81591 v -47.81591 h 25.07037 v 100.21863 z"
         style="font-style:normal;font-variant:normal;font-weight:bold;font-stretch:normal;font-size:128.68197632px;line-height:0;font-family:'Coda Caption';-inkscape-font-specification:'Coda Caption Bold';font-variant-ligatures:normal;font-variant-caps:normal;font-variant-numeric:normal;font-feature-settings:normal;text-align:center;letter-spacing:-20.84750175px;writing-mode:lr-tb;text-anchor:middle;fill:#ffffff;fill-opacity:1;stroke-width:3.21704936"
         id="path961" />
      <path
         d="m 716.82745,659.82037 h 14.82859 v -85.32721 h 31.228 v 76.90759 q 0,2.51332 -0.31417,5.40364 -0.31416,2.89032 -1.57082,5.78063 -1.25666,2.82749 -3.76998,5.46647 -2.51332,2.63899 -6.8488,4.64965 -4.33548,2.01065 -10.80727,3.20448 -6.4718,1.25666 -15.70825,1.25666 -9.11079,0 -15.51975,-1.25666 -6.40897,-1.19383 -10.68161,-3.20448 -4.20981,-2.01066 -6.6603,-4.64965 -2.38765,-2.63898 -3.64431,-5.46647 -1.19383,-2.89031 -1.508,-5.78063 -0.25133,-2.89032 -0.25133,-5.40364 v -76.90759 h 31.228 z"
         style="font-style:normal;font-variant:normal;font-weight:bold;font-stretch:normal;font-size:128.68197632px;line-height:0;font-family:'Coda Caption';-inkscape-font-specification:'Coda Caption Bold';font-variant-ligatures:normal;font-variant-caps:normal;font-variant-numeric:normal;font-feature-settings:normal;text-align:center;letter-spacing:-20.84750175px;writing-mode:lr-tb;text-anchor:middle;fill:#ffffff;fill-opacity:1;stroke-width:3.21704936"
         id="path963" />
    </g>
    <g
       aria-label="eure"
       transform="scale(0.94291454,1.0605415)"
       style="font-style:normal;font-variant:normal;font-weight:bold;font-stretch:normal;font-size:128.68197632px;line-height:1.25;font-family:sans-serif;-inkscape-font-specification:'sans-serif, Bold';font-variant-ligatures:normal;font-variant-caps:normal;font-variant-numeric:normal;font-feature-settings:normal;text-align:center;letter-spacing:0px;word-spacing:0px;writing-mode:lr-tb;text-anchor:middle;fill:#99d420;fill-opacity:1;stroke:none;stroke-width:3.21704936"
       id="text176-4-2">
      <path
         d="m 501.94402,767.19779 q 0,4.61989 -0.32535,8.78429 -0.32534,4.09934 -1.62672,7.67812 -1.23631,3.51372 -3.83906,6.31167 -2.53768,2.79796 -7.02743,4.8151 -4.42468,1.95206 -11.12676,2.99316 -6.63702,1.10617 -16.20214,1.10617 -9.76032,0 -16.52747,-1.17124 -6.70209,-1.17124 -11.12677,-3.1233 -4.42468,-1.95206 -6.89729,-4.48975 -2.47262,-2.60275 -3.64385,-5.40071 -1.17124,-2.86303 -1.43152,-5.72605 -0.1952,-2.86303 -0.1952,-5.46578 v -39.04129 q 0,-2.60275 0.1952,-5.46578 0.26028,-2.86302 1.43152,-5.66098 1.17123,-2.79796 3.64385,-5.33564 2.47261,-2.60276 6.89729,-4.55482 4.42468,-1.95206 11.12677,-3.1233 6.76715,-1.17124 16.52747,-1.17124 9.50005,0 16.20214,1.17124 6.70208,1.17124 11.12676,3.1233 4.48975,1.95206 7.02743,4.55482 2.60275,2.53768 3.90413,5.33564 1.30138,2.79796 1.62672,5.72605 0.32534,2.86303 0.32534,5.40071 v 24.40081 h -47.69543 v 22.25353 h 15.35624 v -13.85966 z m -47.63037,-19.91105 h 15.35624 v -19.71585 h -15.35624 z"
         style="font-style:normal;font-variant:normal;font-weight:bold;font-stretch:normal;font-size:133.26091003px;line-height:0;font-family:'Coda Caption';-inkscape-font-specification:'Coda Caption Bold';font-variant-ligatures:normal;font-variant-caps:normal;font-variant-numeric:normal;font-feature-settings:normal;text-align:center;letter-spacing:0px;writing-mode:lr-tb;text-anchor:middle;fill:#99d420;fill-opacity:1;stroke-width:3.21704936"
         id="path948" />
      <path
         d="m 599.41708,711.95438 v 84.58944 H 572.6738 l -2.99316,-10.86649 q -1.69179,3.38358 -4.42468,5.98633 -2.73289,2.53769 -6.11647,4.29454 -3.38358,1.69179 -7.22264,2.53769 -3.83906,0.91096 -7.80825,0.91096 -4.61989,0 -9.10964,-1.49658 -4.42467,-1.49658 -7.93839,-4.48975 -3.44865,-3.05823 -5.59592,-7.67812 -2.0822,-4.61988 -2.0822,-10.80142 v -62.9866 h 32.3392 v 69.16814 h 15.35623 v -69.16814 z"
         style="font-style:normal;font-variant:normal;font-weight:bold;font-stretch:normal;font-size:133.26091003px;line-height:0;font-family:'Coda Caption';-inkscape-font-specification:'Coda Caption Bold';font-variant-ligatures:normal;font-variant-caps:normal;font-variant-numeric:normal;font-feature-settings:normal;text-align:center;letter-spacing:0px;writing-mode:lr-tb;text-anchor:middle;fill:#99d420;fill-opacity:1;stroke-width:3.21704936"
         id="path950" />
      <path
         d="m 618.41717,796.54382 v -84.58944 h 26.09259 l 3.64385,13.3391 q 0.65069,-3.25344 2.01713,-5.72605 1.36645,-2.47262 3.12331,-4.22947 1.82192,-1.82193 3.90413,-2.99317 2.0822,-1.17124 4.1644,-1.82193 2.0822,-0.71575 4.03426,-0.97603 1.95207,-0.32534 3.44865,-0.39041 v 25.63711 l -18.08913,5.2055 v 56.54479 z"
         style="font-style:normal;font-variant:normal;font-weight:bold;font-stretch:normal;font-size:133.26091003px;line-height:0;font-family:'Coda Caption';-inkscape-font-specification:'Coda Caption Bold';font-variant-ligatures:normal;font-variant-caps:normal;font-variant-numeric:normal;font-feature-settings:normal;text-align:center;letter-spacing:0px;writing-mode:lr-tb;text-anchor:middle;fill:#99d420;fill-opacity:1;stroke-width:3.21704936"
         id="path952" />
      <path
         d="m 763.26033,767.19779 q 0,4.61989 -0.32534,8.78429 -0.32535,4.09934 -1.62672,7.67812 -1.23631,3.51372 -3.83906,6.31167 -2.53769,2.79796 -7.02743,4.8151 -4.42468,1.95206 -11.12677,2.99316 -6.63702,1.10617 -16.20213,1.10617 -9.76032,0 -16.52748,-1.17124 -6.70208,-1.17124 -11.12676,-3.1233 -4.42468,-1.95206 -6.8973,-4.48975 -2.47261,-2.60275 -3.64385,-5.40071 -1.17124,-2.86303 -1.43151,-5.72605 -0.19521,-2.86303 -0.19521,-5.46578 v -39.04129 q 0,-2.60275 0.19521,-5.46578 0.26027,-2.86302 1.43151,-5.66098 1.17124,-2.79796 3.64385,-5.33564 2.47262,-2.60276 6.8973,-4.55482 4.42468,-1.95206 11.12676,-3.1233 6.76716,-1.17124 16.52748,-1.17124 9.50004,0 16.20213,1.17124 6.70209,1.17124 11.12677,3.1233 4.48974,1.95206 7.02743,4.55482 2.60275,2.53768 3.90412,5.33564 1.30138,2.79796 1.62672,5.72605 0.32535,2.86303 0.32535,5.40071 v 24.40081 h -47.69543 v 22.25353 h 15.35623 v -13.85966 z m -47.63036,-19.91105 h 15.35623 v -19.71585 h -15.35623 z"
         style="font-style:normal;font-variant:normal;font-weight:bold;font-stretch:normal;font-size:133.26091003px;line-height:0;font-family:'Coda Caption';-inkscape-font-specification:'Coda Caption Bold';font-variant-ligatures:normal;font-variant-caps:normal;font-variant-numeric:normal;font-feature-settings:normal;text-align:center;letter-spacing:0px;writing-mode:lr-tb;text-anchor:middle;fill:#99d420;fill-opacity:1;stroke-width:3.21704936"
         id="path954" />
    </g>
    <path
       style="color:#000000;font-style:normal;font-variant:normal;font-weight:normal;font-stretch:normal;font-size:medium;line-height:normal;font-family:sans-serif;font-variant-ligatures:normal;font-variant-position:normal;font-variant-caps:normal;font-variant-numeric:normal;font-variant-alternates:normal;font-feature-settings:normal;text-indent:0;text-align:start;text-decoration:none;text-decoration-line:none;text-decoration-style:solid;text-decoration-color:#000000;letter-spacing:normal;word-spacing:normal;text-transform:none;writing-mode:lr-tb;direction:ltr;text-orientation:mixed;dominant-baseline:auto;baseline-shift:baseline;text-anchor:start;white-space:normal;shape-padding:0;clip-rule:nonzero;display:inline;overflow:visible;visibility:visible;opacity:1;isolation:auto;mix-blend-mode:normal;color-interpolation:sRGB;color-interpolation-filters:linearRGB;solid-color:#000000;solid-opacity:1;vector-effect:none;fill:#99d420;fill-opacity:1;fill-rule:nonzero;stroke:none;stroke-width:3.88024426;stroke-linecap:butt;stroke-linejoin:miter;stroke-miterlimit:4;stroke-dasharray:none;stroke-dashoffset:0;stroke-opacity:1;color-rendering:auto;image-rendering:auto;shape-rendering:auto;text-rendering:auto;enable-background:accumulate"
       d="m 398.71468,733.37714 v 3.8808 h 320.20704 v -3.8808 z"
       id="path101-9"
       inkscape:connector-curvature="0" />
    <g
       aria-label="de Normandie"
       style="font-style:normal;font-weight:normal;font-size:47.03326035px;line-height:1.25;font-family:sans-serif;letter-spacing:0px;word-spacing:0px;fill:#ffffff;fill-opacity:1;stroke:none;stroke-width:1.17583168"
       id="text4599-2">
      <path
         d="m 403.58817,903.84947 q -3.31391,0 -5.35325,-2.06766 -2.37922,-2.43587 -2.37922,-7.25096 0,-2.03933 0.42486,-4.30525 0.39654,-2.26593 1.18961,-4.47521 1.81275,-4.98503 4.95672,-8.04403 3.62548,-3.48386 8.3556,-3.48386 2.35089,0 3.51218,0.8214 1.18961,0.79307 1.18961,2.1243 v 0.22659 l 2.83241,-13.34063 8.58219,-1.16129 -6.65616,31.32642 q -0.25491,0.84972 -0.25491,1.86939 0,1.18961 0.56648,1.67112 0.56648,0.48151 1.81274,0.48151 1.61447,0 2.88905,-1.44453 1.07632,-1.27458 1.81274,-3.68213 h 2.43587 q -1.5295,4.36191 -3.7671,6.88275 -1.89771,2.09598 -4.22028,2.91738 -1.67112,0.5948 -3.65381,0.5948 -2.40754,0 -3.88039,-1.27458 -1.47286,-1.27458 -1.81275,-3.71045 -1.55782,2.35089 -3.37056,3.62548 -2.3509,1.69944 -5.21163,1.69944 z m 3.7671,-5.60816 q 0.62313,0 1.33123,-0.31157 0.73643,-0.31156 1.38788,-0.87804 1.5295,-1.38788 2.03934,-3.62548 v -0.31157 l 2.8324,-13.28399 q -0.19827,-0.79307 -0.56648,-1.27458 -0.5948,-0.73643 -1.81274,-0.73643 -1.16128,0 -2.26592,0.76475 -1.07632,0.76475 -2.03934,2.12431 -1.69944,2.46419 -2.80408,6.42956 -0.50983,1.75609 -0.76475,3.48386 -0.25491,1.69945 -0.25491,3.08733 0,2.88905 1.07631,3.90872 0.36821,0.39653 0.8214,0.50983 0.45318,0.1133 1.01966,0.1133 z"
         style="font-style:normal;font-variant:normal;font-weight:normal;font-stretch:normal;font-size:58.00768661px;font-family:Pattaya;-inkscape-font-specification:Pattaya;fill:#ffffff;fill-opacity:1;stroke-width:1.17583168"
         id="path925" />
      <path
         d="m 435.3961,903.84947 q -4.27694,0 -6.59951,-2.15263 -2.46419,-2.29425 -2.46419,-7.05269 0,-1.78442 0.36821,-3.96537 0.33989,-2.18095 1.04799,-4.36191 0.79307,-2.43587 2.01101,-4.61682 1.24626,-2.18095 2.88905,-3.85207 3.79543,-3.85207 9.34695,-3.85207 3.5405,0 5.15498,1.69944 1.24625,1.33123 1.24625,3.85207 0,2.4642 -1.07631,4.64515 -1.07631,2.15263 -2.97403,3.82375 -1.89771,1.64279 -4.30525,2.63414 -2.40755,0.96301 -4.98504,1.13296 -0.14162,1.47285 -0.14162,2.32257 0,2.83241 1.07631,3.90872 0.9347,0.96302 3.11565,0.96302 3.14397,0 5.74979,-1.69944 1.10463,-0.7081 2.1243,-1.67112 1.01967,-0.99134 2.37922,-2.49252 h 1.98269 q -2.74744,4.64515 -6.31627,7.39258 -4.39023,3.34224 -9.63018,3.34224 z m 0.11329,-14.84181 q 1.61448,-0.1133 3.14398,-0.93469 1.5295,-0.8214 2.71911,-2.15263 1.18961,-1.35956 1.86938,-3.03068 0.67978,-1.69944 0.67978,-3.45553 0,-1.16129 -0.33989,-1.7561 -0.31156,-0.62312 -1.10464,-0.62312 -1.04799,0 -2.1243,1.01966 -1.04799,1.01967 -2.03933,2.80408 -0.90637,1.67112 -1.6428,3.79543 -0.73642,2.1243 -1.16129,4.33358 z"
         style="font-style:normal;font-variant:normal;font-weight:normal;font-stretch:normal;font-size:58.00768661px;font-family:Pattaya;-inkscape-font-specification:Pattaya;fill:#ffffff;fill-opacity:1;stroke-width:1.17583168"
         id="path927" />
      <path
         d="m 476.06945,863.77092 q -3.99369,1.4162 -6.03302,4.39023 -2.01101,2.9457 -2.01101,7.22264 0,1.86938 0.39654,3.42721 0.42486,1.5295 1.16128,2.49251 -3.73877,0 -5.49487,-1.50117 -1.75609,-1.5295 -1.75609,-4.78677 0,-4.02201 2.43587,-7.61917 2.32258,-3.42721 6.31627,-5.52319 4.10699,-2.09598 8.86543,-2.09598 1.33123,0 2.32257,0.19826 1.01967,0.16995 2.26593,0.59481 l 6.99604,31.04317 6.48622,-31.49636 h 5.63648 l -9.46023,43.39247 h -8.01571 l -6.71281,-28.77725 -6.62783,28.77725 h -5.49487 z"
         style="font-style:normal;font-variant:normal;font-weight:normal;font-stretch:normal;font-size:58.00768661px;font-family:Pattaya;-inkscape-font-specification:Pattaya;fill:#ffffff;fill-opacity:1;stroke-width:1.17583168"
         id="path929" />
      <path
         d="m 509.20861,903.73618 q -4.30526,0 -6.65615,-2.09599 -2.63414,-2.32257 -2.63414,-7.05269 0,-1.78441 0.36821,-3.93704 0.36821,-2.18096 1.13296,-4.39023 1.7561,-5.26828 5.01336,-8.41225 3.93705,-3.85207 9.37527,-3.85207 7.44923,0 7.44923,9.26197 v 0.0566 q 0.16994,0.0566 0.28324,0.0566 h 0.33989 q 1.92603,0 4.56017,-1.07631 2.32258,-0.96302 4.39023,-2.40755 l 0.50984,1.58615 q -1.69945,1.78442 -4.39023,3.03067 -2.66247,1.24626 -5.89141,1.78442 -0.33989,3.93705 -1.5295,7.19431 -1.18961,3.22895 -3.059,5.55152 -1.84106,2.26593 -4.22029,3.48386 -2.37922,1.21794 -5.04168,1.21794 z m 2.32257,-5.21163 q 1.01967,0 2.06766,-0.90637 1.07632,-0.9347 2.01101,-2.57749 0.93469,-1.6428 1.61447,-3.85208 0.67978,-2.20927 1.01967,-4.73012 -0.84972,-0.22659 -1.21794,-0.84972 -0.33989,-0.62313 -0.33989,-1.58614 0,-1.18962 0.48151,-1.98269 0.48151,-0.79307 1.33123,-1.16129 -0.11329,-1.84106 -0.5948,-2.63413 -0.25492,-0.39654 -0.65145,-0.56649 -0.36822,-0.16994 -0.96302,-0.16994 -1.95436,0 -3.82375,2.9457 -1.72777,2.66247 -2.83241,6.57119 -1.07631,3.82375 -1.07631,6.79777 0,1.44453 0.14162,2.3509 0.16994,0.90637 0.53816,1.4162 0.33988,0.50984 0.87804,0.73643 0.53816,0.19827 1.4162,0.19827 z"
         style="font-style:normal;font-variant:normal;font-weight:normal;font-stretch:normal;font-size:58.00768661px;font-family:Pattaya;-inkscape-font-specification:Pattaya;fill:#ffffff;fill-opacity:1;stroke-width:1.17583168"
         id="path931" />
      <path
         d="m 530.16843,874.50574 h 8.3556 l -0.73643,3.59716 q 1.98269,-1.7561 3.22895,-2.49252 1.92603,-1.10464 3.7671,-1.10464 1.86939,0 3.00235,1.33123 0.50983,0.59481 0.76475,1.38788 0.25491,0.76475 0.25491,1.6428 0,0.79307 -0.25491,1.52949 -0.25492,0.73643 -0.76475,1.33124 -0.56648,0.62313 -1.38788,0.99134 -0.79307,0.36821 -1.78442,0.36821 -0.76475,0 -1.21793,-0.25492 -0.45319,-0.25491 -0.7081,-0.73642 -0.2266,-0.48151 -0.31157,-0.9347 -0.25491,-1.21793 -0.50983,-1.61447 -0.19827,-0.28324 -0.62313,-0.28324 -1.21794,0 -2.06766,0.50984 -0.84972,0.50983 -2.15263,1.69944 l -4.64514,22.03612 h -8.3556 z"
         style="font-style:normal;font-variant:normal;font-weight:normal;font-stretch:normal;font-size:58.00768661px;font-family:Pattaya;-inkscape-font-specification:Pattaya;fill:#ffffff;fill-opacity:1;stroke-width:1.17583168"
         id="path933" />
      <path
         d="m 583.36101,903.84947 q -3.59716,0 -5.32492,-2.03933 -1.50118,-1.75609 -1.50118,-4.50353 0,-1.3029 0.31157,-3.03067 0.33988,-1.72777 0.99134,-4.44688 0.65145,-2.77576 0.96302,-4.41856 0.33989,-1.67112 0.33989,-2.88905 0,-2.97403 -2.09599,-2.97403 -1.47285,0 -2.71911,1.55783 -1.04799,1.33123 -1.81274,3.79542 l -3.93704,18.60891 h -8.3556 l 4.24861,-20.02511 q 0.16994,-0.67978 0.16994,-1.44453 0,-1.16129 -0.36821,-1.78442 -0.48151,-0.76475 -1.38788,-0.76475 -1.64279,0 -2.86073,1.58615 -1.07631,1.35956 -1.84106,3.82375 l -3.93705,18.60891 h -8.3556 l 6.14632,-29.00384 h 8.3556 l -0.62313,3.00235 q 1.69945,-1.89771 3.71046,-2.69079 1.58614,-0.5948 3.37056,-0.5948 2.43587,0 3.8804,1.13296 1.61447,1.27458 2.06765,3.85207 1.86939,-2.88905 4.30526,-4.07866 1.72777,-0.84972 3.7671,-0.84972 2.91738,0 4.61683,1.5295 1.81274,1.67112 1.81274,5.01336 0,1.89771 -0.70811,5.23995 -0.28324,1.38788 -0.67977,2.80408 -0.7081,2.71911 -1.16129,5.01336 -0.22659,1.18961 -0.22659,1.92604 0,1.16128 0.50983,1.81274 0.53816,0.62313 1.81274,0.62313 1.72777,0 2.91738,-1.41621 0.90637,-1.07631 1.95436,-3.71045 h 2.43587 q -2.15263,6.37292 -5.43822,8.92208 -2.32257,1.81274 -5.35325,1.81274 z"
         style="font-style:normal;font-variant:normal;font-weight:normal;font-stretch:normal;font-size:58.00768661px;font-family:Pattaya;-inkscape-font-specification:Pattaya;fill:#ffffff;fill-opacity:1;stroke-width:1.17583168"
         id="path935" />
      <path
         d="m 598.68433,903.84947 q -3.31391,0 -5.35324,-2.06766 -2.37923,-2.43587 -2.37923,-7.25096 0,-2.03933 0.42486,-4.30525 0.39654,-2.26593 1.18962,-4.47521 1.81274,-4.98503 4.95671,-8.04403 3.62548,-3.48386 8.3556,-3.48386 2.35089,0 3.51218,0.8214 1.18961,0.79307 1.18961,2.1243 v 0.42486 l 0.62313,-3.08732 h 8.3556 l -4.16364,19.71355 q -0.25491,0.84972 -0.25491,1.86939 0,2.49252 2.37922,2.49252 1.58615,0 2.88905,-1.61448 1.10464,-1.35955 1.81274,-3.85207 h 2.43587 q -1.55782,4.41855 -3.7671,6.99604 -1.86939,2.12431 -4.22028,3.059 -1.72777,0.67978 -3.65381,0.67978 -2.46419,0 -3.93704,-1.33123 -1.44453,-1.35955 -1.7561,-3.99369 -1.64279,2.32257 -3.45553,3.62548 -2.32258,1.69944 -5.18331,1.69944 z m 3.7671,-5.60816 q 0.65146,0 1.35956,-0.33989 0.73643,-0.33989 1.4162,-0.96302 1.5295,-1.47285 2.03934,-3.82375 l 2.77575,-13.08572 q 0,-0.28324 -0.14162,-0.65145 -0.11329,-0.39654 -0.33988,-0.73643 -0.67978,-0.8214 -1.89772,-0.8214 -1.16128,0 -2.26592,0.76475 -1.07632,0.76475 -2.03934,2.12431 -1.69944,2.46419 -2.80408,6.42956 -0.50983,1.75609 -0.76475,3.48386 -0.25491,1.69945 -0.25491,3.08733 0,2.88905 1.07631,3.90872 0.36821,0.39653 0.8214,0.50983 0.45318,0.1133 1.01966,0.1133 z"
         style="font-style:normal;font-variant:normal;font-weight:normal;font-stretch:normal;font-size:58.00768661px;font-family:Pattaya;-inkscape-font-specification:Pattaya;fill:#ffffff;fill-opacity:1;stroke-width:1.17583168"
         id="path937" />
      <path
         d="m 643.1248,903.84947 q -3.59716,0 -5.32493,-2.03933 -1.50117,-1.75609 -1.50117,-4.50353 0,-1.3029 0.31156,-3.03067 0.33989,-1.72777 0.99135,-4.44688 0.65145,-2.77576 0.96301,-4.41856 0.33989,-1.67112 0.33989,-2.88905 0,-2.97403 -2.09598,-2.97403 -1.47285,0 -2.71911,1.55783 -1.04799,1.33123 -1.81274,3.79542 l -3.93704,18.60891 h -8.3556 l 6.14632,-29.00384 h 8.3556 l -0.62313,3.00235 q 1.69944,-1.89771 3.6538,-2.66246 1.44453,-0.56648 3.11565,-0.56648 2.9457,0 4.64515,1.5295 1.81274,1.67112 1.81274,5.01336 0,2.011 -0.73643,5.23995 -0.19827,0.93469 -0.65145,2.80408 -0.8214,3.14397 -1.18961,5.01336 -0.2266,1.18961 -0.2266,1.92604 0,1.16128 0.50984,1.81274 0.53816,0.62313 1.81274,0.62313 1.72777,0 2.91738,-1.41621 0.90637,-1.07631 1.95436,-3.71045 h 2.43587 q -2.15263,6.37292 -5.43822,8.92208 -2.32258,1.81274 -5.35325,1.81274 z"
         style="font-style:normal;font-variant:normal;font-weight:normal;font-stretch:normal;font-size:58.00768661px;font-family:Pattaya;-inkscape-font-specification:Pattaya;fill:#ffffff;fill-opacity:1;stroke-width:1.17583168"
         id="path939" />
      <path
         d="m 658.50477,903.84947 q -3.31392,0 -5.35325,-2.06766 -2.37922,-2.43587 -2.37922,-7.25096 0,-2.03933 0.42486,-4.30525 0.39654,-2.26593 1.18961,-4.47521 1.81274,-4.98503 4.95671,-8.04403 3.62548,-3.48386 8.3556,-3.48386 2.3509,0 3.51219,0.8214 1.18961,0.79307 1.18961,2.1243 v 0.22659 l 2.8324,-13.34063 8.58219,-1.16129 -6.65615,31.32642 q -0.25492,0.84972 -0.25492,1.86939 0,1.18961 0.56648,1.67112 0.56649,0.48151 1.81274,0.48151 1.61448,0 2.88906,-1.44453 1.07631,-1.27458 1.81274,-3.68213 h 2.43587 q -1.5295,4.36191 -3.7671,6.88275 -1.89771,2.09598 -4.22029,2.91738 -1.67112,0.5948 -3.6538,0.5948 -2.40755,0 -3.8804,-1.27458 -1.47285,-1.27458 -1.81274,-3.71045 -1.55782,2.35089 -3.37056,3.62548 -2.3509,1.69944 -5.21163,1.69944 z m 3.7671,-5.60816 q 0.62313,0 1.33123,-0.31157 0.73643,-0.31156 1.38788,-0.87804 1.5295,-1.38788 2.03933,-3.62548 v -0.31157 l 2.83241,-13.28399 q -0.19827,-0.79307 -0.56648,-1.27458 -0.59481,-0.73643 -1.81274,-0.73643 -1.16129,0 -2.26593,0.76475 -1.07631,0.76475 -2.03933,2.12431 -1.69944,2.46419 -2.80408,6.42956 -0.50984,1.75609 -0.76475,3.48386 -0.25492,1.69945 -0.25492,3.08733 0,2.88905 1.07631,3.90872 0.36822,0.39653 0.8214,0.50983 0.45319,0.1133 1.01967,0.1133 z"
         style="font-style:normal;font-variant:normal;font-weight:normal;font-stretch:normal;font-size:58.00768661px;font-family:Pattaya;-inkscape-font-specification:Pattaya;fill:#ffffff;fill-opacity:1;stroke-width:1.17583168"
         id="path941" />
      <path
         d="m 691.70056,871.36177 q -0.93469,0 -1.78441,-0.33989 -0.84972,-0.36821 -1.47285,-0.99134 -0.62313,-0.59481 -0.99135,-1.44453 -0.33989,-0.84972 -0.33989,-1.78442 0,-0.93469 0.33989,-1.78441 0.36822,-0.84972 0.99135,-1.50118 0.62313,-0.65145 1.47285,-0.99134 0.84972,-0.36821 1.78441,-0.36821 0.9347,0 1.78442,0.36821 0.84972,0.33989 1.50118,0.99134 0.65145,0.65146 0.99134,1.50118 0.36821,0.84972 0.36821,1.78441 0,0.9347 -0.36821,1.78442 -0.33989,0.84972 -0.99134,1.44453 -0.65146,0.62313 -1.50118,0.99134 -0.84972,0.33989 -1.78442,0.33989 z m -3.93704,32.4877 q -2.77576,0 -4.39023,-1.64279 -1.81274,-1.81274 -1.81274,-5.2966 0,-1.6428 0.45318,-3.79543 l 3.93705,-18.60891 h 8.3556 l -4.16364,19.71355 q -0.22659,0.73642 -0.22659,1.86939 0,1.18961 0.53815,1.67112 0.56649,0.48151 1.81274,0.48151 0.84973,0 1.6428,-0.36822 0.8214,-0.39653 1.50118,-1.07631 1.38788,-1.38788 2.09598,-3.68213 h 2.43587 q -1.55783,4.39023 -3.90872,6.99604 -1.98269,2.12431 -4.47521,3.059 -1.81274,0.67978 -3.79542,0.67978 z"
         style="font-style:normal;font-variant:normal;font-weight:normal;font-stretch:normal;font-size:58.00768661px;font-family:Pattaya;-inkscape-font-specification:Pattaya;fill:#ffffff;fill-opacity:1;stroke-width:1.17583168"
         id="path943" />
      <path
         d="m 705.83429,903.84947 q -4.27693,0 -6.59951,-2.15263 -2.46419,-2.29425 -2.46419,-7.05269 0,-1.78442 0.36821,-3.96537 0.33989,-2.18095 1.04799,-4.36191 0.79308,-2.43587 2.01101,-4.61682 1.24626,-2.18095 2.88906,-3.85207 3.79542,-3.85207 9.34694,-3.85207 3.54051,0 5.15498,1.69944 1.24626,1.33123 1.24626,3.85207 0,2.4642 -1.07632,4.64515 -1.07631,2.15263 -2.97402,3.82375 -1.89772,1.64279 -4.30526,2.63414 -2.40755,0.96301 -4.98504,1.13296 -0.14162,1.47285 -0.14162,2.32257 0,2.83241 1.07632,3.90872 0.93469,0.96302 3.11564,0.96302 3.14397,0 5.74979,-1.69944 1.10464,-0.7081 2.1243,-1.67112 1.01967,-0.99134 2.37923,-2.49252 h 1.98268 q -2.74743,4.64515 -6.31627,7.39258 -4.39023,3.34224 -9.63018,3.34224 z m 0.1133,-14.84181 q 1.61447,-0.1133 3.14397,-0.93469 1.5295,-0.8214 2.71911,-2.15263 1.18961,-1.35956 1.86939,-3.03068 0.67977,-1.69944 0.67977,-3.45553 0,-1.16129 -0.33988,-1.7561 -0.31157,-0.62312 -1.10464,-0.62312 -1.04799,0 -2.12431,1.01966 -1.04799,1.01967 -2.03933,2.80408 -0.90637,1.67112 -1.6428,3.79543 -0.73642,2.1243 -1.16128,4.33358 z"
         style="font-style:normal;font-variant:normal;font-weight:normal;font-stretch:normal;font-size:58.00768661px;font-family:Pattaya;-inkscape-font-specification:Pattaya;fill:#ffffff;fill-opacity:1;stroke-width:1.17583168"
         id="path945" />
    </g>
  </g>
  <g
     inkscape:groupmode="layer"
     id="layer2"
     inkscape:label="logo">
    <g
       aria-label="L'annuaire des professionnels"
       style="font-style:normal;font-variant:normal;font-weight:normal;font-stretch:normal;font-size:37.49999237px;line-height:1.25;font-family:Cookie;-inkscape-font-specification:'Cookie, Normal';font-variant-ligatures:normal;font-variant-caps:normal;font-variant-numeric:normal;font-feature-settings:normal;text-align:center;letter-spacing:0px;word-spacing:0px;writing-mode:lr-tb;text-anchor:middle;fill:#295173;fill-opacity:1;stroke:none;stroke-width:0.93749982"
       id="text172-2-0">
      <path
         d="m 59.186837,449.46988 q -1.245117,0 -2.508544,-0.58594 -1.263428,-0.56763 -2.728271,-1.62964 -1.33667,-0.93384 -2.655029,-2.05078 -3.094482,-2.56348 -5.657958,-3.62549 -1.483154,-0.62256 -3.186034,-0.62256 h -0.421143 q -0.109863,0 -0.439453,0.0366 l 5.584716,-25.98266 q -2.526855,1.0437 -3.881835,3.11279 -1.35498,2.05078 -1.35498,5.05371 0,1.15356 0.256347,1.88598 0.07324,0.23804 0.183106,0.42115 0.07324,0.12817 0.07324,0.25634 -2.032471,0 -2.966308,-0.82397 -1.043701,-0.87891 -1.043701,-2.81982 0,-1.22681 0.531006,-2.417 0.531005,-1.20849 1.501464,-2.32544 0.933838,-1.08032 2.197265,-1.99584 1.281738,-0.93384 2.746582,-1.61133 3.112792,-1.40991 6.188963,-1.40991 0.67749,0 1.501465,0.0916 l -5.767821,26.9165 q 0.897216,0.20141 1.812744,0.60424 0.933837,0.40284 2.124023,1.04371 l 2.05078,1.09863 q 2.380371,1.30005 4.302978,1.79443 1.098633,0.29297 2.307128,0.29297 1.702881,0 3.149414,-0.60425 -0.32959,2.74658 -1.33667,4.30298 -0.494384,0.76904 -1.153564,1.17187 -0.640869,0.42115 -1.409912,0.42115 z"
         style="font-style:normal;font-variant:normal;font-weight:normal;font-stretch:normal;font-size:37.49999237px;line-height:32.70472336px;font-family:Pattaya;-inkscape-font-specification:Pattaya;font-variant-ligatures:normal;font-variant-caps:normal;font-variant-numeric:normal;font-feature-settings:normal;text-align:center;writing-mode:lr-tb;text-anchor:middle;fill:#295173;fill-opacity:1;stroke-width:0.93749982"
         id="path870" />
      <path
         d="m 58.234689,411.89664 h 3.936767 l -4.119872,8.69751 h -2.618408 z"
         style="font-style:normal;font-variant:normal;font-weight:normal;font-stretch:normal;font-size:37.49999237px;line-height:32.70472336px;font-family:Pattaya;-inkscape-font-specification:Pattaya;font-variant-ligatures:normal;font-variant-caps:normal;font-variant-numeric:normal;font-feature-settings:normal;text-align:center;writing-mode:lr-tb;text-anchor:middle;fill:#295173;fill-opacity:1;stroke-width:0.93749982"
         id="path872" />
      <path
         d="m 64.258858,440.31461 q -2.142333,0 -3.460692,-1.33667 -1.538086,-1.57471 -1.538086,-4.6875 0,-1.31836 0.274658,-2.78321 0.256348,-1.46484 0.769043,-2.89306 1.171875,-3.22266 3.204345,-5.2002 2.343749,-2.25219 5.40161,-2.25219 1.519775,0 2.270507,0.531 0.769043,0.5127 0.769043,1.37329 v 0.27466 l 0.402832,-1.99585 h 5.40161 l -2.691649,12.74414 q -0.164795,0.54932 -0.164795,1.2085 0,1.61132 1.538085,1.61132 1.025391,0 1.867676,-1.0437 0.714111,-0.8789 1.171875,-2.49023 h 1.574706 q -1.00708,2.85644 -2.435302,4.5227 -1.208496,1.37329 -2.728271,1.97754 -1.116943,0.43946 -2.36206,0.43946 -1.593017,0 -2.545165,-0.8606 -0.933838,-0.87891 -1.135254,-2.58179 -1.062012,1.50147 -2.233886,2.34375 -1.501465,1.09864 -3.35083,1.09864 z m 2.435302,-3.62549 q 0.421143,0 0.878906,-0.21973 0.476075,-0.21972 0.915528,-0.62256 0.988769,-0.95215 1.318359,-2.47192 l 1.794433,-8.45947 q 0,-0.18311 -0.09155,-0.42114 -0.07324,-0.25635 -0.219726,-0.47608 -0.439453,-0.531 -1.226807,-0.531 -0.750732,0 -1.464843,0.49438 -0.695801,0.49439 -1.318359,1.37329 -1.098633,1.59302 -1.812744,4.1565 -0.32959,1.13525 -0.494385,2.25219 -0.164795,1.09863 -0.164795,1.99585 0,1.86768 0.695801,2.52686 0.238037,0.25634 0.531006,0.32959 0.292969,0.0732 0.659179,0.0732 z"
         style="font-style:normal;font-variant:normal;font-weight:normal;font-stretch:normal;font-size:37.49999237px;line-height:32.70472336px;font-family:Pattaya;-inkscape-font-specification:Pattaya;font-variant-ligatures:normal;font-variant-caps:normal;font-variant-numeric:normal;font-feature-settings:normal;text-align:center;writing-mode:lr-tb;text-anchor:middle;fill:#295173;fill-opacity:1;stroke-width:0.93749982"
         id="path874" />
      <path
         d="m 92.988101,440.31461 q -2.325439,0 -3.442383,-1.31836 -0.970458,-1.13526 -0.970458,-2.91138 0,-0.84228 0.201416,-1.95923 0.219726,-1.11694 0.640869,-2.87475 0.421142,-1.79444 0.622558,-2.85645 0.219727,-1.08032 0.219727,-1.86767 0,-1.92261 -1.354981,-1.92261 -0.952148,0 -1.757812,1.00708 -0.67749,0.8606 -1.171874,2.45361 l -2.545166,12.03003 h -5.40161 l 3.973388,-18.75 h 5.40161 l -0.402832,1.94092 q 1.098633,-1.22681 2.36206,-1.72119 0.933838,-0.36621 2.01416,-0.36621 1.904296,0 3.002929,0.98877 1.171875,1.08032 1.171875,3.24096 0,1.30005 -0.476075,3.38745 -0.128173,0.60425 -0.421142,1.81275 -0.531006,2.03247 -0.769043,3.24096 -0.146484,0.76905 -0.146484,1.24512 0,0.75073 0.32959,1.17188 0.3479,0.40283 1.171874,0.40283 1.116944,0 1.885986,-0.91553 0.585938,-0.6958 1.263428,-2.39868 h 1.574707 q -1.391602,4.11987 -3.515625,5.76782 -1.501464,1.17188 -3.460692,1.17188 z"
         style="font-style:normal;font-variant:normal;font-weight:normal;font-stretch:normal;font-size:37.49999237px;line-height:32.70472336px;font-family:Pattaya;-inkscape-font-specification:Pattaya;font-variant-ligatures:normal;font-variant-caps:normal;font-variant-numeric:normal;font-feature-settings:normal;text-align:center;writing-mode:lr-tb;text-anchor:middle;fill:#295173;fill-opacity:1;stroke-width:0.93749982"
         id="path876" />
      <path
         d="m 111.95782,440.31461 q -2.32544,0 -3.44238,-1.31836 -0.97046,-1.13526 -0.97046,-2.91138 0,-0.84228 0.20142,-1.95923 0.21972,-1.11694 0.64087,-2.87475 0.42114,-1.79444 0.62256,-2.85645 0.21972,-1.08032 0.21972,-1.86767 0,-1.92261 -1.35498,-1.92261 -0.95215,0 -1.75781,1.00708 -0.67749,0.8606 -1.17187,2.45361 l -2.54517,12.03003 h -5.40161 l 3.97339,-18.75 h 5.40161 l -0.40283,1.94092 q 1.09863,-1.22681 2.36206,-1.72119 0.93383,-0.36621 2.01416,-0.36621 1.90429,0 3.00292,0.98877 1.17188,1.08032 1.17188,3.24096 0,1.30005 -0.47607,3.38745 -0.12818,0.60425 -0.42115,1.81275 -0.531,2.03247 -0.76904,3.24096 -0.14648,0.76905 -0.14648,1.24512 0,0.75073 0.32959,1.17188 0.3479,0.40283 1.17187,0.40283 1.11694,0 1.88599,-0.91553 0.58593,-0.6958 1.26342,-2.39868 h 1.57471 q -1.3916,4.11987 -3.51562,5.76782 -1.50147,1.17188 -3.4607,1.17188 z"
         style="font-style:normal;font-variant:normal;font-weight:normal;font-stretch:normal;font-size:37.49999237px;line-height:32.70472336px;font-family:Pattaya;-inkscape-font-specification:Pattaya;font-variant-ligatures:normal;font-variant-caps:normal;font-variant-numeric:normal;font-feature-settings:normal;text-align:center;writing-mode:lr-tb;text-anchor:middle;fill:#295173;fill-opacity:1;stroke-width:0.93749982"
         id="path878" />
      <path
         d="m 121.11309,440.31461 q -1.79443,0 -2.83813,-1.06202 -1.17187,-1.17187 -1.17187,-3.42407 0,-1.06201 0.29296,-2.45361 l 2.54517,-12.03003 h 5.40161 l -2.69165,12.74414 q -0.10986,0.56763 -0.10986,1.06201 0,1.53809 1.11694,1.53809 1.02539,0 1.84937,-0.93384 0.65917,-0.78735 1.15356,-2.38037 l 2.54517,-12.03003 h 5.40161 l -2.69165,12.74414 q -0.1648,0.54932 -0.1648,1.2085 0,0.76904 0.36621,1.08032 0.36621,0.31128 1.17188,0.31128 1.0437,0 1.86767,-0.93384 0.73242,-0.82397 1.17188,-2.38037 h 1.5747 q -1.00708,2.85644 -2.4353,4.5227 -1.2085,1.37329 -2.72827,1.97754 -1.11694,0.43946 -2.36206,0.43946 -1.61133,0 -2.56348,-0.89722 -0.95214,-0.89722 -1.15356,-2.65503 -1.28174,2.05078 -2.89307,2.92969 -1.15356,0.62256 -2.65503,0.62256 z"
         style="font-style:normal;font-variant:normal;font-weight:normal;font-stretch:normal;font-size:37.49999237px;line-height:32.70472336px;font-family:Pattaya;-inkscape-font-specification:Pattaya;font-variant-ligatures:normal;font-variant-caps:normal;font-variant-numeric:normal;font-feature-settings:normal;text-align:center;writing-mode:lr-tb;text-anchor:middle;fill:#295173;fill-opacity:1;stroke-width:0.93749982"
         id="path880" />
      <path
         d="m 140.87017,440.31461 q -2.14234,0 -3.4607,-1.33667 -1.53808,-1.57471 -1.53808,-4.6875 0,-1.31836 0.27466,-2.78321 0.25634,-1.46484 0.76904,-2.89306 1.17187,-3.22266 3.20434,-5.2002 2.34375,-2.25219 5.40162,-2.25219 1.51977,0 2.2705,0.531 0.76905,0.5127 0.76905,1.37329 v 0.27466 l 0.40283,-1.99585 h 5.40161 l -2.69165,12.74414 q -0.1648,0.54932 -0.1648,1.2085 0,1.61132 1.53809,1.61132 1.02539,0 1.86767,-1.0437 0.71411,-0.8789 1.17188,-2.49023 h 1.57471 q -1.00708,2.85644 -2.43531,4.5227 -1.20849,1.37329 -2.72827,1.97754 -1.11694,0.43946 -2.36206,0.43946 -1.59302,0 -2.54516,-0.8606 -0.93384,-0.87891 -1.13526,-2.58179 -1.06201,1.50147 -2.23388,2.34375 -1.50147,1.09864 -3.35083,1.09864 z m 2.4353,-3.62549 q 0.42114,0 0.87891,-0.21973 0.47607,-0.21972 0.91552,-0.62256 0.98877,-0.95215 1.31836,-2.47192 l 1.79444,-8.45947 q 0,-0.18311 -0.0916,-0.42114 -0.0732,-0.25635 -0.21972,-0.47608 -0.43946,-0.531 -1.22681,-0.531 -0.75073,0 -1.46484,0.49438 -0.6958,0.49439 -1.31836,1.37329 -1.09864,1.59302 -1.81275,4.1565 -0.32959,1.13525 -0.49438,2.25219 -0.1648,1.09863 -0.1648,1.99585 0,1.86768 0.6958,2.52686 0.23804,0.25634 0.53101,0.32959 0.29297,0.0732 0.65918,0.0732 z"
         style="font-style:normal;font-variant:normal;font-weight:normal;font-stretch:normal;font-size:37.49999237px;line-height:32.70472336px;font-family:Pattaya;-inkscape-font-specification:Pattaya;font-variant-ligatures:normal;font-variant-caps:normal;font-variant-numeric:normal;font-feature-settings:normal;text-align:center;writing-mode:lr-tb;text-anchor:middle;fill:#295173;fill-opacity:1;stroke-width:0.93749982"
         id="path882" />
      <path
         d="m 162.33013,419.31241 q -0.60425,0 -1.15357,-0.21972 -0.54931,-0.23804 -0.95214,-0.64087 -0.40284,-0.38452 -0.64087,-0.93384 -0.21973,-0.54932 -0.21973,-1.15356 0,-0.60425 0.21973,-1.15357 0.23803,-0.54932 0.64087,-0.97046 0.40283,-0.42114 0.95214,-0.64087 0.54932,-0.23803 1.15357,-0.23803 0.60425,0 1.15356,0.23803 0.54932,0.21973 0.97046,0.64087 0.42114,0.42114 0.64087,0.97046 0.23804,0.54932 0.23804,1.15357 0,0.60424 -0.23804,1.15356 -0.21973,0.54932 -0.64087,0.93384 -0.42114,0.40283 -0.97046,0.64087 -0.54931,0.21972 -1.15356,0.21972 z m -2.54517,21.0022 q -1.79443,0 -2.83813,-1.06202 -1.17188,-1.17187 -1.17188,-3.42407 0,-1.06201 0.29297,-2.45361 l 2.54517,-12.03003 h 5.40161 l -2.69165,12.74414 q -0.14649,0.47608 -0.14649,1.2085 0,0.76904 0.3479,1.08032 0.36621,0.31128 1.17188,0.31128 0.54931,0 1.06201,-0.23804 0.53101,-0.25635 0.97046,-0.6958 0.89722,-0.89722 1.35498,-2.38037 h 1.57471 q -1.00708,2.83813 -2.52686,4.5227 -1.28174,1.37329 -2.89306,1.97754 -1.17188,0.43946 -2.45362,0.43946 z"
         style="font-style:normal;font-variant:normal;font-weight:normal;font-stretch:normal;font-size:37.49999237px;line-height:32.70472336px;font-family:Pattaya;-inkscape-font-specification:Pattaya;font-variant-ligatures:normal;font-variant-caps:normal;font-variant-numeric:normal;font-feature-settings:normal;text-align:center;writing-mode:lr-tb;text-anchor:middle;fill:#295173;fill-opacity:1;stroke-width:0.93749982"
         id="path884" />
      <path
         d="m 168.64727,421.34488 h 5.40161 l -0.47608,2.32544 q 1.28174,-1.13525 2.08741,-1.61133 1.24511,-0.71411 2.4353,-0.71411 1.20849,0 1.94092,0.8606 0.32958,0.38452 0.49438,0.89722 0.16479,0.49438 0.16479,1.06201 0,0.51269 -0.16479,0.98877 -0.1648,0.47607 -0.49438,0.86059 -0.36622,0.40283 -0.89722,0.64087 -0.5127,0.23804 -1.15357,0.23804 -0.49438,0 -0.78735,-0.1648 -0.29297,-0.16479 -0.45776,-0.47607 -0.14649,-0.31128 -0.20142,-0.60425 -0.16479,-0.78735 -0.32959,-1.0437 -0.12817,-0.18311 -0.40283,-0.18311 -0.78735,0 -1.33667,0.32959 -0.54932,0.32959 -1.3916,1.09864 l -3.00293,14.2456 h -5.40161 z"
         style="font-style:normal;font-variant:normal;font-weight:normal;font-stretch:normal;font-size:37.49999237px;line-height:32.70472336px;font-family:Pattaya;-inkscape-font-specification:Pattaya;font-variant-ligatures:normal;font-variant-caps:normal;font-variant-numeric:normal;font-feature-settings:normal;text-align:center;writing-mode:lr-tb;text-anchor:middle;fill:#295173;fill-opacity:1;stroke-width:0.93749982"
         id="path886" />
      <path
         d="m 185.60283,440.31461 q -2.7649,0 -4.26636,-1.39161 -1.59302,-1.48315 -1.59302,-4.55932 0,-1.15357 0.23804,-2.56348 0.21973,-1.40991 0.67749,-2.81982 0.51269,-1.57471 1.30005,-2.98462 0.80566,-1.40991 1.86767,-2.49023 2.45362,-2.49024 6.04248,-2.49024 2.28882,0 3.33252,1.09864 0.80566,0.86059 0.80566,2.49023 0,1.59302 -0.6958,3.00293 -0.6958,1.3916 -1.9226,2.47192 -1.22681,1.06201 -2.78321,1.70288 -1.55639,0.62256 -3.22265,0.73242 -0.0916,0.95215 -0.0916,1.50147 0,1.83105 0.6958,2.52685 0.60424,0.62256 2.01416,0.62256 2.03247,0 3.71704,-1.09863 0.71411,-0.45776 1.37329,-1.08032 0.65918,-0.64087 1.53808,-1.61133 h 1.28174 q -1.77612,3.00293 -4.08325,4.77905 -2.83813,2.16065 -6.22558,2.16065 z m 0.0732,-9.59473 q 1.0437,-0.0732 2.03247,-0.60425 0.98877,-0.531 1.75781,-1.3916 0.76904,-0.8789 1.2085,-1.95923 0.43945,-1.09863 0.43945,-2.23388 0,-0.75073 -0.21973,-1.13526 -0.20141,-0.40283 -0.71411,-0.40283 -0.67749,0 -1.37329,0.65918 -0.67749,0.65918 -1.31836,1.81275 -0.58594,1.08032 -1.06201,2.45361 -0.47607,1.37329 -0.75073,2.80151 z"
         style="font-style:normal;font-variant:normal;font-weight:normal;font-stretch:normal;font-size:37.49999237px;line-height:32.70472336px;font-family:Pattaya;-inkscape-font-specification:Pattaya;font-variant-ligatures:normal;font-variant-caps:normal;font-variant-numeric:normal;font-feature-settings:normal;text-align:center;writing-mode:lr-tb;text-anchor:middle;fill:#295173;fill-opacity:1;stroke-width:0.93749982"
         id="path888" />
      <path
         d="m 207.30082,440.31461 q -2.14233,0 -3.46069,-1.33667 -1.53808,-1.57471 -1.53808,-4.6875 0,-1.31836 0.27465,-2.78321 0.25635,-1.46484 0.76905,-2.89306 1.17187,-3.22266 3.20434,-5.2002 2.34375,-2.25219 5.40161,-2.25219 1.51978,0 2.27051,0.531 0.76904,0.5127 0.76904,1.37329 v 0.14649 l 1.83106,-8.62427 5.54809,-0.75073 -4.30298,20.25146 q -0.16479,0.54932 -0.16479,1.2085 0,0.76904 0.36621,1.08032 0.36621,0.31128 1.17187,0.31128 1.0437,0 1.86768,-0.93384 0.6958,-0.82397 1.17187,-2.38037 h 1.57471 q -0.98877,2.81982 -2.4353,4.44946 -1.22681,1.35498 -2.72827,1.88599 -1.08032,0.38452 -2.36206,0.38452 -1.5564,0 -2.50855,-0.82398 -0.95215,-0.82397 -1.17187,-2.39868 -1.00708,1.51978 -2.17896,2.34375 -1.51977,1.09864 -3.36914,1.09864 z m 2.43531,-3.62549 q 0.40283,0 0.86059,-0.20142 0.47608,-0.20141 0.89722,-0.56762 0.98877,-0.89722 1.31836,-2.34375 v -0.20142 l 1.83105,-8.58764 q -0.12817,-0.5127 -0.36621,-0.82398 -0.38452,-0.47607 -1.17187,-0.47607 -0.75074,0 -1.46485,0.49438 -0.6958,0.49439 -1.31836,1.37329 -1.09863,1.59302 -1.81274,4.1565 -0.32959,1.13525 -0.49439,2.25219 -0.16479,1.09863 -0.16479,1.99585 0,1.86768 0.6958,2.52686 0.23804,0.25634 0.53101,0.32959 0.29297,0.0732 0.65918,0.0732 z"
         style="font-style:normal;font-variant:normal;font-weight:normal;font-stretch:normal;font-size:37.49999237px;line-height:32.70472336px;font-family:Pattaya;-inkscape-font-specification:Pattaya;font-variant-ligatures:normal;font-variant-caps:normal;font-variant-numeric:normal;font-feature-settings:normal;text-align:center;writing-mode:lr-tb;text-anchor:middle;fill:#295173;fill-opacity:1;stroke-width:0.93749982"
         id="path890" />
      <path
         d="m 227.86357,440.31461 q -2.76489,0 -4.26636,-1.39161 -1.59302,-1.48315 -1.59302,-4.55932 0,-1.15357 0.23804,-2.56348 0.21973,-1.40991 0.67749,-2.81982 0.5127,-1.57471 1.30005,-2.98462 0.80566,-1.40991 1.86767,-2.49023 2.45362,-2.49024 6.04248,-2.49024 2.28882,0 3.33252,1.09864 0.80567,0.86059 0.80567,2.49023 0,1.59302 -0.6958,3.00293 -0.6958,1.3916 -1.92261,2.47192 -1.22681,1.06201 -2.7832,1.70288 -1.5564,0.62256 -3.22266,0.73242 -0.0916,0.95215 -0.0916,1.50147 0,1.83105 0.6958,2.52685 0.60425,0.62256 2.01416,0.62256 2.03247,0 3.71704,-1.09863 0.71411,-0.45776 1.37329,-1.08032 0.65918,-0.64087 1.53809,-1.61133 h 1.28173 q -1.77612,3.00293 -4.08325,4.77905 -2.83813,2.16065 -6.22558,2.16065 z m 0.0732,-9.59473 q 1.0437,-0.0732 2.03247,-0.60425 0.98877,-0.531 1.75781,-1.3916 0.76905,-0.8789 1.2085,-1.95923 0.43945,-1.09863 0.43945,-2.23388 0,-0.75073 -0.21973,-1.13526 -0.20141,-0.40283 -0.71411,-0.40283 -0.67749,0 -1.37329,0.65918 -0.67749,0.65918 -1.31836,1.81275 -0.58593,1.08032 -1.06201,2.45361 -0.47607,1.37329 -0.75073,2.80151 z"
         style="font-style:normal;font-variant:normal;font-weight:normal;font-stretch:normal;font-size:37.49999237px;line-height:32.70472336px;font-family:Pattaya;-inkscape-font-specification:Pattaya;font-variant-ligatures:normal;font-variant-caps:normal;font-variant-numeric:normal;font-feature-settings:normal;text-align:center;writing-mode:lr-tb;text-anchor:middle;fill:#295173;fill-opacity:1;stroke-width:0.93749982"
         id="path892" />
      <path
         d="m 241.19363,440.31461 q -1.35498,0 -2.39868,-0.40284 -1.0437,-0.42114 -1.75781,-1.15356 -0.65918,-0.67749 -0.98877,-1.50147 -0.32959,-0.84228 -0.32959,-1.7395 0,-1.2268 0.62256,-2.21557 0.54931,-0.87891 1.37329,-1.26343 1.46484,-2.6001 2.54516,-5.27344 1.08033,-2.67334 2.06909,-5.84106 l 5.5481,-0.73242 q 0.21973,4.76074 0.40283,7.30591 0.18311,2.6184 0.31128,3.84521 0.10986,1.42822 0.10986,2.49023 0,0.95215 -0.14648,1.42823 1.68457,-0.98877 2.69165,-1.88599 h 1.57471 q -1.33667,1.5564 -2.7649,2.67334 -1.40991,1.11694 -2.9663,2.01416 -1.11695,1.17187 -2.80152,1.7395 -1.46484,0.5127 -3.09448,0.5127 z m -1.19018,-2.96631 q 1.40991,0 2.25219,-0.76905 1.00708,-0.91552 1.00708,-2.70996 0,-0.75073 -0.0916,-1.88598 l -0.0915,-1.11694 q -0.1648,-1.44654 -0.32959,-3.35083 l -0.20142,-2.52686 q -0.531,1.70288 -1.26343,3.38745 -0.73242,1.66626 -1.77612,3.69873 0.8606,0.47608 0.8606,1.30005 0,0.73242 -0.43946,1.26343 -0.47607,0.58593 -1.20849,0.58593 -0.36621,0 -0.62256,-0.0915 -0.23804,-0.10986 -0.38452,-0.40283 0,1.35498 0.531,1.99585 0.53101,0.62256 1.75782,0.62256 z"
         style="font-style:normal;font-variant:normal;font-weight:normal;font-stretch:normal;font-size:37.49999237px;line-height:32.70472336px;font-family:Pattaya;-inkscape-font-specification:Pattaya;font-variant-ligatures:normal;font-variant-caps:normal;font-variant-numeric:normal;font-feature-settings:normal;text-align:center;writing-mode:lr-tb;text-anchor:middle;fill:#295173;fill-opacity:1;stroke-width:0.93749982"
         id="path894" />
      <path
         d="m 262.26907,419.95328 h 5.40161 l -0.60425,2.81983 q 1.9043,-1.61133 4.37622,-1.61133 2.10572,0 3.25928,1.28174 1.31836,1.50146 1.31836,4.63256 0,3.02124 -0.76904,5.67627 -0.97046,3.38745 -2.81983,5.25513 -2.27051,2.30713 -5.63965,2.30713 -1.30004,0 -2.14233,-0.40284 -0.64087,-0.29296 -1.0437,-0.93383 l -1.94092,9.13696 -5.65796,1.35498 z m 3.36914,17.10205 q 1.81274,0 3.11279,-1.84937 1.02539,-1.44653 1.64795,-4.06494 0.49439,-2.10571 0.49439,-4.1748 0,-1.84937 -0.67749,-2.63672 -0.43946,-0.47607 -1.2085,-0.47607 -0.67749,0 -1.37329,0.47607 -0.6958,0.47608 -1.2085,1.37329 l -2.21557,10.49194 q 0.12817,0.36621 0.47607,0.62256 0.36621,0.23804 0.95215,0.23804 z"
         style="font-style:normal;font-variant:normal;font-weight:normal;font-stretch:normal;font-size:37.49999237px;line-height:32.70472336px;font-family:Pattaya;-inkscape-font-specification:Pattaya;font-variant-ligatures:normal;font-variant-caps:normal;font-variant-numeric:normal;font-feature-settings:normal;text-align:center;writing-mode:lr-tb;text-anchor:middle;fill:#295173;fill-opacity:1;stroke-width:0.93749982"
         id="path896" />
      <path
         d="m 279.53592,421.34488 h 5.40161 l -0.47608,2.32544 q 1.28174,-1.13525 2.0874,-1.61133 1.24512,-0.71411 2.43531,-0.71411 1.20849,0 1.94091,0.8606 0.32959,0.38452 0.49439,0.89722 0.16479,0.49438 0.16479,1.06201 0,0.51269 -0.16479,0.98877 -0.1648,0.47607 -0.49439,0.86059 -0.36621,0.40283 -0.89721,0.64087 -0.5127,0.23804 -1.15357,0.23804 -0.49438,0 -0.78735,-0.1648 -0.29297,-0.16479 -0.45776,-0.47607 -0.14649,-0.31128 -0.20142,-0.60425 -0.16479,-0.78735 -0.32959,-1.0437 -0.12817,-0.18311 -0.40283,-0.18311 -0.78735,0 -1.33667,0.32959 -0.54932,0.32959 -1.3916,1.09864 l -3.00293,14.2456 h -5.40161 z"
         style="font-style:normal;font-variant:normal;font-weight:normal;font-stretch:normal;font-size:37.49999237px;line-height:32.70472336px;font-family:Pattaya;-inkscape-font-specification:Pattaya;font-variant-ligatures:normal;font-variant-caps:normal;font-variant-numeric:normal;font-feature-settings:normal;text-align:center;writing-mode:lr-tb;text-anchor:middle;fill:#295173;fill-opacity:1;stroke-width:0.93749982"
         id="path898" />
      <path
         d="m 296.60135,440.24136 q -2.78321,0 -4.30298,-1.35498 -1.70288,-1.50146 -1.70288,-4.55932 0,-1.15357 0.23803,-2.54517 0.23804,-1.40991 0.73243,-2.83813 1.13525,-3.40576 3.24096,-5.43823 2.54517,-2.49024 6.06079,-2.49024 4.81567,0 4.81567,5.98755 v 0.0366 q 0.10987,0.0366 0.18311,0.0366 h 0.21973 q 1.24511,0 2.94799,-0.6958 1.50147,-0.62256 2.83814,-1.55639 l 0.32959,1.02539 q -1.09863,1.15356 -2.83814,1.95922 -1.72119,0.80567 -3.80859,1.15357 -0.21973,2.54516 -0.98877,4.65088 -0.76904,2.0874 -1.97754,3.58886 -1.19018,1.46485 -2.72827,2.2522 -1.53808,0.78735 -3.25927,0.78735 z m 1.50146,-3.36914 q 0.65918,0 1.33667,-0.58593 0.6958,-0.60425 1.30005,-1.66626 0.60425,-1.06201 1.0437,-2.49024 0.43945,-1.42822 0.65918,-3.05786 -0.54932,-0.14648 -0.78735,-0.54931 -0.21973,-0.40284 -0.21973,-1.02539 0,-0.76905 0.31128,-1.28174 0.31128,-0.5127 0.86059,-0.75073 -0.0732,-1.19019 -0.38452,-1.70289 -0.16479,-0.25634 -0.42114,-0.36621 -0.23804,-0.10986 -0.62256,-0.10986 -1.26343,0 -2.47192,1.9043 -1.11695,1.72119 -1.83106,4.24804 -0.6958,2.47193 -0.6958,4.39453 0,0.93384 0.0916,1.51978 0.10986,0.58594 0.3479,0.91553 0.21972,0.32959 0.56762,0.47607 0.3479,0.12817 0.91553,0.12817 z"
         style="font-style:normal;font-variant:normal;font-weight:normal;font-stretch:normal;font-size:37.49999237px;line-height:32.70472336px;font-family:Pattaya;-inkscape-font-specification:Pattaya;font-variant-ligatures:normal;font-variant-caps:normal;font-variant-numeric:normal;font-feature-settings:normal;text-align:center;writing-mode:lr-tb;text-anchor:middle;fill:#295173;fill-opacity:1;stroke-width:0.93749982"
         id="path900" />
      <path
         d="m 304.23683,449.46988 q -0.84229,0 -1.62964,-0.29297 -0.80566,-0.29297 -1.42822,-0.82398 -0.64087,-0.56762 -1.00708,-1.31835 -0.36621,-0.73243 -0.36621,-1.61133 0,-1.26343 0.49438,-2.16065 0.47608,-0.89721 1.3916,-1.55639 0.80567,-0.56763 1.88599,-1.00708 1.06201,-0.42115 2.67334,-0.89722 l 4.54101,-21.42334 q 0.6958,-3.57055 2.91138,-5.20019 1.59302,-1.17187 3.91846,-1.17187 0.84228,0 1.62964,0.29296 0.80566,0.29297 1.42822,0.82398 0.64087,0.56763 0.98877,1.31836 0.36621,0.73242 0.36621,1.61133 0,0.8789 -0.10987,1.53808 H 320.167 q 0.0732,-0.56763 0.0732,-1.00708 0,-0.62256 -0.42114,-0.95215 -0.40283,-0.32959 -1.00708,-0.32959 -0.75073,0 -1.40991,0.58594 -0.87891,0.78735 -1.2085,2.49023 l -0.64086,2.96631 h 2.74658 l -0.27466,1.50147 h -2.76489 l -4.32129,20.25146 q -0.71411,3.57055 -2.83814,5.20019 -1.55639,1.17188 -3.86352,1.17188 z m -0.8606,-3.33252 q 0.65918,0 1.19019,-0.62256 0.58594,-0.71411 0.93384,-2.30713 l 0.49438,-2.17895 q -1.99585,0.65918 -2.948,1.46484 -1.17187,0.98877 -1.17187,2.39868 0,0.49439 0.42114,0.82398 0.49439,0.42114 1.08032,0.42114 z"
         style="font-style:normal;font-variant:normal;font-weight:normal;font-stretch:normal;font-size:37.49999237px;line-height:32.70472336px;font-family:Pattaya;-inkscape-font-specification:Pattaya;font-variant-ligatures:normal;font-variant-caps:normal;font-variant-numeric:normal;font-feature-settings:normal;text-align:center;writing-mode:lr-tb;text-anchor:middle;fill:#295173;fill-opacity:1;stroke-width:0.93749982"
         id="path902" />
      <path
         d="m 323.00514,440.31461 q -2.76489,0 -4.26636,-1.39161 -1.59302,-1.48315 -1.59302,-4.55932 0,-1.15357 0.23804,-2.56348 0.21973,-1.40991 0.67749,-2.81982 0.5127,-1.57471 1.30005,-2.98462 0.80566,-1.40991 1.86768,-2.49023 2.45361,-2.49024 6.04248,-2.49024 2.28881,0 3.33251,1.09864 0.80567,0.86059 0.80567,2.49023 0,1.59302 -0.6958,3.00293 -0.6958,1.3916 -1.92261,2.47192 -1.22681,1.06201 -2.7832,1.70288 -1.5564,0.62256 -3.22266,0.73242 -0.0916,0.95215 -0.0916,1.50147 0,1.83105 0.6958,2.52685 0.60425,0.62256 2.01416,0.62256 2.03247,0 3.71704,-1.09863 0.71411,-0.45776 1.37329,-1.08032 0.65918,-0.64087 1.53809,-1.61133 h 1.28173 q -1.77612,3.00293 -4.08325,4.77905 -2.83813,2.16065 -6.22558,2.16065 z m 0.0732,-9.59473 q 1.0437,-0.0732 2.03247,-0.60425 0.98877,-0.531 1.75781,-1.3916 0.76905,-0.8789 1.2085,-1.95923 0.43945,-1.09863 0.43945,-2.23388 0,-0.75073 -0.21972,-1.13526 -0.20142,-0.40283 -0.71412,-0.40283 -0.67749,0 -1.37329,0.65918 -0.67749,0.65918 -1.31836,1.81275 -0.58593,1.08032 -1.06201,2.45361 -0.47607,1.37329 -0.75073,2.80151 z"
         style="font-style:normal;font-variant:normal;font-weight:normal;font-stretch:normal;font-size:37.49999237px;line-height:32.70472336px;font-family:Pattaya;-inkscape-font-specification:Pattaya;font-variant-ligatures:normal;font-variant-caps:normal;font-variant-numeric:normal;font-feature-settings:normal;text-align:center;writing-mode:lr-tb;text-anchor:middle;fill:#295173;fill-opacity:1;stroke-width:0.93749982"
         id="path904" />
      <path
         d="m 336.33522,440.31461 q -1.35498,0 -2.39868,-0.40284 -1.04371,-0.42114 -1.75782,-1.15356 -0.65918,-0.67749 -0.98877,-1.50147 -0.32959,-0.84228 -0.32959,-1.7395 0,-1.2268 0.62256,-2.21557 0.54932,-0.87891 1.37329,-1.26343 1.46485,-2.6001 2.54517,-5.27344 1.08032,-2.67334 2.06909,-5.84106 l 5.5481,-0.73242 q 0.21972,4.76074 0.40283,7.30591 0.1831,2.6184 0.31128,3.84521 0.10986,1.42822 0.10986,2.49023 0,0.95215 -0.14648,1.42823 1.68457,-0.98877 2.69165,-1.88599 h 1.5747 q -1.33667,1.5564 -2.76489,2.67334 -1.40991,1.11694 -2.96631,2.01416 -1.11694,1.17187 -2.80151,1.7395 -1.46484,0.5127 -3.09448,0.5127 z m -1.19019,-2.96631 q 1.40991,0 2.2522,-0.76905 1.00708,-0.91552 1.00708,-2.70996 0,-0.75073 -0.0915,-1.88598 l -0.0916,-1.11694 q -0.16479,-1.44654 -0.32959,-3.35083 l -0.20141,-2.52686 q -0.53101,1.70288 -1.26343,3.38745 -0.73242,1.66626 -1.77612,3.69873 0.86059,0.47608 0.86059,1.30005 0,0.73242 -0.43945,1.26343 -0.47607,0.58593 -1.2085,0.58593 -0.36621,0 -0.62255,-0.0915 -0.23804,-0.10986 -0.38453,-0.40283 0,1.35498 0.53101,1.99585 0.53101,0.62256 1.75781,0.62256 z"
         style="font-style:normal;font-variant:normal;font-weight:normal;font-stretch:normal;font-size:37.49999237px;line-height:32.70472336px;font-family:Pattaya;-inkscape-font-specification:Pattaya;font-variant-ligatures:normal;font-variant-caps:normal;font-variant-numeric:normal;font-feature-settings:normal;text-align:center;writing-mode:lr-tb;text-anchor:middle;fill:#295173;fill-opacity:1;stroke-width:0.93749982"
         id="path906" />
      <path
         d="m 350.69069,440.31461 q -1.35498,0 -2.39869,-0.40284 -1.0437,-0.42114 -1.75781,-1.15356 -0.65918,-0.67749 -0.98877,-1.50147 -0.32959,-0.84228 -0.32959,-1.7395 0,-1.2268 0.62256,-2.21557 0.54932,-0.87891 1.37329,-1.26343 1.46485,-2.6001 2.54517,-5.27344 1.08032,-2.67334 2.06909,-5.84106 l 5.54809,-0.73242 q 0.21973,4.76074 0.40284,7.30591 0.1831,2.6184 0.31128,3.84521 0.10986,1.42822 0.10986,2.49023 0,0.95215 -0.14649,1.42823 1.68457,-0.98877 2.69165,-1.88599 h 1.57471 q -1.33667,1.5564 -2.76489,2.67334 -1.40991,1.11694 -2.96631,2.01416 -1.11694,1.17187 -2.80151,1.7395 -1.46485,0.5127 -3.09448,0.5127 z m -1.19019,-2.96631 q 1.40991,0 2.2522,-0.76905 1.00708,-0.91552 1.00708,-2.70996 0,-0.75073 -0.0916,-1.88598 l -0.0916,-1.11694 q -0.16479,-1.44654 -0.32959,-3.35083 l -0.20141,-2.52686 q -0.53101,1.70288 -1.26343,3.38745 -0.73242,1.66626 -1.77612,3.69873 0.86059,0.47608 0.86059,1.30005 0,0.73242 -0.43945,1.26343 -0.47608,0.58593 -1.2085,0.58593 -0.36621,0 -0.62256,-0.0915 -0.23803,-0.10986 -0.38452,-0.40283 0,1.35498 0.53101,1.99585 0.531,0.62256 1.75781,0.62256 z"
         style="font-style:normal;font-variant:normal;font-weight:normal;font-stretch:normal;font-size:37.49999237px;line-height:32.70472336px;font-family:Pattaya;-inkscape-font-specification:Pattaya;font-variant-ligatures:normal;font-variant-caps:normal;font-variant-numeric:normal;font-feature-settings:normal;text-align:center;writing-mode:lr-tb;text-anchor:middle;fill:#295173;fill-opacity:1;stroke-width:0.93749982"
         id="path908" />
      <path
         d="m 367.042,419.31241 q -0.60424,0 -1.15356,-0.21972 -0.54932,-0.23804 -0.95215,-0.64087 -0.40283,-0.38452 -0.64087,-0.93384 -0.21972,-0.54932 -0.21972,-1.15356 0,-0.60425 0.21972,-1.15357 0.23804,-0.54932 0.64087,-0.97046 0.40283,-0.42114 0.95215,-0.64087 0.54932,-0.23803 1.15356,-0.23803 0.60425,0 1.15357,0.23803 0.54931,0.21973 0.97046,0.64087 0.42114,0.42114 0.64087,0.97046 0.23803,0.54932 0.23803,1.15357 0,0.60424 -0.23803,1.15356 -0.21973,0.54932 -0.64087,0.93384 -0.42115,0.40283 -0.97046,0.64087 -0.54932,0.21972 -1.15357,0.21972 z m -2.54516,21.0022 q -1.79444,0 -2.83814,-1.06202 -1.17187,-1.17187 -1.17187,-3.42407 0,-1.06201 0.29297,-2.45361 l 2.54516,-12.03003 h 5.40161 l -2.69165,12.74414 q -0.14648,0.47608 -0.14648,1.2085 0,0.76904 0.3479,1.08032 0.36621,0.31128 1.17187,0.31128 0.54932,0 1.06202,-0.23804 0.531,-0.25635 0.97045,-0.6958 0.89722,-0.89722 1.35499,-2.38037 h 1.5747 q -1.00708,2.83813 -2.52685,4.5227 -1.28174,1.37329 -2.89307,1.97754 -1.17187,0.43946 -2.45361,0.43946 z"
         style="font-style:normal;font-variant:normal;font-weight:normal;font-stretch:normal;font-size:37.49999237px;line-height:32.70472336px;font-family:Pattaya;-inkscape-font-specification:Pattaya;font-variant-ligatures:normal;font-variant-caps:normal;font-variant-numeric:normal;font-feature-settings:normal;text-align:center;writing-mode:lr-tb;text-anchor:middle;fill:#295173;fill-opacity:1;stroke-width:0.93749982"
         id="path910" />
      <path
         d="m 376.28883,440.24136 q -2.7832,0 -4.30298,-1.35498 -1.70288,-1.50146 -1.70288,-4.55932 0,-1.15357 0.23804,-2.54517 0.23804,-1.40991 0.73242,-2.83813 1.13525,-3.40576 3.24097,-5.43823 2.54516,-2.49024 6.06079,-2.49024 4.81567,0 4.81567,5.98755 v 0.0366 q 0.10986,0.0366 0.1831,0.0366 h 0.21973 q 1.24512,0 2.948,-0.6958 1.50146,-0.62256 2.83813,-1.55639 l 0.32959,1.02539 q -1.09863,1.15356 -2.83813,1.95922 -1.72119,0.80567 -3.80859,1.15357 -0.21973,2.54516 -0.98877,4.65088 -0.76905,2.0874 -1.97754,3.58886 -1.19019,1.46485 -2.72827,2.2522 -1.53809,0.78735 -3.25928,0.78735 z m 1.50146,-3.36914 q 0.65918,0 1.33667,-0.58593 0.6958,-0.60425 1.30005,-1.66626 0.60425,-1.06201 1.0437,-2.49024 0.43946,-1.42822 0.65918,-3.05786 -0.54931,-0.14648 -0.78735,-0.54931 -0.21973,-0.40284 -0.21973,-1.02539 0,-0.76905 0.31128,-1.28174 0.31128,-0.5127 0.8606,-0.75073 -0.0732,-1.19019 -0.38452,-1.70289 -0.1648,-0.25634 -0.42115,-0.36621 -0.23803,-0.10986 -0.62255,-0.10986 -1.26343,0 -2.47193,1.9043 -1.11694,1.72119 -1.83105,4.24804 -0.6958,2.47193 -0.6958,4.39453 0,0.93384 0.0916,1.51978 0.10986,0.58594 0.3479,0.91553 0.21973,0.32959 0.56763,0.47607 0.3479,0.12817 0.91552,0.12817 z"
         style="font-style:normal;font-variant:normal;font-weight:normal;font-stretch:normal;font-size:37.49999237px;line-height:32.70472336px;font-family:Pattaya;-inkscape-font-specification:Pattaya;font-variant-ligatures:normal;font-variant-caps:normal;font-variant-numeric:normal;font-feature-settings:normal;text-align:center;writing-mode:lr-tb;text-anchor:middle;fill:#295173;fill-opacity:1;stroke-width:0.93749982"
         id="path912" />
      <path
         d="m 400.82496,440.31461 q -2.32544,0 -3.44238,-1.31836 -0.97046,-1.13526 -0.97046,-2.91138 0,-0.84228 0.20142,-1.95923 0.21972,-1.11694 0.64087,-2.87475 0.42114,-1.79444 0.62255,-2.85645 0.21973,-1.08032 0.21973,-1.86767 0,-1.92261 -1.35498,-1.92261 -0.95215,0 -1.75781,1.00708 -0.67749,0.8606 -1.17188,2.45361 l -2.54516,12.03003 h -5.40161 l 3.97339,-18.75 h 5.40161 l -0.40284,1.94092 q 1.09864,-1.22681 2.36206,-1.72119 0.93384,-0.36621 2.01416,-0.36621 1.9043,0 3.00293,0.98877 1.17188,1.08032 1.17188,3.24096 0,1.30005 -0.47608,3.38745 -0.12817,0.60425 -0.42114,1.81275 -0.53101,2.03247 -0.76904,3.24096 -0.14649,0.76905 -0.14649,1.24512 0,0.75073 0.32959,1.17188 0.3479,0.40283 1.17188,0.40283 1.11694,0 1.88598,-0.91553 0.58594,-0.6958 1.26343,-2.39868 h 1.57471 q -1.3916,4.11987 -3.51563,5.76782 -1.50146,1.17188 -3.46069,1.17188 z"
         style="font-style:normal;font-variant:normal;font-weight:normal;font-stretch:normal;font-size:37.49999237px;line-height:32.70472336px;font-family:Pattaya;-inkscape-font-specification:Pattaya;font-variant-ligatures:normal;font-variant-caps:normal;font-variant-numeric:normal;font-feature-settings:normal;text-align:center;writing-mode:lr-tb;text-anchor:middle;fill:#295173;fill-opacity:1;stroke-width:0.93749982"
         id="path914" />
      <path
         d="m 419.79469,440.31461 q -2.32544,0 -3.44238,-1.31836 -0.97046,-1.13526 -0.97046,-2.91138 0,-0.84228 0.20141,-1.95923 0.21973,-1.11694 0.64087,-2.87475 0.42114,-1.79444 0.62256,-2.85645 0.21973,-1.08032 0.21973,-1.86767 0,-1.92261 -1.35498,-1.92261 -0.95215,0 -1.75782,1.00708 -0.67749,0.8606 -1.17187,2.45361 l -2.54517,12.03003 h -5.40161 l 3.97339,-18.75 h 5.40161 l -0.40283,1.94092 q 1.09863,-1.22681 2.36206,-1.72119 0.93384,-0.36621 2.01416,-0.36621 1.9043,0 3.00293,0.98877 1.17187,1.08032 1.17187,3.24096 0,1.30005 -0.47607,3.38745 -0.12817,0.60425 -0.42114,1.81275 -0.53101,2.03247 -0.76905,3.24096 -0.14648,0.76905 -0.14648,1.24512 0,0.75073 0.32959,1.17188 0.3479,0.40283 1.17187,0.40283 1.11695,0 1.88599,-0.91553 0.58594,-0.6958 1.26343,-2.39868 h 1.5747 q -1.3916,4.11987 -3.51562,5.76782 -1.50146,1.17188 -3.46069,1.17188 z"
         style="font-style:normal;font-variant:normal;font-weight:normal;font-stretch:normal;font-size:37.49999237px;line-height:32.70472336px;font-family:Pattaya;-inkscape-font-specification:Pattaya;font-variant-ligatures:normal;font-variant-caps:normal;font-variant-numeric:normal;font-feature-settings:normal;text-align:center;writing-mode:lr-tb;text-anchor:middle;fill:#295173;fill-opacity:1;stroke-width:0.93749982"
         id="path916" />
      <path
         d="m 430.59788,440.31461 q -2.76489,0 -4.26635,-1.39161 -1.59302,-1.48315 -1.59302,-4.55932 0,-1.15357 0.23803,-2.56348 0.21973,-1.40991 0.67749,-2.81982 0.5127,-1.57471 1.30005,-2.98462 0.80567,-1.40991 1.86768,-2.49023 2.45361,-2.49024 6.04248,-2.49024 2.28882,0 3.33252,1.09864 0.80566,0.86059 0.80566,2.49023 0,1.59302 -0.6958,3.00293 -0.6958,1.3916 -1.92261,2.47192 -1.2268,1.06201 -2.7832,1.70288 -1.5564,0.62256 -3.22265,0.73242 -0.0916,0.95215 -0.0916,1.50147 0,1.83105 0.6958,2.52685 0.60425,0.62256 2.01416,0.62256 2.03247,0 3.71704,-1.09863 0.71411,-0.45776 1.37329,-1.08032 0.65918,-0.64087 1.53809,-1.61133 h 1.28174 q -1.77613,3.00293 -4.08325,4.77905 -2.83814,2.16065 -6.22559,2.16065 z m 0.0732,-9.59473 q 1.0437,-0.0732 2.03247,-0.60425 0.98877,-0.531 1.75782,-1.3916 0.76904,-0.8789 1.20849,-1.95923 0.43946,-1.09863 0.43946,-2.23388 0,-0.75073 -0.21973,-1.13526 -0.20142,-0.40283 -0.71411,-0.40283 -0.67749,0 -1.37329,0.65918 -0.67749,0.65918 -1.31836,1.81275 -0.58594,1.08032 -1.06201,2.45361 -0.47608,1.37329 -0.75074,2.80151 z"
         style="font-style:normal;font-variant:normal;font-weight:normal;font-stretch:normal;font-size:37.49999237px;line-height:32.70472336px;font-family:Pattaya;-inkscape-font-specification:Pattaya;font-variant-ligatures:normal;font-variant-caps:normal;font-variant-numeric:normal;font-feature-settings:normal;text-align:center;writing-mode:lr-tb;text-anchor:middle;fill:#295173;fill-opacity:1;stroke-width:0.93749982"
         id="path918" />
      <path
         d="m 443.37864,440.31461 q -1.79443,0 -2.83813,-1.06202 -1.17188,-1.17187 -1.17188,-3.42407 0,-1.06201 0.29297,-2.45361 l 4.01001,-18.78662 5.5481,-0.75073 -4.30298,20.25146 q -0.14649,0.47608 -0.14649,1.2085 0,0.76904 0.34791,1.08032 0.36621,0.31128 1.17187,0.31128 0.54932,0 1.06201,-0.23804 0.53101,-0.25635 0.97046,-0.6958 0.89722,-0.89722 1.35498,-2.38037 h 1.57471 q -1.00708,2.83813 -2.52686,4.5227 -1.28174,1.37329 -2.89306,1.97754 -1.17188,0.43946 -2.45362,0.43946 z"
         style="font-style:normal;font-variant:normal;font-weight:normal;font-stretch:normal;font-size:37.49999237px;line-height:32.70472336px;font-family:Pattaya;-inkscape-font-specification:Pattaya;font-variant-ligatures:normal;font-variant-caps:normal;font-variant-numeric:normal;font-feature-settings:normal;text-align:center;writing-mode:lr-tb;text-anchor:middle;fill:#295173;fill-opacity:1;stroke-width:0.93749982"
         id="path920" />
      <path
         d="m 453.96214,440.31461 q -1.35498,0 -2.39868,-0.40284 -1.0437,-0.42114 -1.75781,-1.15356 -0.65918,-0.67749 -0.98877,-1.50147 -0.32959,-0.84228 -0.32959,-1.7395 0,-1.2268 0.62256,-2.21557 0.54931,-0.87891 1.37329,-1.26343 1.46484,-2.6001 2.54516,-5.27344 1.08032,-2.67334 2.06909,-5.84106 l 5.5481,-0.73242 q 0.21972,4.76074 0.40283,7.30591 0.18311,2.6184 0.31128,3.84521 0.10986,1.42822 0.10986,2.49023 0,0.95215 -0.14648,1.42823 1.68457,-0.98877 2.69165,-1.88599 h 1.5747 q -1.33667,1.5564 -2.76489,2.67334 -1.40991,1.11694 -2.96631,2.01416 -1.11694,1.17187 -2.80151,1.7395 -1.46484,0.5127 -3.09448,0.5127 z m -1.19019,-2.96631 q 1.40992,0 2.2522,-0.76905 1.00708,-0.91552 1.00708,-2.70996 0,-0.75073 -0.0915,-1.88598 l -0.0915,-1.11694 q -0.1648,-1.44654 -0.32959,-3.35083 l -0.20142,-2.52686 q -0.53101,1.70288 -1.26343,3.38745 -0.73242,1.66626 -1.77612,3.69873 0.8606,0.47608 0.8606,1.30005 0,0.73242 -0.43946,1.26343 -0.47607,0.58593 -1.20849,0.58593 -0.36621,0 -0.62256,-0.0915 -0.23804,-0.10986 -0.38452,-0.40283 0,1.35498 0.531,1.99585 0.53101,0.62256 1.75781,0.62256 z"
         style="font-style:normal;font-variant:normal;font-weight:normal;font-stretch:normal;font-size:37.49999237px;line-height:32.70472336px;font-family:Pattaya;-inkscape-font-specification:Pattaya;font-variant-ligatures:normal;font-variant-caps:normal;font-variant-numeric:normal;font-feature-settings:normal;text-align:center;writing-mode:lr-tb;text-anchor:middle;fill:#295173;fill-opacity:1;stroke-width:0.93749982"
         id="path922" />
    </g>
    <g
       aria-label="du btiment dans l'Eure"
       style="font-style:normal;font-variant:normal;font-weight:normal;font-stretch:normal;font-size:37.49999237px;line-height:1.25;font-family:Cookie;-inkscape-font-specification:'Cookie, Normal';font-variant-ligatures:normal;font-variant-caps:normal;font-variant-numeric:normal;font-feature-settings:normal;text-align:center;letter-spacing:0px;word-spacing:0px;writing-mode:lr-tb;text-anchor:middle;fill:#295173;fill-opacity:1;stroke:none;stroke-width:0.93749976"
       id="text172-1-5-0">
      <path
         d="m 83.182804,481.94427 q -2.142334,0 -3.460693,-1.33666 -1.538085,-1.57471 -1.538085,-4.6875 0,-1.31836 0.274658,-2.78321 0.256348,-1.46484 0.769043,-2.89306 1.171874,-3.22266 3.204345,-5.2002 2.343749,-2.25219 5.40161,-2.25219 1.519775,0 2.270507,0.531 0.769043,0.5127 0.769043,1.37329 v 0.14649 l 1.831054,-8.62427 5.548095,-0.75073 -4.302978,20.25146 q -0.164794,0.54932 -0.164794,1.2085 0,0.76904 0.36621,1.08032 0.366211,0.31128 1.171875,0.31128 1.043701,0 1.867676,-0.93384 0.6958,-0.82397 1.171874,-2.38037 h 1.574707 q -0.988769,2.81982 -2.435302,4.44946 -1.226807,1.35498 -2.728271,1.88599 -1.080322,0.38452 -2.36206,0.38452 -1.556396,0 -2.508545,-0.82398 -0.952148,-0.82397 -1.171874,-2.39868 -1.00708,1.51978 -2.178955,2.34375 -1.519775,1.09863 -3.36914,1.09863 z m 2.435302,-3.62548 q 0.402832,0 0.860596,-0.20142 0.476074,-0.20141 0.897216,-0.56763 0.98877,-0.89721 1.31836,-2.34375 v -0.20141 l 1.831054,-8.58765 q -0.128174,-0.51269 -0.366211,-0.82397 -0.384521,-0.47607 -1.171875,-0.47607 -0.750732,0 -1.464843,0.49438 -0.695801,0.49439 -1.318359,1.37329 -1.098633,1.59302 -1.812744,4.15649 -0.32959,1.13526 -0.494385,2.2522 -0.164795,1.09863 -0.164795,1.99585 0,1.86768 0.695801,2.52686 0.238037,0.25634 0.531006,0.32959 0.292968,0.0732 0.659179,0.0732 z"
         style="font-style:normal;font-variant:normal;font-weight:normal;font-stretch:normal;font-size:37.49999237px;line-height:32.70472336px;font-family:Pattaya;-inkscape-font-specification:Pattaya;font-variant-ligatures:normal;font-variant-caps:normal;font-variant-numeric:normal;font-feature-settings:normal;text-align:center;writing-mode:lr-tb;text-anchor:middle;fill:#295173;fill-opacity:1;stroke-width:0.93749976"
         id="path829" />
      <path
         d="m 102.0976,481.94427 q -1.79444,0 -2.838139,-1.06201 -1.171875,-1.17187 -1.171875,-3.42407 0,-1.06201 0.292969,-2.45361 l 2.545165,-12.03003 h 5.40161 l -2.69165,12.74414 q -0.10986,0.56763 -0.10986,1.06201 0,1.53809 1.11694,1.53809 1.02539,0 1.84937,-0.93384 0.65918,-0.78735 1.15356,-2.38037 l 2.54517,-12.03003 h 5.40161 l -2.69165,12.74414 q -0.1648,0.54932 -0.1648,1.2085 0,0.76904 0.36621,1.08032 0.36621,0.31128 1.17188,0.31128 1.0437,0 1.86767,-0.93384 0.73242,-0.82397 1.17188,-2.38037 h 1.5747 q -1.00708,2.85644 -2.4353,4.5227 -1.20849,1.37329 -2.72827,1.97754 -1.11694,0.43945 -2.36206,0.43945 -1.61133,0 -2.56348,-0.89721 -0.95214,-0.89722 -1.15356,-2.65503 -1.28174,2.05078 -2.89307,2.92969 -1.15356,0.62255 -2.65502,0.62255 z"
         style="font-style:normal;font-variant:normal;font-weight:normal;font-stretch:normal;font-size:37.49999237px;line-height:32.70472336px;font-family:Pattaya;-inkscape-font-specification:Pattaya;font-variant-ligatures:normal;font-variant-caps:normal;font-variant-numeric:normal;font-feature-settings:normal;text-align:center;writing-mode:lr-tb;text-anchor:middle;fill:#295173;fill-opacity:1;stroke-width:0.93749976"
         id="path831" />
      <path
         d="m 130.46063,481.94427 q -2.56348,0 -3.90015,-1.24511 -1.33667,-1.26343 -1.33667,-3.55225 0,-1.2268 0.25635,-2.14233 l 4.01001,-18.78662 5.54809,-0.75073 -1.79443,8.44116 q 1.08032,-0.65918 1.83106,-0.87891 0.54931,-0.16479 1.24511,-0.16479 2.10571,0 3.20435,1.40991 1.2268,1.59302 1.2268,4.99878 0,1.17187 -0.21972,2.54516 -0.21973,1.35498 -0.67749,2.69165 -1.09864,3.20435 -3.18604,5.12696 -2.52685,2.30712 -6.20727,2.30712 z m 2.10571,-3.62548 q 1.13525,0 2.23389,-1.51978 0.95215,-1.35498 1.5747,-3.55224 0.58594,-2.16065 0.58594,-4.11988 0,-1.51977 -0.47607,-2.49023 -0.25635,-0.531 -0.64087,-0.82397 -0.38452,-0.29297 -0.87891,-0.29297 -0.64087,0 -1.15356,0.12817 -0.76905,0.20142 -1.06201,0.54932 l -2.05078,9.52148 q -0.10987,0.45776 -0.10987,0.8606 0,1.7395 1.97754,1.7395 z"
         style="font-style:normal;font-variant:normal;font-weight:normal;font-stretch:normal;font-size:37.49999237px;line-height:32.70472336px;font-family:Pattaya;-inkscape-font-specification:Pattaya;font-variant-ligatures:normal;font-variant-caps:normal;font-variant-numeric:normal;font-feature-settings:normal;text-align:center;writing-mode:lr-tb;text-anchor:middle;fill:#295173;fill-opacity:1;stroke-width:0.93749976"
         id="path833" />
      <path
         d="m 155.89397,453.59955 h 0.78735 l 2.2522,7.08618 h -1.19019 l -2.25219,-3.00292 -5.896,3.00292 h -1.64795 z m -9.28345,28.34472 q -2.14233,0 -3.46069,-1.33666 -1.53809,-1.57471 -1.53809,-4.6875 0,-1.31836 0.27466,-2.78321 0.25635,-1.46484 0.76905,-2.89306 1.17187,-3.22266 3.20434,-5.2002 2.34375,-2.25219 5.40161,-2.25219 1.51978,0 2.27051,0.531 0.76904,0.5127 0.76904,1.37329 v 0.27466 l 0.40283,-1.99585 h 5.40161 l -2.69165,12.74414 q -0.16479,0.54932 -0.16479,1.2085 0,1.61132 1.53808,1.61132 1.02539,0 1.86768,-1.0437 0.71411,-0.8789 1.17187,-2.49023 h 1.57471 q -1.00708,2.85644 -2.4353,4.5227 -1.2085,1.37329 -2.72827,1.97754 -1.11695,0.43945 -2.36206,0.43945 -1.59302,0 -2.54517,-0.86059 -0.93384,-0.87891 -1.13525,-2.58179 -1.06201,1.50147 -2.23389,2.34375 -1.50146,1.09863 -3.35083,1.09863 z m 2.43531,-3.62548 q 0.42114,0 0.8789,-0.21973 0.47608,-0.21973 0.91553,-0.62256 0.98877,-0.95215 1.31836,-2.47192 l 1.79443,-8.45947 q 0,-0.18311 -0.0915,-0.42114 -0.0732,-0.25635 -0.21973,-0.47608 -0.43945,-0.531 -1.2268,-0.531 -0.75074,0 -1.46485,0.49438 -0.6958,0.49439 -1.31836,1.37329 -1.09863,1.59302 -1.81274,4.15649 -0.32959,1.13526 -0.49439,2.2522 -0.16479,1.09863 -0.16479,1.99585 0,1.86768 0.6958,2.52686 0.23804,0.25634 0.53101,0.32959 0.29296,0.0732 0.65918,0.0732 z"
         style="font-style:normal;font-variant:normal;font-weight:normal;font-stretch:normal;font-size:37.49999237px;line-height:32.70472336px;font-family:Pattaya;-inkscape-font-specification:Pattaya;font-variant-ligatures:normal;font-variant-caps:normal;font-variant-numeric:normal;font-feature-settings:normal;text-align:center;writing-mode:lr-tb;text-anchor:middle;fill:#295173;fill-opacity:1;stroke-width:0.93749976"
         id="path835" />
      <path
         d="m 165.52532,481.94427 q -1.79443,0 -2.83814,-1.06201 -1.17187,-1.17187 -1.17187,-3.42407 0,-1.06201 0.29297,-2.45361 l 2.25219,-10.52856 h -1.24511 l 0.31128,-1.50147 h 1.2268 l 1.13526,-5.18188 5.54809,-0.75073 -1.28174,5.93261 h 2.2522 l -0.29297,1.50147 h -2.25219 l -2.39869,11.24267 q -0.14648,0.47607 -0.14648,1.2085 0,0.76904 0.3479,1.08032 0.36621,0.31128 1.17187,0.31128 0.54932,0 1.06202,-0.23804 0.531,-0.25635 0.97045,-0.6958 0.89722,-0.89722 1.35499,-2.38037 h 1.5747 q -1.00708,2.83813 -2.52685,4.5227 -1.28174,1.37329 -2.89307,1.97754 -1.17187,0.43945 -2.45361,0.43945 z"
         style="font-style:normal;font-variant:normal;font-weight:normal;font-stretch:normal;font-size:37.49999237px;line-height:32.70472336px;font-family:Pattaya;-inkscape-font-specification:Pattaya;font-variant-ligatures:normal;font-variant-caps:normal;font-variant-numeric:normal;font-feature-settings:normal;text-align:center;writing-mode:lr-tb;text-anchor:middle;fill:#295173;fill-opacity:1;stroke-width:0.93749976"
         id="path837" />
      <path
         d="m 178.10466,460.94208 q -0.60424,0 -1.15356,-0.21972 -0.54932,-0.23804 -0.95215,-0.64087 -0.40283,-0.38453 -0.64087,-0.93384 -0.21972,-0.54932 -0.21972,-1.15357 0,-0.60424 0.21972,-1.15356 0.23804,-0.54932 0.64087,-0.97046 0.40283,-0.42114 0.95215,-0.64087 0.54932,-0.23803 1.15356,-0.23803 0.60425,0 1.15357,0.23803 0.54931,0.21973 0.97046,0.64087 0.42114,0.42114 0.64087,0.97046 0.23803,0.54932 0.23803,1.15356 0,0.60425 -0.23803,1.15357 -0.21973,0.54931 -0.64087,0.93384 -0.42115,0.40283 -0.97046,0.64087 -0.54932,0.21972 -1.15357,0.21972 z m -2.54516,21.00219 q -1.79444,0 -2.83814,-1.06201 -1.17187,-1.17187 -1.17187,-3.42407 0,-1.06201 0.29297,-2.45361 l 2.54516,-12.03003 h 5.40161 l -2.69165,12.74414 q -0.14648,0.47607 -0.14648,1.2085 0,0.76904 0.3479,1.08032 0.36621,0.31128 1.17187,0.31128 0.54932,0 1.06202,-0.23804 0.531,-0.25635 0.97045,-0.6958 0.89722,-0.89722 1.35498,-2.38037 h 1.57471 q -1.00708,2.83813 -2.52685,4.5227 -1.28174,1.37329 -2.89307,1.97754 -1.17187,0.43945 -2.45361,0.43945 z"
         style="font-style:normal;font-variant:normal;font-weight:normal;font-stretch:normal;font-size:37.49999237px;line-height:32.70472336px;font-family:Pattaya;-inkscape-font-specification:Pattaya;font-variant-ligatures:normal;font-variant-caps:normal;font-variant-numeric:normal;font-feature-settings:normal;text-align:center;writing-mode:lr-tb;text-anchor:middle;fill:#295173;fill-opacity:1;stroke-width:0.93749976"
         id="path839" />
      <path
         d="m 204.67326,481.94427 q -2.32544,0 -3.44239,-1.31835 -0.97045,-1.13526 -0.97045,-2.91138 0,-0.84229 0.20141,-1.95923 0.21973,-1.11694 0.64087,-2.87475 0.42114,-1.79444 0.62256,-2.85645 0.21973,-1.08032 0.21973,-1.86767 0,-1.92261 -1.35499,-1.92261 -0.95214,0 -1.75781,1.00708 -0.67749,0.86059 -1.17187,2.45361 l -2.54517,12.03003 h -5.40161 l 2.74658,-12.94556 q 0.10987,-0.43945 0.10987,-0.93383 0,-0.75074 -0.23804,-1.15357 -0.31128,-0.49438 -0.89722,-0.49438 -1.06201,0 -1.84936,1.02539 -0.6958,0.8789 -1.19019,2.47192 l -2.54516,12.03003 h -5.40161 l 3.97339,-18.75 h 5.40161 l -0.40284,1.94092 q 1.09864,-1.22681 2.39868,-1.7395 1.0254,-0.38452 2.17896,-0.38452 1.57471,0 2.50854,0.73242 1.0437,0.82397 1.33667,2.49023 1.2085,-1.86767 2.78321,-2.63672 1.11694,-0.54931 2.4353,-0.54931 1.88598,0 2.98462,0.98877 1.17187,1.08032 1.17187,3.24096 0,1.22681 -0.45776,3.38745 -0.18311,0.89722 -0.43946,1.81275 -0.45776,1.75781 -0.75073,3.24096 -0.14648,0.76905 -0.14648,1.24512 0,0.75073 0.32959,1.17188 0.3479,0.40283 1.17187,0.40283 1.11695,0 1.88599,-0.91553 0.58594,-0.6958 1.26343,-2.39868 h 1.5747 q -1.3916,4.11987 -3.51562,5.76782 -1.50147,1.17187 -3.46069,1.17187 z"
         style="font-style:normal;font-variant:normal;font-weight:normal;font-stretch:normal;font-size:37.49999237px;line-height:32.70472336px;font-family:Pattaya;-inkscape-font-specification:Pattaya;font-variant-ligatures:normal;font-variant-caps:normal;font-variant-numeric:normal;font-feature-settings:normal;text-align:center;writing-mode:lr-tb;text-anchor:middle;fill:#295173;fill-opacity:1;stroke-width:0.93749976"
         id="path841" />
      <path
         d="m 215.43985,481.94427 q -2.76489,0 -4.26635,-1.3916 -1.59302,-1.48315 -1.59302,-4.55932 0,-1.15357 0.23804,-2.56348 0.21972,-1.40991 0.67749,-2.81982 0.51269,-1.57471 1.30005,-2.98462 0.80566,-1.40991 1.86767,-2.49023 2.45361,-2.49024 6.04248,-2.49024 2.28882,0 3.33252,1.09863 0.80566,0.8606 0.80566,2.49024 0,1.59302 -0.6958,3.00293 -0.6958,1.3916 -1.9226,2.47192 -1.22681,1.06201 -2.78321,1.70288 -1.55639,0.62256 -3.22265,0.73242 -0.0916,0.95215 -0.0916,1.50147 0,1.83105 0.6958,2.52685 0.60425,0.62256 2.01416,0.62256 2.03247,0 3.71704,-1.09863 0.71412,-0.45776 1.3733,-1.08032 0.65918,-0.64087 1.53808,-1.61133 h 1.28174 q -1.77612,3.00293 -4.08325,4.77905 -2.83814,2.16064 -6.22559,2.16064 z m 0.0733,-9.59472 q 1.0437,-0.0732 2.03247,-0.60425 0.98877,-0.531 1.75781,-1.3916 0.76904,-0.87891 1.20849,-1.95923 0.43946,-1.09863 0.43946,-2.23388 0,-0.75074 -0.21973,-1.13526 -0.20142,-0.40283 -0.71411,-0.40283 -0.67749,0 -1.37329,0.65918 -0.67749,0.65918 -1.31836,1.81274 -0.58594,1.08033 -1.06201,2.45362 -0.47608,1.37329 -0.75073,2.80151 z"
         style="font-style:normal;font-variant:normal;font-weight:normal;font-stretch:normal;font-size:37.49999237px;line-height:32.70472336px;font-family:Pattaya;-inkscape-font-specification:Pattaya;font-variant-ligatures:normal;font-variant-caps:normal;font-variant-numeric:normal;font-feature-settings:normal;text-align:center;writing-mode:lr-tb;text-anchor:middle;fill:#295173;fill-opacity:1;stroke-width:0.93749976"
         id="path843" />
      <path
         d="m 238.03507,481.94427 q -2.32544,0 -3.44239,-1.31835 -0.97045,-1.13526 -0.97045,-2.91138 0,-0.84229 0.20141,-1.95923 0.21973,-1.11694 0.64087,-2.87475 0.42114,-1.79444 0.62256,-2.85645 0.21973,-1.08032 0.21973,-1.86767 0,-1.92261 -1.35498,-1.92261 -0.95215,0 -1.75782,1.00708 -0.67749,0.86059 -1.17187,2.45361 l -2.54517,12.03003 h -5.40161 l 3.97339,-18.75 h 5.40161 l -0.40283,1.94092 q 1.09863,-1.22681 2.36206,-1.72119 0.93384,-0.36621 2.01416,-0.36621 1.9043,0 3.00293,0.98877 1.17187,1.08032 1.17187,3.24096 0,1.30005 -0.47607,3.38745 -0.12818,0.60425 -0.42114,1.81275 -0.53101,2.03247 -0.76905,3.24096 -0.14648,0.76905 -0.14648,1.24512 0,0.75073 0.32959,1.17188 0.3479,0.40283 1.17187,0.40283 1.11695,0 1.88599,-0.91553 0.58594,-0.6958 1.26343,-2.39868 h 1.5747 q -1.3916,4.11987 -3.51562,5.76782 -1.50147,1.17187 -3.46069,1.17187 z"
         style="font-style:normal;font-variant:normal;font-weight:normal;font-stretch:normal;font-size:37.49999237px;line-height:32.70472336px;font-family:Pattaya;-inkscape-font-specification:Pattaya;font-variant-ligatures:normal;font-variant-caps:normal;font-variant-numeric:normal;font-feature-settings:normal;text-align:center;writing-mode:lr-tb;text-anchor:middle;fill:#295173;fill-opacity:1;stroke-width:0.93749976"
         id="path845" />
      <path
         d="m 247.19034,481.94427 q -1.79443,0 -2.83813,-1.06201 -1.17188,-1.17187 -1.17188,-3.42407 0,-1.06201 0.29297,-2.45361 l 2.2522,-10.52856 h -1.24512 l 0.31128,-1.50147 h 1.22681 l 1.13525,-5.18188 5.5481,-0.75073 -1.28174,5.93261 h 2.25219 l -0.29296,1.50147 h -2.2522 l -2.39868,11.24267 q -0.14649,0.47607 -0.14649,1.2085 0,0.76904 0.3479,1.08032 0.36621,0.31128 1.17188,0.31128 0.54931,0 1.06201,-0.23804 0.53101,-0.25635 0.97046,-0.6958 0.89722,-0.89722 1.35498,-2.38037 h 1.57471 q -1.00708,2.83813 -2.52686,4.5227 -1.28174,1.37329 -2.89307,1.97754 -1.17187,0.43945 -2.45361,0.43945 z"
         style="font-style:normal;font-variant:normal;font-weight:normal;font-stretch:normal;font-size:37.49999237px;line-height:32.70472336px;font-family:Pattaya;-inkscape-font-specification:Pattaya;font-variant-ligatures:normal;font-variant-caps:normal;font-variant-numeric:normal;font-feature-settings:normal;text-align:center;writing-mode:lr-tb;text-anchor:middle;fill:#295173;fill-opacity:1;stroke-width:0.93749976"
         id="path847" />
      <path
         d="m 266.14176,481.94427 q -2.14234,0 -3.46069,-1.33666 -1.53809,-1.57471 -1.53809,-4.6875 0,-1.31836 0.27466,-2.78321 0.25635,-1.46484 0.76904,-2.89306 1.17188,-3.22266 3.20435,-5.2002 2.34375,-2.25219 5.40161,-2.25219 1.51977,0 2.2705,0.531 0.76905,0.5127 0.76905,1.37329 v 0.14649 l 1.83105,-8.62427 5.54809,-0.75073 -4.30297,20.25146 q -0.1648,0.54932 -0.1648,1.2085 0,0.76904 0.36621,1.08032 0.36621,0.31128 1.17188,0.31128 1.0437,0 1.86767,-0.93384 0.6958,-0.82397 1.17188,-2.38037 h 1.5747 q -0.98876,2.81982 -2.4353,4.44946 -1.2268,1.35498 -2.72827,1.88599 -1.08032,0.38452 -2.36206,0.38452 -1.55639,0 -2.50854,-0.82398 -0.95215,-0.82397 -1.17188,-2.39868 -1.00708,1.51978 -2.17895,2.34375 -1.51978,1.09863 -3.36914,1.09863 z m 2.4353,-3.62548 q 0.40283,0 0.8606,-0.20142 0.47607,-0.20141 0.89721,-0.56763 0.98877,-0.89721 1.31836,-2.34375 v -0.20141 l 1.83106,-8.58765 q -0.12818,-0.51269 -0.36622,-0.82397 -0.38452,-0.47607 -1.17187,-0.47607 -0.75073,0 -1.46484,0.49438 -0.6958,0.49439 -1.31836,1.37329 -1.09864,1.59302 -1.81275,4.15649 -0.32959,1.13526 -0.49438,2.2522 -0.1648,1.09863 -0.1648,1.99585 0,1.86768 0.6958,2.52686 0.23804,0.25634 0.53101,0.32959 0.29297,0.0732 0.65918,0.0732 z"
         style="font-style:normal;font-variant:normal;font-weight:normal;font-stretch:normal;font-size:37.49999237px;line-height:32.70472336px;font-family:Pattaya;-inkscape-font-specification:Pattaya;font-variant-ligatures:normal;font-variant-caps:normal;font-variant-numeric:normal;font-feature-settings:normal;text-align:center;writing-mode:lr-tb;text-anchor:middle;fill:#295173;fill-opacity:1;stroke-width:0.93749976"
         id="path849" />
      <path
         d="m 285.84389,481.94427 q -2.14233,0 -3.46069,-1.33666 -1.53809,-1.57471 -1.53809,-4.6875 0,-1.31836 0.27466,-2.78321 0.25635,-1.46484 0.76904,-2.89306 1.17188,-3.22266 3.20435,-5.2002 2.34375,-2.25219 5.40161,-2.25219 1.51977,0 2.27051,0.531 0.76904,0.5127 0.76904,1.37329 v 0.27466 l 0.40283,-1.99585 h 5.40161 l -2.69165,12.74414 q -0.16479,0.54932 -0.16479,1.2085 0,1.61132 1.53808,1.61132 1.02539,0 1.86768,-1.0437 0.71411,-0.8789 1.17187,-2.49023 h 1.57471 q -1.00708,2.85644 -2.4353,4.5227 -1.2085,1.37329 -2.72827,1.97754 -1.11695,0.43945 -2.36206,0.43945 -1.59302,0 -2.54517,-0.86059 -0.93384,-0.87891 -1.13525,-2.58179 -1.06201,1.50147 -2.23389,2.34375 -1.50146,1.09863 -3.35083,1.09863 z m 2.4353,-3.62548 q 0.42115,0 0.87891,-0.21973 0.47607,-0.21973 0.91553,-0.62256 0.98877,-0.95215 1.31836,-2.47192 l 1.79443,-8.45947 q 0,-0.18311 -0.0915,-0.42114 -0.0733,-0.25635 -0.21973,-0.47608 -0.43945,-0.531 -1.22681,-0.531 -0.75073,0 -1.46484,0.49438 -0.6958,0.49439 -1.31836,1.37329 -1.09863,1.59302 -1.81274,4.15649 -0.32959,1.13526 -0.49439,2.2522 -0.16479,1.09863 -0.16479,1.99585 0,1.86768 0.6958,2.52686 0.23804,0.25634 0.531,0.32959 0.29297,0.0732 0.65918,0.0732 z"
         style="font-style:normal;font-variant:normal;font-weight:normal;font-stretch:normal;font-size:37.49999237px;line-height:32.70472336px;font-family:Pattaya;-inkscape-font-specification:Pattaya;font-variant-ligatures:normal;font-variant-caps:normal;font-variant-numeric:normal;font-feature-settings:normal;text-align:center;writing-mode:lr-tb;text-anchor:middle;fill:#295173;fill-opacity:1;stroke-width:0.93749976"
         id="path851" />
      <path
         d="m 314.57314,481.94427 q -2.32544,0 -3.44238,-1.31835 -0.97046,-1.13526 -0.97046,-2.91138 0,-0.84229 0.20141,-1.95923 0.21973,-1.11694 0.64087,-2.87475 0.42114,-1.79444 0.62256,-2.85645 0.21973,-1.08032 0.21973,-1.86767 0,-1.92261 -1.35498,-1.92261 -0.95215,0 -1.75782,1.00708 -0.67749,0.86059 -1.17187,2.45361 l -2.54517,12.03003 h -5.40161 l 3.97339,-18.75 h 5.40161 l -0.40283,1.94092 q 1.09863,-1.22681 2.36206,-1.72119 0.93384,-0.36621 2.01416,-0.36621 1.9043,0 3.00293,0.98877 1.17187,1.08032 1.17187,3.24096 0,1.30005 -0.47607,3.38745 -0.12817,0.60425 -0.42114,1.81275 -0.53101,2.03247 -0.76905,3.24096 -0.14648,0.76905 -0.14648,1.24512 0,0.75073 0.32959,1.17188 0.3479,0.40283 1.17187,0.40283 1.11695,0 1.88599,-0.91553 0.58594,-0.6958 1.26343,-2.39868 h 1.5747 q -1.3916,4.11987 -3.51562,5.76782 -1.50146,1.17187 -3.46069,1.17187 z"
         style="font-style:normal;font-variant:normal;font-weight:normal;font-stretch:normal;font-size:37.49999237px;line-height:32.70472336px;font-family:Pattaya;-inkscape-font-specification:Pattaya;font-variant-ligatures:normal;font-variant-caps:normal;font-variant-numeric:normal;font-feature-settings:normal;text-align:center;writing-mode:lr-tb;text-anchor:middle;fill:#295173;fill-opacity:1;stroke-width:0.93749976"
         id="path853" />
      <path
         d="m 324.27773,481.94427 q -1.35498,0 -2.39868,-0.40283 -1.0437,-0.42114 -1.75781,-1.15356 -0.65918,-0.67749 -0.98877,-1.50147 -0.32959,-0.84228 -0.32959,-1.7395 0,-1.2268 0.62256,-2.21557 0.54931,-0.87891 1.37329,-1.26343 1.46484,-2.6001 2.54516,-5.27344 1.08032,-2.67334 2.06909,-5.84106 l 5.5481,-0.73242 q 0.21972,4.76074 0.40283,7.3059 0.1831,2.61841 0.31128,3.84522 0.10986,1.42822 0.10986,2.49023 0,0.95215 -0.14648,1.42822 1.68457,-0.98876 2.69165,-1.88598 h 1.5747 q -1.33667,1.5564 -2.76489,2.67334 -1.40991,1.11694 -2.96631,2.01416 -1.11694,1.17187 -2.80151,1.7395 -1.46484,0.51269 -3.09448,0.51269 z m -1.19019,-2.9663 q 1.40992,0 2.2522,-0.76905 1.00708,-0.91552 1.00708,-2.70996 0,-0.75073 -0.0915,-1.88598 l -0.0916,-1.11695 q -0.16479,-1.44653 -0.32958,-3.35082 l -0.20142,-2.52686 q -0.53101,1.70288 -1.26343,3.38745 -0.73242,1.66626 -1.77612,3.69873 0.86059,0.47607 0.86059,1.30005 0,0.73242 -0.43945,1.26343 -0.47607,0.58593 -1.20849,0.58593 -0.36622,0 -0.62256,-0.0916 -0.23804,-0.10986 -0.38452,-0.40283 0,1.35498 0.531,1.99585 0.53101,0.62256 1.75781,0.62256 z"
         style="font-style:normal;font-variant:normal;font-weight:normal;font-stretch:normal;font-size:37.49999237px;line-height:32.70472336px;font-family:Pattaya;-inkscape-font-specification:Pattaya;font-variant-ligatures:normal;font-variant-caps:normal;font-variant-numeric:normal;font-feature-settings:normal;text-align:center;writing-mode:lr-tb;text-anchor:middle;fill:#295173;fill-opacity:1;stroke-width:0.93749976"
         id="path855" />
      <path
         d="m 346.21375,481.94427 q -1.79443,0 -2.83814,-1.06201 -1.17187,-1.17187 -1.17187,-3.42407 0,-1.06201 0.29297,-2.45361 l 4.01001,-18.78662 5.54809,-0.75073 -4.30298,20.25146 q -0.14648,0.47607 -0.14648,1.2085 0,0.76904 0.3479,1.08032 0.36621,0.31128 1.17188,0.31128 0.54931,0 1.06201,-0.23804 0.531,-0.25635 0.97046,-0.6958 0.89721,-0.89722 1.35498,-2.38037 h 1.5747 q -1.00708,2.83813 -2.52685,4.5227 -1.28174,1.37329 -2.89307,1.97754 -1.17187,0.43945 -2.45361,0.43945 z"
         style="font-style:normal;font-variant:normal;font-weight:normal;font-stretch:normal;font-size:37.49999237px;line-height:32.70472336px;font-family:Pattaya;-inkscape-font-specification:Pattaya;font-variant-ligatures:normal;font-variant-caps:normal;font-variant-numeric:normal;font-feature-settings:normal;text-align:center;writing-mode:lr-tb;text-anchor:middle;fill:#295173;fill-opacity:1;stroke-width:0.93749976"
         id="path857" />
      <path
         d="m 358.33533,453.52631 h 3.93677 l -4.11987,8.69751 h -2.61841 z"
         style="font-style:normal;font-variant:normal;font-weight:normal;font-stretch:normal;font-size:37.49999237px;line-height:32.70472336px;font-family:Pattaya;-inkscape-font-specification:Pattaya;font-variant-ligatures:normal;font-variant-caps:normal;font-variant-numeric:normal;font-feature-settings:normal;text-align:center;writing-mode:lr-tb;text-anchor:middle;fill:#295173;fill-opacity:1;stroke-width:0.93749976"
         id="path859" />
      <path
         d="m 367.01453,482.40204 q -1.75781,0 -3.07617,-0.53101 -1.31836,-0.51269 -2.17896,-1.46484 -0.82397,-0.89722 -1.24511,-2.0874 -0.40284,-1.19019 -0.40284,-2.52686 0,-1.48315 0.47608,-3.02124 0.47607,-1.55639 1.37329,-2.89306 0.91553,-1.3916 2.19726,-2.38037 1.30005,-0.98877 2.89307,-1.40992 -1.17187,-0.84228 -1.7395,-2.01416 -0.54932,-1.17187 -0.54932,-2.49023 0,-1.44653 0.60425,-2.87475 0.62256,-1.44654 1.72119,-2.6001 1.13526,-1.2085 2.63672,-1.88599 1.51978,-0.6958 3.25928,-0.6958 1.11694,0 2.10571,0.31128 0.98877,0.29297 1.70288,0.87891 0.75073,0.60425 1.15356,1.48315 0.40284,0.87891 0.40284,2.01416 0,0.82398 -0.21973,1.53809 -0.21973,0.71411 -0.60425,1.24511 -0.38452,0.53101 -0.89722,0.82398 -0.51269,0.29297 -1.06201,0.29297 -1.02539,0 -1.75781,-1.00708 0.31128,-0.10987 0.62256,-0.43946 0.31128,-0.3479 0.54932,-0.82397 0.21972,-0.45776 0.3479,-0.98877 0.12817,-0.53101 0.12817,-1.02539 0,-1.06201 -0.64087,-1.62964 -0.531,-0.45776 -1.42822,-0.45776 -0.80567,0 -1.51978,0.43945 -0.71411,0.43945 -1.2268,1.2085 -0.5127,0.75073 -0.80567,1.70288 -0.27465,0.95215 -0.27465,1.94091 0,1.77613 0.8789,3.05787 0.95215,1.42822 2.91138,1.95922 -1.9043,0.42115 -3.51563,1.94092 -1.44653,1.3916 -2.32544,3.35083 -0.86059,1.95923 -0.86059,3.66211 0,1.70288 0.82397,2.69165 0.91553,1.09863 2.72827,1.09863 0.89722,0 1.88599,-0.23804 1.00708,-0.25634 1.92261,-0.73242 2.12402,-1.08032 3.1311,-2.85644 l 0.8606,0.38452 q -1.48316,3.24097 -4.52271,5.16357 -1.46484,0.91553 -3.11279,1.3916 -1.64795,0.49439 -3.35083,0.49439 z"
         style="font-style:normal;font-variant:normal;font-weight:normal;font-stretch:normal;font-size:37.49999237px;line-height:32.70472336px;font-family:Pattaya;-inkscape-font-specification:Pattaya;font-variant-ligatures:normal;font-variant-caps:normal;font-variant-numeric:normal;font-feature-settings:normal;text-align:center;writing-mode:lr-tb;text-anchor:middle;fill:#295173;fill-opacity:1;stroke-width:0.93749976"
         id="path861" />
      <path
         d="m 380.78406,481.94427 q -1.79443,0 -2.83813,-1.06201 -1.17188,-1.17187 -1.17188,-3.42407 0,-1.06201 0.29297,-2.45361 l 2.54517,-12.03003 h 5.40161 l -2.69165,12.74414 q -0.10987,0.56763 -0.10987,1.06201 0,1.53809 1.11695,1.53809 1.02539,0 1.84936,-0.93384 0.65918,-0.78735 1.15357,-2.38037 l 2.54516,-12.03003 h 5.40161 l -2.69165,12.74414 q -0.16479,0.54932 -0.16479,1.2085 0,0.76904 0.36621,1.08032 0.36621,0.31128 1.17187,0.31128 1.0437,0 1.86768,-0.93384 0.73242,-0.82397 1.17187,-2.38037 h 1.57471 q -1.00708,2.85644 -2.4353,4.5227 -1.2085,1.37329 -2.72827,1.97754 -1.11695,0.43945 -2.36206,0.43945 -1.61133,0 -2.56348,-0.89721 -0.95215,-0.89722 -1.15356,-2.65503 -1.28174,2.05078 -2.89307,2.92969 -1.15356,0.62255 -2.65503,0.62255 z"
         style="font-style:normal;font-variant:normal;font-weight:normal;font-stretch:normal;font-size:37.49999237px;line-height:32.70472336px;font-family:Pattaya;-inkscape-font-specification:Pattaya;font-variant-ligatures:normal;font-variant-caps:normal;font-variant-numeric:normal;font-feature-settings:normal;text-align:center;writing-mode:lr-tb;text-anchor:middle;fill:#295173;fill-opacity:1;stroke-width:0.93749976"
         id="path863" />
      <path
         d="m 398.58191,462.97455 h 5.40161 l -0.47607,2.32544 q 1.28174,-1.13525 2.0874,-1.61133 1.24512,-0.71411 2.4353,-0.71411 1.2085,0 1.94092,0.8606 0.32959,0.38452 0.49439,0.89721 0.16479,0.49439 0.16479,1.06202 0,0.51269 -0.16479,0.98877 -0.1648,0.47607 -0.49439,0.86059 -0.36621,0.40283 -0.89722,0.64087 -0.51269,0.23804 -1.15356,0.23804 -0.49438,0 -0.78735,-0.1648 -0.29297,-0.16479 -0.45777,-0.47607 -0.14648,-0.31128 -0.20141,-0.60425 -0.1648,-0.78735 -0.32959,-1.0437 -0.12818,-0.18311 -0.40283,-0.18311 -0.78736,0 -1.33667,0.32959 -0.54932,0.32959 -1.39161,1.09864 l -3.00292,14.2456 h -5.40161 z"
         style="font-style:normal;font-variant:normal;font-weight:normal;font-stretch:normal;font-size:37.49999237px;line-height:32.70472336px;font-family:Pattaya;-inkscape-font-specification:Pattaya;font-variant-ligatures:normal;font-variant-caps:normal;font-variant-numeric:normal;font-feature-settings:normal;text-align:center;writing-mode:lr-tb;text-anchor:middle;fill:#295173;fill-opacity:1;stroke-width:0.93749976"
         id="path865" />
      <path
         d="m 415.53748,481.94427 q -2.76489,0 -4.26636,-1.3916 -1.59301,-1.48315 -1.59301,-4.55932 0,-1.15357 0.23803,-2.56348 0.21973,-1.40991 0.67749,-2.81982 0.5127,-1.57471 1.30005,-2.98462 0.80566,-1.40991 1.86768,-2.49023 2.45361,-2.49024 6.04248,-2.49024 2.28881,0 3.33251,1.09863 0.80567,0.8606 0.80567,2.49024 0,1.59302 -0.6958,3.00293 -0.6958,1.3916 -1.92261,2.47192 -1.22681,1.06201 -2.7832,1.70288 -1.5564,0.62256 -3.22266,0.73242 -0.0915,0.95215 -0.0915,1.50147 0,1.83105 0.6958,2.52685 0.60425,0.62256 2.01416,0.62256 2.03247,0 3.71704,-1.09863 0.71411,-0.45776 1.37329,-1.08032 0.65918,-0.64087 1.53809,-1.61133 h 1.28173 q -1.77612,3.00293 -4.08325,4.77905 -2.83813,2.16064 -6.22558,2.16064 z m 0.0732,-9.59472 q 1.0437,-0.0732 2.03247,-0.60425 0.98877,-0.531 1.75781,-1.3916 0.76905,-0.87891 1.2085,-1.95923 0.43945,-1.09863 0.43945,-2.23388 0,-0.75074 -0.21972,-1.13526 -0.20142,-0.40283 -0.71412,-0.40283 -0.67749,0 -1.37329,0.65918 -0.67749,0.65918 -1.31835,1.81274 -0.58594,1.08033 -1.06202,2.45362 -0.47607,1.37329 -0.75073,2.80151 z"
         style="font-style:normal;font-variant:normal;font-weight:normal;font-stretch:normal;font-size:37.49999237px;line-height:32.70472336px;font-family:Pattaya;-inkscape-font-specification:Pattaya;font-variant-ligatures:normal;font-variant-caps:normal;font-variant-numeric:normal;font-feature-settings:normal;text-align:center;writing-mode:lr-tb;text-anchor:middle;fill:#295173;fill-opacity:1;stroke-width:0.93749976"
         id="path867" />
    </g>
  </g>
</svg>
