<?xml version="1.0" encoding="UTF-8" standalone="no"?>
<!-- Created with Inkscape (http://www.inkscape.org/) -->

<svg
   xmlns:dc="http://purl.org/dc/elements/1.1/"
   xmlns:cc="http://creativecommons.org/ns#"
   xmlns:rdf="http://www.w3.org/1999/02/22-rdf-syntax-ns#"
   xmlns:svg="http://www.w3.org/2000/svg"
   xmlns="http://www.w3.org/2000/svg"
   xmlns:sodipodi="http://sodipodi.sourceforge.net/DTD/sodipodi-0.dtd"
   xmlns:inkscape="http://www.inkscape.org/namespaces/inkscape"
   width="880"
   height="445"
   viewBox="0 0 824.99997 417.18747"
   id="svg5194"
   version="1.1"
   inkscape:version="0.92.2 (5c3e80d, 2017-08-06)"
   sodipodi:docname="logo-annueure-rectangle-baseline-vector.svg"
   inkscape:export-filename="C:\xampp\htdocs\Brachet\soutenance\images-recherche\logos\logo-annu-eure-decoupe.png"
   inkscape:export-xdpi="96"
   inkscape:export-ydpi="96">
  <defs
     id="defs5196">
    <clipPath
       clipPathUnits="userSpaceOnUse"
       id="clipPath320">
      <path
         d="M 6.827,6.827 H 332.811 V 454.701 H 6.827 Z"
         id="path322"
         inkscape:connector-curvature="0" />
    </clipPath>
  </defs>
  <sodipodi:namedview
     id="base"
     pagecolor="#ffffff"
     bordercolor="#666666"
     borderopacity="1.0"
     inkscape:pageopacity="0.0"
     inkscape:pageshadow="2"
     inkscape:zoom="0.64394773"
     inkscape:cx="359.12378"
     inkscape:cy="186.16983"
     inkscape:document-units="px"
     inkscape:current-layer="layer2"
     showgrid="false"
     fit-margin-top="0"
     fit-margin-left="0"
     fit-margin-right="0"
     fit-margin-bottom="0"
     inkscape:window-width="1920"
     inkscape:window-height="1017"
     inkscape:window-x="-8"
     inkscape:window-y="-8"
     inkscape:window-maximized="1"
     units="px" />
  <metadata
     id="metadata5199">
    <rdf:RDF>
      <cc:Work
         rdf:about="">
        <dc:format>image/svg+xml</dc:format>
        <dc:type
           rdf:resource="http://purl.org/dc/dcmitype/StillImage" />
        <dc:title></dc:title>
      </cc:Work>
    </rdf:RDF>
  </metadata>
  <g
     inkscape:label="Calque 1"
     inkscape:groupmode="layer"
     id="layer1"
     transform="translate(-306.803,-622.66881)" />
  <g
     inkscape:groupmode="layer"
     id="layer2"
     inkscape:label="logo"
     transform="translate(0,-82.830155)">
    <path
       d="M 4.3741936,482.68334 H 822.48403 V 96.943559 H 4.3741936 Z"
       style="fill:#295173;fill-opacity:1;fill-rule:nonzero;stroke:none;stroke-width:1.12351573"
       id="path290-8-1"
       inkscape:connector-curvature="0" />
    <g
       id="g300-8-8-4"
       transform="matrix(8.6674641,0,0,-8.6674641,379.78927,161.80388)">
      <path
         d="M 0,0 V 1.999 H 2.02 V -1.614 H 1.009 V 0 Z"
         style="fill:#f25c19;fill-opacity:1;fill-rule:nonzero;stroke:none"
         id="path302-2-4-6"
         inkscape:connector-curvature="0" />
    </g>
    <g
       aria-label="ANNU"
       transform="scale(0.94291454,1.0605415)"
       style="font-style:normal;font-variant:normal;font-weight:bold;font-stretch:normal;font-size:128.68197632px;line-height:1.25;font-family:sans-serif;-inkscape-font-specification:'sans-serif, Bold';font-variant-ligatures:normal;font-variant-caps:normal;font-variant-numeric:normal;font-feature-settings:normal;text-align:center;letter-spacing:0px;word-spacing:0px;writing-mode:lr-tb;text-anchor:middle;fill:#ffffff;fill-opacity:1;stroke:none;stroke-width:3.21704936"
       id="text176-6-6">
      <path
         d="m 106.74845,227.70475 -2.57615,24.69337 H 71.813303 L 87.89855,152.17949 h 53.91071 l 16.08525,100.21863 h -32.48466 l -2.45049,-24.69337 z m 1.63366,-11.24711 h 12.94359 l -6.53463,-49.57523 z"
         style="font-style:normal;font-variant:normal;font-weight:bold;font-stretch:normal;font-size:128.68197632px;line-height:0;font-family:'Coda Caption';-inkscape-font-specification:'Coda Caption Bold';font-variant-ligatures:normal;font-variant-caps:normal;font-variant-numeric:normal;font-feature-settings:normal;text-align:center;letter-spacing:-20.84750175px;writing-mode:lr-tb;text-anchor:middle;fill:#ffffff;fill-opacity:1;stroke-width:3.21704936"
         id="path934" />
      <path
         d="m 208.23679,252.39812 -24.1907,-44.67426 v 44.67426 h -25.8872 V 152.17949 h 28.52618 l 25.63587,47.81591 v -47.81591 h 25.07036 v 100.21863 z"
         style="font-style:normal;font-variant:normal;font-weight:bold;font-stretch:normal;font-size:128.68197632px;line-height:0;font-family:'Coda Caption';-inkscape-font-specification:'Coda Caption Bold';font-variant-ligatures:normal;font-variant-caps:normal;font-variant-numeric:normal;font-feature-settings:normal;text-align:center;letter-spacing:-20.84750175px;writing-mode:lr-tb;text-anchor:middle;fill:#ffffff;fill-opacity:1;stroke-width:3.21704936"
         id="path936" />
      <path
         d="m 296.71871,252.39812 -24.1907,-44.67426 v 44.67426 h -25.8872 V 152.17949 h 28.52618 l 25.63587,47.81591 v -47.81591 h 25.07036 v 100.21863 z"
         style="font-style:normal;font-variant:normal;font-weight:bold;font-stretch:normal;font-size:128.68197632px;line-height:0;font-family:'Coda Caption';-inkscape-font-specification:'Coda Caption Bold';font-variant-ligatures:normal;font-variant-caps:normal;font-variant-numeric:normal;font-feature-settings:normal;text-align:center;letter-spacing:-20.84750175px;writing-mode:lr-tb;text-anchor:middle;fill:#ffffff;fill-opacity:1;stroke-width:3.21704936"
         id="path938" />
      <path
         d="m 366.22506,237.5067 h 14.82859 v -85.32721 h 31.228 v 76.90759 q 0,2.51332 -0.31416,5.40363 -0.31417,2.89032 -1.57083,5.78064 -1.25666,2.82748 -3.76998,5.46647 -2.51332,2.63899 -6.8488,4.64964 -4.33547,2.01066 -10.80727,3.20448 -6.4718,1.25666 -15.70825,1.25666 -9.11078,0 -15.51975,-1.25666 -6.40897,-1.19382 -10.68161,-3.20448 -4.20981,-2.01065 -6.6603,-4.64964 -2.38765,-2.63899 -3.64431,-5.46647 -1.19383,-2.89032 -1.50799,-5.78064 -0.25134,-2.89031 -0.25134,-5.40363 v -76.90759 h 31.228 z"
         style="font-style:normal;font-variant:normal;font-weight:bold;font-stretch:normal;font-size:128.68197632px;line-height:0;font-family:'Coda Caption';-inkscape-font-specification:'Coda Caption Bold';font-variant-ligatures:normal;font-variant-caps:normal;font-variant-numeric:normal;font-feature-settings:normal;text-align:center;letter-spacing:-20.84750175px;writing-mode:lr-tb;text-anchor:middle;fill:#ffffff;fill-opacity:1;stroke-width:3.21704936"
         id="path940" />
    </g>
    <g
       aria-label="eure"
       transform="scale(0.94291454,1.0605415)"
       style="font-style:normal;font-variant:normal;font-weight:bold;font-stretch:normal;font-size:149.63600159px;line-height:1.25;font-family:sans-serif;-inkscape-font-specification:'sans-serif, Bold';font-variant-ligatures:normal;font-variant-caps:normal;font-variant-numeric:normal;font-feature-settings:normal;text-align:center;letter-spacing:0px;word-spacing:0px;writing-mode:lr-tb;text-anchor:middle;fill:#99d420;fill-opacity:1;stroke:none;stroke-width:3.74090004"
       id="text176-4-2-5">
      <path
         d="m 533.60097,217.39478 q 0,5.37217 -0.37832,10.21469 -0.37832,4.76685 -1.89161,8.92839 -1.43762,4.08587 -4.46419,7.33944 -2.95091,3.25356 -8.17175,5.59916 -5.14517,2.26993 -12.9386,3.48056 -7.71776,1.28629 -18.84041,1.28629 -11.34965,0 -19.21874,-1.36196 -7.79343,-1.36196 -12.9386,-3.63189 -5.14518,-2.26993 -8.02042,-5.22083 -2.87525,-3.02658 -4.2372,-6.28014 -1.36196,-3.32923 -1.66462,-6.65846 -0.22699,-3.32923 -0.22699,-6.35581 v -45.39859 q 0,-3.02658 0.22699,-6.35581 0.30266,-3.32923 1.66462,-6.58279 1.36195,-3.25357 4.2372,-6.20448 2.87524,-3.02657 8.02042,-5.2965 5.14517,-2.26993 12.9386,-3.63189 7.86909,-1.36196 19.21874,-1.36196 11.04699,0 18.84041,1.36196 7.79343,1.36196 12.9386,3.63189 5.22084,2.26993 8.17175,5.2965 3.02657,2.95091 4.53986,6.20448 1.51329,3.25356 1.89161,6.65846 0.37832,3.32923 0.37832,6.28014 v 28.37412 h -55.46195 v 25.8772 h 17.85678 v -16.1165 z M 478.21469,194.2415 h 17.85678 v -22.92629 h -17.85678 z"
         style="font-style:normal;font-variant:normal;font-weight:bold;font-stretch:normal;font-size:154.96054077px;line-height:0;font-family:'Coda Caption';-inkscape-font-specification:'Coda Caption Bold';font-variant-ligatures:normal;font-variant-caps:normal;font-variant-numeric:normal;font-feature-settings:normal;text-align:center;letter-spacing:-9.65625477px;writing-mode:lr-tb;text-anchor:middle;fill:#99d420;fill-opacity:1;stroke-width:3.74090004"
         id="path925" />
      <path
         d="m 637.28988,153.15577 v 98.36362 h -31.09804 l -3.48056,-12.63594 q -1.96727,3.93455 -5.14518,6.96112 -3.1779,2.95091 -7.11244,4.99384 -3.93455,1.96728 -8.39874,2.95091 -4.4642,1.0593 -9.07972,1.0593 -5.37217,0 -10.59301,-1.74028 -5.14517,-1.74027 -9.23105,-5.22083 -4.01021,-3.55623 -6.50713,-8.92839 -2.42126,-5.37217 -2.42126,-12.56028 v -73.24307 h 37.60517 v 80.43118 h 17.85678 v -80.43118 z"
         style="font-style:normal;font-variant:normal;font-weight:bold;font-stretch:normal;font-size:154.96054077px;line-height:0;font-family:'Coda Caption';-inkscape-font-specification:'Coda Caption Bold';font-variant-ligatures:normal;font-variant-caps:normal;font-variant-numeric:normal;font-feature-settings:normal;text-align:center;letter-spacing:-9.65625477px;writing-mode:lr-tb;text-anchor:middle;fill:#99d420;fill-opacity:1;stroke-width:3.74090004"
         id="path927" />
      <path
         d="M 649.72761,251.51939 V 153.15577 H 680.069 l 4.2372,15.51119 q 0.75665,-3.78322 2.3456,-6.65846 1.58895,-2.87525 3.63188,-4.91819 2.11861,-2.1186 4.53986,-3.48055 2.42126,-1.36196 4.84252,-2.11861 2.42126,-0.8323 4.69119,-1.13496 2.26993,-0.37832 4.01021,-0.45399 v 29.81175 l -21.03468,6.05314 v 65.7523 z"
         style="font-style:normal;font-variant:normal;font-weight:bold;font-stretch:normal;font-size:154.96054077px;line-height:0;font-family:'Coda Caption';-inkscape-font-specification:'Coda Caption Bold';font-variant-ligatures:normal;font-variant-caps:normal;font-variant-numeric:normal;font-feature-settings:normal;text-align:center;letter-spacing:-9.65625477px;writing-mode:lr-tb;text-anchor:middle;fill:#99d420;fill-opacity:1;stroke-width:3.74090004"
         id="path929" />
      <path
         d="m 808.50014,217.39478 q 0,5.37217 -0.37832,10.21469 -0.37832,4.76685 -1.89161,8.92839 -1.43762,4.08587 -4.46419,7.33944 -2.95091,3.25356 -8.17175,5.59916 -5.14517,2.26993 -12.9386,3.48056 -7.71776,1.28629 -18.84041,1.28629 -11.34965,0 -19.21874,-1.36196 -7.79343,-1.36196 -12.9386,-3.63189 -5.14518,-2.26993 -8.02042,-5.22083 -2.87525,-3.02658 -4.2372,-6.28014 -1.36196,-3.32923 -1.66462,-6.65846 -0.22699,-3.32923 -0.22699,-6.35581 v -45.39859 q 0,-3.02658 0.22699,-6.35581 0.30266,-3.32923 1.66462,-6.58279 1.36195,-3.25357 4.2372,-6.20448 2.87524,-3.02657 8.02042,-5.2965 5.14517,-2.26993 12.9386,-3.63189 7.86909,-1.36196 19.21874,-1.36196 11.04699,0 18.84041,1.36196 7.79343,1.36196 12.9386,3.63189 5.22084,2.26993 8.17175,5.2965 3.02657,2.95091 4.53986,6.20448 1.51329,3.25356 1.89161,6.65846 0.37832,3.32923 0.37832,6.28014 v 28.37412 h -55.46195 v 25.8772 h 17.85678 v -16.1165 z M 753.11386,194.2415 h 17.85678 v -22.92629 h -17.85678 z"
         style="font-style:normal;font-variant:normal;font-weight:bold;font-stretch:normal;font-size:154.96054077px;line-height:0;font-family:'Coda Caption';-inkscape-font-specification:'Coda Caption Bold';font-variant-ligatures:normal;font-variant-caps:normal;font-variant-numeric:normal;font-feature-settings:normal;text-align:center;letter-spacing:-9.65625477px;writing-mode:lr-tb;text-anchor:middle;fill:#99d420;fill-opacity:1;stroke-width:3.74090004"
         id="path931" />
    </g>
    <path
       style="color:#000000;font-style:normal;font-variant:normal;font-weight:normal;font-stretch:normal;font-size:medium;line-height:normal;font-family:sans-serif;font-variant-ligatures:normal;font-variant-position:normal;font-variant-caps:normal;font-variant-numeric:normal;font-variant-alternates:normal;font-feature-settings:normal;text-indent:0;text-align:start;text-decoration:none;text-decoration-line:none;text-decoration-style:solid;text-decoration-color:#000000;letter-spacing:normal;word-spacing:normal;text-transform:none;writing-mode:lr-tb;direction:ltr;text-orientation:mixed;dominant-baseline:auto;baseline-shift:baseline;text-anchor:start;white-space:normal;shape-padding:0;clip-rule:nonzero;display:inline;overflow:visible;visibility:visible;opacity:1;isolation:auto;mix-blend-mode:normal;color-interpolation:sRGB;color-interpolation-filters:linearRGB;solid-color:#000000;solid-opacity:1;vector-effect:none;fill:#f25c19;fill-opacity:1;fill-rule:nonzero;stroke:none;stroke-width:5.7079668;stroke-linecap:butt;stroke-linejoin:miter;stroke-miterlimit:4;stroke-dasharray:none;stroke-dashoffset:0;stroke-opacity:1;color-rendering:auto;image-rendering:auto;shape-rendering:auto;text-rendering:auto;enable-background:accumulate"
       d="m 67.714508,285.49632 v 3.8808 H 760.62261 v -3.8808 z"
       id="path101-9-7"
       inkscape:connector-curvature="0" />
    <g
       aria-label="du bâtiment en Normandie"
       style="font-style:normal;font-weight:normal;font-size:47.03325653px;line-height:1.25;font-family:sans-serif;letter-spacing:3.56249976px;word-spacing:0px;fill:#ffffff;fill-opacity:1;stroke:none;stroke-width:1.17583168"
       id="text4599-2-8">
      <path
         d="m 75.301643,424.09361 q -3.313915,0 -5.353248,-2.06765 -2.379221,-2.43587 -2.379221,-7.25097 0,-2.03933 0.424861,-4.30525 0.396536,-2.26593 1.18961,-4.4752 1.81274,-4.98504 4.956711,-8.04404 3.625481,-3.48386 8.355599,-3.48386 2.350898,0 3.512184,0.8214 1.189611,0.79307 1.189611,2.1243 v 0.2266 l 2.832406,-13.34064 8.582192,-1.16128 -6.656155,31.32641 q -0.254917,0.84972 -0.254917,1.86939 0,1.18961 0.566481,1.67112 0.566482,0.48151 1.81274,0.48151 1.614472,0 2.889055,-1.44453 1.076314,-1.27458 1.81274,-3.68213 h 2.435868 q -1.529498,4.36191 -3.767099,6.88275 -1.897712,2.09598 -4.220286,2.91738 -1.671119,0.5948 -3.653804,0.5948 -2.407545,0 -3.880397,-1.27458 -1.472851,-1.27458 -1.81274,-3.71045 -1.557823,2.3509 -3.370563,3.62548 -2.350897,1.69944 -5.211628,1.69944 z m 3.767101,-5.60816 q 0.623129,0 1.331231,-0.31157 0.736425,-0.31156 1.387879,-0.87804 1.529499,-1.38788 2.039332,-3.62548 v -0.31157 l 2.832407,-13.28398 q -0.198269,-0.79308 -0.566482,-1.27459 -0.594805,-0.73642 -1.81274,-0.73642 -1.161286,0 -2.265925,0.76475 -1.076314,0.76475 -2.039332,2.1243 -1.699444,2.4642 -2.804083,6.42956 -0.509833,1.7561 -0.764749,3.48386 -0.254917,1.69945 -0.254917,3.08733 0,2.88905 1.076314,3.90872 0.368213,0.39653 0.821398,0.50983 0.453185,0.1133 1.019667,0.1133 z"
         style="font-style:normal;font-variant:normal;font-weight:normal;font-stretch:normal;font-size:58.0076828px;font-family:Pattaya;-inkscape-font-specification:Pattaya;letter-spacing:3.56249976px;fill:#ffffff;fill-opacity:1;stroke-width:1.17583168"
         id="path882" />
      <path
         d="m 108.1229,424.09361 q -2.77576,0 -4.39023,-1.64279 -1.81274,-1.81274 -1.81274,-5.2966 0,-1.6428 0.45319,-3.79543 l 3.93704,-18.60891 h 8.3556 l -4.16364,19.71355 q -0.16994,0.87805 -0.16994,1.6428 0,2.37922 1.72777,2.37922 1.58614,0 2.86073,-1.44453 1.01966,-1.21793 1.78441,-3.68213 l 3.93705,-18.60891 h 8.3556 l -4.16364,19.71355 q -0.25492,0.84972 -0.25492,1.86939 0,1.18961 0.56648,1.67112 0.56648,0.48151 1.81274,0.48151 1.61447,0 2.88906,-1.44453 1.13296,-1.27458 1.81274,-3.68213 h 2.43587 q -1.55783,4.41856 -3.7671,6.99605 -1.86939,2.1243 -4.22029,3.05899 -1.72777,0.67978 -3.6538,0.67978 -2.49252,0 -3.96537,-1.38788 -1.47285,-1.38788 -1.78442,-4.10699 -1.98268,3.1723 -4.4752,4.53185 -1.78442,0.96302 -4.10699,0.96302 z"
         style="font-style:normal;font-variant:normal;font-weight:normal;font-stretch:normal;font-size:58.0076828px;font-family:Pattaya;-inkscape-font-specification:Pattaya;letter-spacing:3.56249976px;fill:#ffffff;fill-opacity:1;stroke-width:1.17583168"
         id="path884" />
      <path
         d="m 159.12188,424.09361 q -3.96537,0 -6.03303,-1.92603 -2.06765,-1.95436 -2.06765,-5.49487 0,-1.89772 0.39653,-3.31392 l 6.20297,-29.06049 8.58219,-1.16128 -2.77575,13.05739 q 1.67112,-1.01967 2.8324,-1.35956 0.84972,-0.25491 1.92604,-0.25491 3.25727,0 4.95671,2.18095 1.89771,2.46419 1.89771,7.73247 0,1.81274 -0.33989,3.93704 -0.33989,2.09599 -1.04799,4.16364 -1.69944,4.95671 -4.92838,7.93074 -3.90873,3.56883 -9.60186,3.56883 z m 3.25726,-5.60816 q 1.7561,0 3.45554,-2.3509 1.47285,-2.09598 2.43587,-5.49487 0.90637,-3.34224 0.90637,-6.37291 0,-2.3509 -0.73643,-3.85208 -0.39653,-0.82139 -0.99134,-1.27458 -0.5948,-0.45318 -1.35955,-0.45318 -0.99134,0 -1.78442,0.19827 -1.18961,0.31156 -1.64279,0.84972 l -3.1723,14.72851 q -0.16994,0.7081 -0.16994,1.33123 0,2.69079 3.05899,2.69079 z"
         style="font-style:normal;font-variant:normal;font-weight:normal;font-stretch:normal;font-size:58.0076828px;font-family:Pattaya;-inkscape-font-specification:Pattaya;letter-spacing:3.56249976px;fill:#ffffff;fill-opacity:1;stroke-width:1.17583168"
         id="path886" />
      <path
         d="m 202.0265,380.24796 h 1.21793 l 3.48386,10.96141 h -1.84106 l -3.48386,-4.64514 -9.12035,4.64514 h -2.54916 z m -14.3603,43.84565 q -3.31392,0 -5.35325,-2.06765 -2.37922,-2.43587 -2.37922,-7.25097 0,-2.03933 0.42486,-4.30525 0.39654,-2.26593 1.18961,-4.4752 1.81274,-4.98504 4.95671,-8.04404 3.62548,-3.48386 8.3556,-3.48386 2.3509,0 3.51218,0.8214 1.18962,0.79307 1.18962,2.1243 v 0.42486 l 0.62312,-3.08732 h 8.3556 l -4.16363,19.71355 q -0.25492,0.84972 -0.25492,1.86939 0,2.49252 2.37922,2.49252 1.58615,0 2.88906,-1.61448 1.10463,-1.35955 1.81274,-3.85207 h 2.43586 q -1.55782,4.41856 -3.7671,6.99605 -1.86938,2.1243 -4.22028,3.05899 -1.72777,0.67978 -3.65381,0.67978 -2.46419,0 -3.93704,-1.33123 -1.44453,-1.35955 -1.75609,-3.99369 -1.6428,2.32257 -3.45554,3.62548 -2.32257,1.69944 -5.1833,1.69944 z m 3.7671,-5.60816 q 0.65145,0 1.35955,-0.33989 0.73643,-0.33989 1.41621,-0.96302 1.5295,-1.47285 2.03933,-3.82375 l 2.77576,-13.08572 q 0,-0.28324 -0.14162,-0.65145 -0.1133,-0.39654 -0.33989,-0.73642 -0.67978,-0.8214 -1.89771,-0.8214 -1.16129,0 -2.26593,0.76475 -1.07631,0.76475 -2.03933,2.1243 -1.69944,2.4642 -2.80408,6.42956 -0.50984,1.7561 -0.76475,3.48386 -0.25492,1.69945 -0.25492,3.08733 0,2.88905 1.07631,3.90872 0.36822,0.39653 0.8214,0.50983 0.45319,0.1133 1.01967,0.1133 z"
         style="font-style:normal;font-variant:normal;font-weight:normal;font-stretch:normal;font-size:58.0076828px;font-family:Pattaya;-inkscape-font-specification:Pattaya;letter-spacing:3.56249976px;fill:#ffffff;fill-opacity:1;stroke-width:1.17583168"
         id="path888" />
      <path
         d="m 220.48746,424.09361 q -2.77576,0 -4.39023,-1.64279 -1.81274,-1.81274 -1.81274,-5.2966 0,-1.6428 0.45318,-3.79543 l 3.48386,-16.28634 h -1.92604 l 0.48151,-2.32257 h 1.89772 l 1.75609,-8.01571 8.58219,-1.16128 -1.98269,9.17699 h 3.48386 l -0.45318,2.32257 h -3.48386 l -3.71045,17.39098 q -0.2266,0.73643 -0.2266,1.86939 0,1.18961 0.53816,1.67112 0.56648,0.48151 1.81274,0.48151 0.84972,0 1.6428,-0.36822 0.8214,-0.39653 1.50117,-1.07631 1.38788,-1.38788 2.09598,-3.68213 h 2.43587 q -1.55782,4.39023 -3.90872,6.99605 -1.98268,2.1243 -4.4752,3.05899 -1.81274,0.67978 -3.79542,0.67978 z"
         style="font-style:normal;font-variant:normal;font-weight:normal;font-stretch:normal;font-size:58.0076828px;font-family:Pattaya;-inkscape-font-specification:Pattaya;letter-spacing:3.56249976px;fill:#ffffff;fill-opacity:1;stroke-width:1.17583168"
         id="path890" />
      <path
         d="m 243.50859,391.60591 q -0.93469,0 -1.78441,-0.33989 -0.84973,-0.36821 -1.47286,-0.99134 -0.62312,-0.59481 -0.99134,-1.44453 -0.33989,-0.84972 -0.33989,-1.78441 0,-0.9347 0.33989,-1.78442 0.36822,-0.84972 0.99134,-1.50118 0.62313,-0.65145 1.47286,-0.99134 0.84972,-0.36821 1.78441,-0.36821 0.9347,0 1.78442,0.36821 0.84972,0.33989 1.50117,0.99134 0.65146,0.65146 0.99135,1.50118 0.36821,0.84972 0.36821,1.78442 0,0.93469 -0.36821,1.78441 -0.33989,0.84972 -0.99135,1.44453 -0.65145,0.62313 -1.50117,0.99134 -0.84972,0.33989 -1.78442,0.33989 z m -3.93704,32.4877 q -2.77576,0 -4.39023,-1.64279 -1.81274,-1.81274 -1.81274,-5.2966 0,-1.6428 0.45318,-3.79543 l 3.93705,-18.60891 h 8.3556 l -4.16364,19.71355 q -0.22659,0.73643 -0.22659,1.86939 0,1.18961 0.53815,1.67112 0.56648,0.48151 1.81274,0.48151 0.84973,0 1.6428,-0.36822 0.8214,-0.39653 1.50117,-1.07631 1.38788,-1.38788 2.09599,-3.68213 h 2.43586 q -1.55782,4.39023 -3.90872,6.99605 -1.98268,2.1243 -4.4752,3.05899 -1.81274,0.67978 -3.79542,0.67978 z"
         style="font-style:normal;font-variant:normal;font-weight:normal;font-stretch:normal;font-size:58.0076828px;font-family:Pattaya;-inkscape-font-specification:Pattaya;letter-spacing:3.56249976px;fill:#ffffff;fill-opacity:1;stroke-width:1.17583168"
         id="path892" />
      <path
         d="m 288.16931,424.09361 q -3.59715,0 -5.32492,-2.03933 -1.50118,-1.75609 -1.50118,-4.50353 0,-1.3029 0.31157,-3.03067 0.33989,-1.72777 0.99134,-4.44688 0.65145,-2.77576 0.96302,-4.41855 0.33989,-1.67112 0.33989,-2.88906 0,-2.97402 -2.09598,-2.97402 -1.47285,0 -2.71911,1.55782 -1.04799,1.33123 -1.81274,3.79542 l -3.93705,18.60891 h -8.3556 l 4.24861,-20.02511 q 0.16995,-0.67978 0.16995,-1.44453 0,-1.16128 -0.36822,-1.78441 -0.48151,-0.76475 -1.38788,-0.76475 -1.64279,0 -2.86073,1.58614 -1.07631,1.35956 -1.84106,3.82375 l -3.93704,18.60891 h -8.3556 l 6.14632,-29.00384 h 8.3556 l -0.62313,3.00235 q 1.69944,-1.89771 3.71045,-2.69078 1.58615,-0.59481 3.37056,-0.59481 2.43587,0 3.8804,1.13296 1.61447,1.27459 2.06766,3.85208 1.86939,-2.88906 4.30525,-4.07867 1.72777,-0.84972 3.76711,-0.84972 2.91737,0 4.61682,1.5295 1.81274,1.67112 1.81274,5.01336 0,1.89771 -0.7081,5.23995 -0.28324,1.38788 -0.67978,2.80408 -0.7081,2.71911 -1.16129,5.01336 -0.22659,1.18961 -0.22659,1.92604 0,1.16128 0.50983,1.81274 0.53816,0.62313 1.81274,0.62313 1.72777,0 2.91738,-1.41621 0.90637,-1.07631 1.95436,-3.71045 h 2.43587 q -2.15263,6.37292 -5.43822,8.92208 -2.32257,1.81274 -5.35325,1.81274 z"
         style="font-style:normal;font-variant:normal;font-weight:normal;font-stretch:normal;font-size:58.0076828px;font-family:Pattaya;-inkscape-font-specification:Pattaya;letter-spacing:3.56249976px;fill:#ffffff;fill-opacity:1;stroke-width:1.17583168"
         id="path894" />
      <path
         d="m 308.38635,424.09361 q -4.27693,0 -6.5995,-2.15263 -2.4642,-2.29425 -2.4642,-7.05269 0,-1.78441 0.36822,-3.96537 0.33988,-2.18095 1.04799,-4.3619 0.79307,-2.43587 2.011,-4.61683 1.24626,-2.18095 2.88906,-3.85207 3.79542,-3.85207 9.34694,-3.85207 3.54051,0 5.15498,1.69944 1.24626,1.33123 1.24626,3.85208 0,2.46419 -1.07632,4.64514 -1.07631,2.15263 -2.97402,3.82375 -1.89772,1.6428 -4.30526,2.63414 -2.40755,0.96302 -4.98504,1.13296 -0.14162,1.47285 -0.14162,2.32257 0,2.83241 1.07632,3.90872 0.93469,0.96302 3.11565,0.96302 3.14397,0 5.74978,-1.69944 1.10464,-0.7081 2.12431,-1.67112 1.01966,-0.99134 2.37922,-2.49252 h 1.98268 q -2.74743,4.64515 -6.31627,7.39258 -4.39023,3.34224 -9.63018,3.34224 z m 0.1133,-14.84181 q 1.61447,-0.11329 3.14397,-0.93469 1.5295,-0.8214 2.71911,-2.15263 1.18961,-1.35956 1.86939,-3.03068 0.67978,-1.69944 0.67978,-3.45553 0,-1.16129 -0.33989,-1.75609 -0.31157,-0.62313 -1.10464,-0.62313 -1.04799,0 -2.12431,1.01966 -1.04799,1.01967 -2.03933,2.80409 -0.90637,1.67112 -1.64279,3.79542 -0.73643,2.12431 -1.16129,4.33358 z"
         style="font-style:normal;font-variant:normal;font-weight:normal;font-stretch:normal;font-size:58.0076828px;font-family:Pattaya;-inkscape-font-specification:Pattaya;letter-spacing:3.56249976px;fill:#ffffff;fill-opacity:1;stroke-width:1.17583168"
         id="path896" />
      <path
         d="m 346.90075,424.09361 q -3.59715,0 -5.32492,-2.03933 -1.50118,-1.75609 -1.50118,-4.50353 0,-1.3029 0.31157,-3.03067 0.33989,-1.72777 0.99134,-4.44688 0.65145,-2.77576 0.96302,-4.41855 0.33989,-1.67112 0.33989,-2.88906 0,-2.97402 -2.09598,-2.97402 -1.47286,0 -2.71911,1.55782 -1.04799,1.33123 -1.81274,3.79542 l -3.93705,18.60891 h -8.3556 l 6.14632,-29.00384 h 8.3556 l -0.62313,3.00235 q 1.69945,-1.89771 3.65381,-2.66246 1.44452,-0.56648 3.11564,-0.56648 2.94571,0 4.64515,1.5295 1.81274,1.67112 1.81274,5.01336 0,2.01101 -0.73642,5.23995 -0.19827,0.93469 -0.65146,2.80408 -0.8214,3.14397 -1.18961,5.01336 -0.22659,1.18961 -0.22659,1.92604 0,1.16128 0.50983,1.81274 0.53816,0.62313 1.81274,0.62313 1.72777,0 2.91738,-1.41621 0.90637,-1.07631 1.95436,-3.71045 h 2.43587 q -2.15263,6.37292 -5.43822,8.92208 -2.32257,1.81274 -5.35325,1.81274 z"
         style="font-style:normal;font-variant:normal;font-weight:normal;font-stretch:normal;font-size:58.0076828px;font-family:Pattaya;-inkscape-font-specification:Pattaya;letter-spacing:3.56249976px;fill:#ffffff;fill-opacity:1;stroke-width:1.17583168"
         id="path898" />
      <path
         d="m 364.62527,424.09361 q -2.77576,0 -4.39023,-1.64279 -1.81274,-1.81274 -1.81274,-5.2966 0,-1.6428 0.45319,-3.79543 l 3.48386,-16.28634 h -1.92604 l 0.48151,-2.32257 h 1.89771 l 1.7561,-8.01571 8.58219,-1.16128 -1.98269,9.17699 h 3.48386 l -0.45318,2.32257 h -3.48386 l -3.71046,17.39098 q -0.22659,0.73643 -0.22659,1.86939 0,1.18961 0.53816,1.67112 0.56648,0.48151 1.81274,0.48151 0.84972,0 1.6428,-0.36822 0.82139,-0.39653 1.50117,-1.07631 1.38788,-1.38788 2.09598,-3.68213 h 2.43587 q -1.55782,4.39023 -3.90872,6.99605 -1.98268,2.1243 -4.4752,3.05899 -1.81274,0.67978 -3.79543,0.67978 z"
         style="font-style:normal;font-variant:normal;font-weight:normal;font-stretch:normal;font-size:58.0076828px;font-family:Pattaya;-inkscape-font-specification:Pattaya;letter-spacing:3.56249976px;fill:#ffffff;fill-opacity:1;stroke-width:1.17583168"
         id="path900" />
      <path
         d="m 402.39691,424.09361 q -4.27693,0 -6.5995,-2.15263 -2.4642,-2.29425 -2.4642,-7.05269 0,-1.78441 0.36821,-3.96537 0.33989,-2.18095 1.04799,-4.3619 0.79308,-2.43587 2.01101,-4.61683 1.24626,-2.18095 2.88906,-3.85207 3.79542,-3.85207 9.34694,-3.85207 3.54051,0 5.15498,1.69944 1.24626,1.33123 1.24626,3.85208 0,2.46419 -1.07632,4.64514 -1.07631,2.15263 -2.97402,3.82375 -1.89772,1.6428 -4.30526,2.63414 -2.40755,0.96302 -4.98504,1.13296 -0.14162,1.47285 -0.14162,2.32257 0,2.83241 1.07632,3.90872 0.93469,0.96302 3.11564,0.96302 3.14398,0 5.74979,-1.69944 1.10464,-0.7081 2.1243,-1.67112 1.01967,-0.99134 2.37923,-2.49252 h 1.98268 q -2.74743,4.64515 -6.31627,7.39258 -4.39023,3.34224 -9.63018,3.34224 z m 0.1133,-14.84181 q 1.61447,-0.11329 3.14397,-0.93469 1.5295,-0.8214 2.71911,-2.15263 1.18961,-1.35956 1.86939,-3.03068 0.67978,-1.69944 0.67978,-3.45553 0,-1.16129 -0.33989,-1.75609 -0.31157,-0.62313 -1.10464,-0.62313 -1.04799,0 -2.12431,1.01966 -1.04799,1.01967 -2.03933,2.80409 -0.90637,1.67112 -1.64279,3.79542 -0.73643,2.12431 -1.16129,4.33358 z"
         style="font-style:normal;font-variant:normal;font-weight:normal;font-stretch:normal;font-size:58.0076828px;font-family:Pattaya;-inkscape-font-specification:Pattaya;letter-spacing:3.56249976px;fill:#ffffff;fill-opacity:1;stroke-width:1.17583168"
         id="path902" />
      <path
         d="m 440.91131,424.09361 q -3.59716,0 -5.32492,-2.03933 -1.50118,-1.75609 -1.50118,-4.50353 0,-1.3029 0.31157,-3.03067 0.33989,-1.72777 0.99134,-4.44688 0.65145,-2.77576 0.96302,-4.41855 0.33989,-1.67112 0.33989,-2.88906 0,-2.97402 -2.09599,-2.97402 -1.47285,0 -2.71911,1.55782 -1.04799,1.33123 -1.81274,3.79542 l -3.93704,18.60891 h -8.3556 l 6.14632,-29.00384 h 8.3556 l -0.62313,3.00235 q 1.69945,-1.89771 3.65381,-2.66246 1.44452,-0.56648 3.11564,-0.56648 2.94571,0 4.64515,1.5295 1.81274,1.67112 1.81274,5.01336 0,2.01101 -0.73643,5.23995 -0.19826,0.93469 -0.65145,2.80408 -0.8214,3.14397 -1.18961,5.01336 -0.22659,1.18961 -0.22659,1.92604 0,1.16128 0.50983,1.81274 0.53816,0.62313 1.81274,0.62313 1.72777,0 2.91738,-1.41621 0.90637,-1.07631 1.95436,-3.71045 h 2.43587 q -2.15263,6.37292 -5.43822,8.92208 -2.32257,1.81274 -5.35325,1.81274 z"
         style="font-style:normal;font-variant:normal;font-weight:normal;font-stretch:normal;font-size:58.0076828px;font-family:Pattaya;-inkscape-font-specification:Pattaya;letter-spacing:3.56249976px;fill:#ffffff;fill-opacity:1;stroke-width:1.17583168"
         id="path904" />
      <path
         d="m 483.1015,384.01506 q -3.99369,1.4162 -6.03302,4.39023 -2.01101,2.9457 -2.01101,7.22264 0,1.86939 0.39654,3.42721 0.42486,1.5295 1.16128,2.49252 -3.73877,0 -5.49486,-1.50118 -1.7561,-1.5295 -1.7561,-4.78677 0,-4.02201 2.43587,-7.61917 2.32258,-3.42721 6.31627,-5.52319 4.10699,-2.09598 8.86543,-2.09598 1.33123,0 2.32257,0.19827 1.01967,0.16994 2.26593,0.5948 l 6.99604,31.04318 6.48621,-31.49636 h 5.63649 l -9.46023,43.39246 h -8.01571 l -6.71281,-28.77725 -6.62783,28.77725 h -5.49487 z"
         style="font-style:normal;font-variant:normal;font-weight:normal;font-stretch:normal;font-size:58.0076828px;font-family:Pattaya;-inkscape-font-specification:Pattaya;letter-spacing:3.56249976px;fill:#ffffff;fill-opacity:1;stroke-width:1.17583168"
         id="path906" />
      <path
         d="m 519.80315,423.98032 q -4.30525,0 -6.65615,-2.09599 -2.63414,-2.32257 -2.63414,-7.05269 0,-1.78441 0.36821,-3.93704 0.36822,-2.18095 1.13297,-4.39023 1.75609,-5.26828 5.01336,-8.41225 3.93704,-3.85207 9.37526,-3.85207 7.44923,0 7.44923,9.26197 v 0.0566 q 0.16994,0.0566 0.28324,0.0566 h 0.33989 q 1.92604,0 4.56017,-1.07631 2.32258,-0.96302 4.39023,-2.40755 l 0.50984,1.58615 q -1.69945,1.78442 -4.39023,3.03068 -2.66247,1.24626 -5.89141,1.78441 -0.33989,3.93705 -1.5295,7.19431 -1.18961,3.22895 -3.059,5.55152 -1.84106,2.26593 -4.22028,3.48386 -2.37922,1.21794 -5.04169,1.21794 z m 2.32258,-5.21163 q 1.01966,0 2.06765,-0.90637 1.07632,-0.9347 2.01101,-2.57749 0.9347,-1.6428 1.61447,-3.85207 0.67978,-2.20928 1.01967,-4.73012 -0.84972,-0.2266 -1.21793,-0.84973 -0.33989,-0.62312 -0.33989,-1.58614 0,-1.18961 0.48151,-1.98269 0.48151,-0.79307 1.33123,-1.16128 -0.1133,-1.84107 -0.59481,-2.63414 -0.25491,-0.39654 -0.65145,-0.56648 -0.36821,-0.16995 -0.96302,-0.16995 -1.95436,0 -3.82375,2.94571 -1.72777,2.66246 -2.8324,6.57118 -1.07632,3.82375 -1.07632,6.79777 0,1.44453 0.14162,2.3509 0.16995,0.90637 0.53816,1.4162 0.33989,0.50984 0.87804,0.73643 0.53816,0.19827 1.41621,0.19827 z"
         style="font-style:normal;font-variant:normal;font-weight:normal;font-stretch:normal;font-size:58.0076828px;font-family:Pattaya;-inkscape-font-specification:Pattaya;letter-spacing:3.56249976px;fill:#ffffff;fill-opacity:1;stroke-width:1.17583168"
         id="path908" />
      <path
         d="m 544.32547,394.74988 h 8.3556 l -0.73642,3.59716 q 1.98268,-1.75609 3.22894,-2.49252 1.92604,-1.10464 3.7671,-1.10464 1.86939,0 3.00235,1.33123 0.50983,0.59481 0.76475,1.38788 0.25492,0.76475 0.25492,1.6428 0,0.79307 -0.25492,1.5295 -0.25492,0.73642 -0.76475,1.33123 -0.56648,0.62313 -1.38788,0.99134 -0.79307,0.36821 -1.78441,0.36821 -0.76475,0 -1.21794,-0.25491 -0.45318,-0.25492 -0.7081,-0.73643 -0.22659,-0.48151 -0.31157,-0.93469 -0.25491,-1.21794 -0.50983,-1.61447 -0.19827,-0.28325 -0.62313,-0.28325 -1.21793,0 -2.06766,0.50984 -0.84972,0.50983 -2.15262,1.69944 l -4.64515,22.03612 h -8.3556 z"
         style="font-style:normal;font-variant:normal;font-weight:normal;font-stretch:normal;font-size:58.0076828px;font-family:Pattaya;-inkscape-font-specification:Pattaya;letter-spacing:3.56249976px;fill:#ffffff;fill-opacity:1;stroke-width:1.17583168"
         id="path910" />
      <path
         d="m 601.08057,424.09361 q -3.59716,0 -5.32493,-2.03933 -1.50117,-1.75609 -1.50117,-4.50353 0,-1.3029 0.31156,-3.03067 0.33989,-1.72777 0.99135,-4.44688 0.65145,-2.77576 0.96301,-4.41855 0.33989,-1.67112 0.33989,-2.88906 0,-2.97402 -2.09598,-2.97402 -1.47285,0 -2.71911,1.55782 -1.04799,1.33123 -1.81274,3.79542 l -3.93704,18.60891 h -8.3556 l 4.24861,-20.02511 q 0.16994,-0.67978 0.16994,-1.44453 0,-1.16128 -0.36821,-1.78441 -0.48151,-0.76475 -1.38788,-0.76475 -1.6428,0 -2.86073,1.58614 -1.07632,1.35956 -1.84107,3.82375 l -3.93704,18.60891 h -8.3556 l 6.14632,-29.00384 h 8.3556 l -0.62313,3.00235 q 1.69945,-1.89771 3.71045,-2.69078 1.58615,-0.59481 3.37057,-0.59481 2.43587,0 3.8804,1.13296 1.61447,1.27459 2.06765,3.85208 1.86939,-2.88906 4.30526,-4.07867 1.72777,-0.84972 3.7671,-0.84972 2.91738,0 4.61682,1.5295 1.81274,1.67112 1.81274,5.01336 0,1.89771 -0.7081,5.23995 -0.28324,1.38788 -0.67978,2.80408 -0.7081,2.71911 -1.16128,5.01336 -0.2266,1.18961 -0.2266,1.92604 0,1.16128 0.50984,1.81274 0.53815,0.62313 1.81274,0.62313 1.72777,0 2.91738,-1.41621 0.90637,-1.07631 1.95436,-3.71045 h 2.43587 q -2.15263,6.37292 -5.43822,8.92208 -2.32258,1.81274 -5.35325,1.81274 z"
         style="font-style:normal;font-variant:normal;font-weight:normal;font-stretch:normal;font-size:58.0076828px;font-family:Pattaya;-inkscape-font-specification:Pattaya;letter-spacing:3.56249976px;fill:#ffffff;fill-opacity:1;stroke-width:1.17583168"
         id="path912" />
      <path
         d="m 619.96638,424.09361 q -3.31392,0 -5.35325,-2.06765 -2.37922,-2.43587 -2.37922,-7.25097 0,-2.03933 0.42486,-4.30525 0.39654,-2.26593 1.18961,-4.4752 1.81274,-4.98504 4.95671,-8.04404 3.62548,-3.48386 8.3556,-3.48386 2.3509,0 3.51218,0.8214 1.18961,0.79307 1.18961,2.1243 v 0.42486 l 0.62313,-3.08732 h 8.3556 l -4.16364,19.71355 q -0.25491,0.84972 -0.25491,1.86939 0,2.49252 2.37922,2.49252 1.58615,0 2.88905,-1.61448 1.10464,-1.35955 1.81274,-3.85207 h 2.43587 q -1.55782,4.41856 -3.7671,6.99605 -1.86939,2.1243 -4.22028,3.05899 -1.72777,0.67978 -3.65381,0.67978 -2.46419,0 -3.93704,-1.33123 -1.44453,-1.35955 -1.75609,-3.99369 -1.6428,2.32257 -3.45554,3.62548 -2.32257,1.69944 -5.1833,1.69944 z m 3.7671,-5.60816 q 0.65145,0 1.35955,-0.33989 0.73643,-0.33989 1.41621,-0.96302 1.5295,-1.47285 2.03933,-3.82375 l 2.77576,-13.08572 q 0,-0.28324 -0.14162,-0.65145 -0.1133,-0.39654 -0.33989,-0.73642 -0.67978,-0.8214 -1.89771,-0.8214 -1.16129,0 -2.26593,0.76475 -1.07631,0.76475 -2.03933,2.1243 -1.69945,2.4642 -2.80408,6.42956 -0.50984,1.7561 -0.76475,3.48386 -0.25492,1.69945 -0.25492,3.08733 0,2.88905 1.07631,3.90872 0.36822,0.39653 0.8214,0.50983 0.45319,0.1133 1.01967,0.1133 z"
         style="font-style:normal;font-variant:normal;font-weight:normal;font-stretch:normal;font-size:58.0076828px;font-family:Pattaya;-inkscape-font-specification:Pattaya;letter-spacing:3.56249976px;fill:#ffffff;fill-opacity:1;stroke-width:1.17583168"
         id="path914" />
      <path
         d="m 667.96932,424.09361 q -3.59715,0 -5.32492,-2.03933 -1.50117,-1.75609 -1.50117,-4.50353 0,-1.3029 0.31156,-3.03067 0.33989,-1.72777 0.99134,-4.44688 0.65146,-2.77576 0.96302,-4.41855 0.33989,-1.67112 0.33989,-2.88906 0,-2.97402 -2.09598,-2.97402 -1.47285,0 -2.71911,1.55782 -1.04799,1.33123 -1.81274,3.79542 l -3.93705,18.60891 h -8.3556 l 6.14633,-29.00384 h 8.3556 l -0.62313,3.00235 q 1.69944,-1.89771 3.6538,-2.66246 1.44453,-0.56648 3.11565,-0.56648 2.9457,0 4.64514,1.5295 1.81274,1.67112 1.81274,5.01336 0,2.01101 -0.73642,5.23995 -0.19827,0.93469 -0.65146,2.80408 -0.82139,3.14397 -1.18961,5.01336 -0.22659,1.18961 -0.22659,1.92604 0,1.16128 0.50983,1.81274 0.53816,0.62313 1.81274,0.62313 1.72777,0 2.91738,-1.41621 0.90637,-1.07631 1.95436,-3.71045 h 2.43587 q -2.15263,6.37292 -5.43822,8.92208 -2.32257,1.81274 -5.35325,1.81274 z"
         style="font-style:normal;font-variant:normal;font-weight:normal;font-stretch:normal;font-size:58.0076828px;font-family:Pattaya;-inkscape-font-specification:Pattaya;letter-spacing:3.56249976px;fill:#ffffff;fill-opacity:1;stroke-width:1.17583168"
         id="path916" />
      <path
         d="m 686.91181,424.09361 q -3.31391,0 -5.35325,-2.06765 -2.37922,-2.43587 -2.37922,-7.25097 0,-2.03933 0.42486,-4.30525 0.39654,-2.26593 1.18961,-4.4752 1.81274,-4.98504 4.95671,-8.04404 3.62549,-3.48386 8.3556,-3.48386 2.3509,0 3.51219,0.8214 1.18961,0.79307 1.18961,2.1243 v 0.2266 l 2.8324,-13.34064 8.5822,-1.16128 -6.65616,31.32641 q -0.25492,0.84972 -0.25492,1.86939 0,1.18961 0.56649,1.67112 0.56648,0.48151 1.81274,0.48151 1.61447,0 2.88905,-1.44453 1.07631,-1.27458 1.81274,-3.68213 h 2.43587 q -1.5295,4.36191 -3.7671,6.88275 -1.89771,2.09598 -4.22029,2.91738 -1.67112,0.5948 -3.6538,0.5948 -2.40755,0 -3.8804,-1.27458 -1.47285,-1.27458 -1.81274,-3.71045 -1.55782,2.3509 -3.37056,3.62548 -2.3509,1.69944 -5.21163,1.69944 z m 3.7671,-5.60816 q 0.62313,0 1.33123,-0.31157 0.73643,-0.31156 1.38788,-0.87804 1.5295,-1.38788 2.03933,-3.62548 v -0.31157 l 2.83241,-13.28398 q -0.19827,-0.79308 -0.56648,-1.27459 -0.59481,-0.73642 -1.81274,-0.73642 -1.16129,0 -2.26593,0.76475 -1.07631,0.76475 -2.03933,2.1243 -1.69944,2.4642 -2.80408,6.42956 -0.50983,1.7561 -0.76475,3.48386 -0.25492,1.69945 -0.25492,3.08733 0,2.88905 1.07632,3.90872 0.36821,0.39653 0.8214,0.50983 0.45318,0.1133 1.01966,0.1133 z"
         style="font-style:normal;font-variant:normal;font-weight:normal;font-stretch:normal;font-size:58.0076828px;font-family:Pattaya;-inkscape-font-specification:Pattaya;letter-spacing:3.56249976px;fill:#ffffff;fill-opacity:1;stroke-width:1.17583168"
         id="path918" />
      <path
         d="m 723.67011,391.60591 q -0.9347,0 -1.78442,-0.33989 -0.84972,-0.36821 -1.47285,-0.99134 -0.62313,-0.59481 -0.99134,-1.44453 -0.33989,-0.84972 -0.33989,-1.78441 0,-0.9347 0.33989,-1.78442 0.36821,-0.84972 0.99134,-1.50118 0.62313,-0.65145 1.47285,-0.99134 0.84972,-0.36821 1.78442,-0.36821 0.93469,0 1.78441,0.36821 0.84972,0.33989 1.50118,0.99134 0.65145,0.65146 0.99134,1.50118 0.36821,0.84972 0.36821,1.78442 0,0.93469 -0.36821,1.78441 -0.33989,0.84972 -0.99134,1.44453 -0.65146,0.62313 -1.50118,0.99134 -0.84972,0.33989 -1.78441,0.33989 z m -3.93705,32.4877 q -2.77576,0 -4.39023,-1.64279 -1.81274,-1.81274 -1.81274,-5.2966 0,-1.6428 0.45319,-3.79543 l 3.93704,-18.60891 h 8.3556 l -4.16364,19.71355 q -0.22659,0.73643 -0.22659,1.86939 0,1.18961 0.53816,1.67112 0.56648,0.48151 1.81274,0.48151 0.84972,0 1.64279,-0.36822 0.8214,-0.39653 1.50118,-1.07631 1.38788,-1.38788 2.09598,-3.68213 h 2.43587 q -1.55782,4.39023 -3.90872,6.99605 -1.98269,2.1243 -4.4752,3.05899 -1.81274,0.67978 -3.79543,0.67978 z"
         style="font-style:normal;font-variant:normal;font-weight:normal;font-stretch:normal;font-size:58.0076828px;font-family:Pattaya;-inkscape-font-specification:Pattaya;letter-spacing:3.56249976px;fill:#ffffff;fill-opacity:1;stroke-width:1.17583168"
         id="path920" />
      <path
         d="m 741.36633,424.09361 q -4.27693,0 -6.5995,-2.15263 -2.4642,-2.29425 -2.4642,-7.05269 0,-1.78441 0.36822,-3.96537 0.33988,-2.18095 1.04799,-4.3619 0.79307,-2.43587 2.011,-4.61683 1.24626,-2.18095 2.88906,-3.85207 3.79542,-3.85207 9.34694,-3.85207 3.54051,0 5.15498,1.69944 1.24626,1.33123 1.24626,3.85208 0,2.46419 -1.07632,4.64514 -1.07631,2.15263 -2.97402,3.82375 -1.89771,1.6428 -4.30526,2.63414 -2.40755,0.96302 -4.98504,1.13296 -0.14162,1.47285 -0.14162,2.32257 0,2.83241 1.07632,3.90872 0.93469,0.96302 3.11565,0.96302 3.14397,0 5.74978,-1.69944 1.10464,-0.7081 2.12431,-1.67112 1.01966,-0.99134 2.37922,-2.49252 h 1.98268 q -2.74743,4.64515 -6.31626,7.39258 -4.39023,3.34224 -9.63019,3.34224 z m 0.1133,-14.84181 q 1.61447,-0.11329 3.14397,-0.93469 1.5295,-0.8214 2.71911,-2.15263 1.18961,-1.35956 1.86939,-3.03068 0.67978,-1.69944 0.67978,-3.45553 0,-1.16129 -0.33989,-1.75609 -0.31157,-0.62313 -1.10464,-0.62313 -1.04799,0 -2.12431,1.01966 -1.04799,1.01967 -2.03933,2.80409 -0.90637,1.67112 -1.64279,3.79542 -0.73643,2.12431 -1.16129,4.33358 z"
         style="font-style:normal;font-variant:normal;font-weight:normal;font-stretch:normal;font-size:58.0076828px;font-family:Pattaya;-inkscape-font-specification:Pattaya;letter-spacing:3.56249976px;fill:#ffffff;fill-opacity:1;stroke-width:1.17583168"
         id="path922" />
    </g>
    <g
       aria-label="l'annuaire des professionnels"
       transform="rotate(-90)"
       style="font-style:normal;font-variant:normal;font-weight:normal;font-stretch:normal;font-size:61.47011566px;line-height:1.25;font-family:Pattaya;-inkscape-font-specification:'Pattaya, Normal';font-variant-ligatures:normal;font-variant-caps:normal;font-variant-numeric:normal;font-feature-settings:normal;text-align:center;letter-spacing:0px;word-spacing:0px;writing-mode:vertical-lr;text-orientation:sideways;text-anchor:middle;fill:#ffffff;fill-opacity:1;stroke:none;stroke-width:1.5367527"
       id="text172-2-0-99">
      <path
         d="m -353.93385,74.116348 q 0,-2.941441 1.74086,-4.652279 1.92094,-1.920941 5.61275,-1.920941 1.74085,0 4.02197,0.480235 l 30.79508,6.573221 1.23061,9.094455 -33.19627,-7.053455 q -0.78038,-0.240118 -1.98097,-0.240118 -1.26061,0 -1.77086,0.570279 -0.51025,0.600294 -0.51025,1.920941 0,0.900442 0.39019,1.740853 0.4202,0.870427 1.14056,1.59078 1.47072,1.47072 3.90191,2.221088 v 2.581264 q -4.65228,-1.650808 -7.41363,-4.142029 -2.25111,-2.101029 -3.24159,-4.742323 -0.72036,-1.920941 -0.72036,-4.021971 z"
         style="font-style:normal;font-variant:normal;font-weight:normal;font-stretch:normal;font-size:61.47011566px;line-height:53.60969543px;font-family:Pattaya;-inkscape-font-specification:'Pattaya, Normal';font-variant-ligatures:normal;font-variant-caps:normal;font-variant-numeric:normal;font-feature-settings:normal;text-align:center;writing-mode:vertical-lr;text-orientation:sideways;text-anchor:middle;fill:#ffffff;fill-opacity:1;stroke-width:1.5367527"
         id="path827" />
      <path
         d="m -307.35102,93.956068 v 6.453162 l -14.25699,-6.753309 v -4.292103 z"
         style="font-style:normal;font-variant:normal;font-weight:normal;font-stretch:normal;font-size:61.47011566px;line-height:53.60969543px;font-family:Pattaya;-inkscape-font-specification:'Pattaya, Normal';font-variant-ligatures:normal;font-variant-caps:normal;font-variant-numeric:normal;font-feature-settings:normal;text-align:center;writing-mode:vertical-lr;text-orientation:sideways;text-anchor:middle;fill:#ffffff;fill-opacity:1;stroke-width:1.5367527"
         id="path829" />
      <path
         d="m -353.93385,103.86092 q 0,-3.51172 2.19108,-5.672779 2.58126,-2.521235 7.68376,-2.521235 2.16106,0 4.56224,0.45022 2.40117,0.420206 4.74232,1.260618 5.28259,1.920941 8.52418,5.252576 3.69181,3.84188 3.69181,8.85434 0,2.49122 -0.87043,3.72182 -0.84041,1.26062 -2.2511,1.26062 h -0.45022 l 3.2716,0.66032 v 8.85434 l -20.89024,-4.41216 q -0.90044,-0.27014 -1.98097,-0.27014 -2.64129,0 -2.64129,2.52124 0,1.68082 1.71084,3.0615 1.4407,1.17057 4.082,1.92094 v 2.58126 q -4.6823,-1.6508 -7.41363,-3.99195 -2.25111,-1.98097 -3.24159,-4.47219 -0.72036,-1.8309 -0.72036,-3.8719 0,-2.61128 1.4107,-4.17204 1.4407,-1.53075 4.23207,-1.86091 -2.46121,-1.74086 -3.84188,-3.6618 -1.80089,-2.4612 -1.80089,-5.49269 z m 5.94292,3.99196 q 0,0.69033 0.36017,1.4407 0.36018,0.78038 1.0205,1.50074 1.56077,1.62079 4.05199,2.16106 l 13.86679,2.94144 q 0.30015,0 0.69034,-0.15008 0.42021,-0.12006 0.78038,-0.36017 0.87043,-0.72036 0.87043,-2.01099 0,-1.2306 -0.8104,-2.40117 -0.8104,-1.14056 -2.2511,-2.16106 -2.61128,-1.80089 -6.81334,-2.97146 -1.86091,-0.54026 -3.69181,-0.8104 -1.80088,-0.27013 -3.2716,-0.27013 -3.0615,0 -4.14203,1.14056 -0.42021,0.39019 -0.54027,0.87043 -0.12005,0.48023 -0.12005,1.08053 z"
         style="font-style:normal;font-variant:normal;font-weight:normal;font-stretch:normal;font-size:61.47011566px;line-height:53.60969543px;font-family:Pattaya;-inkscape-font-specification:'Pattaya, Normal';font-variant-ligatures:normal;font-variant-caps:normal;font-variant-numeric:normal;font-feature-settings:normal;text-align:center;writing-mode:vertical-lr;text-orientation:sideways;text-anchor:middle;fill:#ffffff;fill-opacity:1;stroke-width:1.5367527"
         id="path831" />
      <path
         d="m -353.93385,150.98401 q 0,-3.81187 2.16106,-5.64277 1.86091,-1.59078 4.77234,-1.59078 1.38068,0 3.21157,0.33017 1.8309,0.36017 4.71231,1.05051 2.94144,0.69034 4.6823,1.0205 1.77086,0.36018 3.0615,0.36018 3.15154,0 3.15154,-2.22109 0,-1.56077 -1.65081,-2.88141 -1.41069,-1.11055 -4.02197,-1.92094 l -19.71966,-4.17205 v -8.85434 l 30.73506,6.51319 v 8.85434 l -3.18156,-0.66032 q 2.01098,1.80088 2.82138,3.8719 0.6003,1.53075 0.6003,3.30161 0,3.12153 -1.6208,4.92242 -1.77087,1.92094 -5.3126,1.92094 -2.13104,0 -5.55272,-0.78039 -0.99049,-0.2101 -2.97146,-0.69033 -3.33163,-0.87043 -5.3126,-1.26062 -1.26062,-0.24012 -2.041,-0.24012 -1.2306,0 -1.92094,0.54027 -0.66032,0.57027 -0.66032,1.92094 0,1.83089 1.50073,3.09151 1.14056,0.96047 3.93193,2.07102 v 2.58126 q -6.75331,-2.28112 -9.45463,-5.76282 -1.92095,-2.46121 -1.92095,-5.67278 z"
         style="font-style:normal;font-variant:normal;font-weight:normal;font-stretch:normal;font-size:61.47011566px;line-height:53.60969543px;font-family:Pattaya;-inkscape-font-specification:'Pattaya, Normal';font-variant-ligatures:normal;font-variant-caps:normal;font-variant-numeric:normal;font-feature-settings:normal;text-align:center;writing-mode:vertical-lr;text-orientation:sideways;text-anchor:middle;fill:#ffffff;fill-opacity:1;stroke-width:1.5367527"
         id="path833" />
      <path
         d="m -353.93385,182.01921 q 0,-3.81187 2.16106,-5.64276 1.86091,-1.59078 4.77234,-1.59078 1.38068,0 3.21157,0.33016 1.8309,0.36017 4.71231,1.05051 2.94144,0.69034 4.6823,1.0205 1.77086,0.36018 3.0615,0.36018 3.15154,0 3.15154,-2.22109 0,-1.56076 -1.65081,-2.88141 -1.41069,-1.11055 -4.02197,-1.92094 l -19.71966,-4.17205 v -8.85433 l 30.73506,6.51319 v 8.85433 l -3.18156,-0.66032 q 2.01098,1.80088 2.82138,3.8719 0.6003,1.53075 0.6003,3.30162 0,3.12153 -1.6208,4.92241 -1.77087,1.92094 -5.3126,1.92094 -2.13104,0 -5.55272,-0.78038 -0.99049,-0.21011 -2.97146,-0.69034 -3.33163,-0.87043 -5.3126,-1.26062 -1.26062,-0.24012 -2.041,-0.24012 -1.2306,0 -1.92094,0.54027 -0.66032,0.57028 -0.66032,1.92094 0,1.8309 1.50073,3.09151 1.14056,0.96047 3.93193,2.07102 v 2.58126 q -6.75331,-2.28112 -9.45463,-5.76282 -1.92095,-2.46121 -1.92095,-5.67278 z"
         style="font-style:normal;font-variant:normal;font-weight:normal;font-stretch:normal;font-size:61.47011566px;line-height:53.60969543px;font-family:Pattaya;-inkscape-font-specification:'Pattaya, Normal';font-variant-ligatures:normal;font-variant-caps:normal;font-variant-numeric:normal;font-feature-settings:normal;text-align:center;writing-mode:vertical-lr;text-orientation:sideways;text-anchor:middle;fill:#ffffff;fill-opacity:1;stroke-width:1.5367527"
         id="path835" />
      <path
         d="m -353.93385,196.96653 q 0,-2.94144 1.74086,-4.65228 1.92094,-1.92094 5.61275,-1.92094 1.74085,0 4.02197,0.48023 l 19.71966,4.17205 v 8.85434 l -20.89024,-4.41216 q -0.93045,-0.18009 -1.74085,-0.18009 -2.52123,0 -2.52123,1.83089 0,1.68083 1.53075,3.03149 1.29063,1.08053 3.90191,1.89093 l 19.71966,4.17204 v 8.85434 l -20.89024,-4.41216 q -0.90044,-0.27014 -1.98097,-0.27014 -1.26061,0 -1.77086,0.6003 -0.51025,0.60029 -0.51025,1.92094 0,1.71084 1.53075,3.0615 1.35066,1.20059 3.90191,1.92094 v 2.58126 q -4.6823,-1.6508 -7.41363,-3.99195 -2.25111,-1.98097 -3.24159,-4.47219 -0.72036,-1.8309 -0.72036,-3.8719 0,-2.64129 1.47072,-4.20206 1.47073,-1.56076 4.35214,-1.89092 -3.36165,-2.10103 -4.80236,-4.74233 -1.0205,-1.89092 -1.0205,-4.35213 z"
         style="font-style:normal;font-variant:normal;font-weight:normal;font-stretch:normal;font-size:61.47011566px;line-height:53.60969543px;font-family:Pattaya;-inkscape-font-specification:'Pattaya, Normal';font-variant-ligatures:normal;font-variant-caps:normal;font-variant-numeric:normal;font-feature-settings:normal;text-align:center;writing-mode:vertical-lr;text-orientation:sideways;text-anchor:middle;fill:#ffffff;fill-opacity:1;stroke-width:1.5367527"
         id="path837" />
      <path
         d="m -353.93385,229.29237 q 0,-3.51172 2.19108,-5.67278 2.58126,-2.52123 7.68376,-2.52123 2.16106,0 4.56224,0.45022 2.40117,0.4202 4.74232,1.26062 5.28259,1.92094 8.52418,5.25257 3.69181,3.84188 3.69181,8.85434 0,2.49122 -0.87043,3.72182 -0.84041,1.26062 -2.2511,1.26062 h -0.45022 l 3.2716,0.66032 v 8.85434 l -20.89024,-4.41216 q -0.90044,-0.27013 -1.98097,-0.27013 -2.64129,0 -2.64129,2.52123 0,1.68082 1.71084,3.0615 1.4407,1.17057 4.082,1.92094 v 2.58127 q -4.6823,-1.65081 -7.41363,-3.99196 -2.25111,-1.98097 -3.24159,-4.47219 -0.72036,-1.8309 -0.72036,-3.8719 0,-2.61128 1.4107,-4.17204 1.4407,-1.53075 4.23207,-1.86091 -2.46121,-1.74086 -3.84188,-3.6618 -1.80089,-2.4612 -1.80089,-5.49269 z m 5.94292,3.99196 q 0,0.69034 0.36017,1.4407 0.36018,0.78039 1.0205,1.50074 1.56077,1.62079 4.05199,2.16106 l 13.86679,2.94144 q 0.30015,0 0.69034,-0.15007 0.42021,-0.12006 0.78038,-0.36018 0.87043,-0.72035 0.87043,-2.01099 0,-1.2306 -0.8104,-2.40117 -0.8104,-1.14056 -2.2511,-2.16106 -2.61128,-1.80088 -6.81334,-2.97146 -1.86091,-0.54026 -3.69181,-0.81039 -1.80088,-0.27014 -3.2716,-0.27014 -3.0615,0 -4.14203,1.14056 -0.42021,0.39019 -0.54027,0.87043 -0.12005,0.48023 -0.12005,1.08053 z"
         style="font-style:normal;font-variant:normal;font-weight:normal;font-stretch:normal;font-size:61.47011566px;line-height:53.60969543px;font-family:Pattaya;-inkscape-font-specification:'Pattaya, Normal';font-variant-ligatures:normal;font-variant-caps:normal;font-variant-numeric:normal;font-feature-settings:normal;text-align:center;writing-mode:vertical-lr;text-orientation:sideways;text-anchor:middle;fill:#ffffff;fill-opacity:1;stroke-width:1.5367527"
         id="path839" />
      <path
         d="m -319.50698,264.49962 q 0,-0.99049 0.36018,-1.89093 0.39019,-0.90044 1.05051,-1.56076 0.63031,-0.66032 1.53075,-1.05052 0.90044,-0.36017 1.89093,-0.36017 0.99048,0 1.89092,0.36017 0.90045,0.3902 1.59078,1.05052 0.69034,0.66032 1.05052,1.56076 0.39019,0.90044 0.39019,1.89093 0,0.99048 -0.39019,1.89093 -0.36018,0.90044 -1.05052,1.59078 -0.69033,0.69033 -1.59078,1.05051 -0.90044,0.39019 -1.89092,0.39019 -0.99049,0 -1.89093,-0.39019 -0.90044,-0.36018 -1.53075,-1.05051 -0.66032,-0.69034 -1.05051,-1.59078 -0.36018,-0.90045 -0.36018,-1.89093 z m -34.42687,-4.17204 q 0,-2.94145 1.74086,-4.65228 1.92094,-1.92094 5.61275,-1.92094 1.74085,0 4.02197,0.48023 l 19.71966,4.17204 v 8.85434 l -20.89024,-4.41216 q -0.78038,-0.24012 -1.98097,-0.24012 -1.26061,0 -1.77086,0.57028 -0.51025,0.6003 -0.51025,1.92094 0,0.90044 0.39019,1.74086 0.4202,0.87042 1.14056,1.59078 1.47072,1.47072 3.90191,2.22108 v 2.58127 q -4.65228,-1.65081 -7.41363,-4.14203 -2.25111,-2.10103 -3.24159,-4.74232 -0.72036,-1.92094 -0.72036,-4.02197 z"
         style="font-style:normal;font-variant:normal;font-weight:normal;font-stretch:normal;font-size:61.47011566px;line-height:53.60969543px;font-family:Pattaya;-inkscape-font-specification:'Pattaya, Normal';font-variant-ligatures:normal;font-variant-caps:normal;font-variant-numeric:normal;font-feature-settings:normal;text-align:center;writing-mode:vertical-lr;text-orientation:sideways;text-anchor:middle;fill:#ffffff;fill-opacity:1;stroke-width:1.5367527"
         id="path841" />
      <path
         d="m -322.83861,274.82468 v 8.85434 l -3.81187,-0.78038 q 1.86091,2.10102 2.64129,3.42167 1.17058,2.041 1.17058,3.99196 0,1.98097 -1.41069,3.18156 -0.63031,0.54026 -1.47072,0.81039 -0.8104,0.27014 -1.74086,0.27014 -0.84041,0 -1.62079,-0.27014 -0.78038,-0.27013 -1.41069,-0.81039 -0.66032,-0.6003 -1.05052,-1.47072 -0.39019,-0.84042 -0.39019,-1.89093 0,-0.8104 0.27014,-1.29063 0.27013,-0.48024 0.78038,-0.75037 0.51025,-0.24012 0.99048,-0.33016 1.29064,-0.27013 1.71084,-0.54027 0.30015,-0.2101 0.30015,-0.66032 0,-1.29063 -0.54027,-2.19107 -0.54026,-0.90045 -1.80088,-2.28112 l -23.35144,-4.92241 v -8.85434 z"
         style="font-style:normal;font-variant:normal;font-weight:normal;font-stretch:normal;font-size:61.47011566px;line-height:53.60969543px;font-family:Pattaya;-inkscape-font-specification:'Pattaya, Normal';font-variant-ligatures:normal;font-variant-caps:normal;font-variant-numeric:normal;font-feature-settings:normal;text-align:center;writing-mode:vertical-lr;text-orientation:sideways;text-anchor:middle;fill:#ffffff;fill-opacity:1;stroke-width:1.5367527"
         id="path843" />
      <path
         d="m -353.93385,302.55826 q 0,-4.53222 2.28112,-6.99343 2.43119,-2.61128 7.47366,-2.61128 1.89093,0 4.20206,0.39019 2.31113,0.36018 4.62227,1.11055 2.58126,0.84041 4.89239,2.13104 2.31114,1.32065 4.082,3.0615 4.082,4.02197 4.082,9.90485 0,3.75184 -1.80088,5.46268 -1.41069,1.32065 -4.082,1.32065 -2.61128,0 -4.92241,-1.14056 -2.28112,-1.14056 -4.05199,-3.15155 -1.74085,-2.01098 -2.79136,-4.56223 -1.0205,-2.55125 -1.20059,-5.28259 -1.56077,-0.15007 -2.46121,-0.15007 -3.00147,0 -4.14203,1.14056 -1.0205,0.99048 -1.0205,3.30161 0,3.33164 1.80089,6.09299 0.75036,1.17057 1.77086,2.2511 1.05052,1.08053 2.6413,2.52124 v 2.10103 q -4.92241,-2.91143 -7.83384,-6.69328 -3.54174,-4.65228 -3.54174,-10.205 z m 15.72771,0.12006 q 0.12006,1.71083 0.99048,3.33163 0.87043,1.62079 2.28112,2.88141 1.44071,1.26062 3.21158,1.98097 1.80088,0.72035 3.66179,0.72035 1.2306,0 1.86091,-0.36017 0.66032,-0.33016 0.66032,-1.17058 0,-1.11054 -1.08052,-2.2511 -1.08053,-1.11054 -2.97146,-2.16106 -1.77087,-0.96047 -4.02197,-1.74085 -2.2511,-0.78038 -4.59225,-1.2306 z"
         style="font-style:normal;font-variant:normal;font-weight:normal;font-stretch:normal;font-size:61.47011566px;line-height:53.60969543px;font-family:Pattaya;-inkscape-font-specification:'Pattaya, Normal';font-variant-ligatures:normal;font-variant-caps:normal;font-variant-numeric:normal;font-feature-settings:normal;text-align:center;writing-mode:vertical-lr;text-orientation:sideways;text-anchor:middle;fill:#ffffff;fill-opacity:1;stroke-width:1.5367527"
         id="path845" />
      <path
         d="m -353.93385,338.06567 q 0,-3.51172 2.19108,-5.67278 2.58126,-2.52123 7.68376,-2.52123 2.16106,0 4.56224,0.45022 2.40117,0.4202 4.74232,1.26062 5.28259,1.92094 8.52418,5.25257 3.69181,3.84188 3.69181,8.85434 0,2.49122 -0.87043,3.72182 -0.84041,1.26062 -2.2511,1.26062 h -0.24012 l 14.13692,3.00147 1.23061,9.09445 -33.19627,-7.05345 q -0.90044,-0.27013 -1.98097,-0.27013 -1.26061,0 -1.77086,0.60029 -0.51025,0.60029 -0.51025,1.92094 0,1.71084 1.53075,3.0615 1.35066,1.14056 3.90191,1.92094 v 2.58127 q -4.62227,-1.6208 -7.29358,-3.99196 -2.22108,-2.01098 -3.09151,-4.47219 -0.63031,-1.77087 -0.63031,-3.8719 0,-2.55125 1.35066,-4.11201 1.35066,-1.56077 3.93193,-1.92094 -2.49122,-1.65081 -3.84188,-3.57175 -1.80089,-2.49122 -1.80089,-5.52271 z m 5.94292,3.99196 q 0,0.66032 0.33016,1.41069 0.33016,0.78038 0.93045,1.47072 1.47072,1.62079 3.84189,2.16106 h 0.33016 l 14.07689,3.00147 q 0.84042,-0.2101 1.35067,-0.6003 0.78038,-0.6303 0.78038,-1.92094 0,-1.2306 -0.8104,-2.40117 -0.8104,-1.14056 -2.2511,-2.16106 -2.61128,-1.80088 -6.81334,-2.97146 -1.86091,-0.54026 -3.69181,-0.81039 -1.80088,-0.27014 -3.2716,-0.27014 -3.0615,0 -4.14203,1.14056 -0.42021,0.39019 -0.54027,0.87043 -0.12005,0.48023 -0.12005,1.08053 z"
         style="font-style:normal;font-variant:normal;font-weight:normal;font-stretch:normal;font-size:61.47011566px;line-height:53.60969543px;font-family:Pattaya;-inkscape-font-specification:'Pattaya, Normal';font-variant-ligatures:normal;font-variant-caps:normal;font-variant-numeric:normal;font-feature-settings:normal;text-align:center;writing-mode:vertical-lr;text-orientation:sideways;text-anchor:middle;fill:#ffffff;fill-opacity:1;stroke-width:1.5367527"
         id="path847" />
      <path
         d="m -353.93385,371.74217 q 0,-4.53222 2.28112,-6.99342 2.43119,-2.61128 7.47366,-2.61128 1.89093,0 4.20206,0.39019 2.31113,0.36017 4.62227,1.11054 2.58126,0.84041 4.89239,2.13105 2.31114,1.32064 4.082,3.06149 4.082,4.02198 4.082,9.90486 0,3.75184 -1.80088,5.46267 -1.41069,1.32065 -4.082,1.32065 -2.61128,0 -4.92241,-1.14056 -2.28112,-1.14056 -4.05199,-3.15154 -1.74085,-2.01099 -2.79136,-4.56224 -1.0205,-2.55125 -1.20059,-5.28259 -1.56077,-0.15007 -2.46121,-0.15007 -3.00147,0 -4.14203,1.14056 -1.0205,0.99049 -1.0205,3.30162 0,3.33163 1.80089,6.09298 0.75036,1.17058 1.77086,2.25111 1.05052,1.08052 2.6413,2.52123 v 2.10103 q -4.92241,-2.91143 -7.83384,-6.69328 -3.54174,-4.65228 -3.54174,-10.205 z m 15.72771,0.12006 q 0.12006,1.71084 0.99048,3.33163 0.87043,1.6208 2.28112,2.88141 1.44071,1.26062 3.21158,1.98097 1.80088,0.72036 3.66179,0.72036 1.2306,0 1.86091,-0.36018 0.66032,-0.33016 0.66032,-1.17057 0,-1.11055 -1.08052,-2.25111 -1.08053,-1.11054 -2.97146,-2.16105 -1.77087,-0.96047 -4.02197,-1.74086 -2.2511,-0.78038 -4.59225,-1.2306 z"
         style="font-style:normal;font-variant:normal;font-weight:normal;font-stretch:normal;font-size:61.47011566px;line-height:53.60969543px;font-family:Pattaya;-inkscape-font-specification:'Pattaya, Normal';font-variant-ligatures:normal;font-variant-caps:normal;font-variant-numeric:normal;font-feature-settings:normal;text-align:center;writing-mode:vertical-lr;text-orientation:sideways;text-anchor:middle;fill:#ffffff;fill-opacity:1;stroke-width:1.5367527"
         id="path849" />
      <path
         d="m -353.93385,393.53284 q 0,-2.22109 0.66033,-3.93192 0.69034,-1.71084 1.89092,-2.88142 1.11055,-1.08053 2.46121,-1.62079 1.38068,-0.54027 2.8514,-0.54027 2.01098,0 3.63178,1.0205 1.4407,0.90045 2.07101,2.25111 4.26209,2.40117 8.64424,4.17204 4.38214,1.77087 9.57469,3.39166 l 1.20058,9.09446 q -7.80382,0.36018 -11.97586,0.66032 -4.29211,0.30015 -6.30309,0.51025 -2.34115,0.18009 -4.082,0.18009 -1.56077,0 -2.34115,-0.24012 1.6208,2.76136 3.09152,4.41216 v 2.58127 q -2.55125,-2.19107 -4.38215,-4.53222 -1.8309,-2.31113 -3.30162,-4.86238 -1.92094,-1.8309 -2.85139,-4.59225 -0.84042,-2.40118 -0.84042,-5.07249 z m 4.86239,-1.95095 q 0,2.31113 1.26061,3.6918 1.50074,1.65081 4.44218,1.65081 1.2306,0 3.09151,-0.15007 l 1.8309,-0.15007 q 2.37116,-0.27014 5.49269,-0.54027 l 4.14203,-0.33016 q -2.79137,-0.87043 -5.55272,-2.07101 -2.73134,-1.20059 -6.06297,-2.91143 -0.78038,1.41069 -2.13104,1.41069 -1.20059,0 -2.07102,-0.72035 -0.96047,-0.78039 -0.96047,-1.98097 0,-0.6003 0.15008,-1.0205 0.18008,-0.39019 0.66032,-0.63031 -2.22109,0 -3.2716,0.87042 -1.0205,0.87043 -1.0205,2.88142 z"
         style="font-style:normal;font-variant:normal;font-weight:normal;font-stretch:normal;font-size:61.47011566px;line-height:53.60969543px;font-family:Pattaya;-inkscape-font-specification:'Pattaya, Normal';font-variant-ligatures:normal;font-variant-caps:normal;font-variant-numeric:normal;font-feature-settings:normal;text-align:center;writing-mode:vertical-lr;text-orientation:sideways;text-anchor:middle;fill:#ffffff;fill-opacity:1;stroke-width:1.5367527"
         id="path851" />
      <path
         d="m -320.55749,428.01971 v 8.85434 l -4.62227,-0.99048 q 2.6413,3.12153 2.6413,7.17351 0,3.45169 -2.10103,5.34262 -2.46121,2.16106 -7.59372,2.16106 -4.95243,0 -9.30456,-1.26062 -5.55272,-1.59078 -8.61422,-4.62227 -3.78186,-3.72182 -3.78186,-9.24452 0,-2.13105 0.66033,-3.51172 0.48023,-1.05052 1.53075,-1.71084 l -14.97734,-3.18156 -2.22109,-9.27455 z m -28.03374,5.52271 q 0,2.97146 3.03149,5.1025 2.37116,1.68082 6.66326,2.70132 3.45169,0.8104 6.84335,0.8104 3.03149,0 4.32212,-1.11054 0.78038,-0.72036 0.78038,-1.98097 0,-1.11055 -0.78038,-2.25111 -0.78038,-1.14056 -2.2511,-1.98097 l -17.19843,-3.63178 q -0.60029,0.21011 -1.0205,0.78038 -0.39019,0.6003 -0.39019,1.56077 z"
         style="font-style:normal;font-variant:normal;font-weight:normal;font-stretch:normal;font-size:61.47011566px;line-height:53.60969543px;font-family:Pattaya;-inkscape-font-specification:'Pattaya, Normal';font-variant-ligatures:normal;font-variant-caps:normal;font-variant-numeric:normal;font-feature-settings:normal;text-align:center;writing-mode:vertical-lr;text-orientation:sideways;text-anchor:middle;fill:#ffffff;fill-opacity:1;stroke-width:1.5367527"
         id="path853" />
      <path
         d="m -322.83861,456.26355 v 8.85434 l -3.81187,-0.78038 q 1.86091,2.10103 2.64129,3.42167 1.17058,2.041 1.17058,3.99196 0,1.98097 -1.41069,3.18156 -0.63031,0.54026 -1.47072,0.8104 -0.8104,0.27013 -1.74086,0.27013 -0.84041,0 -1.62079,-0.27013 -0.78038,-0.27014 -1.41069,-0.8104 -0.66032,-0.60029 -1.05052,-1.47072 -0.39019,-0.84041 -0.39019,-1.89093 0,-0.81039 0.27014,-1.29063 0.27013,-0.48024 0.78038,-0.75037 0.51025,-0.24012 0.99048,-0.33016 1.29064,-0.27013 1.71084,-0.54026 0.30015,-0.21011 0.30015,-0.66033 0,-1.29063 -0.54027,-2.19107 -0.54026,-0.90044 -1.80088,-2.28112 l -23.35144,-4.92241 v -8.85434 z"
         style="font-style:normal;font-variant:normal;font-weight:normal;font-stretch:normal;font-size:61.47011566px;line-height:53.60969543px;font-family:Pattaya;-inkscape-font-specification:'Pattaya, Normal';font-variant-ligatures:normal;font-variant-caps:normal;font-variant-numeric:normal;font-feature-settings:normal;text-align:center;writing-mode:vertical-lr;text-orientation:sideways;text-anchor:middle;fill:#ffffff;fill-opacity:1;stroke-width:1.5367527"
         id="path855" />
      <path
         d="m -353.81379,484.17723 q 0,-4.56223 2.22109,-7.05345 2.46121,-2.79137 7.47366,-2.79137 1.89093,0 4.17205,0.39019 2.31113,0.39019 4.65228,1.20059 5.58273,1.86091 8.91436,5.3126 4.082,4.17205 4.082,9.93487 0,7.89387 -9.81481,7.89387 h -0.06 q -0.06,0.18009 -0.06,0.30014 v 0.36018 q 0,2.041 1.14055,4.83237 1.0205,2.4612 2.55125,4.65228 l -1.68082,0.54026 q -1.89093,-1.80088 -3.21157,-4.65228 -1.32065,-2.82138 -1.89093,-6.24306 -4.17204,-0.36017 -7.62373,-1.62079 -3.42168,-1.26062 -5.88289,-3.24159 -2.40117,-1.95095 -3.6918,-4.47219 -1.29064,-2.52123 -1.29064,-5.34262 z m 5.52271,2.46121 q 0,1.08053 0.96047,2.19107 0.99048,1.14056 2.73134,2.13105 1.74085,0.99048 4.082,1.71084 2.34114,0.72035 5.01245,1.08052 0.24012,-0.90044 0.90044,-1.29063 0.66033,-0.36017 1.68083,-0.36017 1.26062,0 2.10103,0.51025 0.84041,0.51025 1.2306,1.41069 1.95096,-0.12006 2.79137,-0.63031 0.4202,-0.27013 0.60029,-0.69034 0.18009,-0.39019 0.18009,-1.0205 0,-2.07101 -3.12153,-4.05199 -2.82138,-1.83089 -6.96341,-3.00147 -4.05199,-1.14055 -7.20353,-1.14055 -1.53075,0 -2.49122,0.15007 -0.96047,0.18009 -1.50074,0.57028 -0.54026,0.36018 -0.78038,0.93045 -0.2101,0.57028 -0.2101,1.50074 z"
         style="font-style:normal;font-variant:normal;font-weight:normal;font-stretch:normal;font-size:61.47011566px;line-height:53.60969543px;font-family:Pattaya;-inkscape-font-specification:'Pattaya, Normal';font-variant-ligatures:normal;font-variant-caps:normal;font-variant-numeric:normal;font-feature-settings:normal;text-align:center;writing-mode:vertical-lr;text-orientation:sideways;text-anchor:middle;fill:#ffffff;fill-opacity:1;stroke-width:1.5367527"
         id="path857" />
      <path
         d="m -368.9412,496.66335 q 0,-1.38068 0.48024,-2.67131 0.48023,-1.32065 1.35066,-2.34115 0.93045,-1.05051 2.16106,-1.65081 1.20059,-0.60029 2.64129,-0.60029 2.07102,0 3.54174,0.8104 1.47072,0.78038 2.55125,2.28111 0.93045,1.32065 1.65081,3.09152 0.69033,1.74085 1.47072,4.38214 l 35.1172,7.44365 q 5.85287,1.14056 8.52418,4.77234 1.92094,2.61128 1.92094,6.42315 0,1.38067 -0.48024,2.6713 -0.48023,1.32065 -1.35066,2.34115 -0.93045,1.05052 -2.16106,1.6208 -1.20059,0.60029 -2.64129,0.60029 -1.44071,0 -2.52124,-0.18009 v -2.88141 q 0.93046,0.12006 1.65081,0.12006 1.0205,0 1.56077,-0.69034 0.54026,-0.66032 0.54026,-1.65081 0,-1.2306 -0.96047,-2.31113 -1.29063,-1.44071 -4.082,-1.98097 l -4.86238,-1.05052 v 4.50221 l -2.46121,-0.45022 v -4.53222 l -33.19626,-7.08347 q -5.85287,-1.17057 -8.52418,-4.65228 -1.92094,-2.55125 -1.92094,-6.3331 z m 5.46268,-1.41069 q 0,1.08052 1.0205,1.95095 1.17057,0.96047 3.78185,1.53075 l 3.57175,0.8104 q -1.08053,-3.2716 -2.40118,-4.83237 -1.62079,-1.92094 -3.93192,-1.92094 -0.8104,0 -1.35066,0.69034 -0.69034,0.8104 -0.69034,1.77087 z"
         style="font-style:normal;font-variant:normal;font-weight:normal;font-stretch:normal;font-size:61.47011566px;line-height:53.60969543px;font-family:Pattaya;-inkscape-font-specification:'Pattaya, Normal';font-variant-ligatures:normal;font-variant-caps:normal;font-variant-numeric:normal;font-feature-settings:normal;text-align:center;writing-mode:vertical-lr;text-orientation:sideways;text-anchor:middle;fill:#ffffff;fill-opacity:1;stroke-width:1.5367527"
         id="path859" />
      <path
         d="m -353.93385,527.39842 q 0,-4.53222 2.28112,-6.99342 2.43119,-2.61128 7.47366,-2.61128 1.89093,0 4.20206,0.39019 2.31113,0.36017 4.62227,1.11054 2.58126,0.84041 4.89239,2.13105 2.31114,1.32064 4.082,3.06149 4.082,4.02198 4.082,9.90486 0,3.75184 -1.80088,5.46267 -1.41069,1.32065 -4.082,1.32065 -2.61128,0 -4.92241,-1.14056 -2.28112,-1.14056 -4.05199,-3.15154 -1.74085,-2.01099 -2.79136,-4.56224 -1.0205,-2.55125 -1.20059,-5.28259 -1.56077,-0.15007 -2.46121,-0.15007 -3.00147,0 -4.14203,1.14056 -1.0205,0.99049 -1.0205,3.30162 0,3.33163 1.80089,6.09298 0.75036,1.17058 1.77086,2.25111 1.05052,1.08052 2.6413,2.52123 v 2.10103 q -4.92241,-2.91143 -7.83384,-6.69328 -3.54174,-4.65228 -3.54174,-10.205 z m 15.72771,0.12006 q 0.12006,1.71084 0.99048,3.33163 0.87043,1.6208 2.28112,2.88141 1.44071,1.26062 3.21158,1.98097 1.80088,0.72036 3.66179,0.72036 1.2306,0 1.86091,-0.36018 0.66032,-0.33016 0.66032,-1.17057 0,-1.11055 -1.08052,-2.25111 -1.08053,-1.11054 -2.97146,-2.16105 -1.77087,-0.96047 -4.02197,-1.74086 -2.2511,-0.78038 -4.59225,-1.2306 z"
         style="font-style:normal;font-variant:normal;font-weight:normal;font-stretch:normal;font-size:61.47011566px;line-height:53.60969543px;font-family:Pattaya;-inkscape-font-specification:'Pattaya, Normal';font-variant-ligatures:normal;font-variant-caps:normal;font-variant-numeric:normal;font-feature-settings:normal;text-align:center;writing-mode:vertical-lr;text-orientation:sideways;text-anchor:middle;fill:#ffffff;fill-opacity:1;stroke-width:1.5367527"
         id="path861" />
      <path
         d="m -353.93385,549.18909 q 0,-2.22109 0.66033,-3.93192 0.69034,-1.71084 1.89092,-2.88142 1.11055,-1.08053 2.46121,-1.62079 1.38068,-0.54027 2.8514,-0.54027 2.01098,0 3.63178,1.0205 1.4407,0.90045 2.07101,2.25111 4.26209,2.40117 8.64424,4.17204 4.38214,1.77087 9.57469,3.39166 l 1.20058,9.09446 q -7.80382,0.36018 -11.97586,0.66032 -4.29211,0.30015 -6.30309,0.51025 -2.34115,0.18009 -4.082,0.18009 -1.56077,0 -2.34115,-0.24012 1.6208,2.76136 3.09152,4.41216 v 2.58127 q -2.55125,-2.19107 -4.38215,-4.53222 -1.8309,-2.31113 -3.30162,-4.86238 -1.92094,-1.8309 -2.85139,-4.59225 -0.84042,-2.40118 -0.84042,-5.07249 z m 4.86239,-1.95095 q 0,2.31113 1.26061,3.6918 1.50074,1.65081 4.44218,1.65081 1.2306,0 3.09151,-0.15007 l 1.8309,-0.15007 q 2.37116,-0.27014 5.49269,-0.54027 l 4.14203,-0.33016 q -2.79137,-0.87043 -5.55272,-2.07101 -2.73134,-1.20059 -6.06297,-2.91143 -0.78038,1.41069 -2.13104,1.41069 -1.20059,0 -2.07102,-0.72035 -0.96047,-0.78039 -0.96047,-1.98097 0,-0.6003 0.15008,-1.0205 0.18008,-0.39019 0.66032,-0.63031 -2.22109,0 -3.2716,0.87042 -1.0205,0.87043 -1.0205,2.88142 z"
         style="font-style:normal;font-variant:normal;font-weight:normal;font-stretch:normal;font-size:61.47011566px;line-height:53.60969543px;font-family:Pattaya;-inkscape-font-specification:'Pattaya, Normal';font-variant-ligatures:normal;font-variant-caps:normal;font-variant-numeric:normal;font-feature-settings:normal;text-align:center;writing-mode:vertical-lr;text-orientation:sideways;text-anchor:middle;fill:#ffffff;fill-opacity:1;stroke-width:1.5367527"
         id="path863" />
      <path
         d="m -353.93385,572.66059 q 0,-2.22109 0.66033,-3.93193 0.69034,-1.71084 1.89092,-2.88141 1.11055,-1.08053 2.46121,-1.62079 1.38068,-0.54027 2.8514,-0.54027 2.01098,0 3.63178,1.0205 1.4407,0.90044 2.07101,2.2511 4.26209,2.40118 8.64424,4.17205 4.38214,1.77087 9.57469,3.39166 l 1.20058,9.09446 q -7.80382,0.36017 -11.97586,0.66032 -4.29211,0.30015 -6.30309,0.51025 -2.34115,0.18009 -4.082,0.18009 -1.56077,0 -2.34115,-0.24012 1.6208,2.76135 3.09152,4.41216 v 2.58127 q -2.55125,-2.19108 -4.38215,-4.53222 -1.8309,-2.31114 -3.30162,-4.86239 -1.92094,-1.83089 -2.85139,-4.59225 -0.84042,-2.40117 -0.84042,-5.07248 z m 4.86239,-1.95096 q 0,2.31113 1.26061,3.69181 1.50074,1.65081 4.44218,1.65081 1.2306,0 3.09151,-0.15007 l 1.8309,-0.15008 q 2.37116,-0.27013 5.49269,-0.54026 l 4.14203,-0.33016 q -2.79137,-0.87043 -5.55272,-2.07102 -2.73134,-1.20059 -6.06297,-2.91142 -0.78038,1.41069 -2.13104,1.41069 -1.20059,0 -2.07102,-0.72036 -0.96047,-0.78038 -0.96047,-1.98097 0,-0.60029 0.15008,-1.0205 0.18008,-0.39019 0.66032,-0.63031 -2.22109,0 -3.2716,0.87043 -1.0205,0.87043 -1.0205,2.88141 z"
         style="font-style:normal;font-variant:normal;font-weight:normal;font-stretch:normal;font-size:61.47011566px;line-height:53.60969543px;font-family:Pattaya;-inkscape-font-specification:'Pattaya, Normal';font-variant-ligatures:normal;font-variant-caps:normal;font-variant-numeric:normal;font-feature-settings:normal;text-align:center;writing-mode:vertical-lr;text-orientation:sideways;text-anchor:middle;fill:#ffffff;fill-opacity:1;stroke-width:1.5367527"
         id="path865" />
      <path
         d="m -319.50698,599.40369 q 0,-0.99049 0.36018,-1.89093 0.39019,-0.90044 1.05051,-1.56076 0.63031,-0.66033 1.53075,-1.05052 0.90044,-0.36017 1.89093,-0.36017 0.99048,0 1.89092,0.36017 0.90045,0.39019 1.59078,1.05052 0.69034,0.66032 1.05052,1.56076 0.39019,0.90044 0.39019,1.89093 0,0.99048 -0.39019,1.89092 -0.36018,0.90045 -1.05052,1.59078 -0.69033,0.69034 -1.59078,1.05052 -0.90044,0.39019 -1.89092,0.39019 -0.99049,0 -1.89093,-0.39019 -0.90044,-0.36018 -1.53075,-1.05052 -0.66032,-0.69033 -1.05051,-1.59078 -0.36018,-0.90044 -0.36018,-1.89092 z m -34.42687,-4.17205 q 0,-2.94144 1.74086,-4.65228 1.92094,-1.92094 5.61275,-1.92094 1.74085,0 4.02197,0.48024 l 19.71966,4.17204 v 8.85434 l -20.89024,-4.41216 q -0.78038,-0.24012 -1.98097,-0.24012 -1.26061,0 -1.77086,0.57028 -0.51025,0.60029 -0.51025,1.92094 0,0.90044 0.39019,1.74085 0.4202,0.87043 1.14056,1.59078 1.47072,1.47072 3.90191,2.22109 v 2.58127 q -4.65228,-1.65081 -7.41363,-4.14203 -2.25111,-2.10103 -3.24159,-4.74233 -0.72036,-1.92094 -0.72036,-4.02197 z"
         style="font-style:normal;font-variant:normal;font-weight:normal;font-stretch:normal;font-size:61.47011566px;line-height:53.60969543px;font-family:Pattaya;-inkscape-font-specification:'Pattaya, Normal';font-variant-ligatures:normal;font-variant-caps:normal;font-variant-numeric:normal;font-feature-settings:normal;text-align:center;writing-mode:vertical-lr;text-orientation:sideways;text-anchor:middle;fill:#ffffff;fill-opacity:1;stroke-width:1.5367527"
         id="path867" />
      <path
         d="m -353.81379,614.53109 q 0,-4.56224 2.22109,-7.05346 2.46121,-2.79137 7.47366,-2.79137 1.89093,0 4.17205,0.39019 2.31113,0.39019 4.65228,1.20059 5.58273,1.86091 8.91436,5.3126 4.082,4.17205 4.082,9.93487 0,7.89387 -9.81481,7.89387 h -0.06 q -0.06,0.18009 -0.06,0.30015 v 0.36017 q 0,2.041 1.14055,4.83237 1.0205,2.46121 2.55125,4.65228 l -1.68082,0.54026 q -1.89093,-1.80088 -3.21157,-4.65228 -1.32065,-2.82138 -1.89093,-6.24305 -4.17204,-0.36018 -7.62373,-1.6208 -3.42168,-1.26062 -5.88289,-3.24159 -2.40117,-1.95095 -3.6918,-4.47219 -1.29064,-2.52123 -1.29064,-5.34261 z m 5.52271,2.4612 q 0,1.08053 0.96047,2.19107 0.99048,1.14056 2.73134,2.13105 1.74085,0.99048 4.082,1.71084 2.34114,0.72035 5.01245,1.08053 0.24012,-0.90045 0.90044,-1.29064 0.66033,-0.36017 1.68083,-0.36017 1.26062,0 2.10103,0.51025 0.84041,0.51025 1.2306,1.41069 1.95096,-0.12006 2.79137,-0.63031 0.4202,-0.27013 0.60029,-0.69034 0.18009,-0.39019 0.18009,-1.0205 0,-2.07101 -3.12153,-4.05198 -2.82138,-1.8309 -6.96341,-3.00147 -4.05199,-1.14056 -7.20353,-1.14056 -1.53075,0 -2.49122,0.15007 -0.96047,0.18009 -1.50074,0.57028 -0.54026,0.36018 -0.78038,0.93046 -0.2101,0.57028 -0.2101,1.50073 z"
         style="font-style:normal;font-variant:normal;font-weight:normal;font-stretch:normal;font-size:61.47011566px;line-height:53.60969543px;font-family:Pattaya;-inkscape-font-specification:'Pattaya, Normal';font-variant-ligatures:normal;font-variant-caps:normal;font-variant-numeric:normal;font-feature-settings:normal;text-align:center;writing-mode:vertical-lr;text-orientation:sideways;text-anchor:middle;fill:#ffffff;fill-opacity:1;stroke-width:1.5367527"
         id="path869" />
      <path
         d="m -353.93385,654.72077 q 0,-3.81187 2.16106,-5.64276 1.86091,-1.59078 4.77234,-1.59078 1.38068,0 3.21157,0.33016 1.8309,0.36018 4.71231,1.05051 2.94144,0.69034 4.6823,1.0205 1.77086,0.36018 3.0615,0.36018 3.15154,0 3.15154,-2.22109 0,-1.56076 -1.65081,-2.88141 -1.41069,-1.11054 -4.02197,-1.92094 l -19.71966,-4.17205 v -8.85433 l 30.73506,6.51319 v 8.85434 l -3.18156,-0.66033 q 2.01098,1.80088 2.82138,3.8719 0.6003,1.53075 0.6003,3.30162 0,3.12153 -1.6208,4.92241 -1.77087,1.92094 -5.3126,1.92094 -2.13104,0 -5.55272,-0.78038 -0.99049,-0.21011 -2.97146,-0.69034 -3.33163,-0.87043 -5.3126,-1.26062 -1.26062,-0.24012 -2.041,-0.24012 -1.2306,0 -1.92094,0.54027 -0.66032,0.57028 -0.66032,1.92094 0,1.8309 1.50073,3.09151 1.14056,0.96047 3.93193,2.07102 v 2.58126 q -6.75331,-2.28111 -9.45463,-5.76282 -1.92095,-2.46121 -1.92095,-5.67278 z"
         style="font-style:normal;font-variant:normal;font-weight:normal;font-stretch:normal;font-size:61.47011566px;line-height:53.60969543px;font-family:Pattaya;-inkscape-font-specification:'Pattaya, Normal';font-variant-ligatures:normal;font-variant-caps:normal;font-variant-numeric:normal;font-feature-settings:normal;text-align:center;writing-mode:vertical-lr;text-orientation:sideways;text-anchor:middle;fill:#ffffff;fill-opacity:1;stroke-width:1.5367527"
         id="path871" />
      <path
         d="m -353.93385,685.75599 q 0,-3.81187 2.16106,-5.64277 1.86091,-1.59078 4.77234,-1.59078 1.38068,0 3.21157,0.33017 1.8309,0.36017 4.71231,1.05051 2.94144,0.69034 4.6823,1.0205 1.77086,0.36018 3.0615,0.36018 3.15154,0 3.15154,-2.22109 0,-1.56077 -1.65081,-2.88141 -1.41069,-1.11055 -4.02197,-1.92094 l -19.71966,-4.17205 v -8.85434 l 30.73506,6.5132 v 8.85433 l -3.18156,-0.66032 q 2.01098,1.80088 2.82138,3.8719 0.6003,1.53075 0.6003,3.30161 0,3.12153 -1.6208,4.92242 -1.77087,1.92094 -5.3126,1.92094 -2.13104,0 -5.55272,-0.78039 -0.99049,-0.2101 -2.97146,-0.69033 -3.33163,-0.87043 -5.3126,-1.26062 -1.26062,-0.24012 -2.041,-0.24012 -1.2306,0 -1.92094,0.54027 -0.66032,0.57027 -0.66032,1.92094 0,1.83089 1.50073,3.09151 1.14056,0.96047 3.93193,2.07102 v 2.58126 q -6.75331,-2.28112 -9.45463,-5.76282 -1.92095,-2.46121 -1.92095,-5.67278 z"
         style="font-style:normal;font-variant:normal;font-weight:normal;font-stretch:normal;font-size:61.47011566px;line-height:53.60969543px;font-family:Pattaya;-inkscape-font-specification:'Pattaya, Normal';font-variant-ligatures:normal;font-variant-caps:normal;font-variant-numeric:normal;font-feature-settings:normal;text-align:center;writing-mode:vertical-lr;text-orientation:sideways;text-anchor:middle;fill:#ffffff;fill-opacity:1;stroke-width:1.5367527"
         id="path873" />
      <path
         d="m -353.93385,703.40465 q 0,-4.53222 2.28112,-6.99343 2.43119,-2.61128 7.47366,-2.61128 1.89093,0 4.20206,0.39019 2.31113,0.36018 4.62227,1.11055 2.58126,0.84041 4.89239,2.13104 2.31114,1.32065 4.082,3.0615 4.082,4.02197 4.082,9.90485 0,3.75184 -1.80088,5.46268 -1.41069,1.32065 -4.082,1.32065 -2.61128,0 -4.92241,-1.14056 -2.28112,-1.14056 -4.05199,-3.15155 -1.74085,-2.01098 -2.79136,-4.56223 -1.0205,-2.55125 -1.20059,-5.28259 -1.56077,-0.15007 -2.46121,-0.15007 -3.00147,0 -4.14203,1.14056 -1.0205,0.99048 -1.0205,3.30161 0,3.33164 1.80089,6.09299 0.75036,1.17057 1.77086,2.2511 1.05052,1.08053 2.6413,2.52124 v 2.10103 q -4.92241,-2.91143 -7.83384,-6.69328 -3.54174,-4.65228 -3.54174,-10.205 z m 15.72771,0.12006 q 0.12006,1.71083 0.99048,3.33163 0.87043,1.62079 2.28112,2.88141 1.44071,1.26062 3.21158,1.98097 1.80088,0.72035 3.66179,0.72035 1.2306,0 1.86091,-0.36017 0.66032,-0.33017 0.66032,-1.17058 0,-1.11054 -1.08052,-2.2511 -1.08053,-1.11054 -2.97146,-2.16106 -1.77087,-0.96047 -4.02197,-1.74085 -2.2511,-0.78038 -4.59225,-1.2306 z"
         style="font-style:normal;font-variant:normal;font-weight:normal;font-stretch:normal;font-size:61.47011566px;line-height:53.60969543px;font-family:Pattaya;-inkscape-font-specification:'Pattaya, Normal';font-variant-ligatures:normal;font-variant-caps:normal;font-variant-numeric:normal;font-feature-settings:normal;text-align:center;writing-mode:vertical-lr;text-orientation:sideways;text-anchor:middle;fill:#ffffff;fill-opacity:1;stroke-width:1.5367527"
         id="path875" />
      <path
         d="m -353.93385,724.29488 q 0,-2.94144 1.74086,-4.65228 1.92094,-1.92094 5.61275,-1.92094 1.74085,0 4.02197,0.48023 l 30.79508,6.57322 1.23061,9.09446 -33.19627,-7.05346 q -0.78038,-0.24012 -1.98097,-0.24012 -1.26061,0 -1.77086,0.57028 -0.51025,0.6003 -0.51025,1.92094 0,0.90045 0.39019,1.74086 0.4202,0.87042 1.14056,1.59078 1.47072,1.47072 3.90191,2.22108 v 2.58127 q -4.65228,-1.65081 -7.41363,-4.14203 -2.25111,-2.10103 -3.24159,-4.74232 -0.72036,-1.92094 -0.72036,-4.02197 z"
         style="font-style:normal;font-variant:normal;font-weight:normal;font-stretch:normal;font-size:61.47011566px;line-height:53.60969543px;font-family:Pattaya;-inkscape-font-specification:'Pattaya, Normal';font-variant-ligatures:normal;font-variant-caps:normal;font-variant-numeric:normal;font-feature-settings:normal;text-align:center;writing-mode:vertical-lr;text-orientation:sideways;text-anchor:middle;fill:#ffffff;fill-opacity:1;stroke-width:1.5367527"
         id="path877" />
      <path
         d="m -353.93385,741.61335 q 0,-2.22109 0.66033,-3.93193 0.69034,-1.71084 1.89092,-2.88141 1.11055,-1.08053 2.46121,-1.62079 1.38068,-0.54027 2.8514,-0.54027 2.01098,0 3.63178,1.0205 1.4407,0.90044 2.07101,2.2511 4.26209,2.40118 8.64424,4.17205 4.38214,1.77086 9.57469,3.39166 l 1.20058,9.09445 q -7.80382,0.36018 -11.97586,0.66033 -4.29211,0.30014 -6.30309,0.51025 -2.34115,0.18009 -4.082,0.18009 -1.56077,0 -2.34115,-0.24012 1.6208,2.76135 3.09152,4.41216 v 2.58126 q -2.55125,-2.19107 -4.38215,-4.53222 -1.8309,-2.31113 -3.30162,-4.86238 -1.92094,-1.83089 -2.85139,-4.59225 -0.84042,-2.40117 -0.84042,-5.07248 z m 4.86239,-1.95096 q 0,2.31113 1.26061,3.69181 1.50074,1.65081 4.44218,1.65081 1.2306,0 3.09151,-0.15007 l 1.8309,-0.15008 q 2.37116,-0.27013 5.49269,-0.54026 l 4.14203,-0.33016 q -2.79137,-0.87043 -5.55272,-2.07102 -2.73134,-1.20059 -6.06297,-2.91143 -0.78038,1.4107 -2.13104,1.4107 -1.20059,0 -2.07102,-0.72036 -0.96047,-0.78038 -0.96047,-1.98097 0,-0.60029 0.15008,-1.0205 0.18008,-0.39019 0.66032,-0.63031 -2.22109,0 -3.2716,0.87043 -1.0205,0.87043 -1.0205,2.88141 z"
         style="font-style:normal;font-variant:normal;font-weight:normal;font-stretch:normal;font-size:61.47011566px;line-height:53.60969543px;font-family:Pattaya;-inkscape-font-specification:'Pattaya, Normal';font-variant-ligatures:normal;font-variant-caps:normal;font-variant-numeric:normal;font-feature-settings:normal;text-align:center;writing-mode:vertical-lr;text-orientation:sideways;text-anchor:middle;fill:#ffffff;fill-opacity:1;stroke-width:1.5367527"
         id="path879" />
    </g>
  </g>
</svg>
