<?xml version="1.0" encoding="UTF-8" standalone="no"?>
<!-- Created with Inkscape (http://www.inkscape.org/) -->

<svg
   xmlns:dc="http://purl.org/dc/elements/1.1/"
   xmlns:cc="http://creativecommons.org/ns#"
   xmlns:rdf="http://www.w3.org/1999/02/22-rdf-syntax-ns#"
   xmlns:svg="http://www.w3.org/2000/svg"
   xmlns="http://www.w3.org/2000/svg"
   xmlns:sodipodi="http://sodipodi.sourceforge.net/DTD/sodipodi-0.dtd"
   xmlns:inkscape="http://www.inkscape.org/namespaces/inkscape"
   width="150mm"
   height="200mm"
   viewBox="0 0 531.49606 708.66159"
   id="svg5194"
   version="1.1"
   inkscape:version="0.92.2 (5c3e80d, 2017-08-06)"
   sodipodi:docname="logo-annueure-rectangle-vertical-baseline-bat-orange-vector.svg"
   inkscape:export-filename="C:\xampp\htdocs\Brachet\soutenance\images-recherche\logos\logo-annu-eure-decoupe.png"
   inkscape:export-xdpi="96"
   inkscape:export-ydpi="96">
  <defs
     id="defs5196">
    <clipPath
       clipPathUnits="userSpaceOnUse"
       id="clipPath320">
      <path
         d="M 6.827,6.827 H 332.811 V 454.701 H 6.827 Z"
         id="path322"
         inkscape:connector-curvature="0" />
    </clipPath>
  </defs>
  <sodipodi:namedview
     id="base"
     pagecolor="#ffffff"
     bordercolor="#666666"
     borderopacity="1.0"
     inkscape:pageopacity="0.0"
     inkscape:pageshadow="2"
     inkscape:zoom="0.91067961"
     inkscape:cx="529.20031"
     inkscape:cy="382.18403"
     inkscape:document-units="px"
     inkscape:current-layer="layer2"
     showgrid="false"
     fit-margin-top="0"
     fit-margin-left="0"
     fit-margin-right="0"
     fit-margin-bottom="0"
     inkscape:window-width="1920"
     inkscape:window-height="1017"
     inkscape:window-x="-8"
     inkscape:window-y="-8"
     inkscape:window-maximized="1" />
  <metadata
     id="metadata5199">
    <rdf:RDF>
      <cc:Work
         rdf:about="">
        <dc:format>image/svg+xml</dc:format>
        <dc:type
           rdf:resource="http://purl.org/dc/dcmitype/StillImage" />
        <dc:title></dc:title>
      </cc:Work>
    </rdf:RDF>
  </metadata>
  <g
     inkscape:label="Calque 1"
     inkscape:groupmode="layer"
     id="layer1"
     transform="translate(-306.803,-331.18484)" />
  <g
     inkscape:groupmode="layer"
     id="layer2"
     inkscape:label="logo"
     transform="translate(0,208.65218)">
    <path
       d="m 54.69138,490.19371 h 427.9384 V -197.23797 H 54.69138 Z"
       style="fill:#295173;fill-opacity:1;fill-rule:nonzero;stroke:none;stroke-width:1.08475482"
       id="path290-8-2"
       inkscape:connector-curvature="0" />
    <g
       id="g300-8-8-5"
       transform="matrix(8.6674641,0,0,-8.6674641,418.85648,-147.37766)">
      <path
         d="M 0,0 V 1.999 H 2.02 V -1.614 H 1.009 V 0 Z"
         style="fill:#f25c19;fill-opacity:1;fill-rule:nonzero;stroke:none"
         id="path302-2-4-9"
         inkscape:connector-curvature="0" />
    </g>
    <path
       inkscape:connector-curvature="0"
       id="path1015"
       style="font-style:normal;font-variant:normal;font-weight:bold;font-stretch:normal;font-size:128.68197632px;line-height:0;font-family:'Coda Caption';-inkscape-font-specification:'Coda Caption Bold';font-variant-ligatures:normal;font-variant-caps:normal;font-variant-numeric:normal;font-feature-settings:normal;text-align:center;letter-spacing:-20.84750175px;word-spacing:0px;writing-mode:lr-tb;text-anchor:middle;fill:#ffffff;fill-opacity:1;stroke:none;stroke-width:3.21704936"
       d="m 141.08514,-67.690875 -2.42909,26.188341 H 108.14429 L 123.3113,-147.78855 h 50.83319 l 15.16702,106.286016 h -30.63026 l -2.31059,-26.188341 z m 1.54041,-11.928023 h 12.2047 l -6.16159,-52.576592 z" />
    <path
       inkscape:connector-curvature="0"
       id="path1017"
       style="font-style:normal;font-variant:normal;font-weight:bold;font-stretch:normal;font-size:128.68197632px;line-height:0;font-family:'Coda Caption';-inkscape-font-specification:'Coda Caption Bold';font-variant-ligatures:normal;font-variant-caps:normal;font-variant-numeric:normal;font-feature-settings:normal;text-align:center;letter-spacing:-20.84750175px;word-spacing:0px;writing-mode:lr-tb;text-anchor:middle;fill:#ffffff;fill-opacity:1;stroke:none;stroke-width:3.21704936"
       d="m 236.77998,-41.502534 -22.80977,-47.378907 v 47.378907 H 189.5608 V -147.78855 h 26.89775 l 24.17243,50.710758 v -50.710758 h 23.63922 v 106.286016 z" />
    <path
       inkscape:connector-curvature="0"
       id="path1019"
       style="font-style:normal;font-variant:normal;font-weight:bold;font-stretch:normal;font-size:128.68197632px;line-height:0;font-family:'Coda Caption';-inkscape-font-specification:'Coda Caption Bold';font-variant-ligatures:normal;font-variant-caps:normal;font-variant-numeric:normal;font-feature-settings:normal;text-align:center;letter-spacing:-20.84750175px;word-spacing:0px;writing-mode:lr-tb;text-anchor:middle;fill:#ffffff;fill-opacity:1;stroke:none;stroke-width:3.21704936"
       d="M 320.21086,-41.502534 297.4011,-88.881441 v 47.378907 H 272.99169 V -147.78855 h 26.89775 l 24.17243,50.710758 v -50.710758 h 23.63921 v 106.286016 z" />
    <path
       inkscape:connector-curvature="0"
       id="path1021"
       style="font-style:normal;font-variant:normal;font-weight:bold;font-stretch:normal;font-size:128.68197632px;line-height:0;font-family:'Coda Caption';-inkscape-font-specification:'Coda Caption Bold';font-variant-ligatures:normal;font-variant-caps:normal;font-variant-numeric:normal;font-feature-settings:normal;text-align:center;letter-spacing:-20.84750175px;word-spacing:0px;writing-mode:lr-tb;text-anchor:middle;fill:#ffffff;fill-opacity:1;stroke:none;stroke-width:3.21704936"
       d="m 385.74942,-57.295503 h 13.98209 v -90.493047 h 29.44533 v 81.563689 q 0,2.665479 -0.29623,5.730782 -0.29623,3.065302 -1.48115,6.130604 -1.18493,2.998665 -3.55477,5.797419 -2.36984,2.798753 -6.45783,4.931138 -4.08798,2.132384 -10.19034,3.398487 -6.10235,1.33274 -14.81154,1.33274 -8.59068,0 -14.63379,-1.33274 -6.0431,-1.266103 -10.07185,-3.398487 -3.96949,-2.132385 -6.28008,-4.931138 -2.25136,-2.798754 -3.43629,-5.797419 -1.12567,-3.065302 -1.4219,-6.130604 -0.23698,-3.065303 -0.23698,-5.730782 v -81.563689 h 29.44533 z" />
    <g
       aria-label="eure"
       transform="scale(0.94291454,1.0605415)"
       style="font-style:normal;font-variant:normal;font-weight:bold;font-stretch:normal;font-size:128.68197632px;line-height:1.25;font-family:sans-serif;-inkscape-font-specification:'sans-serif, Bold';font-variant-ligatures:normal;font-variant-caps:normal;font-variant-numeric:normal;font-feature-settings:normal;text-align:center;letter-spacing:0px;word-spacing:0px;writing-mode:lr-tb;text-anchor:middle;fill:#99d420;fill-opacity:1;stroke:none;stroke-width:3.21704936"
       id="text176-4-2-7">
      <path
         d="m 194.21971,53.352578 q 0,4.619885 -0.32534,8.784288 -0.32535,4.099335 -1.62672,7.678119 -1.23631,3.513716 -3.83906,6.311674 -2.53769,2.797959 -7.02743,4.815092 -4.42468,1.952064 -11.12677,2.993165 -6.63702,1.106169 -16.20213,1.106169 -9.76032,0 -16.52748,-1.171238 -6.70208,-1.171239 -11.12676,-3.123303 -4.42468,-1.952064 -6.8973,-4.489747 -2.47261,-2.602752 -3.64385,-5.400711 -1.17124,-2.863027 -1.43151,-5.726055 -0.19521,-2.863027 -0.19521,-5.465779 V 20.62297 q 0,-2.602753 0.19521,-5.46578 0.26027,-2.863027 1.43151,-5.6609858 1.17124,-2.7979586 3.64385,-5.3356419 2.47262,-2.6027521 6.8973,-4.55481626 4.42468,-1.95206414 11.12676,-3.12330254 6.76716,-1.1712385 16.52748,-1.1712385 9.50004,0 16.20213,1.1712385 6.70209,1.1712384 11.12677,3.12330254 4.48974,1.95206416 7.02743,4.55481626 2.60275,2.5376833 3.90413,5.3356419 1.30137,2.7979588 1.62672,5.7260548 0.32534,2.863027 0.32534,5.400711 v 24.400801 h -47.69543 v 22.253531 h 15.35623 V 53.417647 Z M 146.58935,33.441524 h 15.35623 V 13.725676 h -15.35623 z"
         style="font-style:normal;font-variant:normal;font-weight:bold;font-stretch:normal;font-size:133.26091003px;line-height:0;font-family:'Coda Caption';-inkscape-font-specification:'Coda Caption Bold';font-variant-ligatures:normal;font-variant-caps:normal;font-variant-numeric:normal;font-feature-settings:normal;text-align:center;letter-spacing:0px;writing-mode:lr-tb;text-anchor:middle;fill:#99d420;fill-opacity:1;stroke-width:3.21704936"
         id="path1006" />
      <path
         d="M 291.69278,-1.8908364 V 82.698608 H 264.9495 l -2.99317,-10.86649 q -1.69179,3.383578 -4.42468,5.98633 -2.73289,2.537683 -6.11646,4.294541 -3.38358,1.691789 -7.22264,2.537684 -3.83906,0.910963 -7.80826,0.910963 -4.61988,0 -9.10963,-1.496583 -4.42468,-1.496582 -7.93839,-4.489747 -3.44865,-3.058234 -5.59592,-7.678119 -2.0822,-4.619885 -2.0822,-10.801421 V -1.8908364 h 32.33919 V 67.277302 h 15.35624 V -1.8908364 Z"
         style="font-style:normal;font-variant:normal;font-weight:bold;font-stretch:normal;font-size:133.26091003px;line-height:0;font-family:'Coda Caption';-inkscape-font-specification:'Coda Caption Bold';font-variant-ligatures:normal;font-variant-caps:normal;font-variant-numeric:normal;font-feature-settings:normal;text-align:center;letter-spacing:0px;writing-mode:lr-tb;text-anchor:middle;fill:#99d420;fill-opacity:1;stroke-width:3.21704936"
         id="path1008" />
      <path
         d="M 310.69286,82.698608 V -1.8908364 h 26.09259 l 3.64386,13.3391044 q 0.65069,-3.2534399 2.01713,-5.7260544 1.36645,-2.4726146 3.1233,-4.2294723 1.82193,-1.82192646 3.90413,-2.9931649 2.0822,-1.1712385 4.1644,-1.8219265 2.08221,-0.7157569 4.03427,-0.9760321 1.95206,-0.325344 3.44865,-0.3904128 v 25.637109 l -18.08913,5.205504 v 56.54479 z"
         style="font-style:normal;font-variant:normal;font-weight:bold;font-stretch:normal;font-size:133.26091003px;line-height:0;font-family:'Coda Caption';-inkscape-font-specification:'Coda Caption Bold';font-variant-ligatures:normal;font-variant-caps:normal;font-variant-numeric:normal;font-feature-settings:normal;text-align:center;letter-spacing:0px;writing-mode:lr-tb;text-anchor:middle;fill:#99d420;fill-opacity:1;stroke-width:3.21704936"
         id="path1010" />
      <path
         d="m 455.53603,53.352578 q 0,4.619885 -0.32535,8.784288 -0.32534,4.099335 -1.62672,7.678119 -1.23631,3.513716 -3.83906,6.311674 -2.53768,2.797959 -7.02743,4.815092 -4.42468,1.952064 -11.12676,2.993165 -6.63702,1.106169 -16.20214,1.106169 -9.76032,0 -16.52747,-1.171238 -6.70209,-1.171239 -11.12677,-3.123303 -4.42468,-1.952064 -6.89729,-4.489747 -2.47262,-2.602752 -3.64385,-5.400711 -1.17124,-2.863027 -1.43152,-5.726055 -0.1952,-2.863027 -0.1952,-5.465779 V 20.62297 q 0,-2.602753 0.1952,-5.46578 0.26028,-2.863027 1.43152,-5.6609858 1.17123,-2.7979586 3.64385,-5.3356419 2.47261,-2.6027521 6.89729,-4.55481626 4.42468,-1.95206414 11.12677,-3.12330254 6.76715,-1.1712385 16.52747,-1.1712385 9.50005,0 16.20214,1.1712385 6.70208,1.1712384 11.12676,3.12330254 4.48975,1.95206416 7.02743,4.55481626 2.60275,2.5376833 3.90413,5.3356419 1.30138,2.7979588 1.62672,5.7260548 0.32534,2.863027 0.32534,5.400711 V 45.023771 H 407.90566 V 67.277302 H 423.2619 V 53.417647 Z M 407.90566,33.441524 H 423.2619 V 13.725676 h -15.35624 z"
         style="font-style:normal;font-variant:normal;font-weight:bold;font-stretch:normal;font-size:133.26091003px;line-height:0;font-family:'Coda Caption';-inkscape-font-specification:'Coda Caption Bold';font-variant-ligatures:normal;font-variant-caps:normal;font-variant-numeric:normal;font-feature-settings:normal;text-align:center;letter-spacing:0px;writing-mode:lr-tb;text-anchor:middle;fill:#99d420;fill-opacity:1;stroke-width:3.21704936"
         id="path1012" />
    </g>
    <path
       style="color:#000000;font-style:normal;font-variant:normal;font-weight:normal;font-stretch:normal;font-size:medium;line-height:normal;font-family:sans-serif;font-variant-ligatures:normal;font-variant-position:normal;font-variant-caps:normal;font-variant-numeric:normal;font-variant-alternates:normal;font-feature-settings:normal;text-indent:0;text-align:start;text-decoration:none;text-decoration-line:none;text-decoration-style:solid;text-decoration-color:#000000;letter-spacing:normal;word-spacing:normal;text-transform:none;writing-mode:lr-tb;direction:ltr;text-orientation:mixed;dominant-baseline:auto;baseline-shift:baseline;text-anchor:start;white-space:normal;shape-padding:0;clip-rule:nonzero;display:inline;overflow:visible;visibility:visible;opacity:1;isolation:auto;mix-blend-mode:normal;color-interpolation:sRGB;color-interpolation-filters:linearRGB;solid-color:#000000;solid-opacity:1;vector-effect:none;fill:#99d420;fill-opacity:1;fill-rule:nonzero;stroke:none;stroke-width:3.88024426;stroke-linecap:butt;stroke-linejoin:miter;stroke-miterlimit:4;stroke-dasharray:none;stroke-dashoffset:0;stroke-opacity:1;color-rendering:auto;image-rendering:auto;shape-rendering:auto;text-rendering:auto;enable-background:accumulate"
       d="m 108.55708,-23.685202 v 3.8808 h 320.207 v -3.8808 z"
       id="path101-9-1"
       inkscape:connector-curvature="0" />
    <g
       aria-label="de Normandie"
       style="font-style:normal;font-weight:normal;font-size:47.03325653px;line-height:1.25;font-family:sans-serif;letter-spacing:0px;word-spacing:0px;fill:#ffffff;fill-opacity:1;stroke:none;stroke-width:1.17583168"
       id="text4599-2-1">
      <path
         d="m 113.43051,146.78712 q -3.31391,0 -5.35325,-2.06765 -2.37922,-2.43587 -2.37922,-7.25096 0,-2.03934 0.42486,-4.30526 0.39654,-2.26593 1.18961,-4.4752 1.81274,-4.98504 4.95671,-8.04404 3.62548,-3.48386 8.3556,-3.48386 2.3509,0 3.51219,0.8214 1.18961,0.79307 1.18961,2.12431 v 0.22659 l 2.8324,-13.34064 8.5822,-1.16128 -6.65616,31.32641 q -0.25492,0.84972 -0.25492,1.86939 0,1.18961 0.56649,1.67112 0.56648,0.48151 1.81274,0.48151 1.61447,0 2.88905,-1.44453 1.07631,-1.27458 1.81274,-3.68213 h 2.43587 q -1.5295,4.36191 -3.7671,6.88275 -1.89771,2.09598 -4.22029,2.91738 -1.67112,0.59481 -3.6538,0.59481 -2.40755,0 -3.8804,-1.27459 -1.47285,-1.27458 -1.81274,-3.71045 -1.55782,2.3509 -3.37056,3.62548 -2.3509,1.69944 -5.21163,1.69944 z m 3.7671,-5.60816 q 0.62313,0 1.33123,-0.31157 0.73643,-0.31156 1.38788,-0.87804 1.5295,-1.38788 2.03933,-3.62548 v -0.31157 l 2.83241,-13.28398 q -0.19827,-0.79308 -0.56648,-1.27459 -0.59481,-0.73642 -1.81274,-0.73642 -1.16129,0 -2.26593,0.76475 -1.07631,0.76475 -2.03933,2.1243 -1.69944,2.4642 -2.80408,6.42957 -0.50983,1.75609 -0.76475,3.48386 -0.25492,1.69944 -0.25492,3.08732 0,2.88905 1.07632,3.90872 0.36821,0.39654 0.8214,0.50983 0.45318,0.1133 1.01966,0.1133 z"
         style="font-style:normal;font-variant:normal;font-weight:normal;font-stretch:normal;font-size:58.0076828px;font-family:Pattaya;-inkscape-font-specification:Pattaya;fill:#ffffff;fill-opacity:1;stroke-width:1.17583168"
         id="path983" />
      <path
         d="m 145.23843,146.78712 q -4.27693,0 -6.5995,-2.15262 -2.4642,-2.29425 -2.4642,-7.0527 0,-1.78441 0.36822,-3.96537 0.33989,-2.18095 1.04799,-4.3619 0.79307,-2.43587 2.01101,-4.61682 1.24625,-2.18096 2.88905,-3.85208 3.79542,-3.85207 9.34694,-3.85207 3.54051,0 5.15498,1.69944 1.24626,1.33124 1.24626,3.85208 0,2.46419 -1.07631,4.64514 -1.07632,2.15263 -2.97403,3.82375 -1.89771,1.6428 -4.30526,2.63414 -2.40754,0.96302 -4.98503,1.13296 -0.14162,1.47285 -0.14162,2.32258 0,2.8324 1.07631,3.90872 0.93469,0.96301 3.11565,0.96301 3.14397,0 5.74978,-1.69944 1.10464,-0.7081 2.12431,-1.67112 1.01966,-0.99134 2.37922,-2.49252 h 1.98268 q -2.74743,4.64515 -6.31626,7.39258 -4.39023,3.34224 -9.63019,3.34224 z m 0.1133,-14.84181 q 1.61447,-0.11329 3.14397,-0.93469 1.5295,-0.8214 2.71911,-2.15263 1.18961,-1.35955 1.86939,-3.03067 0.67978,-1.69945 0.67978,-3.45554 0,-1.16129 -0.33989,-1.75609 -0.31157,-0.62313 -1.10464,-0.62313 -1.04799,0 -2.1243,1.01967 -1.04799,1.01966 -2.03934,2.80408 -0.90637,1.67112 -1.64279,3.79542 -0.73643,2.12431 -1.16129,4.33358 z"
         style="font-style:normal;font-variant:normal;font-weight:normal;font-stretch:normal;font-size:58.0076828px;font-family:Pattaya;-inkscape-font-specification:Pattaya;fill:#ffffff;fill-opacity:1;stroke-width:1.17583168"
         id="path985" />
      <path
         d="m 185.91179,106.70857 q -3.99369,1.41621 -6.03302,4.39023 -2.01101,2.94571 -2.01101,7.22264 0,1.86939 0.39653,3.42721 0.42487,1.5295 1.16129,2.49252 -3.73878,0 -5.49487,-1.50118 -1.75609,-1.5295 -1.75609,-4.78676 0,-4.02202 2.43587,-7.61918 2.32257,-3.42721 6.31627,-5.52319 4.10699,-2.09598 8.86543,-2.09598 1.33123,0 2.32257,0.19827 1.01967,0.16994 2.26593,0.5948 l 6.99604,31.04318 6.48621,-31.49636 h 5.63649 l -9.46024,43.39247 h -8.01571 l -6.7128,-28.77725 -6.62783,28.77725 h -5.49487 z"
         style="font-style:normal;font-variant:normal;font-weight:normal;font-stretch:normal;font-size:58.0076828px;font-family:Pattaya;-inkscape-font-specification:Pattaya;fill:#ffffff;fill-opacity:1;stroke-width:1.17583168"
         id="path987" />
      <path
         d="m 219.05094,146.67383 q -4.30526,0 -6.65615,-2.09598 -2.63414,-2.32258 -2.63414,-7.0527 0,-1.78441 0.36821,-3.93704 0.36821,-2.18095 1.13296,-4.39023 1.7561,-5.26828 5.01336,-8.41225 3.93705,-3.85207 9.37527,-3.85207 7.44923,0 7.44923,9.26197 v 0.0566 q 0.16994,0.0567 0.28324,0.0567 h 0.33989 q 1.92603,0 4.56017,-1.07632 2.32257,-0.96302 4.39023,-2.40754 l 0.50983,1.58614 q -1.69944,1.78442 -4.39023,3.03068 -2.66246,1.24626 -5.8914,1.78441 -0.33989,3.93705 -1.5295,7.19432 -1.18961,3.22894 -3.059,5.55151 -1.84106,2.26593 -4.22029,3.48386 -2.37922,1.21794 -5.04168,1.21794 z m 2.32257,-5.21163 q 1.01967,0 2.06766,-0.90637 1.07632,-0.93469 2.01101,-2.57749 0.93469,-1.6428 1.61447,-3.85207 0.67978,-2.20928 1.01967,-4.73012 -0.84972,-0.22659 -1.21794,-0.84972 -0.33989,-0.62313 -0.33989,-1.58615 0,-1.18961 0.48151,-1.98269 0.48151,-0.79307 1.33123,-1.16128 -0.11329,-1.84107 -0.5948,-2.63414 -0.25492,-0.39654 -0.65145,-0.56648 -0.36822,-0.16995 -0.96302,-0.16995 -1.95436,0 -3.82375,2.94571 -1.72777,2.66246 -2.83241,6.57118 -1.07631,3.82375 -1.07631,6.79778 0,1.44452 0.14162,2.35089 0.16994,0.90637 0.53816,1.41621 0.33988,0.50983 0.87804,0.73642 0.53816,0.19827 1.4162,0.19827 z"
         style="font-style:normal;font-variant:normal;font-weight:normal;font-stretch:normal;font-size:58.0076828px;font-family:Pattaya;-inkscape-font-specification:Pattaya;fill:#ffffff;fill-opacity:1;stroke-width:1.17583168"
         id="path989" />
      <path
         d="m 240.01075,117.44339 h 8.3556 l -0.73642,3.59716 q 1.98268,-1.75609 3.22894,-2.49252 1.92604,-1.10464 3.7671,-1.10464 1.86939,0 3.00235,1.33123 0.50983,0.59481 0.76475,1.38788 0.25492,0.76475 0.25492,1.6428 0,0.79307 -0.25492,1.5295 -0.25492,0.73642 -0.76475,1.33123 -0.56648,0.62313 -1.38788,0.99134 -0.79307,0.36822 -1.78441,0.36822 -0.76475,0 -1.21794,-0.25492 -0.45318,-0.25492 -0.7081,-0.73643 -0.22659,-0.48151 -0.31157,-0.93469 -0.25491,-1.21794 -0.50983,-1.61447 -0.19827,-0.28324 -0.62313,-0.28324 -1.21793,0 -2.06766,0.50983 -0.84972,0.50983 -2.15262,1.69944 l -4.64515,22.03613 h -8.3556 z"
         style="font-style:normal;font-variant:normal;font-weight:normal;font-stretch:normal;font-size:58.0076828px;font-family:Pattaya;-inkscape-font-specification:Pattaya;fill:#ffffff;fill-opacity:1;stroke-width:1.17583168"
         id="path991" />
      <path
         d="m 293.20335,146.78712 q -3.59716,0 -5.32493,-2.03933 -1.50117,-1.75609 -1.50117,-4.50352 0,-1.30291 0.31156,-3.03068 0.33989,-1.72777 0.99135,-4.44688 0.65145,-2.77576 0.96301,-4.41855 0.33989,-1.67112 0.33989,-2.88906 0,-2.97402 -2.09598,-2.97402 -1.47285,0 -2.71911,1.55782 -1.04799,1.33123 -1.81274,3.79543 l -3.93704,18.60891 h -8.3556 l 4.24861,-20.02512 q 0.16994,-0.67978 0.16994,-1.44453 0,-1.16128 -0.36821,-1.78441 -0.48151,-0.76475 -1.38788,-0.76475 -1.6428,0 -2.86073,1.58615 -1.07632,1.35955 -1.84107,3.82375 l -3.93704,18.60891 h -8.3556 l 6.14632,-29.00385 h 8.3556 l -0.62313,3.00235 q 1.69945,-1.89771 3.71045,-2.69078 1.58615,-0.59481 3.37057,-0.59481 2.43587,0 3.8804,1.13297 1.61447,1.27458 2.06765,3.85207 1.86939,-2.88906 4.30526,-4.07867 1.72777,-0.84972 3.7671,-0.84972 2.91738,0 4.61682,1.5295 1.81274,1.67112 1.81274,5.01336 0,1.89771 -0.7081,5.23995 -0.28324,1.38788 -0.67978,2.80408 -0.7081,2.71911 -1.16128,5.01336 -0.2266,1.18961 -0.2266,1.92604 0,1.16129 0.50984,1.81274 0.53815,0.62313 1.81274,0.62313 1.72777,0 2.91738,-1.4162 0.90637,-1.07632 1.95436,-3.71046 h 2.43587 q -2.15263,6.37292 -5.43822,8.92208 -2.32258,1.81274 -5.35325,1.81274 z"
         style="font-style:normal;font-variant:normal;font-weight:normal;font-stretch:normal;font-size:58.0076828px;font-family:Pattaya;-inkscape-font-specification:Pattaya;fill:#ffffff;fill-opacity:1;stroke-width:1.17583168"
         id="path993" />
      <path
         d="m 308.52666,146.78712 q -3.31392,0 -5.35325,-2.06765 -2.37922,-2.43587 -2.37922,-7.25096 0,-2.03934 0.42486,-4.30526 0.39654,-2.26593 1.18961,-4.4752 1.81274,-4.98504 4.95671,-8.04404 3.62548,-3.48386 8.3556,-3.48386 2.3509,0 3.51218,0.8214 1.18961,0.79307 1.18961,2.12431 v 0.42486 l 0.62313,-3.08733 h 8.3556 l -4.16364,19.71355 q -0.25491,0.84972 -0.25491,1.86939 0,2.49252 2.37922,2.49252 1.58615,0 2.88905,-1.61447 1.10464,-1.35956 1.81274,-3.85208 h 2.43587 q -1.55782,4.41856 -3.7671,6.99605 -1.86939,2.1243 -4.22028,3.059 -1.72777,0.67977 -3.65381,0.67977 -2.46419,0 -3.93704,-1.33123 -1.44453,-1.35955 -1.75609,-3.99369 -1.6428,2.32257 -3.45554,3.62548 -2.32257,1.69944 -5.1833,1.69944 z m 3.7671,-5.60816 q 0.65145,0 1.35955,-0.33989 0.73643,-0.33989 1.41621,-0.96302 1.52949,-1.47285 2.03933,-3.82375 l 2.77576,-13.08571 q 0,-0.28324 -0.14162,-0.65146 -0.1133,-0.39653 -0.33989,-0.73642 -0.67978,-0.8214 -1.89771,-0.8214 -1.16129,0 -2.26593,0.76475 -1.07631,0.76475 -2.03933,2.1243 -1.69945,2.4642 -2.80409,6.42957 -0.50983,1.75609 -0.76474,3.48386 -0.25492,1.69944 -0.25492,3.08732 0,2.88905 1.07631,3.90872 0.36822,0.39654 0.8214,0.50983 0.45319,0.1133 1.01967,0.1133 z"
         style="font-style:normal;font-variant:normal;font-weight:normal;font-stretch:normal;font-size:58.0076828px;font-family:Pattaya;-inkscape-font-specification:Pattaya;fill:#ffffff;fill-opacity:1;stroke-width:1.17583168"
         id="path995" />
      <path
         d="m 352.96712,146.78712 q -3.59716,0 -5.32492,-2.03933 -1.50118,-1.75609 -1.50118,-4.50352 0,-1.30291 0.31157,-3.03068 0.33988,-1.72777 0.99134,-4.44688 0.65145,-2.77576 0.96302,-4.41855 0.33988,-1.67112 0.33988,-2.88906 0,-2.97402 -2.09598,-2.97402 -1.47285,0 -2.71911,1.55782 -1.04799,1.33123 -1.81274,3.79543 l -3.93704,18.60891 h -8.3556 l 6.14632,-29.00385 h 8.3556 l -0.62313,3.00235 q 1.69945,-1.89771 3.65381,-2.66246 1.44452,-0.56648 3.11564,-0.56648 2.94571,0 4.64515,1.5295 1.81274,1.67112 1.81274,5.01336 0,2.01101 -0.73643,5.23995 -0.19827,0.9347 -0.65145,2.80408 -0.8214,3.14398 -1.18961,5.01336 -0.22659,1.18961 -0.22659,1.92604 0,1.16129 0.50983,1.81274 0.53816,0.62313 1.81274,0.62313 1.72777,0 2.91738,-1.4162 0.90637,-1.07632 1.95436,-3.71046 h 2.43587 q -2.15263,6.37292 -5.43822,8.92208 -2.32258,1.81274 -5.35325,1.81274 z"
         style="font-style:normal;font-variant:normal;font-weight:normal;font-stretch:normal;font-size:58.0076828px;font-family:Pattaya;-inkscape-font-specification:Pattaya;fill:#ffffff;fill-opacity:1;stroke-width:1.17583168"
         id="path997" />
      <path
         d="m 368.34708,146.78712 q -3.31392,0 -5.35325,-2.06765 -2.37922,-2.43587 -2.37922,-7.25096 0,-2.03934 0.42486,-4.30526 0.39653,-2.26593 1.18961,-4.4752 1.81274,-4.98504 4.95671,-8.04404 3.62548,-3.48386 8.3556,-3.48386 2.3509,0 3.51218,0.8214 1.18961,0.79307 1.18961,2.12431 v 0.22659 l 2.83241,-13.34064 8.58219,-1.16128 -6.65615,31.32641 q -0.25492,0.84972 -0.25492,1.86939 0,1.18961 0.56648,1.67112 0.56648,0.48151 1.81274,0.48151 1.61447,0 2.88905,-1.44453 1.07632,-1.27458 1.81275,-3.68213 h 2.43586 q -1.52949,4.36191 -3.7671,6.88275 -1.89771,2.09598 -4.22028,2.91738 -1.67112,0.59481 -3.65381,0.59481 -2.40754,0 -3.88039,-1.27459 -1.47285,-1.27458 -1.81274,-3.71045 -1.55783,2.3509 -3.37057,3.62548 -2.35089,1.69944 -5.21162,1.69944 z m 3.7671,-5.60816 q 0.62313,0 1.33123,-0.31157 0.73642,-0.31156 1.38788,-0.87804 1.5295,-1.38788 2.03933,-3.62548 v -0.31157 l 2.83241,-13.28398 q -0.19827,-0.79308 -0.56649,-1.27459 -0.5948,-0.73642 -1.81274,-0.73642 -1.16128,0 -2.26592,0.76475 -1.07632,0.76475 -2.03933,2.1243 -1.69945,2.4642 -2.80409,6.42957 -0.50983,1.75609 -0.76475,3.48386 -0.25491,1.69944 -0.25491,3.08732 0,2.88905 1.07631,3.90872 0.36822,0.39654 0.8214,0.50983 0.45319,0.1133 1.01967,0.1133 z"
         style="font-style:normal;font-variant:normal;font-weight:normal;font-stretch:normal;font-size:58.0076828px;font-family:Pattaya;-inkscape-font-specification:Pattaya;fill:#ffffff;fill-opacity:1;stroke-width:1.17583168"
         id="path999" />
      <path
         d="m 401.54287,114.29942 q -0.93469,0 -1.78442,-0.33989 -0.84972,-0.36821 -1.47285,-0.99134 -0.62313,-0.5948 -0.99134,-1.44453 -0.33989,-0.84972 -0.33989,-1.78441 0,-0.9347 0.33989,-1.78442 0.36821,-0.84972 0.99134,-1.50117 0.62313,-0.65146 1.47285,-0.99135 0.84973,-0.36821 1.78442,-0.36821 0.93469,0 1.78442,0.36821 0.84972,0.33989 1.50117,0.99135 0.65146,0.65145 0.99134,1.50117 0.36822,0.84972 0.36822,1.78442 0,0.93469 -0.36822,1.78441 -0.33988,0.84973 -0.99134,1.44453 -0.65145,0.62313 -1.50117,0.99134 -0.84973,0.33989 -1.78442,0.33989 z m -3.93704,32.4877 q -2.77576,0 -4.39023,-1.64279 -1.81274,-1.81274 -1.81274,-5.2966 0,-1.6428 0.45318,-3.79543 l 3.93705,-18.60891 h 8.35559 l -4.16363,19.71355 q -0.2266,0.73643 -0.2266,1.86939 0,1.18961 0.53816,1.67112 0.56648,0.48151 1.81274,0.48151 0.84972,0 1.6428,-0.36821 0.8214,-0.39654 1.50117,-1.07632 1.38788,-1.38788 2.09598,-3.68213 h 2.43587 q -1.55782,4.39023 -3.90872,6.99605 -1.98268,2.1243 -4.4752,3.059 -1.81274,0.67977 -3.79542,0.67977 z"
         style="font-style:normal;font-variant:normal;font-weight:normal;font-stretch:normal;font-size:58.0076828px;font-family:Pattaya;-inkscape-font-specification:Pattaya;fill:#ffffff;fill-opacity:1;stroke-width:1.17583168"
         id="path1001" />
      <path
         d="m 415.6766,146.78712 q -4.27694,0 -6.59951,-2.15262 -2.46419,-2.29425 -2.46419,-7.0527 0,-1.78441 0.36821,-3.96537 0.33989,-2.18095 1.04799,-4.3619 0.79307,-2.43587 2.01101,-4.61682 1.24626,-2.18096 2.88905,-3.85208 3.79543,-3.85207 9.34694,-3.85207 3.54051,0 5.15498,1.69944 1.24626,1.33124 1.24626,3.85208 0,2.46419 -1.07631,4.64514 -1.07632,2.15263 -2.97403,3.82375 -1.89771,1.6428 -4.30526,2.63414 -2.40754,0.96302 -4.98503,1.13296 -0.14162,1.47285 -0.14162,2.32258 0,2.8324 1.07631,3.90872 0.9347,0.96301 3.11565,0.96301 3.14397,0 5.74979,-1.69944 1.10463,-0.7081 2.1243,-1.67112 1.01967,-0.99134 2.37922,-2.49252 h 1.98269 q -2.74744,4.64515 -6.31627,7.39258 -4.39023,3.34224 -9.63018,3.34224 z m 0.11329,-14.84181 q 1.61448,-0.11329 3.14398,-0.93469 1.52949,-0.8214 2.71911,-2.15263 1.18961,-1.35955 1.86938,-3.03067 0.67978,-1.69945 0.67978,-3.45554 0,-1.16129 -0.33989,-1.75609 -0.31156,-0.62313 -1.10464,-0.62313 -1.04799,0 -2.1243,1.01967 -1.04799,1.01966 -2.03933,2.80408 -0.90637,1.67112 -1.6428,3.79542 -0.73642,2.12431 -1.16129,4.33358 z"
         style="font-style:normal;font-variant:normal;font-weight:normal;font-stretch:normal;font-size:58.0076828px;font-family:Pattaya;-inkscape-font-specification:Pattaya;fill:#ffffff;fill-opacity:1;stroke-width:1.17583168"
         id="path1003" />
    </g>
    <g
       aria-label="L'annuaire des professionnels"
       style="font-style:normal;font-variant:normal;font-weight:normal;font-stretch:normal;font-size:34.99999619px;line-height:1.25;font-family:Cookie;-inkscape-font-specification:'Cookie, Normal';font-variant-ligatures:normal;font-variant-caps:normal;font-variant-numeric:normal;font-feature-settings:normal;text-align:center;letter-spacing:0px;word-spacing:0px;writing-mode:lr-tb;text-anchor:middle;fill:#ffffff;fill-opacity:1;stroke:none;stroke-width:0.93749976"
       id="text172-2-0-9">
      <path
         d="m 88.687428,443.49444 q -1.162109,0 -2.341308,-0.54687 -1.179199,-0.52979 -2.546387,-1.521 -1.247558,-0.87158 -2.478027,-1.91406 -2.888183,-2.39258 -5.280761,-3.38379 -1.384277,-0.58105 -2.973633,-0.58105 h -0.393066 q -0.102539,0 -0.410156,0.0342 l 5.212402,-24.25049 q -2.358398,0.97412 -3.623047,2.90528 -1.264648,1.91406 -1.264648,4.71679 0,1.07666 0.239258,1.76026 0.06836,0.22216 0.170898,0.39306 0.06836,0.11963 0.06836,0.23926 -1.896972,0 -2.768554,-0.76904 -0.974121,-0.82032 -0.974121,-2.63184 0,-1.14502 0.495606,-2.25586 0.495605,-1.12793 1.401367,-2.17041 0.871582,-1.0083 2.050781,-1.86279 1.196289,-0.87158 2.563476,-1.50391 2.905273,-1.31591 5.776366,-1.31591 0.632325,0 1.401367,0.0854 l -5.3833,25.12207 q 0.837403,0.18799 1.691895,0.56397 0.871582,0.37597 1.982421,0.97412 l 1.914063,1.02539 q 2.221679,1.21338 4.016112,1.6748 1.025391,0.27344 2.15332,0.27344 1.589356,0 2.939453,-0.56396 -0.307617,2.56347 -1.247558,4.01611 -0.461426,0.71777 -1.07666,1.09375 -0.598145,0.39306 -1.315918,0.39306 z"
         style="font-style:normal;font-variant:normal;font-weight:normal;font-stretch:normal;font-size:34.99999619px;line-height:32.70472336px;font-family:Pattaya;-inkscape-font-specification:Pattaya;font-variant-ligatures:normal;font-variant-caps:normal;font-variant-numeric:normal;font-feature-settings:normal;text-align:center;writing-mode:lr-tb;text-anchor:middle;fill:#ffffff;fill-opacity:1;stroke-width:0.93749976"
         id="path928" />
      <path
         d="m 87.798756,408.42609 h 3.674316 l -3.845215,8.11767 H 85.18401 Z"
         style="font-style:normal;font-variant:normal;font-weight:normal;font-stretch:normal;font-size:34.99999619px;line-height:32.70472336px;font-family:Pattaya;-inkscape-font-specification:Pattaya;font-variant-ligatures:normal;font-variant-caps:normal;font-variant-numeric:normal;font-feature-settings:normal;text-align:center;writing-mode:lr-tb;text-anchor:middle;fill:#ffffff;fill-opacity:1;stroke-width:0.93749976"
         id="path930" />
      <path
         d="m 93.421313,434.94952 q -1.999512,0 -3.229981,-1.24755 -1.435546,-1.46973 -1.435546,-4.375 0,-1.23047 0.256347,-2.59766 0.239258,-1.36719 0.717774,-2.7002 1.09375,-3.00781 2.990722,-4.85351 2.1875,-2.10205 5.041503,-2.10205 1.418457,0 2.119141,0.4956 0.717777,0.47852 0.717777,1.28174 v 0.25635 l 0.37597,-1.86279 h 5.04151 l -2.51221,11.89453 q -0.15381,0.51269 -0.15381,1.12793 0,1.5039 1.43555,1.5039 0.95703,0 1.74316,-0.97412 0.66651,-0.82031 1.09375,-2.32422 h 1.46973 q -0.93994,2.66602 -2.27295,4.22119 -1.12793,1.28174 -2.54639,1.84571 -1.04248,0.41015 -2.20459,0.41015 -1.48681,0 -2.375485,-0.80322 -0.871582,-0.82031 -1.059571,-2.40967 -0.991211,1.40137 -2.08496,2.1875 -1.401367,1.02539 -3.127441,1.02539 z m 2.272949,-3.38378 q 0.393066,0 0.820312,-0.20508 0.444336,-0.20508 0.854492,-0.58106 0.922851,-0.88867 1.230469,-2.30713 l 1.674805,-7.8955 q 0,-0.1709 -0.0854,-0.39307 -0.0684,-0.23926 -0.205078,-0.44434 -0.410156,-0.4956 -1.14502,-0.4956 -0.700683,0 -1.367187,0.46142 -0.649414,0.46143 -1.230469,1.28174 -1.02539,1.48682 -1.691894,3.8794 -0.307617,1.05957 -0.461426,2.10205 -0.153808,1.02539 -0.153808,1.86279 0,1.74316 0.649414,2.3584 0.222168,0.23926 0.495605,0.30762 0.273438,0.0684 0.615235,0.0684 z"
         style="font-style:normal;font-variant:normal;font-weight:normal;font-stretch:normal;font-size:34.99999619px;line-height:32.70472336px;font-family:Pattaya;-inkscape-font-specification:Pattaya;font-variant-ligatures:normal;font-variant-caps:normal;font-variant-numeric:normal;font-feature-settings:normal;text-align:center;writing-mode:lr-tb;text-anchor:middle;fill:#ffffff;fill-opacity:1;stroke-width:0.93749976"
         id="path932" />
      <path
         d="m 120.23528,434.94952 q -2.17041,0 -3.21289,-1.23046 -0.90577,-1.05957 -0.90577,-2.71729 0,-0.78613 0.18799,-1.82861 0.20508,-1.04248 0.59815,-2.68311 0.39306,-1.6748 0.58105,-2.66601 0.20508,-1.0083 0.20508,-1.74317 0,-1.79443 -1.26465,-1.79443 -0.88867,0 -1.64062,0.93994 -0.63233,0.80322 -1.09375,2.29004 l -2.37549,11.22803 h -5.0415 l 3.70849,-17.5 h 5.0415 l -0.37597,1.81152 q 1.02539,-1.14502 2.20459,-1.60644 0.87158,-0.3418 1.87988,-0.3418 1.77734,0 2.80273,0.92285 1.09375,1.0083 1.09375,3.0249 0,1.21338 -0.44433,3.16162 -0.11963,0.56397 -0.39307,1.6919 -0.4956,1.89697 -0.71777,3.0249 -0.13672,0.71777 -0.13672,1.16211 0,0.70068 0.30762,1.09375 0.3247,0.37598 1.09375,0.37598 1.04248,0 1.76025,-0.8545 0.54688,-0.64941 1.1792,-2.23877 h 1.46973 q -1.29883,3.84522 -3.28125,5.3833 -1.40137,1.09375 -3.22998,1.09375 z"
         style="font-style:normal;font-variant:normal;font-weight:normal;font-stretch:normal;font-size:34.99999619px;line-height:32.70472336px;font-family:Pattaya;-inkscape-font-specification:Pattaya;font-variant-ligatures:normal;font-variant-caps:normal;font-variant-numeric:normal;font-feature-settings:normal;text-align:center;writing-mode:lr-tb;text-anchor:middle;fill:#ffffff;fill-opacity:1;stroke-width:0.93749976"
         id="path934" />
      <path
         d="m 137.94035,434.94952 q -2.17041,0 -3.21289,-1.23046 -0.90576,-1.05957 -0.90576,-2.71729 0,-0.78613 0.18799,-1.82861 0.20508,-1.04248 0.59814,-2.68311 0.39307,-1.6748 0.58106,-2.66601 0.20507,-1.0083 0.20507,-1.74317 0,-1.79443 -1.26464,-1.79443 -0.88868,0 -1.64063,0.93994 -0.63232,0.80322 -1.09375,2.29004 l -2.37549,11.22803 h -5.0415 l 3.7085,-17.5 h 5.0415 l -0.37598,1.81152 q 1.02539,-1.14502 2.20459,-1.60644 0.87158,-0.3418 1.87988,-0.3418 1.77735,0 2.80274,0.92285 1.09375,1.0083 1.09375,3.0249 0,1.21338 -0.44434,3.16162 -0.11963,0.56397 -0.39306,1.6919 -0.49561,1.89697 -0.71778,3.0249 -0.13672,0.71777 -0.13672,1.16211 0,0.70068 0.30762,1.09375 0.32471,0.37598 1.09375,0.37598 1.04248,0 1.76026,-0.8545 0.54687,-0.64941 1.17919,-2.23877 h 1.46973 q -1.29883,3.84522 -3.28125,5.3833 -1.40137,1.09375 -3.22998,1.09375 z"
         style="font-style:normal;font-variant:normal;font-weight:normal;font-stretch:normal;font-size:34.99999619px;line-height:32.70472336px;font-family:Pattaya;-inkscape-font-specification:Pattaya;font-variant-ligatures:normal;font-variant-caps:normal;font-variant-numeric:normal;font-feature-settings:normal;text-align:center;writing-mode:lr-tb;text-anchor:middle;fill:#ffffff;fill-opacity:1;stroke-width:0.93749976"
         id="path936" />
      <path
         d="m 146.48527,434.94952 q -1.6748,0 -2.64892,-0.99121 -1.09375,-1.09375 -1.09375,-3.1958 0,-0.99121 0.27344,-2.29004 l 2.37548,-11.22802 h 5.04151 l -2.51221,11.89453 q -0.10254,0.52978 -0.10254,0.99121 0,1.43555 1.04248,1.43555 0.95703,0 1.72608,-0.87159 0.61523,-0.73486 1.07666,-2.22168 l 2.37548,-11.22802 h 5.04151 l -2.51221,11.89453 q -0.15381,0.51269 -0.15381,1.12793 0,0.71777 0.3418,1.0083 0.3418,0.29053 1.09375,0.29053 0.97412,0 1.74316,-0.87159 0.6836,-0.76904 1.09375,-2.22168 h 1.46973 q -0.93994,2.66602 -2.27295,4.22119 -1.12793,1.28174 -2.54639,1.84571 -1.04248,0.41015 -2.20459,0.41015 -1.5039,0 -2.39257,-0.8374 -0.88868,-0.8374 -1.07666,-2.47803 -1.19629,1.91407 -2.7002,2.73438 -1.07666,0.58105 -2.47803,0.58105 z"
         style="font-style:normal;font-variant:normal;font-weight:normal;font-stretch:normal;font-size:34.99999619px;line-height:32.70472336px;font-family:Pattaya;-inkscape-font-specification:Pattaya;font-variant-ligatures:normal;font-variant-caps:normal;font-variant-numeric:normal;font-feature-settings:normal;text-align:center;writing-mode:lr-tb;text-anchor:middle;fill:#ffffff;fill-opacity:1;stroke-width:0.93749976"
         id="path938" />
      <path
         d="m 164.92521,434.94952 q -1.99951,0 -3.22998,-1.24755 -1.43554,-1.46973 -1.43554,-4.375 0,-1.23047 0.25635,-2.59766 0.23925,-1.36719 0.71777,-2.7002 1.09375,-3.00781 2.99072,-4.85351 2.1875,-2.10205 5.0415,-2.10205 1.41846,0 2.11915,0.4956 0.71777,0.47852 0.71777,1.28174 v 0.25635 l 0.37598,-1.86279 h 5.0415 l -2.51221,11.89453 q -0.15381,0.51269 -0.15381,1.12793 0,1.5039 1.43555,1.5039 0.95703,0 1.74316,-0.97412 0.66651,-0.82031 1.09375,-2.32422 h 1.46973 q -0.93994,2.66602 -2.27295,4.22119 -1.12793,1.28174 -2.54639,1.84571 -1.04248,0.41015 -2.20459,0.41015 -1.48681,0 -2.37548,-0.80322 -0.87158,-0.82031 -1.05957,-2.40967 -0.99121,1.40137 -2.08496,2.1875 -1.40137,1.02539 -3.12745,1.02539 z m 2.27295,-3.38378 q 0.39307,0 0.82032,-0.20508 0.44433,-0.20508 0.85449,-0.58106 0.92285,-0.88867 1.23047,-2.30713 l 1.6748,-7.8955 q 0,-0.1709 -0.0855,-0.39307 -0.0684,-0.23926 -0.20508,-0.44434 -0.41015,-0.4956 -1.14502,-0.4956 -0.70068,0 -1.36718,0.46142 -0.64942,0.46143 -1.23047,1.28174 -1.02539,1.48682 -1.6919,3.8794 -0.30761,1.05957 -0.46142,2.10205 -0.15381,1.02539 -0.15381,1.86279 0,1.74316 0.64941,2.3584 0.22217,0.23926 0.49561,0.30762 0.27344,0.0684 0.61523,0.0684 z"
         style="font-style:normal;font-variant:normal;font-weight:normal;font-stretch:normal;font-size:34.99999619px;line-height:32.70472336px;font-family:Pattaya;-inkscape-font-specification:Pattaya;font-variant-ligatures:normal;font-variant-caps:normal;font-variant-numeric:normal;font-feature-settings:normal;text-align:center;writing-mode:lr-tb;text-anchor:middle;fill:#ffffff;fill-opacity:1;stroke-width:0.93749976"
         id="path940" />
      <path
         d="m 184.9545,415.34748 q -0.56396,0 -1.07666,-0.20508 -0.51269,-0.22217 -0.88867,-0.59815 -0.37597,-0.35888 -0.59814,-0.87158 -0.20508,-0.51269 -0.20508,-1.07666 0,-0.56396 0.20508,-1.07666 0.22217,-0.51269 0.59814,-0.90576 0.37598,-0.39307 0.88867,-0.59815 0.5127,-0.22216 1.07666,-0.22216 0.56397,0 1.07666,0.22216 0.5127,0.20508 0.90577,0.59815 0.39306,0.39307 0.59814,0.90576 0.22217,0.5127 0.22217,1.07666 0,0.56397 -0.22217,1.07666 -0.20508,0.5127 -0.59814,0.87158 -0.39307,0.37598 -0.90577,0.59815 -0.51269,0.20508 -1.07666,0.20508 z m -2.37548,19.60204 q -1.67481,0 -2.64893,-0.99121 -1.09375,-1.09375 -1.09375,-3.1958 0,-0.99121 0.27344,-2.29004 l 2.37549,-11.22802 h 5.0415 l -2.51221,11.89453 q -0.13672,0.44433 -0.13672,1.12793 0,0.71777 0.32471,1.0083 0.3418,0.29053 1.09375,0.29053 0.5127,0 0.99121,-0.22217 0.49561,-0.23926 0.90576,-0.64942 0.83741,-0.8374 1.26465,-2.22168 h 1.46973 q -0.93994,2.64893 -2.3584,4.22119 -1.19629,1.28174 -2.7002,1.84571 -1.09375,0.41015 -2.29003,0.41015 z"
         style="font-style:normal;font-variant:normal;font-weight:normal;font-stretch:normal;font-size:34.99999619px;line-height:32.70472336px;font-family:Pattaya;-inkscape-font-specification:Pattaya;font-variant-ligatures:normal;font-variant-caps:normal;font-variant-numeric:normal;font-feature-settings:normal;text-align:center;writing-mode:lr-tb;text-anchor:middle;fill:#ffffff;fill-opacity:1;stroke-width:0.93749976"
         id="path942" />
      <path
         d="m 190.8505,417.24445 h 5.0415 l -0.44433,2.17041 q 1.19629,-1.05957 1.94824,-1.50391 1.16211,-0.6665 2.27295,-0.6665 1.12793,0 1.81152,0.80322 0.30762,0.35889 0.46143,0.8374 0.15381,0.46143 0.15381,0.99121 0,0.47852 -0.15381,0.92285 -0.15381,0.44434 -0.46143,0.80323 -0.34179,0.37597 -0.8374,0.59814 -0.47852,0.22217 -1.07666,0.22217 -0.46143,0 -0.73486,-0.15381 -0.27344,-0.15381 -0.42725,-0.44433 -0.13672,-0.29053 -0.18799,-0.56397 -0.15381,-0.73486 -0.30761,-0.97412 -0.11963,-0.1709 -0.37598,-0.1709 -0.73486,0 -1.24756,0.30762 -0.5127,0.30762 -1.29883,1.02539 l -2.80273,13.2959 H 187.142 Z"
         style="font-style:normal;font-variant:normal;font-weight:normal;font-stretch:normal;font-size:34.99999619px;line-height:32.70472336px;font-family:Pattaya;-inkscape-font-specification:Pattaya;font-variant-ligatures:normal;font-variant-caps:normal;font-variant-numeric:normal;font-feature-settings:normal;text-align:center;writing-mode:lr-tb;text-anchor:middle;fill:#ffffff;fill-opacity:1;stroke-width:0.93749976"
         id="path944" />
      <path
         d="m 206.6757,434.94952 q -2.58057,0 -3.98194,-1.29882 -1.48681,-1.38428 -1.48681,-4.25537 0,-1.07666 0.22216,-2.39258 0.20508,-1.31592 0.63233,-2.63184 0.47851,-1.46972 1.21338,-2.78564 0.75195,-1.31592 1.74316,-2.32422 2.29004,-2.32422 5.63965,-2.32422 2.13623,0 3.11035,1.02539 0.75195,0.80322 0.75195,2.32422 0,1.48682 -0.64941,2.80273 -0.64942,1.29883 -1.79443,2.30713 -1.14502,0.99121 -2.59766,1.58936 -1.45264,0.58105 -3.00781,0.68359 -0.0855,0.88867 -0.0855,1.40137 0,1.70898 0.64941,2.3584 0.56397,0.58105 1.87988,0.58105 1.89698,0 3.46924,-1.02539 0.66651,-0.42725 1.28174,-1.0083 0.61524,-0.59814 1.43555,-1.50391 h 1.19629 q -1.65772,2.80274 -3.81104,4.46045 -2.64892,2.0166 -5.81054,2.0166 z m 0.0683,-8.95507 q 0.97413,-0.0684 1.89698,-0.56397 0.92285,-0.4956 1.64062,-1.29883 0.71778,-0.82031 1.12793,-1.82861 0.41016,-1.02539 0.41016,-2.08496 0,-0.70068 -0.20508,-1.05957 -0.18799,-0.37598 -0.6665,-0.37598 -0.63233,0 -1.28174,0.61524 -0.63233,0.61523 -1.23047,1.69189 -0.54688,1.0083 -0.99121,2.29004 -0.44434,1.28174 -0.70069,2.61475 z"
         style="font-style:normal;font-variant:normal;font-weight:normal;font-stretch:normal;font-size:34.99999619px;line-height:32.70472336px;font-family:Pattaya;-inkscape-font-specification:Pattaya;font-variant-ligatures:normal;font-variant-caps:normal;font-variant-numeric:normal;font-feature-settings:normal;text-align:center;writing-mode:lr-tb;text-anchor:middle;fill:#ffffff;fill-opacity:1;stroke-width:0.93749976"
         id="path946" />
      <path
         d="m 226.92716,434.94952 q -1.99951,0 -3.22998,-1.24755 -1.43555,-1.46973 -1.43555,-4.375 0,-1.23047 0.25635,-2.59766 0.23926,-1.36719 0.71777,-2.7002 1.09375,-3.00781 2.99073,-4.85351 2.1875,-2.10205 5.0415,-2.10205 1.41846,0 2.11914,0.4956 0.71777,0.47852 0.71777,1.28174 v 0.13672 l 1.70899,-8.04931 5.17822,-0.70069 -4.01611,18.90137 q -0.15381,0.51269 -0.15381,1.12793 0,0.71777 0.3418,1.0083 0.34179,0.29053 1.09375,0.29053 0.97412,0 1.74316,-0.87159 0.64941,-0.76904 1.09375,-2.22168 h 1.46973 q -0.92286,2.63184 -2.27295,4.15284 -1.14502,1.26464 -2.54639,1.76025 -1.0083,0.35889 -2.20459,0.35889 -1.45264,0 -2.34131,-0.76905 -0.88867,-0.76904 -1.09375,-2.23877 -0.93994,1.41846 -2.03369,2.1875 -1.41846,1.02539 -3.14453,1.02539 z m 2.27295,-3.38378 q 0.37598,0 0.80322,-0.18799 0.44434,-0.18799 0.8374,-0.52979 0.92286,-0.8374 1.23047,-2.1875 v -0.18799 l 1.70899,-8.01513 q -0.11963,-0.47852 -0.3418,-0.76904 -0.35889,-0.44434 -1.09375,-0.44434 -0.70068,0 -1.36719,0.46142 -0.64941,0.46143 -1.23047,1.28174 -1.02539,1.48682 -1.69189,3.8794 -0.30762,1.05957 -0.46143,2.10205 -0.1538,1.02539 -0.1538,1.86279 0,1.74316 0.64941,2.3584 0.22217,0.23926 0.49561,0.30762 0.27343,0.0684 0.61523,0.0684 z"
         style="font-style:normal;font-variant:normal;font-weight:normal;font-stretch:normal;font-size:34.99999619px;line-height:32.70472336px;font-family:Pattaya;-inkscape-font-specification:Pattaya;font-variant-ligatures:normal;font-variant-caps:normal;font-variant-numeric:normal;font-feature-settings:normal;text-align:center;writing-mode:lr-tb;text-anchor:middle;fill:#ffffff;fill-opacity:1;stroke-width:0.93749976"
         id="path948" />
      <path
         d="m 246.11905,434.94952 q -2.58056,0 -3.98193,-1.29882 -1.48681,-1.38428 -1.48681,-4.25537 0,-1.07666 0.22216,-2.39258 0.20508,-1.31592 0.63233,-2.63184 0.47851,-1.46972 1.21338,-2.78564 0.75195,-1.31592 1.74316,-2.32422 2.29004,-2.32422 5.63965,-2.32422 2.13623,0 3.11035,1.02539 0.75195,0.80322 0.75195,2.32422 0,1.48682 -0.64941,2.80273 -0.64942,1.29883 -1.79444,2.30713 -1.14501,0.99121 -2.59765,1.58936 -1.45264,0.58105 -3.00781,0.68359 -0.0855,0.88867 -0.0855,1.40137 0,1.70898 0.64941,2.3584 0.56397,0.58105 1.87988,0.58105 1.89698,0 3.46924,-1.02539 0.66651,-0.42725 1.28174,-1.0083 0.61523,-0.59814 1.43555,-1.50391 h 1.19629 q -1.65772,2.80274 -3.81104,4.46045 -2.64892,2.0166 -5.81055,2.0166 z m 0.0684,-8.95507 q 0.97413,-0.0684 1.89698,-0.56397 0.92285,-0.4956 1.64062,-1.29883 0.71777,-0.82031 1.12793,-1.82861 0.41016,-1.02539 0.41016,-2.08496 0,-0.70068 -0.20508,-1.05957 -0.18799,-0.37598 -0.6665,-0.37598 -0.63233,0 -1.28174,0.61524 -0.63233,0.61523 -1.23047,1.69189 -0.54688,1.0083 -0.99121,2.29004 -0.44434,1.28174 -0.70069,2.61475 z"
         style="font-style:normal;font-variant:normal;font-weight:normal;font-stretch:normal;font-size:34.99999619px;line-height:32.70472336px;font-family:Pattaya;-inkscape-font-specification:Pattaya;font-variant-ligatures:normal;font-variant-caps:normal;font-variant-numeric:normal;font-feature-settings:normal;text-align:center;writing-mode:lr-tb;text-anchor:middle;fill:#ffffff;fill-opacity:1;stroke-width:0.93749976"
         id="path950" />
      <path
         d="m 258.56046,434.94952 q -1.26465,0 -2.23877,-0.37597 -0.97412,-0.39307 -1.64062,-1.07666 -0.61524,-0.63233 -0.92285,-1.40137 -0.30762,-0.78613 -0.30762,-1.62353 0,-1.14502 0.58105,-2.06788 0.5127,-0.82031 1.28174,-1.17919 1.36719,-2.42676 2.37549,-4.92188 1.0083,-2.49512 1.93115,-5.45166 l 5.17822,-0.68359 q 0.20508,4.44336 0.37598,6.81884 0.1709,2.44385 0.29053,3.58887 0.10254,1.33301 0.10254,2.32422 0,0.88867 -0.13672,1.33301 1.57226,-0.92285 2.5122,-1.76026 h 1.46973 q -1.24756,1.45264 -2.58057,2.49512 -1.31591,1.04248 -2.76855,1.87988 -1.04248,1.09375 -2.61475,1.62354 -1.36718,0.47851 -2.88818,0.47851 z m -1.11084,-2.76855 q 1.31592,0 2.10205,-0.71777 0.93994,-0.8545 0.93994,-2.5293 0,-0.70068 -0.0854,-1.76025 l -0.0854,-1.04248 q -0.15381,-1.3501 -0.30762,-3.12745 l -0.18799,-2.35839 q -0.49561,1.58935 -1.1792,3.16162 -0.68359,1.55517 -1.65771,3.45215 0.80322,0.44433 0.80322,1.21337 0,0.6836 -0.41016,1.1792 -0.44433,0.54688 -1.12793,0.54688 -0.34179,0 -0.58105,-0.0855 -0.22217,-0.10254 -0.35889,-0.37598 0,1.26465 0.49561,1.86279 0.4956,0.58106 1.64062,0.58106 z"
         style="font-style:normal;font-variant:normal;font-weight:normal;font-stretch:normal;font-size:34.99999619px;line-height:32.70472336px;font-family:Pattaya;-inkscape-font-specification:Pattaya;font-variant-ligatures:normal;font-variant-caps:normal;font-variant-numeric:normal;font-feature-settings:normal;text-align:center;writing-mode:lr-tb;text-anchor:middle;fill:#ffffff;fill-opacity:1;stroke-width:0.93749976"
         id="path952" />
      <path
         d="m 278.23086,415.94562 h 5.0415 l -0.56397,2.63184 q 1.77735,-1.50391 4.08448,-1.50391 1.96533,0 3.04199,1.19629 1.23047,1.40137 1.23047,4.32373 0,2.81982 -0.71778,5.29785 -0.90576,3.16162 -2.63183,4.90478 -2.11914,2.15332 -5.26367,2.15332 -1.21338,0 -1.99951,-0.37597 -0.59815,-0.27344 -0.97413,-0.87158 l -1.81152,8.52783 -5.28076,1.26464 z m 3.14453,15.96191 q 1.69189,0 2.90527,-1.72607 0.95703,-1.3501 1.53809,-3.79395 0.46142,-1.96533 0.46142,-3.89648 0,-1.72607 -0.63232,-2.46094 -0.41016,-0.44433 -1.12793,-0.44433 -0.63233,0 -1.28174,0.44433 -0.64941,0.44434 -1.12793,1.28174 l -2.06787,9.79248 q 0.11963,0.3418 0.44434,0.58105 0.34179,0.22217 0.88867,0.22217 z"
         style="font-style:normal;font-variant:normal;font-weight:normal;font-stretch:normal;font-size:34.99999619px;line-height:32.70472336px;font-family:Pattaya;-inkscape-font-specification:Pattaya;font-variant-ligatures:normal;font-variant-caps:normal;font-variant-numeric:normal;font-feature-settings:normal;text-align:center;writing-mode:lr-tb;text-anchor:middle;fill:#ffffff;fill-opacity:1;stroke-width:0.93749976"
         id="path954" />
      <path
         d="m 294.34658,417.24445 h 5.0415 l -0.44433,2.17041 q 1.19629,-1.05957 1.94824,-1.50391 1.16211,-0.6665 2.27295,-0.6665 1.12793,0 1.81152,0.80322 0.30762,0.35889 0.46143,0.8374 0.1538,0.46143 0.1538,0.99121 0,0.47852 -0.1538,0.92285 -0.15381,0.44434 -0.46143,0.80323 -0.3418,0.37597 -0.8374,0.59814 -0.47852,0.22217 -1.07666,0.22217 -0.46143,0 -0.73486,-0.15381 -0.27344,-0.15381 -0.42725,-0.44433 -0.13672,-0.29053 -0.18799,-0.56397 -0.15381,-0.73486 -0.30762,-0.97412 -0.11963,-0.1709 -0.37597,-0.1709 -0.73487,0 -1.24756,0.30762 -0.5127,0.30762 -1.29883,1.02539 l -2.80273,13.2959 h -5.04151 z"
         style="font-style:normal;font-variant:normal;font-weight:normal;font-stretch:normal;font-size:34.99999619px;line-height:32.70472336px;font-family:Pattaya;-inkscape-font-specification:Pattaya;font-variant-ligatures:normal;font-variant-caps:normal;font-variant-numeric:normal;font-feature-settings:normal;text-align:center;writing-mode:lr-tb;text-anchor:middle;fill:#ffffff;fill-opacity:1;stroke-width:0.93749976"
         id="path956" />
      <path
         d="m 310.27431,434.88116 q -2.59765,0 -4.01611,-1.26464 -1.58936,-1.40137 -1.58936,-4.25537 0,-1.07666 0.22217,-2.37549 0.22217,-1.31592 0.6836,-2.64893 1.05957,-3.17871 3.0249,-5.07568 2.37549,-2.32422 5.65674,-2.32422 4.49462,0 4.49462,5.58838 v 0.0342 q 0.10254,0.0342 0.1709,0.0342 h 0.20508 q 1.16211,0 2.75147,-0.64942 1.40136,-0.58105 2.64892,-1.45263 l 0.30762,0.95703 q -1.02539,1.07666 -2.64893,1.82861 -1.60644,0.75195 -3.55468,1.07666 -0.20508,2.37549 -0.92286,4.34082 -0.71777,1.94824 -1.8457,3.34961 -1.11084,1.36719 -2.54639,2.10205 -1.43554,0.73486 -3.04199,0.73486 z m 1.40137,-3.14453 q 0.61523,0 1.24756,-0.54687 0.64941,-0.56397 1.21338,-1.55518 0.56396,-0.99121 0.97412,-2.32422 0.41015,-1.333 0.61523,-2.854 -0.51269,-0.13672 -0.73486,-0.51269 -0.20508,-0.37598 -0.20508,-0.95704 0,-0.71777 0.29053,-1.19628 0.29053,-0.47852 0.80322,-0.70069 -0.0684,-1.11084 -0.35889,-1.58935 -0.1538,-0.23926 -0.39306,-0.3418 -0.22217,-0.10254 -0.58106,-0.10254 -1.1792,0 -2.30713,1.77734 -1.04248,1.60645 -1.70898,3.96485 -0.64941,2.30713 -0.64941,4.10156 0,0.87158 0.0854,1.41846 0.10253,0.54687 0.3247,0.85449 0.20508,0.30762 0.52979,0.44433 0.32471,0.11963 0.85449,0.11963 z"
         style="font-style:normal;font-variant:normal;font-weight:normal;font-stretch:normal;font-size:34.99999619px;line-height:32.70472336px;font-family:Pattaya;-inkscape-font-specification:Pattaya;font-variant-ligatures:normal;font-variant-caps:normal;font-variant-numeric:normal;font-feature-settings:normal;text-align:center;writing-mode:lr-tb;text-anchor:middle;fill:#ffffff;fill-opacity:1;stroke-width:0.93749976"
         id="path958" />
      <path
         d="m 317.40078,443.49444 q -0.78613,0 -1.521,-0.27343 -0.75195,-0.27344 -1.333,-0.76905 -0.59815,-0.52978 -0.93995,-1.23046 -0.34179,-0.6836 -0.34179,-1.50391 0,-1.1792 0.46142,-2.0166 0.44434,-0.8374 1.29883,-1.45264 0.75195,-0.52978 1.76025,-0.93994 0.99122,-0.39307 2.49512,-0.8374 l 4.23828,-19.99512 q 0.64942,-3.33252 2.71729,-4.85351 1.48681,-1.09375 3.65722,-1.09375 0.78614,0 1.521,0.27344 0.75195,0.27343 1.33301,0.76904 0.59814,0.52978 0.92285,1.23047 0.3418,0.68359 0.3418,1.5039 0,0.82032 -0.10254,1.43555 h -1.64063 q 0.0684,-0.52978 0.0684,-0.93994 0,-0.58106 -0.39307,-0.88867 -0.37597,-0.30762 -0.93994,-0.30762 -0.70068,0 -1.31591,0.54687 -0.82032,0.73487 -1.12793,2.32422 l -0.59815,2.76856 h 2.56348 l -0.25635,1.40136 h -2.58057 l -4.0332,18.90137 q -0.6665,3.33252 -2.64892,4.85351 -1.45264,1.09375 -3.60596,1.09375 z m -0.80322,-3.11035 q 0.61523,0 1.11084,-0.58105 0.54687,-0.6665 0.87158,-2.15332 l 0.46142,-2.03369 q -1.86279,0.61523 -2.75146,1.36719 -1.09375,0.92285 -1.09375,2.23876 0,0.46143 0.39307,0.76905 0.46142,0.39306 1.0083,0.39306 z"
         style="font-style:normal;font-variant:normal;font-weight:normal;font-stretch:normal;font-size:34.99999619px;line-height:32.70472336px;font-family:Pattaya;-inkscape-font-specification:Pattaya;font-variant-ligatures:normal;font-variant-caps:normal;font-variant-numeric:normal;font-feature-settings:normal;text-align:center;writing-mode:lr-tb;text-anchor:middle;fill:#ffffff;fill-opacity:1;stroke-width:0.93749976"
         id="path960" />
      <path
         d="m 334.91787,434.94952 q -2.58057,0 -3.98194,-1.29882 -1.48681,-1.38428 -1.48681,-4.25537 0,-1.07666 0.22217,-2.39258 0.20507,-1.31592 0.63232,-2.63184 0.47852,-1.46972 1.21338,-2.78564 0.75195,-1.31592 1.74316,-2.32422 2.29004,-2.32422 5.63965,-2.32422 2.13623,0 3.11035,1.02539 0.75196,0.80322 0.75196,2.32422 0,1.48682 -0.64942,2.80273 -0.64941,1.29883 -1.79443,2.30713 -1.14502,0.99121 -2.59766,1.58936 -1.45263,0.58105 -3.00781,0.68359 -0.0854,0.88867 -0.0854,1.40137 0,1.70898 0.64941,2.3584 0.56397,0.58105 1.87989,0.58105 1.89697,0 3.46923,-1.02539 0.66651,-0.42725 1.28174,-1.0083 0.61524,-0.59814 1.43555,-1.50391 h 1.19629 q -1.65772,2.80274 -3.81104,4.46045 -2.64892,2.0166 -5.81054,2.0166 z m 0.0684,-8.95507 q 0.97412,-0.0684 1.89697,-0.56397 0.92285,-0.4956 1.64062,-1.29883 0.71778,-0.82031 1.12793,-1.82861 0.41016,-1.02539 0.41016,-2.08496 0,-0.70068 -0.20508,-1.05957 -0.18799,-0.37598 -0.6665,-0.37598 -0.63233,0 -1.28174,0.61524 -0.63232,0.61523 -1.23047,1.69189 -0.54687,1.0083 -0.99121,2.29004 -0.44434,1.28174 -0.70068,2.61475 z"
         style="font-style:normal;font-variant:normal;font-weight:normal;font-stretch:normal;font-size:34.99999619px;line-height:32.70472336px;font-family:Pattaya;-inkscape-font-specification:Pattaya;font-variant-ligatures:normal;font-variant-caps:normal;font-variant-numeric:normal;font-feature-settings:normal;text-align:center;writing-mode:lr-tb;text-anchor:middle;fill:#ffffff;fill-opacity:1;stroke-width:0.93749976"
         id="path962" />
      <path
         d="m 347.35927,434.94952 q -1.26464,0 -2.23877,-0.37597 -0.97412,-0.39307 -1.64062,-1.07666 -0.61523,-0.63233 -0.92285,-1.40137 -0.30762,-0.78613 -0.30762,-1.62353 0,-1.14502 0.58106,-2.06788 0.51269,-0.82031 1.28173,-1.17919 1.36719,-2.42676 2.37549,-4.92188 1.0083,-2.49512 1.93115,-5.45166 l 5.17823,-0.68359 q 0.20507,4.44336 0.37597,6.81884 0.1709,2.44385 0.29053,3.58887 0.10254,1.33301 0.10254,2.32422 0,0.88867 -0.13672,1.33301 1.57227,-0.92285 2.51221,-1.76026 h 1.46972 q -1.24755,1.45264 -2.58056,2.49512 -1.31592,1.04248 -2.76856,1.87988 -1.04248,1.09375 -2.61474,1.62354 -1.36719,0.47851 -2.88819,0.47851 z m -1.11084,-2.76855 q 1.31592,0 2.10205,-0.71777 0.93995,-0.8545 0.93995,-2.5293 0,-0.70068 -0.0855,-1.76025 l -0.0854,-1.04248 q -0.15381,-1.3501 -0.30762,-3.12745 l -0.18799,-2.35839 q -0.4956,1.58935 -1.1792,3.16162 -0.68359,1.55517 -1.65771,3.45215 0.80322,0.44433 0.80322,1.21337 0,0.6836 -0.41015,1.1792 -0.44434,0.54688 -1.12793,0.54688 -0.3418,0 -0.58106,-0.0855 -0.22217,-0.10254 -0.35889,-0.37598 0,1.26465 0.49561,1.86279 0.49561,0.58106 1.64062,0.58106 z"
         style="font-style:normal;font-variant:normal;font-weight:normal;font-stretch:normal;font-size:34.99999619px;line-height:32.70472336px;font-family:Pattaya;-inkscape-font-specification:Pattaya;font-variant-ligatures:normal;font-variant-caps:normal;font-variant-numeric:normal;font-feature-settings:normal;text-align:center;writing-mode:lr-tb;text-anchor:middle;fill:#ffffff;fill-opacity:1;stroke-width:0.93749976"
         id="path964" />
      <path
         d="m 360.75771,434.94952 q -1.26465,0 -2.23877,-0.37597 -0.97412,-0.39307 -1.64062,-1.07666 -0.61524,-0.63233 -0.92285,-1.40137 -0.30762,-0.78613 -0.30762,-1.62353 0,-1.14502 0.58105,-2.06788 0.5127,-0.82031 1.28174,-1.17919 1.36719,-2.42676 2.37549,-4.92188 1.0083,-2.49512 1.93115,-5.45166 l 5.17822,-0.68359 q 0.20508,4.44336 0.37598,6.81884 0.1709,2.44385 0.29053,3.58887 0.10254,1.33301 0.10254,2.32422 0,0.88867 -0.13672,1.33301 1.57226,-0.92285 2.5122,-1.76026 h 1.46973 q -1.24756,1.45264 -2.58056,2.49512 -1.31592,1.04248 -2.76856,1.87988 -1.04248,1.09375 -2.61475,1.62354 -1.36718,0.47851 -2.88818,0.47851 z m -1.11084,-2.76855 q 1.31592,0 2.10205,-0.71777 0.93994,-0.8545 0.93994,-2.5293 0,-0.70068 -0.0854,-1.76025 l -0.0854,-1.04248 q -0.15381,-1.3501 -0.30762,-3.12745 l -0.18799,-2.35839 q -0.49561,1.58935 -1.1792,3.16162 -0.68359,1.55517 -1.65771,3.45215 0.80322,0.44433 0.80322,1.21337 0,0.6836 -0.41016,1.1792 -0.44433,0.54688 -1.12793,0.54688 -0.34179,0 -0.58105,-0.0855 -0.22217,-0.10254 -0.35889,-0.37598 0,1.26465 0.49561,1.86279 0.4956,0.58106 1.64062,0.58106 z"
         style="font-style:normal;font-variant:normal;font-weight:normal;font-stretch:normal;font-size:34.99999619px;line-height:32.70472336px;font-family:Pattaya;-inkscape-font-specification:Pattaya;font-variant-ligatures:normal;font-variant-caps:normal;font-variant-numeric:normal;font-feature-settings:normal;text-align:center;writing-mode:lr-tb;text-anchor:middle;fill:#ffffff;fill-opacity:1;stroke-width:0.93749976"
         id="path966" />
      <path
         d="m 376.01894,415.34748 q -0.56396,0 -1.07666,-0.20508 -0.51269,-0.22217 -0.88867,-0.59815 -0.37598,-0.35888 -0.59814,-0.87158 -0.20508,-0.51269 -0.20508,-1.07666 0,-0.56396 0.20508,-1.07666 0.22216,-0.51269 0.59814,-0.90576 0.37598,-0.39307 0.88867,-0.59815 0.5127,-0.22216 1.07666,-0.22216 0.56397,0 1.07666,0.22216 0.5127,0.20508 0.90576,0.59815 0.39307,0.39307 0.59815,0.90576 0.22217,0.5127 0.22217,1.07666 0,0.56397 -0.22217,1.07666 -0.20508,0.5127 -0.59815,0.87158 -0.39306,0.37598 -0.90576,0.59815 -0.51269,0.20508 -1.07666,0.20508 z m -2.37549,19.60204 q -1.6748,0 -2.64892,-0.99121 -1.09375,-1.09375 -1.09375,-3.1958 0,-0.99121 0.27344,-2.29004 l 2.37548,-11.22802 h 5.04151 l -2.51221,11.89453 q -0.13672,0.44433 -0.13672,1.12793 0,0.71777 0.32471,1.0083 0.3418,0.29053 1.09375,0.29053 0.51269,0 0.99121,-0.22217 0.49561,-0.23926 0.90576,-0.64942 0.8374,-0.8374 1.26465,-2.22168 h 1.46973 q -0.93995,2.64893 -2.3584,4.22119 -1.19629,1.28174 -2.7002,1.84571 -1.09375,0.41015 -2.29004,0.41015 z"
         style="font-style:normal;font-variant:normal;font-weight:normal;font-stretch:normal;font-size:34.99999619px;line-height:32.70472336px;font-family:Pattaya;-inkscape-font-specification:Pattaya;font-variant-ligatures:normal;font-variant-caps:normal;font-variant-numeric:normal;font-feature-settings:normal;text-align:center;writing-mode:lr-tb;text-anchor:middle;fill:#ffffff;fill-opacity:1;stroke-width:0.93749976"
         id="path968" />
      <path
         d="m 384.64931,434.88116 q -2.59765,0 -4.01611,-1.26464 -1.58936,-1.40137 -1.58936,-4.25537 0,-1.07666 0.22217,-2.37549 0.22217,-1.31592 0.6836,-2.64893 1.05957,-3.17871 3.0249,-5.07568 2.37549,-2.32422 5.65674,-2.32422 4.49462,0 4.49462,5.58838 v 0.0342 q 0.10254,0.0342 0.1709,0.0342 h 0.20508 q 1.16211,0 2.75147,-0.64942 1.40136,-0.58105 2.64892,-1.45263 l 0.30762,0.95703 q -1.02539,1.07666 -2.64893,1.82861 -1.60644,0.75195 -3.55468,1.07666 -0.20508,2.37549 -0.92286,4.34082 -0.71777,1.94824 -1.8457,3.34961 -1.11084,1.36719 -2.54639,2.10205 -1.43554,0.73486 -3.04199,0.73486 z m 1.40137,-3.14453 q 0.61523,0 1.24756,-0.54687 0.64941,-0.56397 1.21338,-1.55518 0.56396,-0.99121 0.97412,-2.32422 0.41015,-1.333 0.61523,-2.854 -0.51269,-0.13672 -0.73486,-0.51269 -0.20508,-0.37598 -0.20508,-0.95704 0,-0.71777 0.29053,-1.19628 0.29053,-0.47852 0.80322,-0.70069 -0.0684,-1.11084 -0.35889,-1.58935 -0.1538,-0.23926 -0.39306,-0.3418 -0.22217,-0.10254 -0.58106,-0.10254 -1.1792,0 -2.30713,1.77734 -1.04248,1.60645 -1.70898,3.96485 -0.64941,2.30713 -0.64941,4.10156 0,0.87158 0.0854,1.41846 0.10253,0.54687 0.3247,0.85449 0.20508,0.30762 0.52979,0.44433 0.32471,0.11963 0.85449,0.11963 z"
         style="font-style:normal;font-variant:normal;font-weight:normal;font-stretch:normal;font-size:34.99999619px;line-height:32.70472336px;font-family:Pattaya;-inkscape-font-specification:Pattaya;font-variant-ligatures:normal;font-variant-caps:normal;font-variant-numeric:normal;font-feature-settings:normal;text-align:center;writing-mode:lr-tb;text-anchor:middle;fill:#ffffff;fill-opacity:1;stroke-width:0.93749976"
         id="path970" />
      <path
         d="m 407.5497,434.94952 q -2.17041,0 -3.21289,-1.23046 -0.90576,-1.05957 -0.90576,-2.71729 0,-0.78613 0.18799,-1.82861 0.20508,-1.04248 0.59814,-2.68311 0.39307,-1.6748 0.58106,-2.66601 0.20508,-1.0083 0.20508,-1.74317 0,-1.79443 -1.26465,-1.79443 -0.88867,0 -1.64063,0.93994 -0.63232,0.80322 -1.09375,2.29004 l -2.37548,11.22803 h -5.04151 l 3.7085,-17.5 h 5.0415 l -0.37598,1.81152 q 1.0254,-1.14502 2.20459,-1.60644 0.87159,-0.3418 1.87989,-0.3418 1.77734,0 2.80273,0.92285 1.09375,1.0083 1.09375,3.0249 0,1.21338 -0.44434,3.16162 -0.11962,0.56397 -0.39306,1.6919 -0.49561,1.89697 -0.71777,3.0249 -0.13672,0.71777 -0.13672,1.16211 0,0.70068 0.30761,1.09375 0.32471,0.37598 1.09375,0.37598 1.04248,0 1.76026,-0.8545 0.54687,-0.64941 1.1792,-2.23877 h 1.46972 q -1.29883,3.84522 -3.28125,5.3833 -1.40136,1.09375 -3.22998,1.09375 z"
         style="font-style:normal;font-variant:normal;font-weight:normal;font-stretch:normal;font-size:34.99999619px;line-height:32.70472336px;font-family:Pattaya;-inkscape-font-specification:Pattaya;font-variant-ligatures:normal;font-variant-caps:normal;font-variant-numeric:normal;font-feature-settings:normal;text-align:center;writing-mode:lr-tb;text-anchor:middle;fill:#ffffff;fill-opacity:1;stroke-width:0.93749976"
         id="path972" />
      <path
         d="m 425.25478,434.94952 q -2.17041,0 -3.21289,-1.23046 -0.90576,-1.05957 -0.90576,-2.71729 0,-0.78613 0.18799,-1.82861 0.20508,-1.04248 0.59814,-2.68311 0.39307,-1.6748 0.58106,-2.66601 0.20507,-1.0083 0.20507,-1.74317 0,-1.79443 -1.26464,-1.79443 -0.88868,0 -1.64063,0.93994 -0.63232,0.80322 -1.09375,2.29004 l -2.37549,11.22803 h -5.0415 l 3.7085,-17.5 h 5.0415 l -0.37598,1.81152 q 1.02539,-1.14502 2.20459,-1.60644 0.87158,-0.3418 1.87988,-0.3418 1.77735,0 2.80274,0.92285 1.09375,1.0083 1.09375,3.0249 0,1.21338 -0.44434,3.16162 -0.11963,0.56397 -0.39306,1.6919 -0.49561,1.89697 -0.71778,3.0249 -0.13672,0.71777 -0.13672,1.16211 0,0.70068 0.30762,1.09375 0.32471,0.37598 1.09375,0.37598 1.04248,0 1.76026,-0.8545 0.54687,-0.64941 1.17919,-2.23877 h 1.46973 q -1.29883,3.84522 -3.28125,5.3833 -1.40137,1.09375 -3.22998,1.09375 z"
         style="font-style:normal;font-variant:normal;font-weight:normal;font-stretch:normal;font-size:34.99999619px;line-height:32.70472336px;font-family:Pattaya;-inkscape-font-specification:Pattaya;font-variant-ligatures:normal;font-variant-caps:normal;font-variant-numeric:normal;font-feature-settings:normal;text-align:center;writing-mode:lr-tb;text-anchor:middle;fill:#ffffff;fill-opacity:1;stroke-width:0.93749976"
         id="path974" />
      <path
         d="m 435.33779,434.94952 q -2.58057,0 -3.98193,-1.29882 -1.48682,-1.38428 -1.48682,-4.25537 0,-1.07666 0.22217,-2.39258 0.20508,-1.31592 0.63232,-2.63184 0.47852,-1.46972 1.21338,-2.78564 0.75195,-1.31592 1.74317,-2.32422 2.29003,-2.32422 5.63964,-2.32422 2.13623,0 3.11035,1.02539 0.75196,0.80322 0.75196,2.32422 0,1.48682 -0.64942,2.80273 -0.64941,1.29883 -1.79443,2.30713 -1.14502,0.99121 -2.59766,1.58936 -1.45263,0.58105 -3.00781,0.68359 -0.0854,0.88867 -0.0854,1.40137 0,1.70898 0.64942,2.3584 0.56396,0.58105 1.87988,0.58105 1.89697,0 3.46924,-1.02539 0.6665,-0.42725 1.28173,-1.0083 0.61524,-0.59814 1.43555,-1.50391 h 1.19629 q -1.65771,2.80274 -3.81103,4.46045 -2.64893,2.0166 -5.81055,2.0166 z m 0.0684,-8.95507 q 0.97412,-0.0684 1.89697,-0.56397 0.92285,-0.4956 1.64063,-1.29883 0.71777,-0.82031 1.12793,-1.82861 0.41015,-1.02539 0.41015,-2.08496 0,-0.70068 -0.20508,-1.05957 -0.18798,-0.37598 -0.6665,-0.37598 -0.63232,0 -1.28174,0.61524 -0.63232,0.61523 -1.23047,1.69189 -0.54687,1.0083 -0.99121,2.29004 -0.44433,1.28174 -0.70068,2.61475 z"
         style="font-style:normal;font-variant:normal;font-weight:normal;font-stretch:normal;font-size:34.99999619px;line-height:32.70472336px;font-family:Pattaya;-inkscape-font-specification:Pattaya;font-variant-ligatures:normal;font-variant-caps:normal;font-variant-numeric:normal;font-feature-settings:normal;text-align:center;writing-mode:lr-tb;text-anchor:middle;fill:#ffffff;fill-opacity:1;stroke-width:0.93749976"
         id="path976" />
      <path
         d="m 447.26647,434.94952 q -1.6748,0 -2.64893,-0.99121 -1.09375,-1.09375 -1.09375,-3.1958 0,-0.99121 0.27344,-2.29004 l 3.74268,-17.53417 5.17822,-0.70069 -4.01611,18.90137 q -0.13672,0.44433 -0.13672,1.12793 0,0.71777 0.32471,1.0083 0.34179,0.29053 1.09375,0.29053 0.51269,0 0.99121,-0.22217 0.4956,-0.23926 0.90576,-0.64942 0.8374,-0.8374 1.26465,-2.22168 h 1.46972 q -0.93994,2.64893 -2.3584,4.22119 -1.19628,1.28174 -2.70019,1.84571 -1.09375,0.41015 -2.29004,0.41015 z"
         style="font-style:normal;font-variant:normal;font-weight:normal;font-stretch:normal;font-size:34.99999619px;line-height:32.70472336px;font-family:Pattaya;-inkscape-font-specification:Pattaya;font-variant-ligatures:normal;font-variant-caps:normal;font-variant-numeric:normal;font-feature-settings:normal;text-align:center;writing-mode:lr-tb;text-anchor:middle;fill:#ffffff;fill-opacity:1;stroke-width:0.93749976"
         id="path978" />
      <path
         d="m 457.1444,434.94952 q -1.26465,0 -2.23877,-0.37597 -0.97412,-0.39307 -1.64062,-1.07666 -0.61524,-0.63233 -0.92286,-1.40137 -0.30761,-0.78613 -0.30761,-1.62353 0,-1.14502 0.58105,-2.06788 0.5127,-0.82031 1.28174,-1.17919 1.36719,-2.42676 2.37549,-4.92188 1.0083,-2.49512 1.93115,-5.45166 l 5.17822,-0.68359 q 0.20508,4.44336 0.37598,6.81884 0.1709,2.44385 0.29053,3.58887 0.10254,1.33301 0.10254,2.32422 0,0.88867 -0.13672,1.33301 1.57226,-0.92285 2.5122,-1.76026 h 1.46973 q -1.24756,1.45264 -2.58057,2.49512 -1.31591,1.04248 -2.76855,1.87988 -1.04248,1.09375 -2.61475,1.62354 -1.36718,0.47851 -2.88818,0.47851 z m -1.11084,-2.76855 q 1.31592,0 2.10205,-0.71777 0.93994,-0.8545 0.93994,-2.5293 0,-0.70068 -0.0855,-1.76025 l -0.0854,-1.04248 q -0.1538,-1.3501 -0.30761,-3.12745 l -0.18799,-2.35839 q -0.49561,1.58935 -1.1792,3.16162 -0.68359,1.55517 -1.65772,3.45215 0.80323,0.44433 0.80323,1.21337 0,0.6836 -0.41016,1.1792 -0.44434,0.54688 -1.12793,0.54688 -0.3418,0 -0.58105,-0.0855 -0.22217,-0.10254 -0.35889,-0.37598 0,1.26465 0.49561,1.86279 0.4956,0.58106 1.64062,0.58106 z"
         style="font-style:normal;font-variant:normal;font-weight:normal;font-stretch:normal;font-size:34.99999619px;line-height:32.70472336px;font-family:Pattaya;-inkscape-font-specification:Pattaya;font-variant-ligatures:normal;font-variant-caps:normal;font-variant-numeric:normal;font-feature-settings:normal;text-align:center;writing-mode:lr-tb;text-anchor:middle;fill:#ffffff;fill-opacity:1;stroke-width:0.93749976"
         id="path980" />
    </g>
    <g
       aria-label="du btiment dans l'Eure"
       style="font-style:normal;font-variant:normal;font-weight:normal;font-stretch:normal;font-size:34.99999619px;line-height:1.25;font-family:Cookie;-inkscape-font-specification:'Cookie, Normal';font-variant-ligatures:normal;font-variant-caps:normal;font-variant-numeric:normal;font-feature-settings:normal;text-align:center;letter-spacing:0px;word-spacing:0px;writing-mode:lr-tb;text-anchor:middle;fill:#ffffff;fill-opacity:1;stroke:none;stroke-width:0.9374997"
       id="text172-1-5-0-2">
      <path
         d="m 111.08367,474.70422 q -1.99952,0 -3.22998,-1.24755 -1.43555,-1.46973 -1.43555,-4.375 0,-1.23047 0.25635,-2.59766 0.23925,-1.36719 0.71777,-2.7002 1.09375,-3.00781 2.99072,-4.85351 2.1875,-2.10205 5.04151,-2.10205 1.41845,0 2.11914,0.4956 0.71777,0.47852 0.71777,1.28174 v 0.13672 l 1.70898,-8.04931 5.17823,-0.70069 -4.01612,18.90137 q -0.15381,0.51269 -0.15381,1.12793 0,0.71777 0.3418,1.0083 0.3418,0.29052 1.09375,0.29052 0.97412,0 1.74316,-0.87158 0.64942,-0.76904 1.09375,-2.22168 h 1.46973 q -0.92285,2.63184 -2.27295,4.15284 -1.14502,1.26464 -2.54638,1.76025 -1.0083,0.35889 -2.20459,0.35889 -1.45264,0 -2.34131,-0.76905 -0.88867,-0.76904 -1.09375,-2.23877 -0.93994,1.41846 -2.03369,2.1875 -1.41846,1.02539 -3.14453,1.02539 z m 2.27294,-3.38379 q 0.37598,0 0.80323,-0.18798 0.44433,-0.18799 0.8374,-0.52979 0.92285,-0.8374 1.23047,-2.1875 v -0.18799 l 1.70898,-8.01513 q -0.11963,-0.47852 -0.34179,-0.76905 -0.35889,-0.44433 -1.09375,-0.44433 -0.70069,0 -1.36719,0.46142 -0.64942,0.46143 -1.23047,1.28174 -1.02539,1.48682 -1.69189,3.8794 -0.30762,1.05957 -0.46143,2.10205 -0.15381,1.02539 -0.15381,1.86279 0,1.74316 0.64942,2.3584 0.22216,0.23926 0.4956,0.30762 0.27344,0.0684 0.61523,0.0684 z"
         style="font-style:normal;font-variant:normal;font-weight:normal;font-stretch:normal;font-size:34.99999619px;line-height:32.70472336px;font-family:Pattaya;-inkscape-font-specification:Pattaya;font-variant-ligatures:normal;font-variant-caps:normal;font-variant-numeric:normal;font-feature-settings:normal;text-align:center;writing-mode:lr-tb;text-anchor:middle;fill:#ffffff;fill-opacity:1;stroke-width:0.9374997"
         id="path887" />
      <path
         d="m 128.73747,474.70422 q -1.6748,0 -2.64892,-0.99121 -1.09375,-1.09375 -1.09375,-3.1958 0,-0.99121 0.27343,-2.29004 l 2.37549,-11.22802 h 5.04151 l -2.51221,11.89453 q -0.10254,0.52978 -0.10254,0.99121 0,1.43554 1.04248,1.43554 0.95703,0 1.72607,-0.87158 0.61524,-0.73486 1.07666,-2.22168 l 2.37549,-11.22802 h 5.04151 l -2.51221,11.89453 q -0.15381,0.51269 -0.15381,1.12793 0,0.71777 0.3418,1.0083 0.34179,0.29052 1.09375,0.29052 0.97412,0 1.74316,-0.87158 0.68359,-0.76904 1.09375,-2.22168 h 1.46973 q -0.93994,2.66602 -2.27295,4.22119 -1.12793,1.28174 -2.54639,1.84571 -1.04248,0.41015 -2.20459,0.41015 -1.5039,0 -2.39258,-0.8374 -0.88867,-0.8374 -1.07666,-2.47803 -1.19628,1.91407 -2.70019,2.73438 -1.07666,0.58105 -2.47803,0.58105 z"
         style="font-style:normal;font-variant:normal;font-weight:normal;font-stretch:normal;font-size:34.99999619px;line-height:32.70472336px;font-family:Pattaya;-inkscape-font-specification:Pattaya;font-variant-ligatures:normal;font-variant-caps:normal;font-variant-numeric:normal;font-feature-settings:normal;text-align:center;writing-mode:lr-tb;text-anchor:middle;fill:#ffffff;fill-opacity:1;stroke-width:0.9374997"
         id="path889" />
      <path
         d="m 155.20964,474.70422 q -2.39258,0 -3.64014,-1.16211 -1.24756,-1.17919 -1.24756,-3.31542 0,-1.14502 0.23926,-1.99952 l 3.74268,-17.53417 5.17822,-0.70069 -1.67481,7.87842 q 1.00831,-0.61523 1.70899,-0.82031 0.51269,-0.15381 1.16211,-0.15381 1.96533,0 2.99072,1.31592 1.14502,1.48681 1.14502,4.66552 0,1.09375 -0.20508,2.37549 -0.20508,1.26465 -0.63232,2.51221 -1.02539,2.99072 -2.97364,4.78515 -2.35839,2.15332 -5.79345,2.15332 z m 1.96533,-3.38379 q 1.05957,0 2.08496,-1.41845 0.88867,-1.26465 1.46973,-3.31543 0.54687,-2.0166 0.54687,-3.84522 0,-1.41845 -0.44433,-2.32421 -0.23926,-0.49561 -0.59815,-0.76905 -0.35888,-0.27343 -0.82031,-0.27343 -0.59814,0 -1.07666,0.11962 -0.71777,0.18799 -0.99121,0.5127 l -1.91406,8.88672 q -0.10254,0.42724 -0.10254,0.80322 0,1.62353 1.8457,1.62353 z"
         style="font-style:normal;font-variant:normal;font-weight:normal;font-stretch:normal;font-size:34.99999619px;line-height:32.70472336px;font-family:Pattaya;-inkscape-font-specification:Pattaya;font-variant-ligatures:normal;font-variant-caps:normal;font-variant-numeric:normal;font-feature-settings:normal;text-align:center;writing-mode:lr-tb;text-anchor:middle;fill:#ffffff;fill-opacity:1;stroke-width:0.9374997"
         id="path891" />
      <path
         d="m 178.94743,448.24915 h 0.73486 l 2.10205,6.61377 h -1.11084 l -2.10205,-2.80274 -5.50293,2.80274 h -1.53808 z m -8.66455,26.45507 q -1.99951,0 -3.22998,-1.24755 -1.43555,-1.46973 -1.43555,-4.375 0,-1.23047 0.25635,-2.59766 0.23926,-1.36719 0.71777,-2.7002 1.09375,-3.00781 2.99072,-4.85351 2.1875,-2.10205 5.04151,-2.10205 1.41845,0 2.11914,0.4956 0.71777,0.47852 0.71777,1.28174 v 0.25635 l 0.37598,-1.86279 h 5.0415 l -2.51221,11.89453 q -0.1538,0.51269 -0.1538,1.12793 0,1.5039 1.43554,1.5039 0.95703,0 1.74317,-0.97412 0.6665,-0.82031 1.09375,-2.32422 h 1.46972 q -0.93994,2.66602 -2.27295,4.22119 -1.12793,1.28174 -2.54638,1.84571 -1.04248,0.41015 -2.20459,0.41015 -1.48682,0 -2.37549,-0.80322 -0.87158,-0.82031 -1.05957,-2.40967 -0.99121,1.40137 -2.08496,2.1875 -1.40137,1.02539 -3.12744,1.02539 z m 2.27295,-3.38379 q 0.39306,0 0.82031,-0.20507 0.44433,-0.20508 0.85449,-0.58106 0.92285,-0.88867 1.23047,-2.30713 l 1.6748,-7.8955 q 0,-0.1709 -0.0854,-0.39307 -0.0684,-0.23926 -0.20507,-0.44434 -0.41016,-0.4956 -1.14502,-0.4956 -0.70069,0 -1.36719,0.46142 -0.64941,0.46143 -1.23047,1.28174 -1.02539,1.48682 -1.69189,3.8794 -0.30762,1.05957 -0.46143,2.10205 -0.15381,1.02539 -0.15381,1.86279 0,1.74316 0.64942,2.3584 0.22216,0.23926 0.4956,0.30762 0.27344,0.0684 0.61524,0.0684 z"
         style="font-style:normal;font-variant:normal;font-weight:normal;font-stretch:normal;font-size:34.99999619px;line-height:32.70472336px;font-family:Pattaya;-inkscape-font-specification:Pattaya;font-variant-ligatures:normal;font-variant-caps:normal;font-variant-numeric:normal;font-feature-settings:normal;text-align:center;writing-mode:lr-tb;text-anchor:middle;fill:#ffffff;fill-opacity:1;stroke-width:0.9374997"
         id="path893" />
      <path
         d="m 187.93669,474.70422 q -1.67481,0 -2.64893,-0.99121 -1.09375,-1.09375 -1.09375,-3.1958 0,-0.99121 0.27344,-2.29004 l 2.10205,-9.82666 h -1.16211 l 0.29053,-1.40136 h 1.14502 l 1.05957,-4.83643 5.17822,-0.70068 -1.19629,5.53711 h 2.10205 l -0.27344,1.40136 H 191.611 l -2.23877,10.49317 q -0.13672,0.44433 -0.13672,1.12793 0,0.71777 0.32471,1.0083 0.3418,0.29052 1.09375,0.29052 0.5127,0 0.99121,-0.22216 0.49561,-0.23926 0.90576,-0.64942 0.83741,-0.8374 1.26465,-2.22168 h 1.46973 q -0.93994,2.64893 -2.3584,4.22119 -1.19629,1.28174 -2.7002,1.84571 -1.09375,0.41015 -2.29003,0.41015 z"
         style="font-style:normal;font-variant:normal;font-weight:normal;font-stretch:normal;font-size:34.99999619px;line-height:32.70472336px;font-family:Pattaya;-inkscape-font-specification:Pattaya;font-variant-ligatures:normal;font-variant-caps:normal;font-variant-numeric:normal;font-feature-settings:normal;text-align:center;writing-mode:lr-tb;text-anchor:middle;fill:#ffffff;fill-opacity:1;stroke-width:0.9374997"
         id="path895" />
      <path
         d="m 199.67741,455.10217 q -0.56397,0 -1.07666,-0.20507 -0.5127,-0.22217 -0.88867,-0.59815 -0.37598,-0.35888 -0.59815,-0.87158 -0.20508,-0.51269 -0.20508,-1.07666 0,-0.56396 0.20508,-1.07666 0.22217,-0.51269 0.59815,-0.90576 0.37597,-0.39307 0.88867,-0.59815 0.51269,-0.22216 1.07666,-0.22216 0.56396,0 1.07666,0.22216 0.51269,0.20508 0.90576,0.59815 0.39307,0.39307 0.59814,0.90576 0.22217,0.5127 0.22217,1.07666 0,0.56397 -0.22217,1.07666 -0.20507,0.5127 -0.59814,0.87158 -0.39307,0.37598 -0.90576,0.59815 -0.5127,0.20507 -1.07666,0.20507 z m -2.37549,19.60205 q -1.6748,0 -2.64893,-0.99121 -1.09375,-1.09375 -1.09375,-3.1958 0,-0.99121 0.27344,-2.29004 l 2.37549,-11.22802 h 5.0415 l -2.5122,11.89453 q -0.13672,0.44433 -0.13672,1.12793 0,0.71777 0.3247,1.0083 0.3418,0.29052 1.09375,0.29052 0.5127,0 0.99122,-0.22216 0.4956,-0.23926 0.90576,-0.64942 0.8374,-0.8374 1.26465,-2.22168 h 1.46972 q -0.93994,2.64893 -2.3584,4.22119 -1.19629,1.28174 -2.70019,1.84571 -1.09375,0.41015 -2.29004,0.41015 z"
         style="font-style:normal;font-variant:normal;font-weight:normal;font-stretch:normal;font-size:34.99999619px;line-height:32.70472336px;font-family:Pattaya;-inkscape-font-specification:Pattaya;font-variant-ligatures:normal;font-variant-caps:normal;font-variant-numeric:normal;font-feature-settings:normal;text-align:center;writing-mode:lr-tb;text-anchor:middle;fill:#ffffff;fill-opacity:1;stroke-width:0.9374997"
         id="path897" />
      <path
         d="m 224.47477,474.70422 q -2.17041,0 -3.21289,-1.23047 -0.90576,-1.05957 -0.90576,-2.71728 0,-0.78613 0.18799,-1.82861 0.20507,-1.04248 0.59814,-2.68311 0.39307,-1.6748 0.58106,-2.66601 0.20507,-1.0083 0.20507,-1.74317 0,-1.79443 -1.26465,-1.79443 -0.88867,0 -1.64062,0.93994 -0.63232,0.80322 -1.09375,2.29004 l -2.37549,11.22803 h -5.0415 l 2.56348,-12.08252 q 0.10253,-0.41016 0.10253,-0.87158 0,-0.70069 -0.22216,-1.07666 -0.29053,-0.46143 -0.83741,-0.46143 -0.99121,0 -1.72607,0.95703 -0.64941,0.82031 -1.11084,2.30713 l -2.37549,11.22803 h -5.0415 l 3.70849,-17.5 h 5.04151 l -0.37598,1.81152 q 1.02539,-1.14502 2.23877,-1.62353 0.95703,-0.35889 2.03369,-0.35889 1.46973,0 2.34131,0.68359 0.97412,0.76905 1.24756,2.32422 1.12793,-1.74316 2.59765,-2.46094 1.04248,-0.51269 2.27295,-0.51269 1.76026,0 2.78565,0.92285 1.09375,1.0083 1.09375,3.0249 0,1.14502 -0.42725,3.16162 -0.1709,0.83741 -0.41015,1.6919 -0.42725,1.64062 -0.70069,3.0249 -0.13672,0.71777 -0.13672,1.16211 0,0.70068 0.30762,1.09375 0.32471,0.37597 1.09375,0.37597 1.04248,0 1.76025,-0.85449 0.54688,-0.64941 1.1792,-2.23877 h 1.46973 q -1.29883,3.84522 -3.28125,5.3833 -1.40137,1.09375 -3.22998,1.09375 z"
         style="font-style:normal;font-variant:normal;font-weight:normal;font-stretch:normal;font-size:34.99999619px;line-height:32.70472336px;font-family:Pattaya;-inkscape-font-specification:Pattaya;font-variant-ligatures:normal;font-variant-caps:normal;font-variant-numeric:normal;font-feature-settings:normal;text-align:center;writing-mode:lr-tb;text-anchor:middle;fill:#ffffff;fill-opacity:1;stroke-width:0.9374997"
         id="path899" />
      <path
         d="m 234.52359,474.70422 q -2.58056,0 -3.98193,-1.29882 -1.48682,-1.38428 -1.48682,-4.25538 0,-1.07666 0.22217,-2.39257 0.20508,-1.31592 0.63232,-2.63184 0.47852,-1.46972 1.21338,-2.78564 0.75196,-1.31592 1.74317,-2.32422 2.29004,-2.32422 5.63965,-2.32422 2.13623,0 3.11035,1.02539 0.75195,0.80322 0.75195,2.32422 0,1.48682 -0.64941,2.80273 -0.64942,1.29883 -1.79444,2.30713 -1.14502,0.99121 -2.59765,1.58936 -1.45264,0.58105 -3.00782,0.68359 -0.0855,0.88867 -0.0855,1.40137 0,1.70898 0.64942,2.3584 0.56396,0.58105 1.87988,0.58105 1.89697,0 3.46924,-1.02539 0.6665,-0.42725 1.28174,-1.0083 0.61523,-0.59814 1.43554,-1.50391 h 1.19629 q -1.65771,2.80274 -3.81103,4.46045 -2.64893,2.0166 -5.81055,2.0166 z m 0.0684,-8.95507 q 0.97412,-0.0684 1.89697,-0.56397 0.92286,-0.4956 1.64063,-1.29883 0.71777,-0.82031 1.12793,-1.82861 0.41015,-1.02539 0.41015,-2.08496 0,-0.70068 -0.20507,-1.05957 -0.18799,-0.37598 -0.66651,-0.37598 -0.63232,0 -1.28174,0.61524 -0.63232,0.61523 -1.23046,1.69189 -0.54688,1.0083 -0.99122,2.29004 -0.44433,1.28174 -0.70068,2.61475 z"
         style="font-style:normal;font-variant:normal;font-weight:normal;font-stretch:normal;font-size:34.99999619px;line-height:32.70472336px;font-family:Pattaya;-inkscape-font-specification:Pattaya;font-variant-ligatures:normal;font-variant-caps:normal;font-variant-numeric:normal;font-feature-settings:normal;text-align:center;writing-mode:lr-tb;text-anchor:middle;fill:#ffffff;fill-opacity:1;stroke-width:0.9374997"
         id="path901" />
      <path
         d="m 255.61246,474.70422 q -2.17041,0 -3.21289,-1.23047 -0.90576,-1.05957 -0.90576,-2.71728 0,-0.78613 0.18798,-1.82861 0.20508,-1.04248 0.59815,-2.68311 0.39307,-1.6748 0.58105,-2.66601 0.20508,-1.0083 0.20508,-1.74317 0,-1.79443 -1.26465,-1.79443 -0.88867,0 -1.64062,0.93994 -0.63233,0.80322 -1.09375,2.29004 l -2.37549,11.22803 h -5.0415 l 3.70849,-17.5 h 5.04151 l -0.37598,1.81152 q 1.02539,-1.14502 2.20459,-1.60644 0.87158,-0.3418 1.87988,-0.3418 1.77735,0 2.80274,0.92285 1.09375,1.0083 1.09375,3.0249 0,1.21338 -0.44434,3.16162 -0.11963,0.56397 -0.39307,1.6919 -0.4956,1.89697 -0.71777,3.0249 -0.13672,0.71777 -0.13672,1.16211 0,0.70068 0.30762,1.09375 0.32471,0.37597 1.09375,0.37597 1.04248,0 1.76025,-0.85449 0.54688,-0.64941 1.1792,-2.23877 h 1.46973 q -1.29883,3.84522 -3.28125,5.3833 -1.40137,1.09375 -3.22998,1.09375 z"
         style="font-style:normal;font-variant:normal;font-weight:normal;font-stretch:normal;font-size:34.99999619px;line-height:32.70472336px;font-family:Pattaya;-inkscape-font-specification:Pattaya;font-variant-ligatures:normal;font-variant-caps:normal;font-variant-numeric:normal;font-feature-settings:normal;text-align:center;writing-mode:lr-tb;text-anchor:middle;fill:#ffffff;fill-opacity:1;stroke-width:0.9374997"
         id="path903" />
      <path
         d="m 264.15738,474.70422 q -1.6748,0 -2.64892,-0.99121 -1.09375,-1.09375 -1.09375,-3.1958 0,-0.99121 0.27343,-2.29004 l 2.10205,-9.82666 h -1.16211 l 0.29053,-1.40136 h 1.14502 l 1.05957,-4.83643 5.17822,-0.70068 -1.19629,5.53711 h 2.10206 l -0.27344,1.40136 h -2.10205 l -2.23877,10.49317 q -0.13672,0.44433 -0.13672,1.12793 0,0.71777 0.32471,1.0083 0.34179,0.29052 1.09375,0.29052 0.51269,0 0.99121,-0.22216 0.4956,-0.23926 0.90576,-0.64942 0.8374,-0.8374 1.26465,-2.22168 h 1.46972 q -0.93994,2.64893 -2.3584,4.22119 -1.19628,1.28174 -2.70019,1.84571 -1.09375,0.41015 -2.29004,0.41015 z"
         style="font-style:normal;font-variant:normal;font-weight:normal;font-stretch:normal;font-size:34.99999619px;line-height:32.70472336px;font-family:Pattaya;-inkscape-font-specification:Pattaya;font-variant-ligatures:normal;font-variant-caps:normal;font-variant-numeric:normal;font-feature-settings:normal;text-align:center;writing-mode:lr-tb;text-anchor:middle;fill:#ffffff;fill-opacity:1;stroke-width:0.9374997"
         id="path905" />
      <path
         d="m 281.84537,474.70422 q -1.99951,0 -3.22998,-1.24755 -1.43555,-1.46973 -1.43555,-4.375 0,-1.23047 0.25635,-2.59766 0.23926,-1.36719 0.71777,-2.7002 1.09375,-3.00781 2.99073,-4.85351 2.1875,-2.10205 5.0415,-2.10205 1.41846,0 2.11914,0.4956 0.71777,0.47852 0.71777,1.28174 v 0.13672 l 1.70899,-8.04931 5.17822,-0.70069 -4.01611,18.90137 q -0.15381,0.51269 -0.15381,1.12793 0,0.71777 0.34179,1.0083 0.3418,0.29052 1.09375,0.29052 0.97413,0 1.74317,-0.87158 0.64941,-0.76904 1.09375,-2.22168 h 1.46972 q -0.92285,2.63184 -2.27294,4.15284 -1.14502,1.26464 -2.54639,1.76025 -1.0083,0.35889 -2.20459,0.35889 -1.45264,0 -2.34131,-0.76905 -0.88867,-0.76904 -1.09375,-2.23877 -0.93994,1.41846 -2.03369,2.1875 -1.41846,1.02539 -3.14453,1.02539 z m 2.27295,-3.38379 q 0.37597,0 0.80322,-0.18798 0.44434,-0.18799 0.8374,-0.52979 0.92285,-0.8374 1.23047,-2.1875 v -0.18799 l 1.70899,-8.01513 q -0.11963,-0.47852 -0.3418,-0.76905 -0.35889,-0.44433 -1.09375,-0.44433 -0.70068,0 -1.36719,0.46142 -0.64941,0.46143 -1.23047,1.28174 -1.02539,1.48682 -1.69189,3.8794 -0.30762,1.05957 -0.46143,2.10205 -0.15381,1.02539 -0.15381,1.86279 0,1.74316 0.64942,2.3584 0.22217,0.23926 0.4956,0.30762 0.27344,0.0684 0.61524,0.0684 z"
         style="font-style:normal;font-variant:normal;font-weight:normal;font-stretch:normal;font-size:34.99999619px;line-height:32.70472336px;font-family:Pattaya;-inkscape-font-specification:Pattaya;font-variant-ligatures:normal;font-variant-caps:normal;font-variant-numeric:normal;font-feature-settings:normal;text-align:center;writing-mode:lr-tb;text-anchor:middle;fill:#ffffff;fill-opacity:1;stroke-width:0.9374997"
         id="path907" />
      <path
         d="m 300.23404,474.70422 q -1.99951,0 -3.22998,-1.24755 -1.43555,-1.46973 -1.43555,-4.375 0,-1.23047 0.25635,-2.59766 0.23926,-1.36719 0.71778,-2.7002 1.09375,-3.00781 2.99072,-4.85351 2.1875,-2.10205 5.0415,-2.10205 1.41846,0 2.11914,0.4956 0.71777,0.47852 0.71777,1.28174 v 0.25635 l 0.37598,-1.86279 h 5.0415 l -2.5122,11.89453 q -0.15381,0.51269 -0.15381,1.12793 0,1.5039 1.43555,1.5039 0.95703,0 1.74316,-0.97412 0.6665,-0.82031 1.09375,-2.32422 h 1.46973 q -0.93995,2.66602 -2.27295,4.22119 -1.12793,1.28174 -2.54639,1.84571 -1.04248,0.41015 -2.20459,0.41015 -1.48682,0 -2.37549,-0.80322 -0.87158,-0.82031 -1.05957,-2.40967 -0.99121,1.40137 -2.08496,2.1875 -1.40136,1.02539 -3.12744,1.02539 z m 2.27295,-3.38379 q 0.39307,0 0.82031,-0.20507 0.44434,-0.20508 0.85449,-0.58106 0.92286,-0.88867 1.23047,-2.30713 l 1.67481,-7.8955 q 0,-0.1709 -0.0854,-0.39307 -0.0684,-0.23926 -0.20508,-0.44434 -0.41016,-0.4956 -1.14502,-0.4956 -0.70068,0 -1.36719,0.46142 -0.64941,0.46143 -1.23046,1.28174 -1.0254,1.48682 -1.6919,3.8794 -0.30762,1.05957 -0.46142,2.10205 -0.15381,1.02539 -0.15381,1.86279 0,1.74316 0.64941,2.3584 0.22217,0.23926 0.49561,0.30762 0.27343,0.0684 0.61523,0.0684 z"
         style="font-style:normal;font-variant:normal;font-weight:normal;font-stretch:normal;font-size:34.99999619px;line-height:32.70472336px;font-family:Pattaya;-inkscape-font-specification:Pattaya;font-variant-ligatures:normal;font-variant-caps:normal;font-variant-numeric:normal;font-feature-settings:normal;text-align:center;writing-mode:lr-tb;text-anchor:middle;fill:#ffffff;fill-opacity:1;stroke-width:0.9374997"
         id="path909" />
      <path
         d="m 327.04799,474.70422 q -2.17041,0 -3.21289,-1.23047 -0.90576,-1.05957 -0.90576,-2.71728 0,-0.78613 0.18799,-1.82861 0.20507,-1.04248 0.59814,-2.68311 0.39307,-1.6748 0.58106,-2.66601 0.20507,-1.0083 0.20507,-1.74317 0,-1.79443 -1.26464,-1.79443 -0.88868,0 -1.64063,0.93994 -0.63232,0.80322 -1.09375,2.29004 l -2.37549,11.22803 h -5.0415 l 3.70849,-17.5 h 5.04151 l -0.37598,1.81152 q 1.02539,-1.14502 2.20459,-1.60644 0.87158,-0.3418 1.87988,-0.3418 1.77735,0 2.80274,0.92285 1.09375,1.0083 1.09375,3.0249 0,1.21338 -0.44434,3.16162 -0.11963,0.56397 -0.39306,1.6919 -0.49561,1.89697 -0.71778,3.0249 -0.13672,0.71777 -0.13672,1.16211 0,0.70068 0.30762,1.09375 0.32471,0.37597 1.09375,0.37597 1.04248,0 1.76025,-0.85449 0.54688,-0.64941 1.1792,-2.23877 h 1.46973 q -1.29883,3.84522 -3.28125,5.3833 -1.40137,1.09375 -3.22998,1.09375 z"
         style="font-style:normal;font-variant:normal;font-weight:normal;font-stretch:normal;font-size:34.99999619px;line-height:32.70472336px;font-family:Pattaya;-inkscape-font-specification:Pattaya;font-variant-ligatures:normal;font-variant-caps:normal;font-variant-numeric:normal;font-feature-settings:normal;text-align:center;writing-mode:lr-tb;text-anchor:middle;fill:#ffffff;fill-opacity:1;stroke-width:0.9374997"
         id="path911" />
      <path
         d="m 336.10561,474.70422 q -1.26465,0 -2.23877,-0.37597 -0.97412,-0.39307 -1.64063,-1.07666 -0.61523,-0.63233 -0.92285,-1.40137 -0.30761,-0.78613 -0.30761,-1.62353 0,-1.14502 0.58105,-2.06788 0.5127,-0.82031 1.28174,-1.17919 1.36719,-2.42676 2.37549,-4.92188 1.0083,-2.49512 1.93115,-5.45166 l 5.17822,-0.68359 q 0.20508,4.44336 0.37598,6.81884 0.1709,2.44385 0.29052,3.58887 0.10254,1.33301 0.10254,2.32422 0,0.88867 -0.13672,1.33301 1.57227,-0.92285 2.51221,-1.76026 h 1.46973 q -1.24756,1.45264 -2.58057,2.49512 -1.31592,1.04248 -2.76855,1.87988 -1.04248,1.09375 -2.61475,1.62354 -1.36719,0.47851 -2.88818,0.47851 z m -1.11084,-2.76855 q 1.31592,0 2.10205,-0.71777 0.93994,-0.8545 0.93994,-2.5293 0,-0.70068 -0.0855,-1.76025 l -0.0854,-1.04248 q -0.15381,-1.3501 -0.30762,-3.12745 l -0.18798,-2.35839 q -0.49561,1.58935 -1.1792,3.16162 -0.6836,1.55517 -1.65772,3.45214 0.80323,0.44434 0.80323,1.21338 0,0.6836 -0.41016,1.1792 -0.44434,0.54688 -1.12793,0.54688 -0.3418,0 -0.58106,-0.0855 -0.22216,-0.10254 -0.35888,-0.37598 0,1.26465 0.4956,1.86279 0.49561,0.58106 1.64063,0.58106 z"
         style="font-style:normal;font-variant:normal;font-weight:normal;font-stretch:normal;font-size:34.99999619px;line-height:32.70472336px;font-family:Pattaya;-inkscape-font-specification:Pattaya;font-variant-ligatures:normal;font-variant-caps:normal;font-variant-numeric:normal;font-feature-settings:normal;text-align:center;writing-mode:lr-tb;text-anchor:middle;fill:#ffffff;fill-opacity:1;stroke-width:0.9374997"
         id="path913" />
      <path
         d="m 356.57924,474.70422 q -1.6748,0 -2.64892,-0.99121 -1.09375,-1.09375 -1.09375,-3.1958 0,-0.99121 0.27343,-2.29004 l 3.74268,-17.53417 5.17822,-0.70069 -4.01611,18.90137 q -0.13672,0.44433 -0.13672,1.12793 0,0.71777 0.32471,1.0083 0.34179,0.29052 1.09375,0.29052 0.51269,0 0.99121,-0.22216 0.4956,-0.23926 0.90576,-0.64942 0.8374,-0.8374 1.26465,-2.22168 h 1.46972 q -0.93994,2.64893 -2.3584,4.22119 -1.19628,1.28174 -2.70019,1.84571 -1.09375,0.41015 -2.29004,0.41015 z"
         style="font-style:normal;font-variant:normal;font-weight:normal;font-stretch:normal;font-size:34.99999619px;line-height:32.70472336px;font-family:Pattaya;-inkscape-font-specification:Pattaya;font-variant-ligatures:normal;font-variant-caps:normal;font-variant-numeric:normal;font-feature-settings:normal;text-align:center;writing-mode:lr-tb;text-anchor:middle;fill:#ffffff;fill-opacity:1;stroke-width:0.9374997"
         id="path915" />
      <path
         d="m 367.89272,448.18079 h 3.67431 l -3.84521,8.11767 h -2.44385 z"
         style="font-style:normal;font-variant:normal;font-weight:normal;font-stretch:normal;font-size:34.99999619px;line-height:32.70472336px;font-family:Pattaya;-inkscape-font-specification:Pattaya;font-variant-ligatures:normal;font-variant-caps:normal;font-variant-numeric:normal;font-feature-settings:normal;text-align:center;writing-mode:lr-tb;text-anchor:middle;fill:#ffffff;fill-opacity:1;stroke-width:0.9374997"
         id="path917" />
      <path
         d="m 375.9933,475.13147 q -1.64062,0 -2.87109,-0.49561 -1.23047,-0.47851 -2.03369,-1.36718 -0.76904,-0.83741 -1.16211,-1.94825 -0.37598,-1.11083 -0.37598,-2.35839 0,-1.38428 0.44434,-2.81983 0.44433,-1.45263 1.28174,-2.70019 0.85449,-1.29883 2.05078,-2.22168 1.21338,-0.92285 2.70019,-1.31592 -1.09375,-0.78613 -1.62353,-1.87988 -0.5127,-1.09375 -0.5127,-2.32422 0,-1.3501 0.56397,-2.68311 0.58105,-1.35009 1.60644,-2.42675 1.05957,-1.12793 2.46094,-1.76026 1.41846,-0.64941 3.04199,-0.64941 1.04248,0 1.96533,0.29053 0.92285,0.27343 1.58936,0.82031 0.70068,0.56396 1.07666,1.38428 0.37598,0.82031 0.37598,1.87988 0,0.76904 -0.20508,1.43555 -0.20508,0.6665 -0.56397,1.1621 -0.35888,0.49561 -0.8374,0.76905 -0.47852,0.27343 -0.99121,0.27343 -0.95703,0 -1.64063,-0.93994 0.29053,-0.10254 0.58106,-0.41015 0.29053,-0.32471 0.51269,-0.76905 0.20508,-0.42724 0.32471,-0.92285 0.11963,-0.4956 0.11963,-0.95703 0,-0.99121 -0.59814,-1.52099 -0.49561,-0.42725 -1.33301,-0.42725 -0.75196,0 -1.41846,0.41016 -0.6665,0.41015 -1.14502,1.12793 -0.47851,0.70068 -0.75195,1.58935 -0.25635,0.88867 -0.25635,1.81152 0,1.65772 0.82031,2.85401 0.88868,1.33301 2.71729,1.82861 -1.77735,0.39307 -3.28125,1.81152 -1.3501,1.29883 -2.17041,3.12745 -0.80322,1.82861 -0.80322,3.41796 0,1.58936 0.76904,2.51221 0.85449,1.02539 2.54639,1.02539 0.8374,0 1.76025,-0.22217 0.93994,-0.23925 1.79443,-0.68359 1.98242,-1.0083 2.92237,-2.66602 l 0.80322,0.35889 q -1.38428,3.0249 -4.22119,4.81934 -1.36719,0.85449 -2.90528,1.29882 -1.53808,0.46143 -3.12744,0.46143 z"
         style="font-style:normal;font-variant:normal;font-weight:normal;font-stretch:normal;font-size:34.99999619px;line-height:32.70472336px;font-family:Pattaya;-inkscape-font-specification:Pattaya;font-variant-ligatures:normal;font-variant-caps:normal;font-variant-numeric:normal;font-feature-settings:normal;text-align:center;writing-mode:lr-tb;text-anchor:middle;fill:#ffffff;fill-opacity:1;stroke-width:0.9374997"
         id="path919" />
      <path
         d="m 388.84487,474.70422 q -1.67481,0 -2.64893,-0.99121 -1.09375,-1.09375 -1.09375,-3.1958 0,-0.99121 0.27344,-2.29004 l 2.37549,-11.22802 h 5.0415 l -2.51221,11.89453 q -0.10254,0.52978 -0.10254,0.99121 0,1.43554 1.04248,1.43554 0.95704,0 1.72608,-0.87158 0.61523,-0.73486 1.07666,-2.22168 l 2.37549,-11.22802 h 5.0415 l -2.51221,11.89453 q -0.15381,0.51269 -0.15381,1.12793 0,0.71777 0.3418,1.0083 0.3418,0.29052 1.09375,0.29052 0.97412,0 1.74316,-0.87158 0.6836,-0.76904 1.09375,-2.22168 h 1.46973 q -0.93994,2.66602 -2.27295,4.22119 -1.12793,1.28174 -2.54638,1.84571 -1.04248,0.41015 -2.20459,0.41015 -1.50391,0 -2.39258,-0.8374 -0.88867,-0.8374 -1.07666,-2.47803 -1.19629,1.91407 -2.7002,2.73438 -1.07666,0.58105 -2.47802,0.58105 z"
         style="font-style:normal;font-variant:normal;font-weight:normal;font-stretch:normal;font-size:34.99999619px;line-height:32.70472336px;font-family:Pattaya;-inkscape-font-specification:Pattaya;font-variant-ligatures:normal;font-variant-caps:normal;font-variant-numeric:normal;font-feature-settings:normal;text-align:center;writing-mode:lr-tb;text-anchor:middle;fill:#ffffff;fill-opacity:1;stroke-width:0.9374997"
         id="path921" />
      <path
         d="m 405.45619,456.99915 h 5.04151 l -0.44434,2.17041 q 1.19629,-1.05957 1.94824,-1.50391 1.16211,-0.6665 2.27295,-0.6665 1.12793,0 1.81153,0.80322 0.30761,0.35889 0.46142,0.8374 0.15381,0.46143 0.15381,0.99121 0,0.47852 -0.15381,0.92285 -0.15381,0.44434 -0.46142,0.80323 -0.3418,0.37597 -0.83741,0.59814 -0.47851,0.22217 -1.07666,0.22217 -0.46142,0 -0.73486,-0.15381 -0.27344,-0.15381 -0.42725,-0.44433 -0.13671,-0.29053 -0.18798,-0.56397 -0.15381,-0.73486 -0.30762,-0.97412 -0.11963,-0.1709 -0.37598,-0.1709 -0.73486,0 -1.24756,0.30762 -0.51269,0.30762 -1.29882,1.02539 l -2.80274,13.2959 h -5.0415 z"
         style="font-style:normal;font-variant:normal;font-weight:normal;font-stretch:normal;font-size:34.99999619px;line-height:32.70472336px;font-family:Pattaya;-inkscape-font-specification:Pattaya;font-variant-ligatures:normal;font-variant-caps:normal;font-variant-numeric:normal;font-feature-settings:normal;text-align:center;writing-mode:lr-tb;text-anchor:middle;fill:#ffffff;fill-opacity:1;stroke-width:0.9374997"
         id="path923" />
      <path
         d="m 421.28139,474.70422 q -2.58057,0 -3.98193,-1.29882 -1.48682,-1.38428 -1.48682,-4.25538 0,-1.07666 0.22217,-2.39257 0.20508,-1.31592 0.63232,-2.63184 0.47852,-1.46972 1.21338,-2.78564 0.75195,-1.31592 1.74316,-2.32422 2.29004,-2.32422 5.63965,-2.32422 2.13623,0 3.11035,1.02539 0.75196,0.80322 0.75196,2.32422 0,1.48682 -0.64942,2.80273 -0.64941,1.29883 -1.79443,2.30713 -1.14502,0.99121 -2.59766,1.58936 -1.45263,0.58105 -3.00781,0.68359 -0.0854,0.88867 -0.0854,1.40137 0,1.70898 0.64942,2.3584 0.56396,0.58105 1.87988,0.58105 1.89697,0 3.46924,-1.02539 0.6665,-0.42725 1.28173,-1.0083 0.61524,-0.59814 1.43555,-1.50391 h 1.19629 q -1.65771,2.80274 -3.81103,4.46045 -2.64893,2.0166 -5.81055,2.0166 z m 0.0684,-8.95507 q 0.97412,-0.0684 1.89697,-0.56397 0.92285,-0.4956 1.64063,-1.29883 0.71777,-0.82031 1.12793,-1.82861 0.41015,-1.02539 0.41015,-2.08496 0,-0.70068 -0.20508,-1.05957 -0.18798,-0.37598 -0.6665,-0.37598 -0.63232,0 -1.28174,0.61524 -0.63232,0.61523 -1.23047,1.69189 -0.54687,1.0083 -0.99121,2.29004 -0.44433,1.28174 -0.70068,2.61475 z"
         style="font-style:normal;font-variant:normal;font-weight:normal;font-stretch:normal;font-size:34.99999619px;line-height:32.70472336px;font-family:Pattaya;-inkscape-font-specification:Pattaya;font-variant-ligatures:normal;font-variant-caps:normal;font-variant-numeric:normal;font-feature-settings:normal;text-align:center;writing-mode:lr-tb;text-anchor:middle;fill:#ffffff;fill-opacity:1;stroke-width:0.9374997"
         id="path925" />
    </g>
    <g
       id="g4979"
       transform="matrix(6.5950005,0,0,6.6354278,182.68518,190.6152)"
       style="fill:#f25c19;fill-opacity:1">
      <g
         id="g4921"
         style="fill:#f25c19;fill-opacity:1">
        <path
           id="path4915"
           d="m 3.674,24.876 c 0,0 -0.024,0.604 0.566,0.604 0.734,0 6.811,-0.008 6.811,-0.008 l 0.01,-5.581 c 0,0 -0.096,-0.92 0.797,-0.92 h 2.826 c 1.056,0 0.991,0.92 0.991,0.92 l -0.012,5.563 c 0,0 5.762,0 6.667,0 0.749,0 0.715,-0.752 0.715,-0.752 V 14.413 L 13.649,6.055 3.674,14.413 c 0,0 0,10.463 0,10.463 z"
           style="fill:#f25c19;fill-opacity:1"
           inkscape:connector-curvature="0" />
        <path
           id="path4917"
           d="m 0,13.635 c 0,0 0.847,1.561 2.694,0 l 11.038,-9.338 10.349,9.28 c 2.138,1.542 2.939,0 2.939,0 L 13.732,1.54 Z"
           style="fill:#f25c19;fill-opacity:1"
           inkscape:connector-curvature="0" />
        <path
           style="fill:#f25c19;fill-opacity:1"
           d="M 23.83,9.752 V 4.275 h -2.662 l 0.011,3.228 z"
           id="polygon4919" />
      </g>
      <g
         id="g4923"
         style="fill:#f25c19;fill-opacity:1" />
      <g
         id="g4925"
         style="fill:#f25c19;fill-opacity:1" />
      <g
         id="g4927"
         style="fill:#f25c19;fill-opacity:1" />
      <g
         id="g4929"
         style="fill:#f25c19;fill-opacity:1" />
      <g
         id="g4931"
         style="fill:#f25c19;fill-opacity:1" />
      <g
         id="g4933"
         style="fill:#f25c19;fill-opacity:1" />
      <g
         id="g4935"
         style="fill:#f25c19;fill-opacity:1" />
      <g
         id="g4937"
         style="fill:#f25c19;fill-opacity:1" />
      <g
         id="g4939"
         style="fill:#f25c19;fill-opacity:1" />
      <g
         id="g4941"
         style="fill:#f25c19;fill-opacity:1" />
      <g
         id="g4943"
         style="fill:#f25c19;fill-opacity:1" />
      <g
         id="g4945"
         style="fill:#f25c19;fill-opacity:1" />
      <g
         id="g4947"
         style="fill:#f25c19;fill-opacity:1" />
      <g
         id="g4949"
         style="fill:#f25c19;fill-opacity:1" />
      <g
         id="g4951"
         style="fill:#f25c19;fill-opacity:1" />
    </g>
  </g>
</svg>
