<?xml version="1.0" encoding="UTF-8" standalone="no"?>
<!-- Created with Inkscape (http://www.inkscape.org/) -->

<svg
   xmlns:dc="http://purl.org/dc/elements/1.1/"
   xmlns:cc="http://creativecommons.org/ns#"
   xmlns:rdf="http://www.w3.org/1999/02/22-rdf-syntax-ns#"
   xmlns:svg="http://www.w3.org/2000/svg"
   xmlns="http://www.w3.org/2000/svg"
   xmlns:sodipodi="http://sodipodi.sourceforge.net/DTD/sodipodi-0.dtd"
   xmlns:inkscape="http://www.inkscape.org/namespaces/inkscape"
   width="141.11111mm"
   height="141.1136mm"
   viewBox="0 0 500.00001 500.00882"
   id="svg5194"
   version="1.1"
   inkscape:version="0.92.2 (5c3e80d, 2017-08-06)"
   sodipodi:docname="logo-annueure-carre-hp-vector.svg"
   inkscape:export-filename="C:\xampp\htdocs\Brachet\soutenance\images-recherche\logos\logo-annu-eure-decoupe.png"
   inkscape:export-xdpi="96"
   inkscape:export-ydpi="96">
  <defs
     id="defs5196">
    <clipPath
       clipPathUnits="userSpaceOnUse"
       id="clipPath320">
      <path
         d="m 6.827,6.827 325.984,0 0,447.874 -325.984,0 0,-447.874 z"
         id="path322"
         inkscape:connector-curvature="0" />
    </clipPath>
  </defs>
  <sodipodi:namedview
     id="base"
     pagecolor="#ffffff"
     bordercolor="#666666"
     borderopacity="1.0"
     inkscape:pageopacity="0.0"
     inkscape:pageshadow="2"
     inkscape:zoom="0.64394773"
     inkscape:cx="30.994244"
     inkscape:cy="218.78117"
     inkscape:document-units="px"
     inkscape:current-layer="text176-6"
     showgrid="false"
     fit-margin-top="0"
     fit-margin-left="0"
     fit-margin-right="0"
     fit-margin-bottom="0"
     inkscape:window-width="1920"
     inkscape:window-height="1017"
     inkscape:window-x="-8"
     inkscape:window-y="-8"
     inkscape:window-maximized="1" />
  <metadata
     id="metadata5199">
    <rdf:RDF>
      <cc:Work
         rdf:about="">
        <dc:format>image/svg+xml</dc:format>
        <dc:type
           rdf:resource="http://purl.org/dc/dcmitype/StillImage" />
        <dc:title></dc:title>
      </cc:Work>
    </rdf:RDF>
  </metadata>
  <g
     inkscape:label="Calque 1"
     inkscape:groupmode="layer"
     id="layer1"
     transform="translate(-306.803,-539.83699)">
    <path
       d="M 344.84897,983.06417 H 772.78742 V 597.32438 H 344.84897 Z"
       style="fill:#295173;fill-opacity:1;fill-rule:nonzero;stroke:none;stroke-width:0.81257612"
       id="path290-8"
       inkscape:connector-curvature="0" />
    <g
       id="g300-8-8"
       transform="matrix(8.6674641,0,0,-8.6674641,709.33122,647.18468)">
      <path
         d="M 0,0 V 1.999 H 2.02 V -1.614 H 1.009 V 0 Z"
         style="fill:#f25c19;fill-opacity:1;fill-rule:nonzero;stroke:none"
         id="path302-2-4"
         inkscape:connector-curvature="0" />
    </g>
    <g
       aria-label="ANNU"
       transform="scale(0.94291454,1.0605415)"
       style="font-style:normal;font-variant:normal;font-weight:bold;font-stretch:normal;font-size:128.68197632px;line-height:1.25;font-family:sans-serif;-inkscape-font-specification:'sans-serif, Bold';font-variant-ligatures:normal;font-variant-caps:normal;font-variant-numeric:normal;font-feature-settings:normal;text-align:center;letter-spacing:0px;word-spacing:0px;writing-mode:lr-tb;text-anchor:middle;fill:#ffffff;fill-opacity:1;stroke:none;stroke-width:3.21704936"
       id="text176-6">
      <path
         d="m 457.35084,685.37768 -2.57616,24.69336 h -32.35899 l 16.08525,-100.21862 h 53.91071 l 16.08524,100.21862 h -32.48465 l -2.45049,-24.69336 z m 1.63365,-11.24711 h 12.9436 l -6.53463,-49.57523 z"
         style="font-style:normal;font-variant:normal;font-weight:bold;font-stretch:normal;font-size:128.68197632px;line-height:0;font-family:'Coda Caption';-inkscape-font-specification:'Coda Caption Bold';font-variant-ligatures:normal;font-variant-caps:normal;font-variant-numeric:normal;font-feature-settings:normal;text-align:center;letter-spacing:-20.84750175px;writing-mode:lr-tb;text-anchor:middle;fill:#ffffff;fill-opacity:1;stroke-width:3.21704936"
         id="path860" />
      <path
         d="m 558.83918,710.07104 -24.1907,-44.67426 v 44.67426 h -25.8872 V 609.85242 h 28.52618 l 25.63586,47.81591 v -47.81591 h 25.07037 v 100.21862 z"
         style="font-style:normal;font-variant:normal;font-weight:bold;font-stretch:normal;font-size:128.68197632px;line-height:0;font-family:'Coda Caption';-inkscape-font-specification:'Coda Caption Bold';font-variant-ligatures:normal;font-variant-caps:normal;font-variant-numeric:normal;font-feature-settings:normal;text-align:center;letter-spacing:-20.84750175px;writing-mode:lr-tb;text-anchor:middle;fill:#ffffff;fill-opacity:1;stroke-width:3.21704936"
         id="path862" />
      <path
         d="m 647.3211,710.07104 -24.19071,-44.67426 v 44.67426 H 597.2432 V 609.85242 h 28.52618 l 25.63586,47.81591 v -47.81591 h 25.07037 v 100.21862 z"
         style="font-style:normal;font-variant:normal;font-weight:bold;font-stretch:normal;font-size:128.68197632px;line-height:0;font-family:'Coda Caption';-inkscape-font-specification:'Coda Caption Bold';font-variant-ligatures:normal;font-variant-caps:normal;font-variant-numeric:normal;font-feature-settings:normal;text-align:center;letter-spacing:-20.84750175px;writing-mode:lr-tb;text-anchor:middle;fill:#ffffff;fill-opacity:1;stroke-width:3.21704936"
         id="path864" />
      <path
         d="m 716.82745,695.17962 h 14.82859 v -85.3272 h 31.228 V 686.76 q 0,2.51332 -0.31417,5.40364 -0.31416,2.89032 -1.57082,5.78064 -1.25666,2.82748 -3.76998,5.46647 -2.51332,2.63898 -6.8488,4.64964 -4.33548,2.01065 -10.80727,3.20448 -6.4718,1.25666 -15.70825,1.25666 -9.11079,0 -15.51975,-1.25666 -6.40897,-1.19383 -10.68161,-3.20448 -4.20981,-2.01066 -6.6603,-4.64964 -2.38765,-2.63899 -3.64431,-5.46647 -1.19383,-2.89032 -1.508,-5.78064 -0.25133,-2.89032 -0.25133,-5.40364 v -76.90758 h 31.228 z"
         style="font-style:normal;font-variant:normal;font-weight:bold;font-stretch:normal;font-size:128.68197632px;line-height:0;font-family:'Coda Caption';-inkscape-font-specification:'Coda Caption Bold';font-variant-ligatures:normal;font-variant-caps:normal;font-variant-numeric:normal;font-feature-settings:normal;text-align:center;letter-spacing:-20.84750175px;writing-mode:lr-tb;text-anchor:middle;fill:#ffffff;fill-opacity:1;stroke-width:3.21704936"
         id="path866" />
    </g>
    <g
       aria-label="eure"
       transform="scale(0.94291454,1.0605415)"
       style="font-style:normal;font-variant:normal;font-weight:bold;font-stretch:normal;font-size:128.68197632px;line-height:1.25;font-family:sans-serif;-inkscape-font-specification:'sans-serif, Bold';font-variant-ligatures:normal;font-variant-caps:normal;font-variant-numeric:normal;font-feature-settings:normal;text-align:center;letter-spacing:0px;word-spacing:0px;writing-mode:lr-tb;text-anchor:middle;fill:#99d420;fill-opacity:1;stroke:none;stroke-width:3.21704936"
       id="text176-4-2">
      <path
         d="m 501.94402,802.55705 q 0,4.61988 -0.32535,8.78428 -0.32534,4.09934 -1.62672,7.67812 -1.23631,3.51372 -3.83906,6.31168 -2.53768,2.79796 -7.02743,4.81509 -4.42468,1.95206 -11.12676,2.99316 -6.63702,1.10617 -16.20214,1.10617 -9.76032,0 -16.52747,-1.17124 -6.70209,-1.17123 -11.12677,-3.1233 -4.42468,-1.95206 -6.89729,-4.48975 -2.47262,-2.60275 -3.64385,-5.40071 -1.17124,-2.86302 -1.43152,-5.72605 -0.1952,-2.86303 -0.1952,-5.46578 v -39.04128 q 0,-2.60275 0.1952,-5.46578 0.26028,-2.86303 1.43152,-5.66099 1.17123,-2.79796 3.64385,-5.33564 2.47261,-2.60275 6.89729,-4.55482 4.42468,-1.95206 11.12677,-3.1233 6.76715,-1.17124 16.52747,-1.17124 9.50005,0 16.20214,1.17124 6.70208,1.17124 11.12676,3.1233 4.48975,1.95207 7.02743,4.55482 2.60275,2.53768 3.90413,5.33564 1.30138,2.79796 1.62672,5.72606 0.32534,2.86302 0.32534,5.40071 v 24.4008 h -47.69543 v 22.25353 h 15.35624 v -13.85966 z m -47.63037,-19.91106 h 15.35624 v -19.71585 h -15.35624 z"
         style="font-style:normal;font-variant:normal;font-weight:bold;font-stretch:normal;font-size:133.26091003px;line-height:0;font-family:'Coda Caption';-inkscape-font-specification:'Coda Caption Bold';font-variant-ligatures:normal;font-variant-caps:normal;font-variant-numeric:normal;font-feature-settings:normal;text-align:center;letter-spacing:0px;writing-mode:lr-tb;text-anchor:middle;fill:#99d420;fill-opacity:1;stroke-width:3.21704936"
         id="path851" />
      <path
         d="m 599.41708,747.31363 v 84.58945 H 572.6738 l -2.99316,-10.86649 q -1.69179,3.38357 -4.42468,5.98633 -2.73289,2.53768 -6.11647,4.29454 -3.38358,1.69179 -7.22264,2.53768 -3.83906,0.91096 -7.80825,0.91096 -4.61989,0 -9.10964,-1.49658 -4.42467,-1.49658 -7.93839,-4.48975 -3.44865,-3.05823 -5.59592,-7.67812 -2.0822,-4.61988 -2.0822,-10.80142 v -62.9866 h 32.3392 v 69.16814 h 15.35623 v -69.16814 z"
         style="font-style:normal;font-variant:normal;font-weight:bold;font-stretch:normal;font-size:133.26091003px;line-height:0;font-family:'Coda Caption';-inkscape-font-specification:'Coda Caption Bold';font-variant-ligatures:normal;font-variant-caps:normal;font-variant-numeric:normal;font-feature-settings:normal;text-align:center;letter-spacing:0px;writing-mode:lr-tb;text-anchor:middle;fill:#99d420;fill-opacity:1;stroke-width:3.21704936"
         id="path853" />
      <path
         d="m 618.41717,831.90308 v -84.58945 h 26.09259 l 3.64385,13.33911 q 0.65069,-3.25344 2.01713,-5.72606 1.36645,-2.47261 3.12331,-4.22947 1.82192,-1.82193 3.90413,-2.99317 2.0822,-1.17123 4.1644,-1.82192 2.0822,-0.71576 4.03426,-0.97603 1.95207,-0.32535 3.44865,-0.39042 v 25.63711 l -18.08913,5.20551 v 56.54479 z"
         style="font-style:normal;font-variant:normal;font-weight:bold;font-stretch:normal;font-size:133.26091003px;line-height:0;font-family:'Coda Caption';-inkscape-font-specification:'Coda Caption Bold';font-variant-ligatures:normal;font-variant-caps:normal;font-variant-numeric:normal;font-feature-settings:normal;text-align:center;letter-spacing:0px;writing-mode:lr-tb;text-anchor:middle;fill:#99d420;fill-opacity:1;stroke-width:3.21704936"
         id="path855" />
      <path
         d="m 763.26033,802.55705 q 0,4.61988 -0.32534,8.78428 -0.32535,4.09934 -1.62672,7.67812 -1.23631,3.51372 -3.83906,6.31168 -2.53769,2.79796 -7.02743,4.81509 -4.42468,1.95206 -11.12677,2.99316 -6.63702,1.10617 -16.20213,1.10617 -9.76032,0 -16.52748,-1.17124 -6.70208,-1.17123 -11.12676,-3.1233 -4.42468,-1.95206 -6.8973,-4.48975 -2.47261,-2.60275 -3.64385,-5.40071 -1.17124,-2.86302 -1.43151,-5.72605 -0.19521,-2.86303 -0.19521,-5.46578 v -39.04128 q 0,-2.60275 0.19521,-5.46578 0.26027,-2.86303 1.43151,-5.66099 1.17124,-2.79796 3.64385,-5.33564 2.47262,-2.60275 6.8973,-4.55482 4.42468,-1.95206 11.12676,-3.1233 6.76716,-1.17124 16.52748,-1.17124 9.50004,0 16.20213,1.17124 6.70209,1.17124 11.12677,3.1233 4.48974,1.95207 7.02743,4.55482 2.60275,2.53768 3.90412,5.33564 1.30138,2.79796 1.62672,5.72606 0.32535,2.86302 0.32535,5.40071 v 24.4008 h -47.69543 v 22.25353 h 15.35623 v -13.85966 z m -47.63036,-19.91106 h 15.35623 v -19.71585 h -15.35623 z"
         style="font-style:normal;font-variant:normal;font-weight:bold;font-stretch:normal;font-size:133.26091003px;line-height:0;font-family:'Coda Caption';-inkscape-font-specification:'Coda Caption Bold';font-variant-ligatures:normal;font-variant-caps:normal;font-variant-numeric:normal;font-feature-settings:normal;text-align:center;letter-spacing:0px;writing-mode:lr-tb;text-anchor:middle;fill:#99d420;fill-opacity:1;stroke-width:3.21704936"
         id="path857" />
    </g>
    <path
       style="color:#000000;font-style:normal;font-variant:normal;font-weight:normal;font-stretch:normal;font-size:medium;line-height:normal;font-family:sans-serif;font-variant-ligatures:normal;font-variant-position:normal;font-variant-caps:normal;font-variant-numeric:normal;font-variant-alternates:normal;font-feature-settings:normal;text-indent:0;text-align:start;text-decoration:none;text-decoration-line:none;text-decoration-style:solid;text-decoration-color:#000000;letter-spacing:normal;word-spacing:normal;text-transform:none;writing-mode:lr-tb;direction:ltr;text-orientation:mixed;dominant-baseline:auto;baseline-shift:baseline;text-anchor:start;white-space:normal;shape-padding:0;clip-rule:nonzero;display:inline;overflow:visible;visibility:visible;opacity:1;isolation:auto;mix-blend-mode:normal;color-interpolation:sRGB;color-interpolation-filters:linearRGB;solid-color:#000000;solid-opacity:1;vector-effect:none;fill:#99d420;fill-opacity:1;fill-rule:nonzero;stroke:none;stroke-width:3.88024426;stroke-linecap:butt;stroke-linejoin:miter;stroke-miterlimit:4;stroke-dasharray:none;stroke-dashoffset:0;stroke-opacity:1;color-rendering:auto;image-rendering:auto;shape-rendering:auto;text-rendering:auto;enable-background:accumulate"
       d="m 398.71468,770.87714 v 3.8808 h 320.20704 v -3.8808 z"
       id="path101-9"
       inkscape:connector-curvature="0" />
    <g
       aria-label="de Normandie"
       style="font-style:normal;font-weight:normal;font-size:47.03326035px;line-height:1.25;font-family:sans-serif;letter-spacing:0px;word-spacing:0px;fill:#ffffff;fill-opacity:1;stroke:none;stroke-width:1.17583168"
       id="text4599-2">
      <path
         d="m 403.58817,941.34947 q -3.31391,0 -5.35325,-2.06766 -2.37922,-2.43587 -2.37922,-7.25096 0,-2.03933 0.42486,-4.30525 0.39654,-2.26593 1.18961,-4.47521 1.81275,-4.98503 4.95672,-8.04403 3.62548,-3.48386 8.3556,-3.48386 2.35089,0 3.51218,0.8214 1.18961,0.79307 1.18961,2.1243 v 0.22659 l 2.83241,-13.34063 8.58219,-1.16129 -6.65616,31.32642 q -0.25491,0.84972 -0.25491,1.86939 0,1.18961 0.56648,1.67112 0.56648,0.48151 1.81274,0.48151 1.61447,0 2.88905,-1.44453 1.07632,-1.27458 1.81274,-3.68213 h 2.43587 q -1.5295,4.36191 -3.7671,6.88275 -1.89771,2.09598 -4.22028,2.91738 -1.67112,0.5948 -3.65381,0.5948 -2.40754,0 -3.88039,-1.27458 -1.47286,-1.27458 -1.81275,-3.71045 -1.55782,2.35089 -3.37056,3.62548 -2.3509,1.69944 -5.21163,1.69944 z m 3.7671,-5.60816 q 0.62313,0 1.33123,-0.31157 0.73643,-0.31156 1.38788,-0.87804 1.5295,-1.38788 2.03934,-3.62548 v -0.31157 l 2.8324,-13.28399 q -0.19827,-0.79307 -0.56648,-1.27458 -0.5948,-0.73643 -1.81274,-0.73643 -1.16128,0 -2.26592,0.76475 -1.07632,0.76475 -2.03934,2.12431 -1.69944,2.46419 -2.80408,6.42956 -0.50983,1.75609 -0.76475,3.48386 -0.25491,1.69945 -0.25491,3.08733 0,2.88905 1.07631,3.90872 0.36821,0.39653 0.8214,0.50983 0.45318,0.1133 1.01966,0.1133 z"
         style="font-style:normal;font-variant:normal;font-weight:normal;font-stretch:normal;font-size:58.00768661px;font-family:Pattaya;-inkscape-font-specification:Pattaya;fill:#ffffff;fill-opacity:1;stroke-width:1.17583168"
         id="path828" />
      <path
         d="m 435.3961,941.34947 q -4.27694,0 -6.59951,-2.15263 -2.46419,-2.29425 -2.46419,-7.05269 0,-1.78442 0.36821,-3.96537 0.33989,-2.18095 1.04799,-4.36191 0.79307,-2.43587 2.01101,-4.61682 1.24626,-2.18095 2.88905,-3.85207 3.79543,-3.85207 9.34695,-3.85207 3.5405,0 5.15498,1.69944 1.24625,1.33123 1.24625,3.85207 0,2.4642 -1.07631,4.64515 -1.07631,2.15263 -2.97403,3.82375 -1.89771,1.64279 -4.30525,2.63414 -2.40755,0.96301 -4.98504,1.13296 -0.14162,1.47285 -0.14162,2.32257 0,2.83241 1.07631,3.90872 0.9347,0.96302 3.11565,0.96302 3.14397,0 5.74979,-1.69944 1.10463,-0.7081 2.1243,-1.67112 1.01967,-0.99134 2.37922,-2.49252 h 1.98269 q -2.74744,4.64515 -6.31627,7.39258 -4.39023,3.34224 -9.63018,3.34224 z m 0.11329,-14.84181 q 1.61448,-0.1133 3.14398,-0.93469 1.5295,-0.8214 2.71911,-2.15263 1.18961,-1.35956 1.86938,-3.03068 0.67978,-1.69944 0.67978,-3.45553 0,-1.16129 -0.33989,-1.7561 -0.31156,-0.62312 -1.10464,-0.62312 -1.04799,0 -2.1243,1.01966 -1.04799,1.01967 -2.03933,2.80408 -0.90637,1.67112 -1.6428,3.79543 -0.73642,2.1243 -1.16129,4.33358 z"
         style="font-style:normal;font-variant:normal;font-weight:normal;font-stretch:normal;font-size:58.00768661px;font-family:Pattaya;-inkscape-font-specification:Pattaya;fill:#ffffff;fill-opacity:1;stroke-width:1.17583168"
         id="path830" />
      <path
         d="m 476.06945,901.27092 q -3.99369,1.4162 -6.03302,4.39023 -2.01101,2.9457 -2.01101,7.22264 0,1.86938 0.39654,3.42721 0.42486,1.5295 1.16128,2.49251 -3.73877,0 -5.49487,-1.50117 -1.75609,-1.5295 -1.75609,-4.78677 0,-4.02201 2.43587,-7.61917 2.32258,-3.42721 6.31627,-5.52319 4.10699,-2.09598 8.86543,-2.09598 1.33123,0 2.32257,0.19826 1.01967,0.16995 2.26593,0.59481 l 6.99604,31.04317 6.48622,-31.49636 h 5.63648 l -9.46023,43.39247 h -8.01571 l -6.71281,-28.77725 -6.62783,28.77725 h -5.49487 z"
         style="font-style:normal;font-variant:normal;font-weight:normal;font-stretch:normal;font-size:58.00768661px;font-family:Pattaya;-inkscape-font-specification:Pattaya;fill:#ffffff;fill-opacity:1;stroke-width:1.17583168"
         id="path832" />
      <path
         d="m 509.20861,941.23618 q -4.30526,0 -6.65615,-2.09599 -2.63414,-2.32257 -2.63414,-7.05269 0,-1.78441 0.36821,-3.93704 0.36821,-2.18096 1.13296,-4.39023 1.7561,-5.26828 5.01336,-8.41225 3.93705,-3.85207 9.37527,-3.85207 7.44923,0 7.44923,9.26197 v 0.0566 q 0.16994,0.0566 0.28324,0.0566 h 0.33989 q 1.92603,0 4.56017,-1.07631 2.32258,-0.96302 4.39023,-2.40755 l 0.50984,1.58615 q -1.69945,1.78442 -4.39023,3.03067 -2.66247,1.24626 -5.89141,1.78442 -0.33989,3.93705 -1.5295,7.19431 -1.18961,3.22895 -3.059,5.55152 -1.84106,2.26593 -4.22029,3.48386 -2.37922,1.21794 -5.04168,1.21794 z m 2.32257,-5.21163 q 1.01967,0 2.06766,-0.90637 1.07632,-0.9347 2.01101,-2.57749 0.93469,-1.6428 1.61447,-3.85208 0.67978,-2.20927 1.01967,-4.73012 -0.84972,-0.22659 -1.21794,-0.84972 -0.33989,-0.62313 -0.33989,-1.58614 0,-1.18962 0.48151,-1.98269 0.48151,-0.79307 1.33123,-1.16129 -0.11329,-1.84106 -0.5948,-2.63413 -0.25492,-0.39654 -0.65145,-0.56649 -0.36822,-0.16994 -0.96302,-0.16994 -1.95436,0 -3.82375,2.9457 -1.72777,2.66247 -2.83241,6.57119 -1.07631,3.82375 -1.07631,6.79777 0,1.44453 0.14162,2.3509 0.16994,0.90637 0.53816,1.4162 0.33988,0.50984 0.87804,0.73643 0.53816,0.19827 1.4162,0.19827 z"
         style="font-style:normal;font-variant:normal;font-weight:normal;font-stretch:normal;font-size:58.00768661px;font-family:Pattaya;-inkscape-font-specification:Pattaya;fill:#ffffff;fill-opacity:1;stroke-width:1.17583168"
         id="path834" />
      <path
         d="m 530.16843,912.00574 h 8.3556 l -0.73643,3.59716 q 1.98269,-1.7561 3.22895,-2.49252 1.92603,-1.10464 3.7671,-1.10464 1.86939,0 3.00235,1.33123 0.50983,0.59481 0.76475,1.38788 0.25491,0.76475 0.25491,1.6428 0,0.79307 -0.25491,1.52949 -0.25492,0.73643 -0.76475,1.33124 -0.56648,0.62313 -1.38788,0.99134 -0.79307,0.36821 -1.78442,0.36821 -0.76475,0 -1.21793,-0.25492 -0.45319,-0.25491 -0.7081,-0.73642 -0.2266,-0.48151 -0.31157,-0.9347 -0.25491,-1.21793 -0.50983,-1.61447 -0.19827,-0.28324 -0.62313,-0.28324 -1.21794,0 -2.06766,0.50984 -0.84972,0.50983 -2.15263,1.69944 l -4.64514,22.03612 h -8.3556 z"
         style="font-style:normal;font-variant:normal;font-weight:normal;font-stretch:normal;font-size:58.00768661px;font-family:Pattaya;-inkscape-font-specification:Pattaya;fill:#ffffff;fill-opacity:1;stroke-width:1.17583168"
         id="path836" />
      <path
         d="m 583.36101,941.34947 q -3.59716,0 -5.32492,-2.03933 -1.50118,-1.75609 -1.50118,-4.50353 0,-1.3029 0.31157,-3.03067 0.33988,-1.72777 0.99134,-4.44688 0.65145,-2.77576 0.96302,-4.41856 0.33989,-1.67112 0.33989,-2.88905 0,-2.97403 -2.09599,-2.97403 -1.47285,0 -2.71911,1.55783 -1.04799,1.33123 -1.81274,3.79542 l -3.93704,18.60891 h -8.3556 l 4.24861,-20.02511 q 0.16994,-0.67978 0.16994,-1.44453 0,-1.16129 -0.36821,-1.78442 -0.48151,-0.76475 -1.38788,-0.76475 -1.64279,0 -2.86073,1.58615 -1.07631,1.35956 -1.84106,3.82375 l -3.93705,18.60891 h -8.3556 l 6.14632,-29.00384 h 8.3556 l -0.62313,3.00235 q 1.69945,-1.89771 3.71046,-2.69079 1.58614,-0.5948 3.37056,-0.5948 2.43587,0 3.8804,1.13296 1.61447,1.27458 2.06765,3.85207 1.86939,-2.88905 4.30526,-4.07866 1.72777,-0.84972 3.7671,-0.84972 2.91738,0 4.61683,1.5295 1.81274,1.67112 1.81274,5.01336 0,1.89771 -0.70811,5.23995 -0.28324,1.38788 -0.67977,2.80408 -0.7081,2.71911 -1.16129,5.01336 -0.22659,1.18961 -0.22659,1.92604 0,1.16128 0.50983,1.81274 0.53816,0.62313 1.81274,0.62313 1.72777,0 2.91738,-1.41621 0.90637,-1.07631 1.95436,-3.71045 h 2.43587 q -2.15263,6.37292 -5.43822,8.92208 -2.32257,1.81274 -5.35325,1.81274 z"
         style="font-style:normal;font-variant:normal;font-weight:normal;font-stretch:normal;font-size:58.00768661px;font-family:Pattaya;-inkscape-font-specification:Pattaya;fill:#ffffff;fill-opacity:1;stroke-width:1.17583168"
         id="path838" />
      <path
         d="m 598.68433,941.34947 q -3.31391,0 -5.35324,-2.06766 -2.37923,-2.43587 -2.37923,-7.25096 0,-2.03933 0.42486,-4.30525 0.39654,-2.26593 1.18962,-4.47521 1.81274,-4.98503 4.95671,-8.04403 3.62548,-3.48386 8.3556,-3.48386 2.35089,0 3.51218,0.8214 1.18961,0.79307 1.18961,2.1243 v 0.42486 l 0.62313,-3.08732 h 8.3556 l -4.16364,19.71355 q -0.25491,0.84972 -0.25491,1.86939 0,2.49252 2.37922,2.49252 1.58615,0 2.88905,-1.61448 1.10464,-1.35955 1.81274,-3.85207 h 2.43587 q -1.55782,4.41855 -3.7671,6.99604 -1.86939,2.12431 -4.22028,3.059 -1.72777,0.67978 -3.65381,0.67978 -2.46419,0 -3.93704,-1.33123 -1.44453,-1.35955 -1.7561,-3.99369 -1.64279,2.32257 -3.45553,3.62548 -2.32258,1.69944 -5.18331,1.69944 z m 3.7671,-5.60816 q 0.65146,0 1.35956,-0.33989 0.73643,-0.33989 1.4162,-0.96302 1.5295,-1.47285 2.03934,-3.82375 l 2.77575,-13.08572 q 0,-0.28324 -0.14162,-0.65145 -0.11329,-0.39654 -0.33988,-0.73643 -0.67978,-0.8214 -1.89772,-0.8214 -1.16128,0 -2.26592,0.76475 -1.07632,0.76475 -2.03934,2.12431 -1.69944,2.46419 -2.80408,6.42956 -0.50983,1.75609 -0.76475,3.48386 -0.25491,1.69945 -0.25491,3.08733 0,2.88905 1.07631,3.90872 0.36821,0.39653 0.8214,0.50983 0.45318,0.1133 1.01966,0.1133 z"
         style="font-style:normal;font-variant:normal;font-weight:normal;font-stretch:normal;font-size:58.00768661px;font-family:Pattaya;-inkscape-font-specification:Pattaya;fill:#ffffff;fill-opacity:1;stroke-width:1.17583168"
         id="path840" />
      <path
         d="m 643.1248,941.34947 q -3.59716,0 -5.32493,-2.03933 -1.50117,-1.75609 -1.50117,-4.50353 0,-1.3029 0.31156,-3.03067 0.33989,-1.72777 0.99135,-4.44688 0.65145,-2.77576 0.96301,-4.41856 0.33989,-1.67112 0.33989,-2.88905 0,-2.97403 -2.09598,-2.97403 -1.47285,0 -2.71911,1.55783 -1.04799,1.33123 -1.81274,3.79542 l -3.93704,18.60891 h -8.3556 l 6.14632,-29.00384 h 8.3556 l -0.62313,3.00235 q 1.69944,-1.89771 3.6538,-2.66246 1.44453,-0.56648 3.11565,-0.56648 2.9457,0 4.64515,1.5295 1.81274,1.67112 1.81274,5.01336 0,2.011 -0.73643,5.23995 -0.19827,0.93469 -0.65145,2.80408 -0.8214,3.14397 -1.18961,5.01336 -0.2266,1.18961 -0.2266,1.92604 0,1.16128 0.50984,1.81274 0.53816,0.62313 1.81274,0.62313 1.72777,0 2.91738,-1.41621 0.90637,-1.07631 1.95436,-3.71045 h 2.43587 q -2.15263,6.37292 -5.43822,8.92208 -2.32258,1.81274 -5.35325,1.81274 z"
         style="font-style:normal;font-variant:normal;font-weight:normal;font-stretch:normal;font-size:58.00768661px;font-family:Pattaya;-inkscape-font-specification:Pattaya;fill:#ffffff;fill-opacity:1;stroke-width:1.17583168"
         id="path842" />
      <path
         d="m 658.50477,941.34947 q -3.31392,0 -5.35325,-2.06766 -2.37922,-2.43587 -2.37922,-7.25096 0,-2.03933 0.42486,-4.30525 0.39654,-2.26593 1.18961,-4.47521 1.81274,-4.98503 4.95671,-8.04403 3.62548,-3.48386 8.3556,-3.48386 2.3509,0 3.51219,0.8214 1.18961,0.79307 1.18961,2.1243 v 0.22659 l 2.8324,-13.34063 8.58219,-1.16129 -6.65615,31.32642 q -0.25492,0.84972 -0.25492,1.86939 0,1.18961 0.56648,1.67112 0.56649,0.48151 1.81274,0.48151 1.61448,0 2.88906,-1.44453 1.07631,-1.27458 1.81274,-3.68213 h 2.43587 q -1.5295,4.36191 -3.7671,6.88275 -1.89771,2.09598 -4.22029,2.91738 -1.67112,0.5948 -3.6538,0.5948 -2.40755,0 -3.8804,-1.27458 -1.47285,-1.27458 -1.81274,-3.71045 -1.55782,2.35089 -3.37056,3.62548 -2.3509,1.69944 -5.21163,1.69944 z m 3.7671,-5.60816 q 0.62313,0 1.33123,-0.31157 0.73643,-0.31156 1.38788,-0.87804 1.5295,-1.38788 2.03933,-3.62548 v -0.31157 l 2.83241,-13.28399 q -0.19827,-0.79307 -0.56648,-1.27458 -0.59481,-0.73643 -1.81274,-0.73643 -1.16129,0 -2.26593,0.76475 -1.07631,0.76475 -2.03933,2.12431 -1.69944,2.46419 -2.80408,6.42956 -0.50984,1.75609 -0.76475,3.48386 -0.25492,1.69945 -0.25492,3.08733 0,2.88905 1.07631,3.90872 0.36822,0.39653 0.8214,0.50983 0.45319,0.1133 1.01967,0.1133 z"
         style="font-style:normal;font-variant:normal;font-weight:normal;font-stretch:normal;font-size:58.00768661px;font-family:Pattaya;-inkscape-font-specification:Pattaya;fill:#ffffff;fill-opacity:1;stroke-width:1.17583168"
         id="path844" />
      <path
         d="m 691.70056,908.86177 q -0.93469,0 -1.78441,-0.33989 -0.84972,-0.36821 -1.47285,-0.99134 -0.62313,-0.59481 -0.99135,-1.44453 -0.33989,-0.84972 -0.33989,-1.78442 0,-0.93469 0.33989,-1.78441 0.36822,-0.84972 0.99135,-1.50118 0.62313,-0.65145 1.47285,-0.99134 0.84972,-0.36821 1.78441,-0.36821 0.9347,0 1.78442,0.36821 0.84972,0.33989 1.50118,0.99134 0.65145,0.65146 0.99134,1.50118 0.36821,0.84972 0.36821,1.78441 0,0.9347 -0.36821,1.78442 -0.33989,0.84972 -0.99134,1.44453 -0.65146,0.62313 -1.50118,0.99134 -0.84972,0.33989 -1.78442,0.33989 z m -3.93704,32.4877 q -2.77576,0 -4.39023,-1.64279 -1.81274,-1.81274 -1.81274,-5.2966 0,-1.6428 0.45318,-3.79543 l 3.93705,-18.60891 h 8.3556 l -4.16364,19.71355 q -0.22659,0.73642 -0.22659,1.86939 0,1.18961 0.53815,1.67112 0.56649,0.48151 1.81274,0.48151 0.84973,0 1.6428,-0.36822 0.8214,-0.39653 1.50118,-1.07631 1.38788,-1.38788 2.09598,-3.68213 h 2.43587 q -1.55783,4.39023 -3.90872,6.99604 -1.98269,2.12431 -4.47521,3.059 -1.81274,0.67978 -3.79542,0.67978 z"
         style="font-style:normal;font-variant:normal;font-weight:normal;font-stretch:normal;font-size:58.00768661px;font-family:Pattaya;-inkscape-font-specification:Pattaya;fill:#ffffff;fill-opacity:1;stroke-width:1.17583168"
         id="path846" />
      <path
         d="m 705.83429,941.34947 q -4.27693,0 -6.59951,-2.15263 -2.46419,-2.29425 -2.46419,-7.05269 0,-1.78442 0.36821,-3.96537 0.33989,-2.18095 1.04799,-4.36191 0.79308,-2.43587 2.01101,-4.61682 1.24626,-2.18095 2.88906,-3.85207 3.79542,-3.85207 9.34694,-3.85207 3.54051,0 5.15498,1.69944 1.24626,1.33123 1.24626,3.85207 0,2.4642 -1.07632,4.64515 -1.07631,2.15263 -2.97402,3.82375 -1.89772,1.64279 -4.30526,2.63414 -2.40755,0.96301 -4.98504,1.13296 -0.14162,1.47285 -0.14162,2.32257 0,2.83241 1.07632,3.90872 0.93469,0.96302 3.11564,0.96302 3.14397,0 5.74979,-1.69944 1.10464,-0.7081 2.1243,-1.67112 1.01967,-0.99134 2.37923,-2.49252 h 1.98268 q -2.74743,4.64515 -6.31627,7.39258 -4.39023,3.34224 -9.63018,3.34224 z m 0.1133,-14.84181 q 1.61447,-0.1133 3.14397,-0.93469 1.5295,-0.8214 2.71911,-2.15263 1.18961,-1.35956 1.86939,-3.03068 0.67977,-1.69944 0.67977,-3.45553 0,-1.16129 -0.33988,-1.7561 -0.31157,-0.62312 -1.10464,-0.62312 -1.04799,0 -2.12431,1.01966 -1.04799,1.01967 -2.03933,2.80408 -0.90637,1.67112 -1.6428,3.79543 -0.73642,2.1243 -1.16128,4.33358 z"
         style="font-style:normal;font-variant:normal;font-weight:normal;font-stretch:normal;font-size:58.00768661px;font-family:Pattaya;-inkscape-font-specification:Pattaya;fill:#ffffff;fill-opacity:1;stroke-width:1.17583168"
         id="path848" />
    </g>
  </g>
  <g
     inkscape:groupmode="layer"
     id="layer2"
     inkscape:label="logo" />
</svg>
