<?xml version="1.0" encoding="UTF-8" standalone="no"?>
<!-- Created with Inkscape (http://www.inkscape.org/) -->

<svg
   xmlns:dc="http://purl.org/dc/elements/1.1/"
   xmlns:cc="http://creativecommons.org/ns#"
   xmlns:rdf="http://www.w3.org/1999/02/22-rdf-syntax-ns#"
   xmlns:svg="http://www.w3.org/2000/svg"
   xmlns="http://www.w3.org/2000/svg"
   xmlns:sodipodi="http://sodipodi.sourceforge.net/DTD/sodipodi-0.dtd"
   xmlns:inkscape="http://www.inkscape.org/namespaces/inkscape"
   version="1.1"
   id="svg3699"
   xml:space="preserve"
   width="270.34793"
   height="112.20965"
   viewBox="0 0 270.34794 112.20965"
   sodipodi:docname="logo-annueure-temporaire-vector.svg"
   inkscape:version="0.92.2 (5c3e80d, 2017-08-06)"><metadata
     id="metadata3705"><rdf:RDF><cc:Work
         rdf:about=""><dc:format>image/svg+xml</dc:format><dc:type
           rdf:resource="http://purl.org/dc/dcmitype/StillImage" /><dc:title></dc:title></cc:Work></rdf:RDF></metadata><defs
     id="defs3703"><clipPath
       clipPathUnits="userSpaceOnUse"
       id="clipPath3733"><path
         d="M 0,308.592 H 743.494 V 0 H 0 Z"
         id="path3731"
         inkscape:connector-curvature="0" /></clipPath><clipPath
       clipPathUnits="userSpaceOnUse"
       id="clipPath3759"><path
         d="M 0,308.592 H 743.494 V 0 H 0 Z"
         id="path3757"
         inkscape:connector-curvature="0" /></clipPath></defs><sodipodi:namedview
     pagecolor="#ffffff"
     bordercolor="#666666"
     borderopacity="1"
     objecttolerance="10"
     gridtolerance="10"
     guidetolerance="10"
     inkscape:pageopacity="0"
     inkscape:pageshadow="2"
     inkscape:window-width="1920"
     inkscape:window-height="1057"
     id="namedview3701"
     showgrid="false"
     inkscape:zoom="1"
     inkscape:cx="135.17397"
     inkscape:cy="56.104827"
     inkscape:window-x="-8"
     inkscape:window-y="-8"
     inkscape:window-maximized="1"
     inkscape:current-layer="g3707" /><g
     id="g3707"
     inkscape:groupmode="layer"
     inkscape:label="logo-annueure-temporaire-vector"
     transform="matrix(1.3333333,0,0,-1.3333333,-360.48868,261.83282)"><path
       d="m 270.36652,112.21738 h 202.76096 v 84.15724 H 270.36652 Z"
       style="fill:#295173;fill-opacity:1;fill-rule:nonzero;stroke:none;stroke-width:0.27271363"
       id="path3709"
       inkscape:connector-curvature="0" /><g
       id="g3711"
       transform="matrix(0.27271362,0,0,0.27271362,349.88594,185.49654)"><path
         d="M 0,0 V 13.861 H 14.007 V -11.191 H 6.997 V 0 Z"
         style="fill:#f25c19;fill-opacity:1;fill-rule:nonzero;stroke:none"
         id="path3713"
         inkscape:connector-curvature="0" /></g><g
       id="g3715"
       transform="matrix(0.27271362,0,0,0.27271362,289.55166,170.71369)"><path
         d="M 0,0 H 9.764 L 4.834,42.061 Z M -1.087,-9.542 -3.03,-30.493 h -24.41 l 12.134,85.029 H 25.168 L 37.349,-30.493 H 14.163 l -3.022,20.951 z"
         style="fill:#ffffff;fill-opacity:1;fill-rule:nonzero;stroke:none"
         id="path3717"
         inkscape:connector-curvature="0" /></g><g
       id="g3719"
       transform="matrix(0.27271362,0,0,0.27271362,310.0679,162.39778)"><path
         d="M 0,0 -18.248,37.903 V 0 h -19.527 v 85.029 h 21.518 L 3.081,44.46 V 85.029 H 21.992 V 0 Z"
         style="fill:#ffffff;fill-opacity:1;fill-rule:nonzero;stroke:none"
         id="path3721"
         inkscape:connector-curvature="0" /></g><g
       id="g3723"
       transform="matrix(0.27271362,0,0,0.27271362,328.28312,162.39778)"><path
         d="M 0,0 -18.248,37.903 V 0 h -19.527 v 85.029 h 21.517 L 3.08,44.46 V 85.029 H 21.992 V 0 Z"
         style="fill:#ffffff;fill-opacity:1;fill-rule:nonzero;stroke:none"
         id="path3725"
         inkscape:connector-curvature="0" /></g><g
       id="g3727"
       transform="matrix(0.27271362,0,0,0.27271362,270.36652,112.21738)"><g
         id="g3729"
         clip-path="url(#clipPath3733)"><g
           id="g3735"
           transform="translate(264.851,196.5318)"><path
             d="M 0,0 H 11.186 V 72.501 H 34.742 V 7.25 C 34.742,5.828 34.662,4.3 34.505,2.666 34.347,1.03 33.951,-0.596 33.32,-2.212 32.688,-3.83 31.739,-5.384 30.477,-6.877 29.212,-8.37 27.49,-9.685 25.31,-10.822 c -2.18,-1.138 -4.898,-2.053 -8.153,-2.745 -3.255,-0.693 -7.204,-1.04 -11.848,-1.04 -4.582,0 -8.485,0.347 -11.707,1.04 -3.224,0.692 -5.902,1.607 -8.035,2.745 -2.132,1.137 -3.807,2.452 -5.024,3.945 -1.217,1.493 -2.133,3.047 -2.749,4.665 -0.615,1.616 -0.995,3.242 -1.137,4.878 -0.142,1.634 -0.214,3.162 -0.214,4.584 V 72.501 H 0 Z"
             style="fill:#ffffff;fill-opacity:1;fill-rule:nonzero;stroke:none"
             id="path3737"
             inkscape:connector-curvature="0" /></g><path
           d="m 64.535,122.428 h 11.583 v 17.225 H 64.535 Z m 35.928,-16.893 c 0,-2.614 -0.082,-5.088 -0.245,-7.425 -0.164,-2.338 -0.564,-4.509 -1.203,-6.515 -0.638,-2.006 -1.603,-3.8 -2.895,-5.383 -1.293,-1.582 -3.061,-2.934 -5.301,-4.057 -2.242,-1.123 -5.04,-1.987 -8.394,-2.595 -3.354,-0.606 -7.436,-0.91 -12.246,-0.91 -4.908,0 -9.057,0.331 -12.443,0.993 -3.387,0.663 -6.193,1.546 -8.417,2.651 -2.226,1.103 -3.96,2.381 -5.203,3.836 -1.244,1.454 -2.161,2.981 -2.749,4.582 -0.589,1.601 -0.941,3.21 -1.055,4.831 -0.115,1.619 -0.172,3.165 -0.172,4.637 v 33.124 c 0,1.472 0.057,3.018 0.172,4.637 0.114,1.619 0.466,3.221 1.055,4.804 0.588,1.582 1.505,3.099 2.749,4.554 1.243,1.454 2.977,2.733 5.203,3.836 2.224,1.105 5.03,1.989 8.417,2.651 3.386,0.662 7.535,0.994 12.443,0.994 4.777,0 8.851,-0.332 12.222,-0.994 3.37,-0.662 6.176,-1.546 8.418,-2.651 2.24,-1.103 4.008,-2.382 5.301,-3.836 1.292,-1.455 2.265,-2.972 2.919,-4.554 0.655,-1.583 1.064,-3.194 1.228,-4.831 0.163,-1.638 0.245,-3.174 0.245,-4.61 V 112.601 H 64.535 V 93.776 h 11.583 v 11.704 z"
           style="fill:#99d420;fill-opacity:1;fill-rule:nonzero;stroke:none"
           id="path3739"
           inkscape:connector-curvature="0" /><g
           id="g3741"
           transform="translate(174.0395,152.4059)"><path
             d="m 0,0 v -71.769 h -20.174 l -2.258,9.22 c -0.85,-1.915 -1.963,-3.598 -3.338,-5.052 -1.374,-1.454 -2.912,-2.669 -4.613,-3.643 -1.702,-0.975 -3.517,-1.712 -5.448,-2.208 -1.932,-0.497 -3.895,-0.746 -5.89,-0.746 -2.324,0 -4.606,0.424 -6.847,1.27 -2.243,0.847 -4.239,2.125 -5.989,3.837 -1.751,1.711 -3.158,3.873 -4.22,6.487 -1.065,2.613 -1.596,5.666 -1.596,9.164 V 0 h 24.394 v -58.685 h 11.584 V 0 Z"
             style="fill:#99d420;fill-opacity:1;fill-rule:nonzero;stroke:none"
             id="path3743"
             inkscape:connector-curvature="0" /></g><g
           id="g3745"
           transform="translate(188.3715,80.6373)"><path
             d="m 0,0 v 71.769 h 19.683 l 2.749,-11.318 c 0.326,1.84 0.834,3.459 1.521,4.859 0.687,1.397 1.48,2.602 2.38,3.615 0.9,1.012 1.873,1.849 2.921,2.513 1.047,0.662 2.094,1.186 3.142,1.573 1.046,0.386 2.061,0.662 3.042,0.828 0.982,0.165 1.849,0.266 2.602,0.304 V 52.391 L 24.395,47.975 V 0 Z"
             style="fill:#99d420;fill-opacity:1;fill-rule:nonzero;stroke:none"
             id="path3747"
             inkscape:connector-curvature="0" /></g><path
           d="m 261.605,122.428 h 11.583 v 17.225 h -11.583 z m 35.929,-16.893 c 0,-2.614 -0.082,-5.088 -0.246,-7.425 -0.164,-2.338 -0.564,-4.509 -1.203,-6.515 -0.637,-2.006 -1.603,-3.8 -2.895,-5.383 -1.293,-1.582 -3.061,-2.934 -5.301,-4.057 -2.242,-1.123 -5.04,-1.987 -8.393,-2.595 -3.355,-0.606 -7.437,-0.91 -12.247,-0.91 -4.908,0 -9.056,0.331 -12.443,0.993 -3.387,0.663 -6.192,1.546 -8.417,2.651 -2.226,1.103 -3.96,2.381 -5.203,3.836 -1.244,1.454 -2.16,2.981 -2.749,4.582 -0.589,1.601 -0.94,3.21 -1.055,4.831 -0.115,1.619 -0.172,3.165 -0.172,4.637 v 33.124 c 0,1.472 0.057,3.018 0.172,4.637 0.115,1.619 0.466,3.221 1.055,4.804 0.589,1.582 1.505,3.099 2.749,4.554 1.243,1.454 2.977,2.733 5.203,3.836 2.225,1.105 5.03,1.989 8.417,2.651 3.387,0.662 7.535,0.994 12.443,0.994 4.778,0 8.851,-0.332 12.222,-0.994 3.37,-0.662 6.176,-1.546 8.418,-2.651 2.24,-1.103 4.008,-2.382 5.301,-3.836 1.292,-1.455 2.265,-2.972 2.92,-4.554 0.654,-1.583 1.063,-3.194 1.227,-4.831 0.163,-1.638 0.245,-3.174 0.245,-4.61 V 112.601 H 261.605 V 93.776 h 11.583 v 11.704 z"
           style="fill:#99d420;fill-opacity:1;fill-rule:nonzero;stroke:none"
           id="path3749"
           inkscape:connector-curvature="0" /></g></g><path
       d="m 282.11857,157.66374 h 69.85997 v 0.8465 h -69.85997 z"
       style="fill:#99d420;fill-opacity:1;fill-rule:nonzero;stroke:none;stroke-width:0.27271363"
       id="path3751"
       inkscape:connector-curvature="0" /><g
       id="g3753"
       transform="matrix(0.27271362,0,0,0.27271362,270.36652,112.21738)"><g
         id="g3755"
         clip-path="url(#clipPath3759)"><g
           id="g3761"
           transform="translate(52.0805,41.9928)"><path
             d="M 0,0 C 0.815,0.437 1.54,1.012 2.175,1.722 2.81,2.447 3.308,3.259 3.671,4.158 4.033,5.057 4.214,5.975 4.214,6.911 4.214,7.53 4.127,8.002 3.954,8.327 3.78,8.652 3.481,8.814 3.059,8.814 2.5,8.814 1.937,8.542 1.37,7.999 0.804,7.455 0.256,6.707 -0.272,5.756 -0.756,4.864 -1.194,3.852 -1.587,2.719 -1.979,1.586 -2.289,0.431 -2.516,-0.748 -1.654,-0.687 -0.816,-0.438 0,0 m -7.886,-10.899 c -1.314,1.223 -1.971,3.104 -1.971,5.642 0,0.951 0.094,2.009 0.283,3.172 0.189,1.163 0.472,2.326 0.849,3.49 0.423,1.299 0.964,2.53 1.621,3.694 0.657,1.163 1.423,2.189 2.3,3.081 2.024,2.054 4.517,3.082 7.478,3.082 1.888,0 3.263,-0.453 4.124,-1.36 C 7.462,9.191 7.794,8.165 7.794,6.82 7.794,5.506 7.507,4.271 6.934,3.115 6.359,1.96 5.566,0.937 4.554,0.045 3.542,-0.831 2.394,-1.529 1.11,-2.051 c -1.284,-0.521 -2.614,-0.827 -3.988,-0.918 -0.076,-0.785 -0.113,-1.404 -0.113,-1.857 0,-1.511 0.286,-2.554 0.861,-3.127 0.498,-0.514 1.329,-0.771 2.492,-0.771 1.677,0 3.21,0.453 4.6,1.36 0.589,0.377 1.155,0.827 1.699,1.348 0.544,0.521 1.179,1.182 1.903,1.983 h 1.587 c -1.465,-2.478 -3.15,-4.449 -5.053,-5.914 -2.342,-1.783 -4.91,-2.674 -7.704,-2.674 -2.282,0 -4.041,0.574 -5.28,1.722"
             style="fill:#ffffff;fill-opacity:1;fill-rule:nonzero;stroke:none"
             id="path3763"
             inkscape:connector-curvature="0" /></g><g
           id="g3765"
           transform="translate(73.1303,31.0025)"><path
             d="m 0,0 c -0.801,0.937 -1.201,2.138 -1.201,3.604 0,0.694 0.087,1.502 0.261,2.423 0.173,0.922 0.434,2.108 0.782,3.558 0.346,1.48 0.607,2.663 0.781,3.547 0.174,0.884 0.261,1.649 0.261,2.3 0,1.586 -0.559,2.379 -1.677,2.379 -0.785,0 -1.511,-0.416 -2.175,-1.247 -0.559,-0.71 -1.043,-1.722 -1.45,-3.036 l -3.15,-14.887 h -6.685 l 4.917,23.203 h 6.685 l -0.498,-2.402 c 0.906,1.012 1.88,1.722 2.922,2.13 0.771,0.302 1.602,0.453 2.493,0.453 1.571,0 2.81,-0.408 3.716,-1.223 0.967,-0.892 1.451,-2.229 1.451,-4.011 0,-1.073 -0.197,-2.47 -0.59,-4.192 C 6.737,12.101 6.563,11.353 6.322,10.355 5.884,8.679 5.566,7.342 5.37,6.345 5.249,5.711 5.189,5.197 5.189,4.804 c 0,-0.619 0.139,-1.099 0.419,-1.439 0.28,-0.34 0.759,-0.51 1.439,-0.51 0.922,0 1.7,0.377 2.334,1.133 0.483,0.574 1.005,1.564 1.563,2.969 h 1.95 C 11.745,3.558 10.295,1.179 8.543,-0.181 7.304,-1.147 5.876,-1.631 4.26,-1.631 2.342,-1.631 0.921,-1.087 0,0"
             style="fill:#ffffff;fill-opacity:1;fill-rule:nonzero;stroke:none"
             id="path3767"
             inkscape:connector-curvature="0" /></g><g
           id="g3769"
           transform="translate(105.3969,61.4342)"><path
             d="m 0,0 c -2.13,-0.756 -3.735,-1.922 -4.814,-3.501 -1.082,-1.578 -1.621,-3.509 -1.621,-5.789 0,-0.997 0.11,-1.907 0.329,-2.731 0.218,-0.823 0.524,-1.492 0.918,-2.005 -1.995,0 -3.46,0.404 -4.397,1.213 -0.936,0.807 -1.404,2.081 -1.404,3.818 0,2.144 0.649,4.177 1.948,6.095 1.238,1.828 2.923,3.3 5.053,4.419 2.19,1.117 4.554,1.676 7.092,1.676 0.71,0 1.333,-0.049 1.87,-0.147 C 5.51,2.949 6.11,2.787 6.775,2.561 l 5.597,-24.834 5.19,25.196 H 22.07 L 14.502,-31.791 H 8.09 L 2.72,-8.769 -2.583,-31.791 h -4.396 z"
             style="fill:#ffffff;fill-opacity:1;fill-rule:nonzero;stroke:none"
             id="path3771"
             inkscape:connector-curvature="0" /></g><g
           id="g3773"
           transform="translate(135.4321,34.3678)"><path
             d="m 0,0 c 0.566,0.491 1.099,1.175 1.598,2.051 0.498,0.876 0.928,1.903 1.291,3.082 0.363,1.178 0.634,2.439 0.816,3.784 -0.453,0.12 -0.774,0.347 -0.963,0.68 -0.189,0.332 -0.283,0.755 -0.283,1.268 0,0.635 0.128,1.163 0.385,1.586 0.257,0.423 0.612,0.733 1.065,0.93 -0.06,0.981 -0.22,1.683 -0.476,2.106 -0.136,0.212 -0.306,0.364 -0.51,0.453 -0.204,0.091 -0.464,0.137 -0.781,0.137 -1.043,0 -2.063,-0.786 -3.06,-2.356 C -1.839,12.3 -2.595,10.548 -3.184,8.463 -3.758,6.424 -4.045,4.611 -4.045,3.025 c 0,-0.77 0.042,-1.397 0.125,-1.88 0.083,-0.484 0.223,-0.862 0.419,-1.133 0.182,-0.273 0.415,-0.465 0.702,-0.578 0.287,-0.114 0.665,-0.17 1.134,-0.17 0.543,0 1.099,0.245 1.665,0.736 m -8.849,-3.229 c -1.404,1.239 -2.107,3.12 -2.107,5.642 0,0.952 0.099,2.006 0.295,3.161 0.196,1.155 0.498,2.322 0.906,3.501 0.937,2.81 2.274,5.053 4.011,6.73 2.099,2.054 4.599,3.082 7.5,3.082 3.973,0 5.96,-2.47 5.96,-7.41 v -0.045 c 0.091,-0.031 0.166,-0.045 0.226,-0.045 h 0.272 c 1.027,0 2.243,0.286 3.648,0.86 1.239,0.514 2.409,1.156 3.512,1.927 l 0.408,-1.27 C 14.876,11.953 13.709,11.145 12.281,10.48 10.854,9.815 9.279,9.339 7.557,9.053 7.376,6.952 6.968,5.038 6.333,3.309 5.699,1.578 4.883,0.095 3.886,-1.145 2.904,-2.353 1.778,-3.282 0.51,-3.932 c -1.269,-0.649 -2.614,-0.973 -4.033,-0.973 -2.297,0 -4.072,0.558 -5.326,1.676"
             style="fill:#ffffff;fill-opacity:1;fill-rule:nonzero;stroke:none"
             id="path3775"
             inkscape:connector-curvature="0" /></g><g
           id="g3777"
           transform="translate(148.6537,52.8463)"><path
             d="M 0,0 H 6.685 L 6.096,-2.878 c 1.056,0.937 1.918,1.602 2.583,1.994 C 9.706,-0.294 10.71,0 11.692,0 c 0.997,0 1.797,-0.354 2.402,-1.064 0.272,-0.318 0.476,-0.684 0.612,-1.1 0.136,-0.415 0.204,-0.857 0.204,-1.325 0,-0.423 -0.068,-0.831 -0.204,-1.224 -0.136,-0.392 -0.34,-0.748 -0.612,-1.065 -0.302,-0.332 -0.668,-0.597 -1.099,-0.793 -0.431,-0.197 -0.91,-0.294 -1.438,-0.294 -0.409,0 -0.734,0.067 -0.975,0.203 -0.242,0.137 -0.431,0.333 -0.566,0.59 -0.121,0.257 -0.204,0.506 -0.249,0.747 -0.137,0.649 -0.273,1.08 -0.409,1.292 -0.106,0.15 -0.272,0.226 -0.499,0.226 -0.649,0 -1.2,-0.135 -1.653,-0.408 C 6.752,-4.486 6.178,-4.939 5.483,-5.574 L 1.768,-23.203 h -6.685 z"
             style="fill:#ffffff;fill-opacity:1;fill-rule:nonzero;stroke:none"
             id="path3779"
             inkscape:connector-curvature="0" /></g><g
           id="g3781"
           transform="translate(186.9028,31.0025)"><path
             d="m 0,0 c -0.801,0.937 -1.201,2.138 -1.201,3.604 0,0.694 0.087,1.502 0.261,2.423 0.173,0.922 0.433,2.108 0.781,3.558 0.347,1.48 0.608,2.663 0.782,3.547 0.174,0.884 0.261,1.649 0.261,2.3 0,1.586 -0.56,2.379 -1.677,2.379 -0.786,0 -1.511,-0.416 -2.176,-1.247 -0.558,-0.71 -1.042,-1.722 -1.45,-3.036 L -7.568,-1.359 h -6.685 l 3.399,16.02 c 0.09,0.362 0.136,0.748 0.136,1.155 0,0.62 -0.098,1.096 -0.295,1.428 -0.257,0.408 -0.627,0.611 -1.11,0.611 -0.876,0 -1.639,-0.422 -2.288,-1.268 -0.574,-0.725 -1.066,-1.745 -1.473,-3.059 l -3.15,-14.887 h -6.685 l 4.917,23.203 h 6.685 l -0.498,-2.402 c 0.906,1.012 1.895,1.73 2.969,2.153 0.845,0.317 1.744,0.475 2.696,0.475 1.299,0 2.334,-0.301 3.104,-0.906 0.861,-0.68 1.412,-1.707 1.654,-3.082 0.997,1.541 2.145,2.629 3.444,3.264 0.922,0.453 1.926,0.679 3.014,0.679 1.555,0 2.787,-0.408 3.693,-1.223 0.967,-0.892 1.45,-2.229 1.45,-4.011 0,-1.013 -0.188,-2.41 -0.566,-4.192 C 6.691,11.858 6.511,11.111 6.299,10.355 5.922,8.905 5.611,7.568 5.37,6.345 5.249,5.711 5.188,5.197 5.188,4.804 c 0,-0.619 0.14,-1.099 0.42,-1.439 0.28,-0.34 0.759,-0.51 1.439,-0.51 0.921,0 1.699,0.377 2.334,1.133 0.483,0.574 1.005,1.564 1.563,2.969 h 1.949 C 11.745,3.558 10.295,1.179 8.542,-0.181 7.304,-1.147 5.876,-1.631 4.26,-1.631 2.341,-1.631 0.921,-1.087 0,0"
             style="fill:#ffffff;fill-opacity:1;fill-rule:nonzero;stroke:none"
             id="path3783"
             inkscape:connector-curvature="0" /></g><g
           id="g3785"
           transform="translate(207.5336,34.1295)"><path
             d="M 0,0 C 0.386,0.182 0.759,0.438 1.122,0.771 1.937,1.556 2.481,2.576 2.753,3.83 l 2.221,10.469 c 0,0.15 -0.035,0.328 -0.102,0.532 C 4.804,15.035 4.709,15.228 4.589,15.409 4.226,15.847 3.72,16.065 3.07,16.065 2.451,16.065 1.851,15.862 1.269,15.454 0.687,15.046 0.14,14.479 -0.374,13.755 -1.28,12.44 -2.028,10.726 -2.617,8.611 -2.889,7.674 -3.093,6.749 -3.229,5.835 -3.365,4.921 -3.433,4.094 -3.433,3.354 c 0,-1.541 0.287,-2.583 0.862,-3.127 0.195,-0.211 0.415,-0.348 0.656,-0.408 0.242,-0.06 0.514,-0.09 0.816,-0.09 0.347,0 0.714,0.09 1.099,0.271 m -8.396,-3.104 c -1.268,1.299 -1.903,3.233 -1.903,5.801 0,1.087 0.111,2.236 0.329,3.444 0.219,1.209 0.54,2.402 0.963,3.581 0.967,2.658 2.288,4.803 3.965,6.434 1.934,1.859 4.162,2.787 6.685,2.787 1.253,0 2.194,-0.214 2.821,-0.645 0.627,-0.431 0.94,-1.001 0.94,-1.711 v -0.34 l 0.498,2.47 h 6.685 L 9.257,2.946 C 9.12,2.493 9.053,1.994 9.053,1.45 c 0,-1.329 0.634,-1.993 1.903,-1.993 0.846,0 1.616,0.43 2.311,1.291 0.589,0.726 1.073,1.752 1.45,3.082 h 1.949 C 15.835,1.474 14.83,-0.393 13.652,-1.767 12.655,-2.9 11.529,-3.716 10.276,-4.214 9.354,-4.577 8.38,-4.758 7.353,-4.758 c -1.314,0 -2.361,0.359 -3.138,1.076 -0.778,0.717 -1.25,1.779 -1.416,3.184 -0.877,-1.239 -1.798,-2.206 -2.765,-2.9 -1.239,-0.907 -2.621,-1.36 -4.146,-1.36 -1.768,0 -3.196,0.551 -4.284,1.654"
             style="fill:#ffffff;fill-opacity:1;fill-rule:nonzero;stroke:none"
             id="path3787"
             inkscape:connector-curvature="0" /></g><g
           id="g3789"
           transform="translate(234.7367,31.0025)"><path
             d="m 0,0 c -0.801,0.937 -1.201,2.138 -1.201,3.604 0,0.694 0.087,1.502 0.261,2.423 0.172,0.922 0.433,2.108 0.781,3.558 0.347,1.48 0.608,2.663 0.782,3.547 0.173,0.884 0.261,1.649 0.261,2.3 0,1.586 -0.56,2.379 -1.677,2.379 -0.786,0 -1.511,-0.416 -2.176,-1.247 -0.558,-0.71 -1.042,-1.722 -1.45,-3.036 L -7.568,-1.359 h -6.685 l 4.917,23.203 h 6.685 L -3.15,19.442 c 0.907,1.012 1.88,1.722 2.923,2.13 0.771,0.302 1.601,0.453 2.493,0.453 1.571,0 2.809,-0.408 3.715,-1.223 0.967,-0.892 1.451,-2.229 1.451,-4.011 0,-1.073 -0.197,-2.47 -0.589,-4.192 C 6.737,12.101 6.563,11.353 6.321,10.355 5.883,8.679 5.566,7.342 5.37,6.345 5.249,5.711 5.188,5.197 5.188,4.804 c 0,-0.619 0.14,-1.099 0.419,-1.439 0.28,-0.34 0.76,-0.51 1.44,-0.51 0.921,0 1.699,0.377 2.334,1.133 0.483,0.574 1.004,1.564 1.563,2.969 h 1.949 C 11.744,3.558 10.294,1.179 8.542,-0.181 7.304,-1.147 5.876,-1.631 4.26,-1.631 2.341,-1.631 0.921,-1.087 0,0"
             style="fill:#ffffff;fill-opacity:1;fill-rule:nonzero;stroke:none"
             id="path3791"
             inkscape:connector-curvature="0" /></g><g
           id="g3793"
           transform="translate(255.3451,34.107)"><path
             d="M 0,0 C 0.385,0.166 0.751,0.4 1.099,0.703 1.915,1.442 2.458,2.409 2.73,3.604 v 0.249 l 2.266,10.626 c -0.105,0.423 -0.257,0.763 -0.453,1.02 -0.317,0.393 -0.801,0.589 -1.45,0.589 -0.619,0 -1.22,-0.203 -1.802,-0.611 C 0.71,15.068 0.162,14.502 -0.352,13.777 -1.258,12.463 -2.006,10.748 -2.595,8.634 -2.866,7.696 -3.07,6.771 -3.206,5.857 -3.343,4.943 -3.41,4.116 -3.41,3.377 c 0,-1.541 0.286,-2.584 0.861,-3.128 0.195,-0.211 0.415,-0.348 0.656,-0.407 0.243,-0.061 0.514,-0.091 0.817,-0.091 0.332,0 0.69,0.083 1.076,0.249 m -8.373,-3.081 c -1.269,1.299 -1.903,3.232 -1.903,5.801 0,1.087 0.11,2.235 0.329,3.443 0.218,1.209 0.54,2.402 0.963,3.581 0.966,2.658 2.288,4.804 3.964,6.435 1.934,1.858 4.163,2.787 6.685,2.787 1.254,0 2.194,-0.215 2.821,-0.646 0.627,-0.43 0.941,-1.001 0.941,-1.711 V 16.428 L 7.692,27.101 14.559,28.029 9.233,2.969 C 9.098,2.516 9.029,2.017 9.029,1.473 c 0,-0.634 0.152,-1.08 0.453,-1.337 0.303,-0.257 0.786,-0.385 1.451,-0.385 0.861,0 1.631,0.385 2.311,1.155 0.574,0.68 1.058,1.662 1.45,2.947 h 1.95 C 15.827,1.525 14.822,-0.31 13.63,-1.654 12.617,-2.771 11.491,-3.55 10.253,-3.987 9.361,-4.305 8.388,-4.464 7.33,-4.464 c -1.284,0 -2.319,0.34 -3.104,1.02 -0.786,0.679 -1.269,1.669 -1.451,2.968 -0.831,-1.253 -1.729,-2.22 -2.696,-2.9 -1.254,-0.906 -2.643,-1.359 -4.169,-1.359 -1.767,0 -3.195,0.55 -4.283,1.654"
             style="fill:#ffffff;fill-opacity:1;fill-rule:nonzero;stroke:none"
             id="path3795"
             inkscape:connector-curvature="0" /></g><g
           id="g3797"
           transform="translate(276.3607,55.6451)"><path
             d="m 0,0 c -0.453,0.188 -0.846,0.449 -1.178,0.781 -0.333,0.318 -0.593,0.703 -0.782,1.156 -0.188,0.454 -0.283,0.929 -0.283,1.427 0,0.499 0.095,0.975 0.283,1.428 0.189,0.453 0.449,0.854 0.782,1.201 C -0.846,6.341 -0.453,6.608 0,6.798 0.453,6.986 0.93,7.081 1.428,7.081 1.927,7.081 2.402,6.986 2.855,6.798 3.309,6.608 3.709,6.341 4.057,5.993 4.403,5.646 4.672,5.245 4.86,4.792 5.05,4.339 5.145,3.863 5.145,3.364 5.145,2.866 5.05,2.391 4.86,1.937 4.672,1.484 4.403,1.099 4.057,0.781 3.709,0.449 3.309,0.188 2.855,0 2.402,-0.189 1.927,-0.283 1.428,-0.283 0.93,-0.283 0.453,-0.189 0,0 m -5.234,-24.959 c -0.967,0.966 -1.45,2.379 -1.45,4.237 0,0.876 0.121,1.888 0.363,3.036 l 3.149,14.887 H 3.513 L 0.182,-18.569 C 0.061,-18.963 0,-19.461 0,-20.065 c 0,-0.634 0.147,-1.081 0.442,-1.337 0.295,-0.257 0.774,-0.385 1.439,-0.385 0.453,0 0.895,0.101 1.326,0.306 0.431,0.204 0.827,0.487 1.189,0.849 0.741,0.74 1.299,1.723 1.677,2.946 h 1.948 c -0.831,-2.341 -1.873,-4.207 -3.126,-5.596 -1.058,-1.134 -2.251,-1.949 -3.581,-2.447 -0.966,-0.364 -1.978,-0.544 -3.036,-0.544 -1.48,0 -2.651,0.437 -3.512,1.314"
             style="fill:#ffffff;fill-opacity:1;fill-rule:nonzero;stroke:none"
             id="path3799"
             inkscape:connector-curvature="0" /></g><g
           id="g3801"
           transform="translate(291.6791,41.9928)"><path
             d="M 0,0 C 0.815,0.437 1.541,1.012 2.176,1.722 2.81,2.447 3.309,3.259 3.671,4.158 4.033,5.057 4.215,5.975 4.215,6.911 4.215,7.53 4.128,8.002 3.954,8.327 3.78,8.652 3.481,8.814 3.06,8.814 2.5,8.814 1.937,8.542 1.371,7.999 0.805,7.455 0.257,6.707 -0.271,5.756 -0.756,4.864 -1.193,3.852 -1.586,2.719 -1.979,1.586 -2.288,0.431 -2.515,-0.748 -1.654,-0.687 -0.815,-0.438 0,0 m -7.886,-10.899 c -1.313,1.223 -1.97,3.104 -1.97,5.642 0,0.951 0.094,2.009 0.283,3.172 0.188,1.163 0.471,2.326 0.849,3.49 0.423,1.299 0.963,2.53 1.62,3.694 0.658,1.163 1.424,2.189 2.3,3.081 2.025,2.054 4.517,3.082 7.478,3.082 1.888,0 3.263,-0.453 4.124,-1.36 C 7.463,9.191 7.795,8.165 7.795,6.82 7.795,5.506 7.508,4.271 6.934,3.115 6.359,1.96 5.566,0.937 4.555,0.045 3.542,-0.831 2.395,-1.529 1.11,-2.051 c -1.284,-0.521 -2.613,-0.827 -3.988,-0.918 -0.075,-0.785 -0.113,-1.404 -0.113,-1.857 0,-1.511 0.287,-2.554 0.861,-3.127 0.498,-0.514 1.329,-0.771 2.492,-0.771 1.677,0 3.21,0.453 4.601,1.36 0.589,0.377 1.155,0.827 1.699,1.348 0.544,0.521 1.178,1.182 1.903,1.983 h 1.586 C 8.686,-6.511 7.002,-8.482 5.099,-9.947 c -2.342,-1.783 -4.911,-2.674 -7.704,-2.674 -2.282,0 -4.041,0.574 -5.281,1.722"
             style="fill:#ffffff;fill-opacity:1;fill-rule:nonzero;stroke:none"
             id="path3803"
             inkscape:connector-curvature="0" /></g><g
           id="g3805"
           transform="translate(459.2426,211.9576)"><path
             d="m 0,0 h 5.646 c 1.866,0 3.277,0.508 4.234,1.526 0.955,1.017 1.433,2.314 1.433,3.89 0,1.606 -0.478,2.934 -1.433,3.982 C 8.923,10.445 7.512,10.97 5.646,10.97 H 0 Z m 5.646,16.133 c 3.824,0 6.841,-0.983 9.052,-2.949 2.211,-1.966 3.317,-4.54 3.317,-7.722 0,-3.198 -1.106,-5.768 -3.317,-7.711 C 12.487,-4.192 9.47,-5.164 5.646,-5.164 H 0 v -7.412 l 3.58,-0.689 v -4.016 h -13.839 v 4.016 l 3.558,0.689 v 23.982 l -3.558,0.688 v 4.039 h 3.558 z"
             style="fill:#ffffff;fill-opacity:1;fill-rule:nonzero;stroke:none"
             id="path3807"
             inkscape:connector-curvature="0" /></g><g
           id="g3809"
           transform="translate(478.8412,226.4386)"><path
             d="m 0,0 v 4.039 h 10.281 v -31.096 l 3.237,-0.689 v -4.016 H 0.344 v 4.016 l 3.236,0.689 v 26.369 z"
             style="fill:#ffffff;fill-opacity:1;fill-rule:nonzero;stroke:none"
             id="path3811"
             inkscape:connector-curvature="0" /></g><g
           id="g3813"
           transform="translate(504.5443,199.1519)"><path
             d="M 0,0 C 1.01,0 1.928,0.218 2.754,0.654 3.58,1.09 4.223,1.637 4.682,2.295 V 6.082 H 1.262 C -0.16,6.082 -1.239,5.749 -1.974,5.083 -2.708,4.417 -3.075,3.618 -3.075,2.685 -3.075,1.843 -2.804,1.186 -2.26,0.711 -1.718,0.237 -0.964,0 0,0 M 5.807,-4.475 C 5.623,-4.062 5.462,-3.637 5.324,-3.202 5.187,-2.765 5.079,-2.326 5.003,-1.882 4.207,-2.8 3.239,-3.542 2.1,-4.108 0.96,-4.674 -0.344,-4.957 -1.812,-4.957 c -2.434,0 -4.366,0.662 -5.795,1.985 -1.432,1.323 -2.147,3.125 -2.147,5.405 0,2.325 0.934,4.123 2.801,5.393 1.865,1.269 4.604,1.904 8.215,1.904 h 3.42 v 2.433 c 0,1.193 -0.344,2.119 -1.034,2.777 -0.687,0.658 -1.705,0.987 -3.051,0.987 -0.765,0 -1.447,-0.089 -2.042,-0.264 -0.598,-0.176 -1.079,-0.387 -1.447,-0.631 L -3.328,12.37 h -5.049 l 0.023,5.507 c 1.224,0.827 2.627,1.522 4.211,2.089 1.584,0.566 3.309,0.849 5.176,0.849 3.074,0 5.572,-0.754 7.492,-2.261 1.92,-1.507 2.881,-3.653 2.881,-6.437 V 1.859 c 0,-0.383 0.003,-0.742 0.012,-1.079 0.007,-0.337 0.033,-0.658 0.08,-0.964 l 2.042,-0.275 v -4.016 z"
             style="fill:#ffffff;fill-opacity:1;fill-rule:nonzero;stroke:none"
             id="path3815"
             inkscape:connector-curvature="0" /></g><g
           id="g3817"
           transform="translate(532.0151,199.3355)"><path
             d="M 0,0 C 1.193,0 2.148,0.348 2.868,1.044 3.587,1.74 3.947,2.669 3.947,3.833 h 6.059 L 10.074,3.695 C 10.135,1.186 9.194,-0.915 7.252,-2.605 5.309,-4.295 2.891,-5.141 0,-5.141 c -3.703,0 -6.557,1.171 -8.561,3.512 -2.003,2.34 -3.005,5.347 -3.005,9.019 v 0.688 c 0,3.656 1.028,6.663 3.086,9.019 2.057,2.356 4.992,3.534 8.8,3.534 2.004,0 3.803,-0.298 5.394,-0.895 1.591,-0.596 2.915,-1.438 3.97,-2.524 L 9.775,10.58 H 4.337 l -1.102,3.878 c -0.337,0.291 -0.75,0.531 -1.239,0.723 -0.49,0.191 -1.049,0.287 -1.676,0.287 -1.896,0 -3.235,-0.689 -4.015,-2.066 -0.781,-1.377 -1.17,-3.152 -1.17,-5.324 V 7.39 c 0,-2.219 0.359,-4.005 1.078,-5.359 C -3.068,0.677 -1.807,0 0,0"
             style="fill:#ffffff;fill-opacity:1;fill-rule:nonzero;stroke:none"
             id="path3819"
             inkscape:connector-curvature="0" /></g><g
           id="g3821"
           transform="translate(556.4096,214.8033)"><path
             d="m 0,0 c -1.239,0 -2.219,-0.475 -2.938,-1.423 -0.718,-0.949 -1.163,-2.196 -1.331,-3.741 l 0.07,-0.114 h 8.215 v 0.596 c 0,1.423 -0.332,2.559 -0.998,3.408 C 2.352,-0.424 1.346,0 0,0 m 0.597,-20.608 c -3.58,0 -6.442,1.147 -8.583,3.442 -2.143,2.295 -3.213,5.209 -3.213,8.744 v 0.918 c 0,3.687 1.013,6.724 3.041,9.11 2.027,2.387 4.746,3.573 8.158,3.558 3.351,0 5.951,-1.01 7.803,-3.03 1.851,-2.019 2.777,-4.75 2.777,-8.193 V -9.708 H -4.246 l -0.045,-0.137 c 0.121,-1.637 0.668,-2.984 1.641,-4.039 0.97,-1.056 2.291,-1.584 3.959,-1.584 1.483,0 2.714,0.149 3.694,0.448 0.979,0.298 2.05,0.769 3.213,1.411 l 1.813,-4.131 c -1.025,-0.811 -2.353,-1.491 -3.982,-2.042 -1.629,-0.551 -3.446,-0.826 -5.45,-0.826"
             style="fill:#ffffff;fill-opacity:1;fill-rule:nonzero;stroke:none"
             id="path3823"
             inkscape:connector-curvature="0" /></g><g
           id="g3825"
           transform="translate(579.0366,199.8175)"><path
             d="m 0,0 h 6.932 l 0.275,3.305 h 5.117 V -5.141 H -8.307 v 3.948 L 3.512,14.504 H -2.57 l -0.252,-3.282 h -5.141 v 8.468 h 19.875 v -3.832 z"
             style="fill:#ffffff;fill-opacity:1;fill-rule:nonzero;stroke:none"
             id="path3827"
             inkscape:connector-curvature="0" /></g><g
           id="g3829"
           transform="translate(422.3178,159.0689)"><path
             d="m 0,0 -2.342,-0.436 3.282,-11.108 0.437,-2.34 h 0.137 l 0.482,2.34 L 5.232,-0.459 2.846,0 V 4.039 H 14.113 V 0 L 11.956,-0.344 4.635,-20.792 H -1.768 L -9.111,-0.344 -11.269,0 V 4.039 H 0 Z"
             style="fill:#ffffff;fill-opacity:1;fill-rule:nonzero;stroke:none"
             id="path3831"
             inkscape:connector-curvature="0" /></g><g
           id="g3833"
           transform="translate(444.9223,150.44)"><path
             d="m 0,0 c 0,-2.265 0.397,-4.081 1.193,-5.45 0.796,-1.369 2.081,-2.055 3.856,-2.055 1.728,0 2.995,0.69 3.798,2.067 0.802,1.376 1.205,3.189 1.205,5.438 v 0.481 c 0,2.204 -0.406,4.001 -1.217,5.394 C 8.024,7.267 6.747,7.963 5.003,7.963 3.259,7.963 1.989,7.267 1.193,5.875 0.397,4.482 0,2.685 0,0.481 Z m -6.701,0.481 c 0,3.703 1.036,6.737 3.11,9.1 2.072,2.364 4.938,3.546 8.594,3.546 3.672,0 6.544,-1.178 8.617,-3.534 C 15.693,7.236 16.729,4.2 16.729,0.481 V 0 c 0,-3.733 -1.036,-6.774 -3.109,-9.122 -2.073,-2.35 -4.93,-3.524 -8.571,-3.524 -3.688,0 -6.568,1.174 -8.64,3.524 -2.074,2.348 -3.11,5.389 -3.11,9.122 z"
             style="fill:#ffffff;fill-opacity:1;fill-rule:nonzero;stroke:none"
             id="path3835"
             inkscape:connector-curvature="0" /></g><g
           id="g3837"
           transform="translate(474.4584,169.1895)"><path
             d="m 0,0 v -6.082 h 4.359 v -4.704 H 0 v -12.645 c 0,-0.964 0.198,-1.652 0.596,-2.066 0.398,-0.413 0.933,-0.619 1.607,-0.619 0.459,0 0.86,0.019 1.205,0.057 0.344,0.038 0.73,0.103 1.158,0.195 l 0.575,-4.842 c -0.75,-0.23 -1.493,-0.402 -2.227,-0.516 -0.734,-0.115 -1.53,-0.173 -2.387,-0.173 -2.31,0 -4.089,0.635 -5.336,1.905 -1.247,1.27 -1.87,3.282 -1.87,6.036 v 12.668 h -3.649 v 4.704 h 3.649 V 0 Z"
             style="fill:#ffffff;fill-opacity:1;fill-rule:nonzero;stroke:none"
             id="path3839"
             inkscape:connector-curvature="0" /></g><g
           id="g3841"
           transform="translate(482.6049,142.2926)"><path
             d="m 0,0 3.213,0.689 v 15.399 l -3.557,0.688 v 4.039 h 9.799 l 0.299,-3.626 c 0.58,1.286 1.33,2.288 2.248,3.007 0.918,0.719 1.981,1.078 3.19,1.078 0.352,0 0.724,-0.026 1.113,-0.08 0.39,-0.054 0.716,-0.119 0.976,-0.195 l -0.712,-6.104 -2.754,0.068 c -0.979,0 -1.79,-0.191 -2.432,-0.573 C 10.74,14.007 10.25,13.464 9.914,12.76 V 0.689 L 13.127,0 V -4.016 H 0 Z"
             style="fill:#ffffff;fill-opacity:1;fill-rule:nonzero;stroke:none"
             id="path3843"
             inkscape:connector-curvature="0" /></g><g
           id="g3845"
           transform="translate(512.7377,158.4034)"><path
             d="M 0,0 C -1.24,0 -2.219,-0.475 -2.938,-1.423 -3.657,-2.372 -4.102,-3.619 -4.27,-5.164 l 0.07,-0.115 h 8.216 v 0.598 c 0,1.422 -0.333,2.558 -0.998,3.407 C 2.352,-0.424 1.346,0 0,0 m 0.596,-20.609 c -3.58,0 -6.442,1.149 -8.582,3.443 -2.143,2.295 -3.213,5.209 -3.213,8.744 v 0.918 c 0,3.687 1.012,6.724 3.04,9.11 2.027,2.387 4.747,3.573 8.159,3.558 3.35,0 5.951,-1.01 7.803,-3.03 1.85,-2.019 2.776,-4.75 2.776,-8.192 v -3.65 H -4.246 l -0.046,-0.137 c 0.122,-1.637 0.669,-2.984 1.641,-4.039 0.971,-1.056 2.291,-1.584 3.959,-1.584 1.483,0 2.715,0.149 3.694,0.448 0.979,0.298 2.051,0.769 3.213,1.411 l 1.813,-4.131 c -1.025,-0.81 -2.352,-1.492 -3.981,-2.043 -1.63,-0.55 -3.447,-0.826 -5.451,-0.826"
             style="fill:#ffffff;fill-opacity:1;fill-rule:nonzero;stroke:none"
             id="path3847"
             inkscape:connector-curvature="0" /></g><g
           id="g3849"
           transform="translate(537.2924,170.0387)"><path
             d="m 0,0 v 4.039 h 10.281 v -31.096 l 3.237,-0.689 v -4.016 H 0.345 v 4.016 l 3.235,0.689 v 26.369 z"
             style="fill:#ffffff;fill-opacity:1;fill-rule:nonzero;stroke:none"
             id="path3851"
             inkscape:connector-curvature="0" /></g><g
           id="g3853"
           transform="translate(559.2319,150.44)"><path
             d="m 0,0 c 0,-2.265 0.398,-4.081 1.193,-5.45 0.796,-1.369 2.081,-2.055 3.856,-2.055 1.728,0 2.995,0.69 3.799,2.067 0.802,1.376 1.205,3.189 1.205,5.438 v 0.481 c 0,2.204 -0.407,4.001 -1.217,5.394 C 8.025,7.267 6.748,7.963 5.004,7.963 3.26,7.963 1.989,7.267 1.193,5.875 0.398,4.482 0,2.685 0,0.481 Z m -6.701,0.481 c 0,3.703 1.037,6.737 3.11,9.1 2.073,2.364 4.938,3.546 8.595,3.546 3.672,0 6.543,-1.178 8.617,-3.534 C 15.693,7.236 16.73,4.2 16.73,0.481 V 0 c 0,-3.733 -1.037,-6.774 -3.109,-9.122 -2.074,-2.35 -4.931,-3.524 -8.572,-3.524 -3.688,0 -6.567,1.174 -8.64,3.524 -2.073,2.348 -3.11,5.389 -3.11,9.122 z"
             style="fill:#ffffff;fill-opacity:1;fill-rule:nonzero;stroke:none"
             id="path3855"
             inkscape:connector-curvature="0" /></g><g
           id="g3857"
           transform="translate(585.9916,150.0035)"><path
             d="m 0,0 c 0,-2.172 0.367,-3.882 1.102,-5.129 0.734,-1.247 1.927,-1.87 3.58,-1.87 1.025,0 1.892,0.187 2.605,0.562 0.711,0.375 1.281,0.921 1.709,1.641 V 5.99 C 8.568,6.74 7.998,7.321 7.287,7.734 6.574,8.147 5.723,8.354 4.727,8.354 3.09,8.354 1.893,7.627 1.137,6.174 0.379,4.72 0,2.823 0,0.482 Z m -6.701,0.482 c 0,3.917 0.853,7.076 2.558,9.478 1.705,2.402 4.096,3.603 7.172,3.603 1.393,0 2.616,-0.309 3.672,-0.929 1.055,-0.619 1.959,-1.503 2.707,-2.651 l 0.483,3.121 h 5.83 v -24.096 c 0,-3.274 -1.03,-5.887 -3.088,-7.837 -2.057,-1.951 -4.885,-2.927 -8.479,-2.927 -1.256,0 -2.586,0.173 -3.994,0.517 -1.408,0.344 -2.707,0.815 -3.9,1.411 l 1.238,4.705 c 1.07,-0.459 2.143,-0.822 3.213,-1.09 1.07,-0.267 2.203,-0.402 3.396,-0.402 1.637,0 2.862,0.498 3.672,1.492 0.811,0.994 1.217,2.379 1.217,4.154 v 1.629 c -0.734,-0.933 -1.6,-1.644 -2.594,-2.135 -0.994,-0.488 -2.134,-0.734 -3.42,-0.734 -3.043,0 -5.42,1.121 -7.125,3.362 -1.705,2.242 -2.558,5.191 -2.558,8.847 z"
             style="fill:#ffffff;fill-opacity:1;fill-rule:nonzero;stroke:none"
             id="path3859"
             inkscape:connector-curvature="0" /></g><g
           id="g3861"
           transform="translate(612.4272,150.44)"><path
             d="m 0,0 c 0,-2.265 0.398,-4.081 1.193,-5.45 0.797,-1.369 2.082,-2.055 3.856,-2.055 1.73,0 2.996,0.69 3.799,2.067 0.802,1.376 1.205,3.189 1.205,5.438 v 0.481 c 0,2.204 -0.407,4.001 -1.217,5.394 C 8.025,7.267 6.748,7.963 5.004,7.963 3.26,7.963 1.99,7.267 1.193,5.875 0.398,4.482 0,2.685 0,0.481 Z m -6.701,0.481 c 0,3.703 1.037,6.737 3.111,9.1 2.072,2.364 4.938,3.546 8.594,3.546 3.672,0 6.545,-1.178 8.617,-3.534 C 15.693,7.236 16.73,4.2 16.73,0.481 V 0 c 0,-3.733 -1.037,-6.774 -3.109,-9.122 -2.072,-2.35 -4.93,-3.524 -8.572,-3.524 -3.686,0 -6.567,1.174 -8.639,3.524 -2.074,2.348 -3.111,5.389 -3.111,9.122 z"
             style="fill:#ffffff;fill-opacity:1;fill-rule:nonzero;stroke:none"
             id="path3863"
             inkscape:connector-curvature="0" /></g><g
           id="g3865"
           transform="translate(389.9818,93.6041)"><path
             d="m 0,0 c 0,-2.173 0.363,-3.882 1.09,-5.13 0.726,-1.246 1.916,-1.869 3.568,-1.869 0.98,0 1.828,0.198 2.548,0.596 0.719,0.398 1.308,0.971 1.767,1.721 V 5.853 C 8.514,6.647 7.93,7.263 7.217,7.7 6.506,8.136 5.668,8.354 4.705,8.354 3.067,8.354 1.874,7.626 1.125,6.173 0.375,4.72 0,2.823 0,0.481 Z m 9.363,-8.698 c -0.78,-1.147 -1.702,-2.02 -2.765,-2.615 -1.064,-0.598 -2.276,-0.896 -3.638,-0.896 -3.06,0 -5.435,1.116 -7.126,3.351 -1.69,2.233 -2.535,5.186 -2.535,8.858 v 0.481 c 0,3.917 0.849,7.077 2.547,9.479 1.698,2.402 4.085,3.603 7.16,3.603 1.24,0 2.356,-0.272 3.351,-0.814 0.995,-0.544 1.866,-1.312 2.616,-2.307 v 8.905 l -3.58,0.687 v 4.039 h 3.58 6.701 V -7.022 l 3.213,-0.689 v -4.017 H 9.868 Z"
             style="fill:#ffffff;fill-opacity:1;fill-rule:nonzero;stroke:none"
             id="path3867"
             inkscape:connector-curvature="0" /></g><g
           id="g3869"
           transform="translate(422.2943,102.0035)"><path
             d="m 0,0 c -1.239,0 -2.219,-0.475 -2.938,-1.423 -0.718,-0.948 -1.163,-2.196 -1.331,-3.741 l 0.07,-0.114 h 8.215 v 0.596 c 0,1.423 -0.332,2.559 -0.998,3.409 C 2.352,-0.424 1.346,0 0,0 m 0.597,-20.608 c -3.58,0 -6.442,1.147 -8.583,3.442 -2.143,2.295 -3.213,5.209 -3.213,8.744 v 0.918 c 0,3.687 1.013,6.724 3.041,9.11 2.027,2.387 4.746,3.573 8.158,3.558 3.351,0 5.951,-1.01 7.803,-3.029 1.851,-2.02 2.777,-4.751 2.777,-8.194 V -9.707 H -4.246 l -0.045,-0.139 c 0.121,-1.636 0.668,-2.982 1.641,-4.039 0.97,-1.054 2.291,-1.583 3.959,-1.583 1.483,0 2.714,0.15 3.694,0.448 0.979,0.297 2.05,0.768 3.213,1.411 l 1.813,-4.131 c -1.025,-0.811 -2.353,-1.491 -3.982,-2.042 -1.629,-0.551 -3.446,-0.826 -5.45,-0.826"
             style="fill:#ffffff;fill-opacity:1;fill-rule:nonzero;stroke:none"
             id="path3871"
             inkscape:connector-curvature="0" /></g><g
           id="g3873"
           transform="translate(467.8256,98.1715)"><path
             d="m 0,0 h -4.498 l -0.711,3.098 c -0.459,0.367 -1.037,0.673 -1.733,0.918 -0.697,0.244 -1.465,0.367 -2.306,0.367 -1.179,0 -2.111,-0.264 -2.801,-0.791 -0.687,-0.529 -1.032,-1.191 -1.032,-1.987 0,-0.75 0.329,-1.373 0.987,-1.869 0.657,-0.498 1.973,-0.937 3.948,-1.32 3.074,-0.612 5.353,-1.512 6.837,-2.697 1.485,-1.186 2.227,-2.819 2.227,-4.899 0,-2.234 -0.961,-4.058 -2.88,-5.474 -1.921,-1.414 -4.448,-2.122 -7.585,-2.122 -1.912,0 -3.668,0.279 -5.266,0.837 -1.599,0.558 -3.019,1.358 -4.257,2.398 l -0.07,5.577 h 4.682 l 0.918,-3.235 c 0.397,-0.338 0.94,-0.586 1.63,-0.746 0.687,-0.16 1.406,-0.242 2.156,-0.242 1.361,0 2.399,0.246 3.11,0.735 0.711,0.489 1.068,1.155 1.068,1.997 0,0.734 -0.361,1.369 -1.079,1.904 -0.72,0.535 -2.042,1.01 -3.97,1.423 -2.923,0.597 -5.13,1.48 -6.621,2.651 -1.492,1.17 -2.238,2.765 -2.238,4.785 0,2.081 0.857,3.874 2.57,5.381 1.714,1.506 4.154,2.26 7.321,2.26 1.928,0 3.752,-0.26 5.474,-0.779 1.721,-0.522 3.07,-1.187 4.051,-1.997 z"
             style="fill:#ffffff;fill-opacity:1;fill-rule:nonzero;stroke:none"
             id="path3875"
             inkscape:connector-curvature="0" /></g><g
           id="g3877"
           transform="translate(478.4506,94.0406)"><path
             d="m 0,0 c 0,-2.266 0.398,-4.082 1.193,-5.451 0.796,-1.369 2.081,-2.054 3.856,-2.054 1.728,0 2.995,0.689 3.799,2.066 0.802,1.377 1.205,3.189 1.205,5.439 v 0.481 c 0,2.204 -0.407,4.001 -1.217,5.394 C 8.025,7.267 6.748,7.963 5.004,7.963 3.26,7.963 1.989,7.267 1.193,5.875 0.398,4.482 0,2.685 0,0.481 Z m -6.701,0.481 c 0,3.703 1.037,6.736 3.11,9.099 2.073,2.365 4.938,3.547 8.595,3.547 3.672,0 6.543,-1.179 8.617,-3.535 C 15.693,7.236 16.73,4.199 16.73,0.481 V 0 c 0,-3.734 -1.037,-6.774 -3.109,-9.123 -2.074,-2.349 -4.931,-3.523 -8.572,-3.523 -3.688,0 -6.567,1.174 -8.64,3.523 -2.073,2.349 -3.11,5.389 -3.11,9.123 z"
             style="fill:#ffffff;fill-opacity:1;fill-rule:nonzero;stroke:none"
             id="path3879"
             inkscape:connector-curvature="0" /></g><g
           id="g3881"
           transform="translate(509.7533,86.5357)"><path
             d="M 0,0 C 1.193,0 2.15,0.348 2.869,1.044 3.588,1.74 3.947,2.669 3.947,3.833 h 6.059 L 10.075,3.694 C 10.137,1.186 9.195,-0.915 7.252,-2.604 5.309,-4.296 2.893,-5.141 0,-5.141 c -3.702,0 -6.556,1.171 -8.56,3.511 -2.004,2.342 -3.006,5.348 -3.006,9.02 v 0.688 c 0,3.656 1.029,6.663 3.087,9.019 2.057,2.356 4.991,3.535 8.801,3.535 2.004,0 3.801,-0.299 5.393,-0.896 1.591,-0.596 2.914,-1.438 3.971,-2.524 L 9.777,10.579 H 4.338 l -1.102,3.879 c -0.337,0.291 -0.75,0.531 -1.239,0.723 -0.489,0.191 -1.048,0.287 -1.675,0.287 -1.898,0 -3.236,-0.689 -4.016,-2.066 -0.781,-1.377 -1.171,-3.151 -1.171,-5.324 V 7.39 c 0,-2.219 0.359,-4.004 1.079,-5.36 C -3.067,0.677 -1.805,0 0,0"
             style="fill:#ffffff;fill-opacity:1;fill-rule:nonzero;stroke:none"
             id="path3883"
             inkscape:connector-curvature="0" /></g><path
           d="m 532.588,112.652 h -6.701 v 5.025 h 6.701 z m -9.936,-26.759 3.235,0.689 v 15.398 l -3.58,0.69 v 4.039 h 10.281 V 86.582 l 3.213,-0.689 v -4.016 h -13.149 z"
           style="fill:#ffffff;fill-opacity:1;fill-rule:nonzero;stroke:none"
           id="path3885"
           inkscape:connector-curvature="0" /><g
           id="g3887"
           transform="translate(549.2953,102.0035)"><path
             d="M 0,0 C -1.239,0 -2.219,-0.475 -2.938,-1.423 -3.657,-2.371 -4.101,-3.619 -4.269,-5.164 L -4.2,-5.278 h 8.217 v 0.596 c 0,1.423 -0.334,2.559 -0.998,3.409 C 2.353,-0.424 1.347,0 0,0 m 0.184,14.366 h 7.09 L 7.321,14.229 0.987,8.262 h -5.371 z m 0.413,-34.974 c -3.58,0 -6.442,1.147 -8.583,3.442 -2.142,2.295 -3.213,5.209 -3.213,8.744 v 0.918 c 0,3.687 1.012,6.724 3.04,9.11 2.027,2.387 4.747,3.573 8.159,3.558 3.351,0 5.951,-1.01 7.803,-3.029 1.85,-2.02 2.776,-4.751 2.776,-8.194 V -9.707 H -4.245 l -0.047,-0.139 c 0.123,-1.636 0.67,-2.982 1.641,-4.039 0.972,-1.054 2.291,-1.583 3.959,-1.583 1.484,0 2.715,0.15 3.695,0.448 0.978,0.297 2.05,0.768 3.213,1.411 l 1.812,-4.131 c -1.025,-0.811 -2.351,-1.491 -3.98,-2.042 -1.631,-0.551 -3.447,-0.826 -5.451,-0.826"
             style="fill:#ffffff;fill-opacity:1;fill-rule:nonzero;stroke:none"
             id="path3889"
             inkscape:connector-curvature="0" /></g><g
           id="g3891"
           transform="translate(572.933,112.7896)"><path
             d="m 0,0 v -6.081 h 4.359 v -4.705 H 0 v -12.645 c 0,-0.965 0.199,-1.652 0.597,-2.066 0.397,-0.412 0.932,-0.619 1.606,-0.619 0.459,0 0.86,0.019 1.205,0.056 0.344,0.039 0.731,0.104 1.158,0.196 l 0.575,-4.842 c -0.75,-0.23 -1.493,-0.402 -2.227,-0.516 -0.734,-0.115 -1.529,-0.173 -2.387,-0.173 -2.31,0 -4.088,0.635 -5.335,1.906 -1.247,1.269 -1.87,3.281 -1.87,6.035 v 12.668 h -3.649 v 4.705 h 3.649 V 0 Z"
             style="fill:#ffffff;fill-opacity:1;fill-rule:nonzero;stroke:none"
             id="path3893"
             inkscape:connector-curvature="0" /></g><g
           id="g3895"
           transform="translate(591.8647,102.0035)"><path
             d="M 0,0 C -1.238,0 -2.217,-0.475 -2.938,-1.423 -3.656,-2.371 -4.1,-3.619 -4.268,-5.164 l 0.069,-0.114 h 8.217 v 0.596 c 0,1.423 -0.334,2.559 -0.998,3.409 C 2.354,-0.424 1.348,0 0,0 M 0.184,14.366 H 7.275 L 7.322,14.229 0.988,8.262 h -5.371 z m 0.414,-34.974 c -3.58,0 -6.442,1.147 -8.584,3.442 -2.141,2.295 -3.213,5.209 -3.213,8.744 v 0.918 c 0,3.687 1.013,6.724 3.041,9.11 2.027,2.387 4.748,3.573 8.158,3.558 3.352,0 5.953,-1.01 7.803,-3.029 1.851,-2.02 2.777,-4.751 2.777,-8.194 V -9.707 H -4.244 l -0.047,-0.139 c 0.123,-1.636 0.67,-2.982 1.641,-4.039 0.972,-1.054 2.291,-1.583 3.959,-1.583 1.484,0 2.716,0.15 3.695,0.448 0.978,0.297 2.051,0.768 3.213,1.411 l 1.812,-4.131 c -1.025,-0.811 -2.351,-1.491 -3.98,-2.042 -1.631,-0.551 -3.447,-0.826 -5.451,-0.826"
             style="fill:#ffffff;fill-opacity:1;fill-rule:nonzero;stroke:none"
             id="path3897"
             inkscape:connector-curvature="0" /></g><path
           d="m 626.863,112.652 h -6.701 v 5.025 h 6.701 z m -9.936,-26.759 3.235,0.689 v 15.398 l -3.581,0.69 v 4.039 h 10.282 V 86.582 l 3.213,-0.689 v -4.016 h -13.149 z"
           style="fill:#ffffff;fill-opacity:1;fill-rule:nonzero;stroke:none"
           id="path3899"
           inkscape:connector-curvature="0" /><g
           id="g3901"
           transform="translate(643.937,86.5357)"><path
             d="M 0,0 C 1.193,0 2.15,0.348 2.869,1.044 3.588,1.74 3.947,2.669 3.947,3.833 h 6.059 l 0.07,-0.139 C 10.137,1.186 9.195,-0.915 7.252,-2.604 5.311,-4.296 2.893,-5.141 0,-5.141 c -3.701,0 -6.555,1.171 -8.559,3.511 -2.005,2.342 -3.007,5.348 -3.007,9.02 v 0.688 c 0,3.656 1.029,6.663 3.087,9.019 2.057,2.356 4.991,3.535 8.801,3.535 2.004,0 3.801,-0.299 5.393,-0.896 1.592,-0.596 2.914,-1.438 3.971,-2.524 L 9.777,10.579 H 4.338 l -1.102,3.879 c -0.336,0.291 -0.75,0.531 -1.238,0.723 -0.49,0.191 -1.049,0.287 -1.676,0.287 -1.896,0 -3.236,-0.689 -4.015,-2.066 -0.782,-1.377 -1.172,-3.151 -1.172,-5.324 V 7.39 c 0,-2.219 0.359,-4.004 1.08,-5.36 C -3.066,0.677 -1.805,0 0,0"
             style="fill:#ffffff;fill-opacity:1;fill-rule:nonzero;stroke:none"
             id="path3903"
             inkscape:connector-curvature="0" /></g><path
           d="m 666.771,112.652 h -6.701 v 5.025 h 6.701 z m -9.936,-26.759 3.235,0.689 v 15.398 l -3.58,0.69 v 4.039 h 10.281 V 86.582 l 3.213,-0.689 v -4.016 h -13.149 z"
           style="fill:#ffffff;fill-opacity:1;fill-rule:nonzero;stroke:none"
           id="path3905"
           inkscape:connector-curvature="0" /><g
           id="g3907"
           transform="translate(350.8681,238.0118)"><path
             d="m 0,0 v 26 h 24.875 v 6 h -32 V 0 Z"
             style="fill:#f25c19;fill-opacity:1;fill-rule:nonzero;stroke:none"
             id="path3909"
             inkscape:connector-curvature="0" /></g><g
           id="g3911"
           transform="translate(350.8681,62.0113)"><path
             d="m 0,0 h -7.125 v -32 h 32 v 6 H 0 Z"
             style="fill:#f25c19;fill-opacity:1;fill-rule:nonzero;stroke:none"
             id="path3913"
             inkscape:connector-curvature="0" /></g><g
           id="g3915"
           transform="translate(701.6186,237.5118)"><path
             d="m 0,0 h 7.125 v 32.5 h -33 v -6 H 0 Z"
             style="fill:#f25c19;fill-opacity:1;fill-rule:nonzero;stroke:none"
             id="path3917"
             inkscape:connector-curvature="0" /></g><g
           id="g3919"
           transform="translate(701.6186,61.5113)"><path
             d="m 0,0 v -25.5 h -25.875 v -6 h 33 V 0 Z"
             style="fill:#f25c19;fill-opacity:1;fill-rule:nonzero;stroke:none"
             id="path3921"
             inkscape:connector-curvature="0" /></g></g></g></g></svg>